<svg width="408" height="382" viewBox="0 0 408 382" fill="none" xmlns="http://www.w3.org/2000/svg">
<path d="M112.901 238.295C141.394 233.596 155.962 184.524 155.962 184.524L320.492 187.308C320.492 187.308 338.702 273.62 340.844 275.36C342.986 277.101 375.336 286.323 369.766 299.027C364.195 311.73 354.341 306.509 354.341 306.509C354.341 306.509 363.553 321.43 349.628 324.955C335.703 328.481 327.133 310.512 327.133 310.512C327.133 310.512 323.492 321.301 312.566 312.078C301.64 302.855 314.279 281.625 314.279 276.927C314.279 272.228 296.284 197.053 296.284 197.053H266.077C266.077 197.053 271.862 334.555 273.575 338.731C275.289 342.908 330.133 364.892 315.136 377.885C300.14 390.878 250.652 366.226 246.368 351.957C242.083 337.687 239.512 197.053 239.512 197.053H215.518C215.518 197.053 212.947 339.776 208.02 349.868C203.092 359.961 152.1 389.074 138.603 373.935C125.107 358.796 180.812 342.734 182.741 338.731C184.669 334.729 188.311 197.053 188.311 197.053H178.456C178.456 197.053 178.456 235.337 134.753 255.175C91.0491 275.012 57.2003 250.824 57.2003 250.824C57.2003 250.824 43.4892 261.787 31.2781 246.126C19.067 230.464 38.3478 222.285 38.3478 222.285C38.3478 222.285 0 222.807 0 208.364C0 193.921 34.9201 207.32 34.9201 207.32C34.9201 207.32 16.71 186.786 29.5641 180.173C42.4182 173.561 51.416 197.053 51.416 197.053C51.416 197.053 61.485 224.722 64.9127 227.158C68.3404 229.594 84.4079 242.993 112.901 238.295Z" fill="#0053FF"/>
<path d="M178.887 26.3543C208.465 -4.38543 254.298 -8.88742 281.257 16.2987C293.011 27.2797 299.236 42.0913 300.069 57.8534C334.971 43.8505 373.7 51.3345 394.171 78.6649C419.089 111.932 407.518 162.005 368.327 190.507C338.076 212.506 300.213 215.222 273.053 200.018C261.102 209.738 245.18 215.67 227.699 215.67C212.302 215.67 198.115 211.069 186.786 203.332C177.524 213.025 159.71 216.547 141.801 211.063C128.041 206.85 117.383 198.288 112.251 188.579C68.0349 173.422 40.7635 136.138 50.9603 103.805C61.4562 70.524 107.672 55.0903 154.187 69.3329C154.898 69.5506 155.605 69.7738 156.308 70.0028C158.961 54.5948 166.527 39.1999 178.887 26.3543Z" fill="white"/>
<path d="M176.727 154.762L178.557 150.174" stroke="#312783" stroke-width="6.55109" stroke-linecap="round"/>
<path d="M155.433 141.474L163.33 139.012" stroke="#312783" stroke-width="6.55109" stroke-linecap="round"/>
<path d="M181.731 142.17C188.56 144.104 195.385 141.535 195.385 141.535L170.126 125.314C170.126 125.314 174.902 140.237 181.731 142.17Z" fill="#312783" stroke="#312783" stroke-width="7.09701" stroke-linecap="round"/>
<path d="M215.824 156.02C215.824 156.02 210.474 141.942 187.969 127.844C165.463 113.746 151.71 116.638 151.71 116.638" stroke="#312783" stroke-width="9.82663" stroke-linecap="round"/>
<path d="M284.611 154.316L282.781 149.729" stroke="#312783" stroke-width="6.55109" stroke-linecap="round"/>
<path d="M305.901 141.029L298.004 138.566" stroke="#312783" stroke-width="6.55109" stroke-linecap="round"/>
<path d="M279.603 141.725C272.774 143.659 265.949 141.09 265.949 141.09L291.208 124.869C291.208 124.869 286.432 139.792 279.603 141.725Z" fill="#312783" stroke="#312783" stroke-width="7.09701" stroke-linecap="round"/>
<path d="M245.514 155.574C245.514 155.574 250.864 141.496 273.369 127.399C295.875 113.301 309.628 116.192 309.628 116.192" stroke="#312783" stroke-width="9.82663" stroke-linecap="round"/>
</svg>
