<svg width="383" height="388" viewBox="0 0 383 388" fill="none" xmlns="http://www.w3.org/2000/svg">
<path d="M126.443 154.871C126.443 154.871 83.6654 244.366 65.9088 259.829C48.1523 275.293 47.7676 269.26 36.288 265.76C24.8084 262.26 14.9483 271.083 15.3052 278.31C15.6622 285.537 25.1188 292.313 25.1188 292.313C25.1188 292.313 5.4704 300.661 16.6612 310.987C27.8521 321.313 41.5619 308.284 41.5619 308.284C42.4369 313.606 46.7034 326.01 58.6229 317.637C67.3536 311.503 61.7649 301.604 70.4822 288.539C79.1938 275.483 148.945 187.179 148.994 187.133L159.774 192.09L163.109 186.346L126.443 154.871Z" fill="#0053FF"/>
<path d="M333.35 237.5C340.208 202.721 305.812 161.915 305.812 161.915L329.429 176C329.429 176 376.698 223.935 360.778 254.072C344.858 284.209 256.43 279.742 256.43 279.742C256.43 279.742 269.666 283.463 272.36 293.995C275.054 304.527 260.114 301.098 260.114 301.098C260.114 301.098 265.371 321.409 256.43 321.671C247.49 321.933 241.017 307.145 241.017 307.145L241.023 278.769C241.023 278.769 241.819 261.463 249.068 259.716C256.317 257.97 326.492 272.279 333.35 237.5Z" fill="#0053FF"/>
<path d="M240.176 209.557L240.857 215.644L240.579 215.617C240.579 215.617 240.334 346.281 247.927 353.266C252.484 357.459 264.19 359.001 274.091 360.305C280.686 361.174 286.48 361.937 288.829 363.308C294.708 366.737 305.974 376.779 298.627 382.412C291.279 388.046 243.763 387.311 236.17 385.107C228.577 382.902 223.434 379.718 221.72 369.921C220.005 360.124 215.107 217.577 215.107 217.577H194.533C194.533 217.577 192.328 361.839 188.41 372.37C184.491 382.902 178.368 384.862 170.775 386.331C163.182 387.801 116.646 389.707 112.727 385.107C108.808 380.506 108.808 370.961 118.85 364.043C123.755 360.665 131.579 360.119 139.586 359.56C147.975 358.975 156.563 358.375 162.202 354.491C173.224 346.898 169.795 215.617 169.795 215.617L161.658 182.256V173.316L240.176 209.557Z" fill="#0053FF"/>
<path d="M153.887 26.3546C183.466 -4.38556 229.299 -8.88749 256.258 16.299C268.012 27.28 274.236 42.0916 275.069 57.8536C309.971 43.8504 348.701 51.3346 369.172 78.6652C394.09 111.932 382.518 162.006 343.327 190.507C313.077 212.506 275.214 215.222 248.054 200.019C236.103 209.738 220.181 215.67 202.7 215.67C187.303 215.67 173.116 211.069 161.786 203.332C152.525 213.026 134.71 216.547 116.801 211.064C103.042 206.85 92.3844 198.288 87.2523 188.579C43.0356 173.422 15.7634 136.139 25.9603 103.805C36.456 70.524 82.6728 55.0905 129.188 69.3331C129.899 69.5509 130.606 69.775 131.309 70.004C133.962 54.5957 141.527 39.2004 153.887 26.3546Z" fill="white"/>
<path d="M151.723 154.762L153.553 150.174" stroke="#312783" stroke-width="6.55109" stroke-linecap="round"/>
<path d="M130.429 141.474L138.326 139.012" stroke="#312783" stroke-width="6.55109" stroke-linecap="round"/>
<path d="M156.727 142.17C163.556 144.104 170.381 141.535 170.381 141.535L145.122 125.314C145.122 125.314 149.898 140.237 156.727 142.17Z" fill="#312783" stroke="#312783" stroke-width="7.09701" stroke-linecap="round"/>
<path d="M190.82 156.02C190.82 156.02 185.47 141.942 162.965 127.844C140.459 113.746 126.706 116.638 126.706 116.638" stroke="#312783" stroke-width="9.82663" stroke-linecap="round"/>
<path d="M259.607 154.316L257.777 149.729" stroke="#312783" stroke-width="6.55109" stroke-linecap="round"/>
<path d="M280.897 141.029L273 138.566" stroke="#312783" stroke-width="6.55109" stroke-linecap="round"/>
<path d="M254.599 141.725C247.77 143.659 240.946 141.09 240.946 141.09L266.204 124.869C266.204 124.869 261.428 139.792 254.599 141.725Z" fill="#312783" stroke="#312783" stroke-width="7.09701" stroke-linecap="round"/>
<path d="M220.51 155.574C220.51 155.574 225.86 141.496 248.365 127.399C270.871 113.301 284.624 116.192 284.624 116.192" stroke="#312783" stroke-width="9.82663" stroke-linecap="round"/>
</svg>
