<svg width="350" height="394" viewBox="0 0 350 394" fill="none" xmlns="http://www.w3.org/2000/svg">
<path d="M117.936 176.309C117.936 176.309 78.0367 259.783 61.4748 274.206C44.913 288.629 44.5542 283.003 33.8469 279.738C23.1397 276.473 13.943 284.703 14.2759 291.444C14.6088 298.185 23.4292 304.505 23.4292 304.505C23.4292 304.505 5.10279 312.291 15.5407 321.922C25.9786 331.553 38.7659 319.401 38.7659 319.401C39.5821 324.365 43.5616 335.934 54.6791 328.124C62.8224 322.404 57.6097 313.17 65.7405 300.985C73.866 288.807 138.924 206.444 138.97 206.402L149.024 211.025L152.135 205.667L117.936 176.309Z" fill="#0053FF"/>
<path d="M307.265 248.737C313.661 216.297 285.238 182.884 285.238 182.884L307.265 177.165C307.265 177.165 351.355 240.731 336.506 268.84C321.657 296.95 239.179 292.783 239.179 292.783C239.179 292.783 251.524 296.254 254.037 306.077C256.55 315.9 242.614 312.702 242.614 312.702C242.614 312.702 247.518 331.647 239.179 331.892C230.84 332.136 224.802 318.343 224.802 318.343L224.809 291.876C224.809 291.876 225.55 275.734 232.312 274.105C239.074 272.476 300.868 281.176 307.265 248.737Z" fill="#0053FF"/>
<path d="M224.011 227.322L224.647 232.998L224.387 232.974C224.387 232.974 224.159 354.846 231.241 361.361C235.492 365.272 246.41 366.71 255.645 367.927C261.795 368.737 267.2 369.449 269.391 370.728C274.874 373.926 285.383 383.292 278.529 388.547C271.676 393.801 227.357 393.116 220.275 391.06C213.193 389.004 208.396 386.034 206.797 376.896C205.198 367.758 200.629 234.801 200.629 234.801H181.439C181.439 234.801 179.383 369.357 175.728 379.18C172.073 389.004 166.362 390.831 159.28 392.202C152.198 393.573 108.793 395.35 105.138 391.06C101.482 386.769 101.482 377.865 110.849 371.413C115.423 368.262 122.721 367.753 130.19 367.232C138.014 366.686 146.024 366.127 151.284 362.504C161.564 355.422 158.366 232.974 158.366 232.974L150.776 233.648V225.311L224.011 227.322Z" fill="#0053FF"/>
<path d="M181.646 18.2662C225.967 4.48276 271.029 21.2193 282.295 55.6483C284.94 63.7315 285.485 72.0712 284.2 80.2799C305.989 85.1824 325.982 102.535 335.531 127.693C349.782 165.244 335.367 205.962 303.335 218.639C287.709 224.822 270.778 223.189 255.878 215.537C241.696 229.79 217.108 240.85 188.27 244.181C140.73 249.674 99.6459 232.09 96.5053 204.907C95.9835 200.39 96.5421 195.892 98.0548 191.507C93.6553 189.168 89.3136 186.494 85.0805 183.484C47.0304 156.427 32.1038 112.497 51.7406 85.365C65.9007 65.8005 94.1659 60.3137 123.098 68.9191C131.476 46.8346 152.867 27.2165 181.646 18.2662Z" fill="white"/>
<path d="M146.604 163.803L148.242 159.695" stroke="#312783" stroke-width="5.86521" stroke-linecap="round"/>
<path d="M127.535 151.908L134.605 149.703" stroke="#312783" stroke-width="5.86521" stroke-linecap="round"/>
<path d="M151.082 152.533C157.196 154.264 163.306 151.964 163.306 151.964L140.692 137.441C140.692 137.441 144.968 150.801 151.082 152.533Z" fill="#312783" stroke="#312783" stroke-width="6.35398" stroke-linecap="round"/>
<path d="M181.607 164.931C181.607 164.931 176.817 152.327 156.668 139.705C136.518 127.083 124.205 129.672 124.205 129.672" stroke="#312783" stroke-width="8.79782" stroke-linecap="round"/>
<path d="M243.708 163.406L242.07 159.299" stroke="#312783" stroke-width="5.86521" stroke-linecap="round"/>
<path d="M262.77 151.509L255.699 149.305" stroke="#312783" stroke-width="5.86521" stroke-linecap="round"/>
<path d="M239.223 152.132C233.109 153.863 226.999 151.563 226.999 151.563L249.613 137.04C249.613 137.04 245.337 150.401 239.223 152.132Z" fill="#312783" stroke="#312783" stroke-width="6.35398" stroke-linecap="round"/>
<path d="M208.706 164.532C208.706 164.532 213.495 151.929 233.645 139.307C253.794 126.685 266.107 129.274 266.107 129.274" stroke="#312783" stroke-width="8.79782" stroke-linecap="round"/>
</svg>
