<svg width="400" height="425" viewBox="0 0 400 425" fill="none" xmlns="http://www.w3.org/2000/svg">
<path d="M112.901 281.641C141.394 276.942 155.962 227.87 155.962 227.87L320.492 230.654C320.492 230.654 338.702 316.966 340.844 318.706C342.986 320.446 375.336 329.669 369.766 342.372C364.195 355.075 354.341 349.855 354.341 349.855C354.341 349.855 363.553 364.775 349.628 368.301C335.703 371.826 327.133 353.857 327.133 353.857C327.133 353.857 323.492 364.646 312.566 355.424C301.64 346.201 314.279 324.971 314.279 320.272C314.279 315.574 296.284 240.399 296.284 240.399H266.077C266.077 240.399 271.862 377.901 273.575 382.077C275.289 386.253 330.133 408.238 315.136 421.231C300.14 434.224 250.652 409.572 246.368 395.302C242.083 381.033 239.512 240.399 239.512 240.399H215.518C215.518 240.399 212.947 383.121 208.02 393.214C203.092 403.307 152.1 432.42 138.603 417.281C125.107 402.141 180.812 386.079 182.741 382.077C184.669 378.075 188.311 240.399 188.311 240.399H178.456C178.456 240.399 178.456 278.682 134.753 298.52C91.0491 318.358 57.2003 294.17 57.2003 294.17C57.2003 294.17 43.4892 305.133 31.2781 289.471C19.067 273.81 38.3478 265.631 38.3478 265.631C38.3478 265.631 0 266.153 0 251.71C0 237.266 34.9201 250.666 34.9201 250.666C34.9201 250.666 16.71 230.132 29.5641 223.519C42.4182 216.907 51.416 240.399 51.416 240.399C51.416 240.399 61.485 268.067 64.9127 270.504C68.3404 272.94 84.4079 286.339 112.901 281.641Z" fill="#0053FF"/>
<path d="M120.411 85.9053C126.22 55.033 165.871 36.2783 208.974 44.0155C228.21 47.4686 244.883 55.6147 256.932 66.3211C299.628 55.4188 343.831 73.097 362.266 111.361C381.041 150.334 366.882 197.787 330.859 225.326C330.809 242.949 322.879 259.137 308.297 267.565C289.921 278.186 266.524 273.279 250.078 257.162C243.188 260.358 235.701 263.094 227.755 265.226C184.405 276.863 143.867 266.203 137.213 241.414C136.107 237.295 136.007 233.046 136.807 228.769C132.404 227.204 128.008 225.321 123.666 223.11C84.6405 203.242 64.7475 164.539 79.2333 136.664C87.131 121.467 103.617 112.625 123.304 110.946C119.941 102.898 118.816 94.3859 120.411 85.9053Z" fill="white"/>
<path d="M174.848 189.281L176.664 184.727" stroke="#312783" stroke-width="6.50405" stroke-linecap="round"/>
<path d="M153.699 176.087L161.539 173.643" stroke="#312783" stroke-width="6.50405" stroke-linecap="round"/>
<path d="M179.813 176.779C186.593 178.699 193.369 176.149 193.369 176.149L168.292 160.044C168.292 160.044 173.033 174.86 179.813 176.779Z" fill="#312783" stroke="#312783" stroke-width="7.04605" stroke-linecap="round"/>
<path d="M213.658 190.53C213.658 190.53 208.346 176.553 186.002 162.556C163.658 148.56 150.004 151.431 150.004 151.431" stroke="#312783" stroke-width="9.75607" stroke-linecap="round"/>
<path d="M280.938 188.838L279.121 184.283" stroke="#312783" stroke-width="6.50405" stroke-linecap="round"/>
<path d="M302.075 175.648L294.234 173.203" stroke="#312783" stroke-width="6.50405" stroke-linecap="round"/>
<path d="M275.96 176.336C269.18 178.256 262.404 175.705 262.404 175.705L287.482 159.601C287.482 159.601 282.74 174.417 275.96 176.336Z" fill="#312783" stroke="#312783" stroke-width="7.04605" stroke-linecap="round"/>
<path d="M242.124 190.088C242.124 190.088 247.435 176.112 269.779 162.115C292.123 148.118 305.777 150.989 305.777 150.989" stroke="#312783" stroke-width="9.75607" stroke-linecap="round"/>
</svg>
