<svg width="375" height="426" viewBox="0 0 375 426" fill="none" xmlns="http://www.w3.org/2000/svg">
<path d="M117.936 207.667C117.936 207.667 78.0367 291.141 61.4748 305.564C44.913 319.987 44.5542 314.36 33.8469 311.095C23.1397 307.831 13.943 316.061 14.2759 322.801C14.6088 329.542 23.4292 335.862 23.4292 335.862C23.4292 335.862 5.10279 343.649 15.5407 353.28C25.9786 362.911 38.7659 350.758 38.7659 350.758C39.5821 355.723 43.5616 367.292 54.6791 359.482C62.8224 353.761 57.6097 344.528 65.7405 332.342C73.866 320.165 138.924 237.802 138.97 237.759L149.024 242.383L152.135 237.025L117.936 207.667Z" fill="#0053FF"/>
<path d="M307.265 280.092C313.661 247.653 285.238 214.239 285.238 214.239L307.265 208.521C307.265 208.521 351.355 272.086 336.506 300.196C321.657 328.305 239.179 324.138 239.179 324.138C239.179 324.138 251.524 327.609 254.037 337.432C256.55 347.256 242.614 344.057 242.614 344.057C242.614 344.057 247.518 363.003 239.179 363.247C230.84 363.491 224.802 349.698 224.802 349.698L224.809 323.231C224.809 323.231 225.55 307.089 232.312 305.46C239.074 303.832 300.868 312.532 307.265 280.092Z" fill="#0053FF"/>
<path d="M224.011 258.677L224.647 264.354L224.387 264.329C224.387 264.329 224.159 386.202 231.241 392.717C235.492 396.628 246.41 398.066 255.645 399.282C261.795 400.093 267.2 400.805 269.391 402.083C274.874 405.281 285.383 414.648 278.529 419.902C271.676 425.156 227.357 424.471 220.275 422.415C213.193 420.359 208.396 417.389 206.797 408.251C205.198 399.113 200.629 266.157 200.629 266.157H181.439C181.439 266.157 179.383 400.712 175.728 410.536C172.073 420.359 166.362 422.187 159.28 423.557C152.198 424.928 108.793 426.706 105.138 422.415C101.482 418.124 101.482 409.221 110.849 402.769C115.423 399.617 122.721 399.108 130.19 398.587C138.014 398.041 146.024 397.482 151.284 393.859C161.564 386.777 158.366 264.329 158.366 264.329L150.776 265.004V256.666L224.011 258.677Z" fill="#0053FF"/>
<path d="M95.076 85.9032C100.885 55.031 140.535 36.2762 183.638 44.0134C202.874 47.4664 219.547 55.6127 231.597 66.3189C274.293 55.4168 318.495 73.096 336.93 111.36C355.705 150.333 341.546 197.784 305.524 225.324C305.474 242.947 297.544 259.136 282.962 267.564C264.586 278.185 241.187 273.278 224.741 257.161C217.851 260.356 210.364 263.093 202.419 265.225C159.069 276.862 118.532 266.201 111.878 241.413C110.772 237.294 110.672 233.044 111.472 228.767C107.068 227.202 102.673 225.318 98.3309 223.108C59.3053 203.24 39.4113 164.537 53.897 136.662C61.7948 121.465 78.2817 112.623 97.9689 110.945C94.6053 102.897 93.4803 94.384 95.076 85.9032Z" fill="white"/>
<path d="M149.848 188.031L151.664 183.477" stroke="#312783" stroke-width="6.50405" stroke-linecap="round"/>
<path d="M128.699 174.837L136.539 172.393" stroke="#312783" stroke-width="6.50405" stroke-linecap="round"/>
<path d="M154.813 175.529C161.593 177.449 168.369 174.899 168.369 174.899L143.292 158.794C143.292 158.794 148.033 173.61 154.813 175.529Z" fill="#312783" stroke="#312783" stroke-width="7.04605" stroke-linecap="round"/>
<path d="M188.658 189.28C188.658 189.28 183.346 175.303 161.002 161.306C138.658 147.31 125.004 150.181 125.004 150.181" stroke="#312783" stroke-width="9.75607" stroke-linecap="round"/>
<path d="M255.934 187.588L254.117 183.033" stroke="#312783" stroke-width="6.50405" stroke-linecap="round"/>
<path d="M277.071 174.398L269.23 171.953" stroke="#312783" stroke-width="6.50405" stroke-linecap="round"/>
<path d="M250.956 175.086C244.176 177.006 237.401 174.455 237.401 174.455L262.478 158.351C262.478 158.351 257.736 173.167 250.956 175.086Z" fill="#312783" stroke="#312783" stroke-width="7.04605" stroke-linecap="round"/>
<path d="M217.12 188.838C217.12 188.838 222.431 174.862 244.775 160.865C267.119 146.868 280.774 149.739 280.774 149.739" stroke="#312783" stroke-width="9.75607" stroke-linecap="round"/>
</svg>
