<svg width="383" height="388" viewBox="0 0 383 388" fill="none" xmlns="http://www.w3.org/2000/svg">
<path d="M126.445 154.869C126.445 154.869 83.6674 244.364 65.9108 259.827C48.1542 275.291 47.7696 269.258 36.29 265.758C24.8103 262.258 14.9502 271.081 15.3072 278.308C15.6641 285.535 25.1208 292.311 25.1208 292.311C25.1208 292.311 5.47235 300.659 16.6632 310.985C27.854 321.311 41.5638 308.282 41.5638 308.282C42.4388 313.604 46.7054 326.008 58.6249 317.635C67.3556 311.501 61.7668 301.602 70.4841 288.537C79.1958 275.481 148.947 187.177 148.996 187.131L159.776 192.088L163.111 186.344L126.445 154.869Z" fill="#0053FF"/>
<path d="M333.352 237.5C340.21 202.721 305.814 161.915 305.814 161.915L329.431 176C329.431 176 376.7 223.935 360.78 254.072C344.86 284.209 256.432 279.742 256.432 279.742C256.432 279.742 269.668 283.463 272.362 293.995C275.056 304.527 260.116 301.098 260.116 301.098C260.116 301.098 265.373 321.409 256.432 321.671C247.492 321.933 241.019 307.145 241.019 307.145L241.025 278.769C241.025 278.769 241.82 261.463 249.07 259.716C256.319 257.97 326.494 272.279 333.352 237.5Z" fill="#0053FF"/>
<path d="M240.18 209.557L240.861 215.644L240.583 215.617C240.583 215.617 240.338 346.281 247.931 353.266C252.488 357.459 264.194 359.001 274.095 360.305C280.689 361.174 286.484 361.937 288.833 363.308C294.712 366.737 305.978 376.779 298.63 382.412C291.283 388.046 243.767 387.311 236.174 385.107C228.581 382.902 223.438 379.718 221.723 369.921C220.009 360.124 215.11 217.577 215.11 217.577H194.537C194.537 217.577 192.332 361.839 188.413 372.37C184.495 382.902 178.371 384.862 170.779 386.331C163.186 387.801 116.65 389.707 112.731 385.107C108.812 380.506 108.812 370.961 118.854 364.043C123.758 360.665 131.583 360.119 139.59 359.56C147.979 358.975 156.567 358.375 162.206 354.491C173.228 346.898 169.799 215.617 169.799 215.617L161.662 182.256V173.316L240.18 209.557Z" fill="#0053FF"/>
<path d="M153.891 26.3547C183.469 -4.38551 229.303 -8.88755 256.262 16.299C268.016 27.28 274.24 42.0916 275.073 57.8537C309.975 43.8506 348.704 51.3347 369.175 78.6652C394.093 111.932 382.522 162.006 343.331 190.507C313.081 212.506 275.217 215.222 248.057 200.019C236.106 209.738 220.185 215.67 202.703 215.67C187.307 215.67 173.12 211.069 161.79 203.332C152.529 213.026 134.714 216.547 116.805 211.064C103.045 206.85 92.3872 198.288 87.2552 188.578C43.039 173.421 15.7674 136.139 25.9642 103.805C36.4598 70.5241 82.6758 55.0907 129.191 69.3332C129.902 69.551 130.61 69.775 131.313 70.0041C133.966 54.5957 141.531 39.2005 153.891 26.3547Z" fill="white"/>
<path d="M151.729 154.762L153.559 150.174" stroke="#312783" stroke-width="6.55109" stroke-linecap="round"/>
<path d="M130.431 141.474L138.328 139.012" stroke="#312783" stroke-width="6.55109" stroke-linecap="round"/>
<path d="M156.733 142.17C163.562 144.104 170.387 141.535 170.387 141.535L145.128 125.314C145.128 125.314 149.904 140.237 156.733 142.17Z" fill="#312783" stroke="#312783" stroke-width="7.09701" stroke-linecap="round"/>
<path d="M190.824 156.02C190.824 156.02 185.474 141.942 162.969 127.844C140.463 113.746 126.71 116.638 126.71 116.638" stroke="#312783" stroke-width="9.82663" stroke-linecap="round"/>
<path d="M259.611 154.316L257.781 149.729" stroke="#312783" stroke-width="6.55109" stroke-linecap="round"/>
<path d="M280.901 141.029L273.004 138.566" stroke="#312783" stroke-width="6.55109" stroke-linecap="round"/>
<path d="M254.603 141.725C247.774 143.659 240.949 141.09 240.949 141.09L266.208 124.869C266.208 124.869 261.432 139.792 254.603 141.725Z" fill="#312783" stroke="#312783" stroke-width="7.09701" stroke-linecap="round"/>
<path d="M220.516 155.574C220.516 155.574 225.865 141.496 248.371 127.399C270.877 113.301 284.63 116.192 284.63 116.192" stroke="#312783" stroke-width="9.82663" stroke-linecap="round"/>
</svg>
