<svg width="383" height="388" viewBox="0 0 383 388" fill="none" xmlns="http://www.w3.org/2000/svg">
<path d="M126.445 154.871C126.445 154.871 83.6674 244.366 65.9108 259.829C48.1542 275.293 47.7696 269.26 36.29 265.76C24.8103 262.26 14.9502 271.083 15.3072 278.31C15.6641 285.537 25.1208 292.313 25.1208 292.313C25.1208 292.313 5.47235 300.661 16.6632 310.987C27.854 321.313 41.5638 308.284 41.5638 308.284C42.4388 313.606 46.7054 326.01 58.6249 317.637C67.3556 311.503 61.7668 301.604 70.4841 288.539C79.1958 275.483 148.947 187.179 148.996 187.133L159.776 192.09L163.111 186.346L126.445 154.871Z" fill="#0053FF"/>
<path d="M333.352 237.5C340.21 202.721 305.814 161.915 305.814 161.915L329.431 176C329.431 176 376.7 223.935 360.78 254.072C344.86 284.209 256.432 279.742 256.432 279.742C256.432 279.742 269.668 283.463 272.362 293.995C275.056 304.527 260.116 301.098 260.116 301.098C260.116 301.098 265.373 321.409 256.432 321.671C247.492 321.933 241.019 307.145 241.019 307.145L241.025 278.769C241.025 278.769 241.82 261.463 249.07 259.716C256.319 257.97 326.494 272.279 333.352 237.5Z" fill="#0053FF"/>
<path d="M240.18 209.557L240.861 215.644L240.583 215.617C240.583 215.617 240.338 346.281 247.931 353.266C252.488 357.459 264.194 359.001 274.095 360.305C280.689 361.174 286.484 361.937 288.833 363.308C294.712 366.737 305.978 376.779 298.63 382.412C291.283 388.046 243.767 387.311 236.174 385.107C228.581 382.902 223.438 379.718 221.723 369.921C220.009 360.124 215.11 217.577 215.11 217.577H194.537C194.537 217.577 192.332 361.839 188.413 372.37C184.495 382.902 178.371 384.862 170.779 386.331C163.186 387.801 116.65 389.707 112.731 385.107C108.812 380.506 108.812 370.961 118.854 364.043C123.758 360.665 131.583 360.119 139.59 359.56C147.979 358.975 156.567 358.375 162.206 354.491C173.228 346.898 169.799 215.617 169.799 215.617L161.662 182.256V173.316L240.18 209.557Z" fill="#0053FF"/>
<path d="M153.887 26.3546C183.466 -4.38556 229.299 -8.88749 256.258 16.299C268.012 27.28 274.236 42.0916 275.069 57.8536C309.971 43.8504 348.701 51.3346 369.172 78.6652C394.09 111.932 382.518 162.006 343.327 190.507C313.077 212.506 275.214 215.222 248.054 200.019C236.103 209.738 220.181 215.67 202.7 215.67C187.303 215.67 173.116 211.069 161.786 203.332C152.525 213.026 134.71 216.547 116.801 211.064C103.042 206.85 92.3844 198.288 87.2523 188.579C43.0356 173.422 15.7634 136.139 25.9603 103.805C36.456 70.524 82.6728 55.0905 129.188 69.3331C129.899 69.5509 130.606 69.775 131.309 70.004C133.962 54.5957 141.527 39.2004 153.887 26.3546Z" fill="white"/>
<path d="M220.014 148.423C220.014 148.423 219.78 122.057 240.161 113.076C260.542 104.095 279.125 120.515 279.125 120.515" stroke="#312783" stroke-width="7.3255" stroke-linecap="round"/>
<ellipse cx="245.503" cy="127.554" rx="19.9162" ry="17.8709" transform="rotate(-16.2061 245.503 127.554)" fill="#312783"/>
<path d="M261.558 151.152L260.023 147.305" stroke="#312783" stroke-width="5.49413" stroke-linecap="round"/>
<path d="M279.416 140.009L272.793 137.943" stroke="#312783" stroke-width="5.49413" stroke-linecap="round"/>
<path d="M183.654 148.423C183.654 148.423 183.888 122.057 163.507 113.076C143.126 104.095 124.543 120.515 124.543 120.515" stroke="#312783" stroke-width="7.3255" stroke-linecap="round"/>
<ellipse cx="19.9162" cy="17.8709" rx="19.9162" ry="17.8709" transform="matrix(-0.960264 -0.279093 -0.279093 0.960264 182.281 115.951)" fill="#312783"/>
<path d="M142.11 151.152L143.645 147.305" stroke="#312783" stroke-width="5.49413" stroke-linecap="round"/>
<path d="M124.252 140.009L130.875 137.943" stroke="#312783" stroke-width="5.49413" stroke-linecap="round"/>
</svg>
