<svg width="383" height="388" viewBox="0 0 383 388" fill="none" xmlns="http://www.w3.org/2000/svg">
<path d="M126.445 154.871C126.445 154.871 83.6674 244.366 65.9108 259.829C48.1542 275.293 47.7696 269.26 36.29 265.76C24.8103 262.26 14.9502 271.083 15.3072 278.31C15.6641 285.537 25.1208 292.313 25.1208 292.313C25.1208 292.313 5.47235 300.661 16.6632 310.987C27.854 321.313 41.5638 308.284 41.5638 308.284C42.4388 313.606 46.7054 326.01 58.6249 317.637C67.3556 311.503 61.7668 301.604 70.4841 288.539C79.1958 275.483 148.947 187.179 148.996 187.133L159.776 192.09L163.111 186.346L126.445 154.871Z" fill="#0053FF"/>
<path d="M333.352 237.5C340.21 202.721 305.814 161.915 305.814 161.915L329.431 176C329.431 176 376.7 223.935 360.78 254.072C344.86 284.209 256.432 279.742 256.432 279.742C256.432 279.742 269.668 283.463 272.362 293.995C275.056 304.527 260.116 301.098 260.116 301.098C260.116 301.098 265.373 321.409 256.432 321.671C247.492 321.933 241.019 307.145 241.019 307.145L241.025 278.769C241.025 278.769 241.82 261.463 249.07 259.716C256.319 257.97 326.494 272.279 333.352 237.5Z" fill="#0053FF"/>
<path d="M240.176 209.557L240.857 215.644L240.579 215.617C240.579 215.617 240.334 346.281 247.927 353.266C252.484 357.459 264.19 359.001 274.091 360.305C280.686 361.174 286.48 361.937 288.829 363.308C294.708 366.737 305.974 376.779 298.627 382.412C291.279 388.046 243.763 387.311 236.17 385.107C228.577 382.902 223.434 379.718 221.72 369.921C220.005 360.124 215.107 217.577 215.107 217.577H194.533C194.533 217.577 192.328 361.839 188.41 372.37C184.491 382.902 178.368 384.862 170.775 386.331C163.182 387.801 116.646 389.707 112.727 385.107C108.808 380.506 108.808 370.961 118.85 364.043C123.755 360.665 131.579 360.119 139.586 359.56C147.975 358.975 156.563 358.375 162.202 354.491C173.224 346.898 169.795 215.617 169.795 215.617L161.658 182.256V173.316L240.176 209.557Z" fill="#0053FF"/>
<path d="M153.887 26.3543C183.465 -4.38543 229.298 -8.88742 256.257 16.2987C268.011 27.2797 274.236 42.0913 275.069 57.8534C309.971 43.8505 348.7 51.3345 369.171 78.6649C394.089 111.932 382.518 162.005 343.327 190.507C313.076 212.506 275.213 215.222 248.053 200.018C236.102 209.738 220.18 215.67 202.699 215.67C187.302 215.67 173.115 211.069 161.786 203.332C152.524 213.025 134.71 216.547 116.801 211.063C103.041 206.85 92.3835 198.288 87.2513 188.579C43.0349 173.422 15.7635 136.138 25.9603 103.805C36.4562 70.524 82.672 55.0903 129.187 69.3329C129.898 69.5506 130.605 69.7738 131.308 70.0028C133.961 54.5948 141.527 39.1999 153.887 26.3543Z" fill="white"/>
<path d="M251.652 136.095C242.864 138.399 235.75 133.878 235.75 133.878L266.169 119.826C266.169 119.826 260.441 133.791 251.652 136.095Z" fill="#312783" stroke="#312783" stroke-width="6.90195" stroke-linecap="round"/>
<path d="M219.365 146.855C219.365 146.855 223.864 131.646 246.147 121.826C268.43 112.007 283.994 116.342 283.994 116.342" stroke="#312783" stroke-width="8.4947" stroke-linecap="round"/>
<path d="M234.805 153.281C234.474 153.029 234.166 152.735 233.965 152.379C233.764 152.024 233.685 151.636 233.754 151.265C233.823 150.893 234.034 150.559 234.35 150.299C234.665 150.039 235.057 149.874 235.457 149.757C235.457 149.757 235.457 149.757 235.457 149.757C236.139 149.468 236.96 149.189 237.698 148.919C240.705 147.836 243.476 147.019 246.273 146.554C250.361 145.867 254.342 144.681 258.166 142.962C263.682 140.441 269.056 137.391 273.197 133.022C273.678 132.513 274.193 131.862 274.507 131.463C274.734 131.082 275.072 130.764 275.49 130.594C275.908 130.425 276.366 130.417 276.774 130.576C277.183 130.735 277.515 131.051 277.708 131.458C277.902 131.865 277.936 132.329 277.846 132.763C277.846 132.763 277.846 132.763 277.846 132.763C277.535 133.831 277.229 134.564 276.849 135.392C273.691 141.952 268.2 146.887 262.27 150.584C257.888 153.29 252.95 155.128 247.855 155.98C244.364 156.566 240.688 156.14 237.315 154.641C236.461 154.262 235.685 153.833 234.805 153.281Z" fill="#312783"/>
<path d="M157.344 136.095C166.132 138.399 173.247 133.878 173.247 133.878L142.827 119.826C142.827 119.826 148.556 133.791 157.344 136.095Z" fill="#312783" stroke="#312783" stroke-width="6.90195" stroke-linecap="round"/>
<path d="M189.631 146.855C189.631 146.855 185.133 131.646 162.849 121.826C140.566 112.007 125.002 116.342 125.002 116.342" stroke="#312783" stroke-width="8.4947" stroke-linecap="round"/>
<path d="M174.191 153.281C174.522 153.029 174.83 152.735 175.031 152.379C175.232 152.024 175.311 151.636 175.242 151.265C175.173 150.893 174.962 150.559 174.647 150.299C174.331 150.039 173.939 149.874 173.54 149.757C173.54 149.757 173.54 149.757 173.54 149.757C172.858 149.468 172.036 149.189 171.298 148.919C168.291 147.836 165.521 147.019 162.723 146.554C158.635 145.867 154.655 144.681 150.83 142.962C145.314 140.441 139.941 137.391 135.799 133.022C135.318 132.513 134.803 131.862 134.489 131.463C134.262 131.082 133.924 130.764 133.506 130.594C133.088 130.425 132.63 130.417 132.222 130.576C131.813 130.735 131.481 131.051 131.288 131.458C131.094 131.865 131.06 132.329 131.15 132.763C131.15 132.763 131.15 132.763 131.15 132.763C131.462 133.831 131.767 134.564 132.148 135.392C135.305 141.952 140.796 146.887 146.726 150.584C151.108 153.29 156.046 155.128 161.141 155.98C164.633 156.566 168.308 156.14 171.681 154.641C172.535 154.262 173.312 153.833 174.191 153.281Z" fill="#312783"/>
</svg>
