<svg width="383" height="388" viewBox="0 0 383 388" fill="none" xmlns="http://www.w3.org/2000/svg">
<path d="M126.445 154.871C126.445 154.871 83.6674 244.366 65.9108 259.829C48.1542 275.293 47.7696 269.26 36.29 265.76C24.8103 262.26 14.9502 271.083 15.3072 278.31C15.6641 285.537 25.1208 292.313 25.1208 292.313C25.1208 292.313 5.47235 300.661 16.6632 310.987C27.854 321.313 41.5638 308.284 41.5638 308.284C42.4388 313.606 46.7054 326.01 58.6249 317.637C67.3556 311.503 61.7668 301.604 70.4841 288.539C79.1958 275.483 148.947 187.179 148.996 187.133L159.776 192.09L163.111 186.346L126.445 154.871Z" fill="#0053FF"/>
<path d="M333.352 237.5C340.21 202.721 305.814 161.915 305.814 161.915L329.431 176C329.431 176 376.7 223.935 360.78 254.072C344.86 284.209 256.432 279.742 256.432 279.742C256.432 279.742 269.668 283.463 272.362 293.995C275.056 304.527 260.116 301.098 260.116 301.098C260.116 301.098 265.373 321.409 256.432 321.671C247.492 321.933 241.019 307.145 241.019 307.145L241.025 278.769C241.025 278.769 241.82 261.463 249.07 259.716C256.319 257.97 326.494 272.279 333.352 237.5Z" fill="#0053FF"/>
<path d="M240.176 209.557L240.857 215.644L240.579 215.617C240.579 215.617 240.334 346.281 247.927 353.266C252.484 357.459 264.19 359.001 274.091 360.305C280.686 361.174 286.48 361.937 288.829 363.308C294.708 366.737 305.974 376.779 298.627 382.412C291.279 388.046 243.763 387.311 236.17 385.107C228.577 382.902 223.434 379.718 221.72 369.921C220.005 360.124 215.107 217.577 215.107 217.577H194.533C194.533 217.577 192.328 361.839 188.41 372.37C184.491 382.902 178.368 384.862 170.775 386.331C163.182 387.801 116.646 389.707 112.727 385.107C108.808 380.506 108.808 370.961 118.85 364.043C123.755 360.665 131.579 360.119 139.586 359.56C147.975 358.975 156.563 358.375 162.202 354.491C173.224 346.898 169.795 215.617 169.795 215.617L161.658 182.256V173.316L240.176 209.557Z" fill="#0053FF"/>
<path d="M153.887 26.3543C183.465 -4.38543 229.298 -8.88742 256.257 16.2987C268.011 27.2797 274.236 42.0913 275.069 57.8534C309.971 43.8505 348.7 51.3345 369.171 78.6649C394.089 111.932 382.518 162.005 343.327 190.507C313.076 212.506 275.213 215.222 248.053 200.018C236.102 209.738 220.18 215.67 202.699 215.67C187.302 215.67 173.115 211.069 161.786 203.332C152.524 213.025 134.71 216.547 116.801 211.063C103.041 206.85 92.3835 198.288 87.2513 188.579C43.0349 173.422 15.7635 136.138 25.9603 103.805C36.4562 70.524 82.672 55.0903 129.187 69.3329C129.898 69.5506 130.605 69.7738 131.308 70.0028C133.961 54.5948 141.527 39.1999 153.887 26.3543Z" fill="white"/>
<path d="M220.01 148.421C220.01 148.421 219.776 122.055 240.157 113.074C260.538 104.093 279.121 120.513 279.121 120.513" stroke="#312783" stroke-width="7.3255" stroke-linecap="round"/>
<ellipse cx="245.499" cy="127.552" rx="19.9162" ry="17.8709" transform="rotate(-16.2061 245.499 127.552)" fill="#312783"/>
<path d="M261.554 151.15L260.02 147.303" stroke="#312783" stroke-width="5.49413" stroke-linecap="round"/>
<path d="M279.412 140.007L272.789 137.941" stroke="#312783" stroke-width="5.49413" stroke-linecap="round"/>
<path d="M183.654 148.421C183.654 148.421 183.888 122.055 163.507 113.074C143.126 104.093 124.543 120.513 124.543 120.513" stroke="#312783" stroke-width="7.3255" stroke-linecap="round"/>
<ellipse cx="19.9162" cy="17.8709" rx="19.9162" ry="17.8709" transform="matrix(-0.960264 -0.279093 -0.279093 0.960264 182.281 115.949)" fill="#312783"/>
<path d="M142.11 151.15L143.645 147.303" stroke="#312783" stroke-width="5.49413" stroke-linecap="round"/>
<path d="M124.252 140.007L130.875 137.941" stroke="#312783" stroke-width="5.49413" stroke-linecap="round"/>
</svg>
