<svg width="366" height="391" viewBox="0 0 366 391" fill="none" xmlns="http://www.w3.org/2000/svg">
<path d="M55.1994 274.775C64.753 274.775 84.4063 262.491 93.687 238.471C102.968 214.45 110.338 187.973 110.338 187.973L279.301 192.613V198.072C279.301 198.072 290.766 248.024 299.227 272.864C307.689 297.703 318.062 300.433 329.799 308.622C341.537 316.811 341.264 329.094 334.44 334.007C327.616 338.921 319.973 334.007 319.973 334.007C325.978 340.74 329.253 345.472 329.799 353.934C330.345 362.395 319.154 374.406 303.049 364.852C286.944 355.298 291.312 343.834 291.312 343.834C287.49 348.474 275.186 354.207 268.383 339.467C261.58 324.727 274.388 290.333 273.296 272.864C272.204 255.394 255.554 200.256 255.554 200.256L232.625 198.072C232.625 198.072 232.352 343.692 240.814 351.477C249.275 359.262 279.847 358.847 286.398 362.668C292.949 366.49 305.506 377.681 297.317 383.959C289.128 390.238 236.173 389.419 227.711 386.962C219.25 384.505 213.517 380.957 211.607 370.038C209.696 359.12 204.237 200.256 204.237 200.256H181.308C181.308 200.256 178.851 361.031 174.484 372.768C170.116 384.505 163.292 386.689 154.831 388.327C146.369 389.965 94.5059 392.089 90.1385 386.962C85.7711 381.835 85.7711 371.197 96.9626 363.487C108.154 355.778 132.994 361.304 145.277 352.842C157.56 344.38 153.739 198.072 153.739 198.072L129.172 200.256C126.442 228.644 115.251 260.58 101.876 274.775C88.5008 288.969 63.1153 309.168 39.9135 313.535C16.7117 317.903 1.15287 312.716 0.0610253 299.614C-0.886339 288.246 9.46878 287.358 12.226 287.322C9.76647 287.202 1.39045 285.976 2.79065 274.775C4.42842 261.672 21.3521 267.405 19.4413 266.313C17.5306 265.221 18.8954 227.552 39.9135 227.279C60.9316 227.006 42.3701 253.756 42.3701 261.945C42.3701 270.134 45.6457 274.775 55.1994 274.775Z" fill="#0053FF"/>
<path d="M137.571 26.3547C167.149 -4.38554 212.982 -8.88754 239.942 16.299C251.695 27.2799 257.92 42.0909 258.752 57.8527C293.655 43.8496 332.385 51.3347 352.856 78.6652C377.773 111.932 366.202 162.006 327.011 190.507C296.761 212.506 258.898 215.222 231.738 200.019C219.786 209.738 203.865 215.67 186.383 215.67C170.987 215.67 156.8 211.069 145.47 203.332C136.209 213.026 118.393 216.547 100.485 211.064C86.7249 206.85 76.0679 198.287 70.9359 188.578C26.7193 173.421 -0.552953 136.139 9.64387 103.805C20.1394 70.5239 66.3562 55.0905 112.871 69.3332C113.583 69.551 114.289 69.7751 114.993 70.0041C117.645 54.5958 125.21 39.2006 137.571 26.3547Z" fill="white"/>
<path d="M135.385 154.762L137.215 150.174" stroke="#312783" stroke-width="6.55109" stroke-linecap="round"/>
<path d="M114.087 141.474L121.984 139.012" stroke="#312783" stroke-width="6.55109" stroke-linecap="round"/>
<path d="M140.389 142.17C147.218 144.104 154.043 141.535 154.043 141.535L128.784 125.314C128.784 125.314 133.56 140.237 140.389 142.17Z" fill="#312783" stroke="#312783" stroke-width="7.09701" stroke-linecap="round"/>
<path d="M174.48 156.02C174.48 156.02 169.131 141.942 146.625 127.844C124.12 113.746 110.366 116.638 110.366 116.638" stroke="#312783" stroke-width="9.82663" stroke-linecap="round"/>
<path d="M243.267 154.316L241.438 149.729" stroke="#312783" stroke-width="6.55109" stroke-linecap="round"/>
<path d="M264.557 141.029L256.66 138.566" stroke="#312783" stroke-width="6.55109" stroke-linecap="round"/>
<path d="M238.259 141.725C231.43 143.659 224.606 141.09 224.606 141.09L249.865 124.869C249.865 124.869 245.088 139.792 238.259 141.725Z" fill="#312783" stroke="#312783" stroke-width="7.09701" stroke-linecap="round"/>
<path d="M204.172 155.574C204.172 155.574 209.522 141.496 232.027 127.399C254.533 113.301 268.286 116.192 268.286 116.192" stroke="#312783" stroke-width="9.82663" stroke-linecap="round"/>
</svg>
