<svg width="367" height="391" viewBox="0 0 367 391" fill="none" xmlns="http://www.w3.org/2000/svg">
<path d="M55.1994 274.775C64.753 274.775 84.4063 262.491 93.687 238.471C102.968 214.45 110.338 187.973 110.338 187.973L279.301 192.613V198.072C279.301 198.072 290.766 248.024 299.227 272.864C307.689 297.703 318.062 300.433 329.799 308.622C341.537 316.811 341.264 329.094 334.44 334.007C327.616 338.921 319.973 334.007 319.973 334.007C325.978 340.74 329.253 345.472 329.799 353.934C330.345 362.395 319.154 374.406 303.049 364.852C286.944 355.298 291.312 343.834 291.312 343.834C287.49 348.474 275.186 354.207 268.383 339.467C261.58 324.727 274.388 290.333 273.296 272.864C272.204 255.394 255.554 200.256 255.554 200.256L232.625 198.072C232.625 198.072 232.352 343.692 240.814 351.477C249.275 359.262 279.847 358.847 286.398 362.668C292.949 366.49 305.506 377.681 297.317 383.959C289.128 390.238 236.173 389.419 227.711 386.962C219.25 384.505 213.517 380.957 211.607 370.038C209.696 359.12 204.237 200.256 204.237 200.256H181.308C181.308 200.256 178.851 361.031 174.484 372.768C170.116 384.505 163.292 386.689 154.831 388.327C146.369 389.965 94.5059 392.089 90.1385 386.962C85.7711 381.835 85.7711 371.197 96.9626 363.487C108.154 355.778 132.994 361.304 145.277 352.842C157.56 344.38 153.739 198.072 153.739 198.072L129.172 200.256C126.442 228.644 115.251 260.58 101.876 274.775C88.5008 288.969 63.1153 309.168 39.9135 313.535C16.7117 317.903 1.15287 312.716 0.0610253 299.614C-0.886339 288.246 9.46878 287.358 12.226 287.322C9.76647 287.202 1.39045 285.976 2.79065 274.775C4.42842 261.672 21.3521 267.405 19.4413 266.313C17.5306 265.221 18.8954 227.552 39.9135 227.279C60.9316 227.006 42.3701 253.756 42.3701 261.945C42.3701 270.134 45.6457 274.775 55.1994 274.775Z" fill="#0053FF"/>
<path d="M138.059 26.3547C167.637 -4.38551 213.471 -8.88755 240.43 16.299C252.184 27.28 258.408 42.0916 259.241 57.8537C294.143 43.8506 332.872 51.3347 353.343 78.6652C378.261 111.932 366.69 162.006 327.499 190.507C297.249 212.506 259.385 215.222 232.225 200.019C220.274 209.738 204.353 215.67 186.871 215.67C171.475 215.67 157.288 211.069 145.958 203.332C136.697 213.026 118.882 216.547 100.973 211.064C87.213 206.85 76.5552 198.288 71.4232 188.578C27.207 173.421 -0.0646374 136.139 10.1322 103.805C20.6278 70.5241 66.8438 55.0907 113.359 69.3332C114.07 69.551 114.778 69.775 115.481 70.0041C118.134 54.5957 125.699 39.2005 138.059 26.3547Z" fill="white"/>
<path d="M238.652 137.095C229.864 139.399 222.75 134.878 222.75 134.878L253.169 120.826C253.169 120.826 247.441 134.791 238.652 137.095Z" fill="#312783" stroke="#312783" stroke-width="6.90195" stroke-linecap="round"/>
<path d="M206.365 147.855C206.365 147.855 210.864 132.646 233.147 122.826C255.43 113.007 270.994 117.342 270.994 117.342" stroke="#312783" stroke-width="8.4947" stroke-linecap="round"/>
<path d="M221.805 154.281C221.474 154.029 221.166 153.735 220.965 153.379C220.764 153.024 220.685 152.636 220.754 152.265C220.823 151.893 221.034 151.559 221.35 151.299C221.665 151.039 222.057 150.874 222.457 150.757C222.457 150.757 222.457 150.757 222.457 150.757C223.139 150.468 223.96 150.189 224.698 149.919C227.705 148.836 230.476 148.019 233.273 147.554C237.361 146.867 241.342 145.681 245.166 143.962C250.682 141.441 256.056 138.391 260.197 134.022C260.678 133.513 261.193 132.862 261.507 132.463C261.734 132.082 262.072 131.764 262.49 131.594C262.908 131.425 263.366 131.417 263.774 131.576C264.183 131.735 264.515 132.051 264.708 132.458C264.902 132.865 264.936 133.329 264.846 133.763C264.846 133.763 264.846 133.763 264.846 133.763C264.535 134.831 264.229 135.564 263.849 136.392C260.691 142.952 255.2 147.887 249.27 151.584C244.888 154.29 239.95 156.128 234.855 156.98C231.364 157.566 227.688 157.14 224.315 155.641C223.461 155.262 222.685 154.833 221.805 154.281Z" fill="#312783"/>
<path d="M144.348 137.095C153.136 139.399 160.25 134.878 160.25 134.878L129.831 120.826C129.831 120.826 135.559 134.791 144.348 137.095Z" fill="#312783" stroke="#312783" stroke-width="6.90195" stroke-linecap="round"/>
<path d="M176.635 147.855C176.635 147.855 172.136 132.646 149.853 122.826C127.57 113.007 112.006 117.342 112.006 117.342" stroke="#312783" stroke-width="8.4947" stroke-linecap="round"/>
<path d="M161.191 154.281C161.522 154.029 161.83 153.735 162.031 153.379C162.232 153.024 162.311 152.636 162.242 152.265C162.173 151.893 161.962 151.559 161.647 151.299C161.331 151.039 160.939 150.874 160.54 150.757C160.54 150.757 160.54 150.757 160.54 150.757C159.858 150.468 159.036 150.189 158.298 149.919C155.291 148.836 152.521 148.019 149.723 147.554C145.635 146.867 141.655 145.681 137.83 143.962C132.314 141.441 126.941 138.391 122.799 134.022C122.318 133.513 121.803 132.862 121.489 132.463C121.262 132.082 120.924 131.764 120.506 131.594C120.088 131.425 119.63 131.417 119.222 131.576C118.813 131.735 118.481 132.051 118.288 132.458C118.094 132.865 118.06 133.329 118.15 133.763C118.15 133.763 118.15 133.763 118.15 133.763C118.462 134.831 118.767 135.564 119.148 136.392C122.305 142.952 127.796 147.887 133.726 151.584C138.108 154.29 143.046 156.128 148.141 156.98C151.633 157.566 155.308 157.14 158.681 155.641C159.535 155.262 160.312 154.833 161.191 154.281Z" fill="#312783"/>
</svg>
