<svg width="367" height="391" viewBox="0 0 367 391" fill="none" xmlns="http://www.w3.org/2000/svg">
<path d="M55.1994 274.775C64.753 274.775 84.4063 262.491 93.687 238.471C102.968 214.45 110.338 187.973 110.338 187.973L279.301 192.613V198.072C279.301 198.072 290.766 248.024 299.227 272.864C307.689 297.703 318.062 300.433 329.799 308.622C341.537 316.811 341.264 329.094 334.44 334.007C327.616 338.921 319.973 334.007 319.973 334.007C325.978 340.74 329.253 345.472 329.799 353.934C330.345 362.395 319.154 374.406 303.049 364.852C286.944 355.298 291.312 343.834 291.312 343.834C287.49 348.474 275.186 354.207 268.383 339.467C261.58 324.727 274.388 290.333 273.296 272.864C272.204 255.394 255.554 200.256 255.554 200.256L232.625 198.072C232.625 198.072 232.352 343.692 240.814 351.477C249.275 359.262 279.847 358.847 286.398 362.668C292.949 366.49 305.506 377.681 297.317 383.959C289.128 390.238 236.173 389.419 227.711 386.962C219.25 384.505 213.517 380.957 211.607 370.038C209.696 359.12 204.237 200.256 204.237 200.256H181.308C181.308 200.256 178.851 361.031 174.484 372.768C170.116 384.505 163.292 386.689 154.831 388.327C146.369 389.965 94.5059 392.089 90.1385 386.962C85.7711 381.835 85.7711 371.197 96.9626 363.487C108.154 355.778 132.994 361.304 145.277 352.842C157.56 344.38 153.739 198.072 153.739 198.072L129.172 200.256C126.442 228.644 115.251 260.58 101.876 274.775C88.5008 288.969 63.1153 309.168 39.9135 313.535C16.7117 317.903 1.15287 312.716 0.0610253 299.614C-0.886339 288.246 9.46878 287.358 12.226 287.322C9.76647 287.202 1.39045 285.976 2.79065 274.775C4.42842 261.672 21.3521 267.405 19.4413 266.313C17.5306 265.221 18.8954 227.552 39.9135 227.279C60.9316 227.006 42.3701 253.756 42.3701 261.945C42.3701 270.134 45.6457 274.775 55.1994 274.775Z" fill="#0053FF"/>
<path d="M138.059 26.3546C167.637 -4.38556 213.471 -8.88749 240.43 16.299C252.184 27.28 258.408 42.0916 259.241 57.8536C294.143 43.8504 332.873 51.3346 353.344 78.6652C378.261 111.932 366.69 162.006 327.499 190.507C297.249 212.506 259.386 215.222 232.226 200.019C220.275 209.738 204.353 215.67 186.871 215.67C171.475 215.67 157.288 211.069 145.958 203.332C136.697 213.026 118.882 216.547 100.973 211.064C87.2135 206.85 76.5563 198.288 71.4242 188.579C27.2075 173.422 -0.0647086 136.139 10.1322 103.805C20.6278 70.524 66.8446 55.0905 113.36 69.3331C114.071 69.5509 114.778 69.775 115.481 70.004C118.134 54.5957 125.699 39.2004 138.059 26.3546Z" fill="white"/>
<path d="M212.522 150.589C212.522 150.589 212.288 124.223 232.669 115.242C253.05 106.261 271.633 122.681 271.633 122.681" stroke="#312783" stroke-width="7.3255" stroke-linecap="round"/>
<ellipse cx="238.011" cy="129.72" rx="19.9162" ry="17.8709" transform="rotate(-16.2061 238.011 129.72)" fill="#312783"/>
<path d="M254.066 153.318L252.531 149.471" stroke="#312783" stroke-width="5.49413" stroke-linecap="round"/>
<path d="M271.924 142.175L265.301 140.109" stroke="#312783" stroke-width="5.49413" stroke-linecap="round"/>
<path d="M176.169 150.589C176.169 150.589 176.403 124.223 156.023 115.242C135.642 106.261 117.058 122.681 117.058 122.681" stroke="#312783" stroke-width="7.3255" stroke-linecap="round"/>
<ellipse cx="19.9162" cy="17.8709" rx="19.9162" ry="17.8709" transform="matrix(-0.960264 -0.279093 -0.279093 0.960264 174.797 118.117)" fill="#312783"/>
<path d="M134.626 153.318L136.16 149.471" stroke="#312783" stroke-width="5.49413" stroke-linecap="round"/>
<path d="M116.768 142.175L123.391 140.109" stroke="#312783" stroke-width="5.49413" stroke-linecap="round"/>
</svg>
