<svg width="359" height="371" viewBox="0 0 359 371" fill="none" xmlns="http://www.w3.org/2000/svg">
<mask id="path-1-outside-1_322_39441" maskUnits="userSpaceOnUse" x="10.4883" y="143.973" width="340" height="227" fill="black">
<rect fill="white" x="10.4883" y="143.973" width="340" height="227"/>
<path d="M298.635 145.973C298.76 146.141 354.829 221.434 348.144 240.039C341.455 258.649 228.545 265.28 228.37 265.29C228.451 265.388 246.178 286.846 239.284 291.967C232.375 297.099 229.436 289.224 229.436 289.224C229.436 289.224 229.889 306.271 221.283 306.523C218.334 306.61 216.497 304.891 215.354 302.596C216.402 320.358 217.945 333.969 220.219 336.062C224.606 340.097 235.873 341.582 245.403 342.838C251.751 343.674 257.328 344.409 259.59 345.729C265.248 349.029 276.093 358.695 269.021 364.117C261.948 369.54 216.211 368.832 208.902 366.71C201.594 364.588 196.643 361.524 194.992 352.094C193.342 342.663 188.627 205.452 188.627 205.452H168.823C168.823 205.452 166.702 344.314 162.93 354.451C159.158 364.589 153.263 366.475 145.955 367.89C138.646 369.304 93.8531 371.138 90.0811 366.71C86.3091 362.282 86.3088 353.094 95.9746 346.436C100.695 343.184 108.227 342.658 115.935 342.12C124.009 341.557 132.276 340.98 137.704 337.241C140.931 335.018 142.867 321.782 144.005 304.438C142.858 306.01 141.226 307.062 138.902 306.994C130.317 306.742 130.748 289.775 130.75 289.695C130.73 289.75 127.787 297.553 120.901 292.438C113.992 287.306 131.816 265.761 131.816 265.761C131.816 265.761 18.7356 259.136 12.042 240.511C5.3487 221.886 61.5518 146.443 61.5518 146.443L84.2832 152.345C84.2832 152.345 35.533 214.108 41.1484 225.952C46.7646 237.796 131.922 244.804 138.902 246.485C142.467 247.344 144.409 252.11 145.457 256.568C145.656 228.331 145.012 203.566 145.012 203.566L137.18 204.263V195.658L212.758 197.733L213.413 203.592L213.146 203.566C213.146 203.566 213.094 231.34 213.797 261.481C214.37 256.639 216.137 247.253 221.283 246.014C228.261 244.333 313.421 237.324 319.037 225.48C324.646 213.65 276.015 152.015 275.903 151.874L298.635 145.973Z"/>
</mask>
<path d="M298.635 145.973C298.76 146.141 354.829 221.434 348.144 240.039C341.455 258.649 228.545 265.28 228.37 265.29C228.451 265.388 246.178 286.846 239.284 291.967C232.375 297.099 229.436 289.224 229.436 289.224C229.436 289.224 229.889 306.271 221.283 306.523C218.334 306.61 216.497 304.891 215.354 302.596C216.402 320.358 217.945 333.969 220.219 336.062C224.606 340.097 235.873 341.582 245.403 342.838C251.751 343.674 257.328 344.409 259.59 345.729C265.248 349.029 276.093 358.695 269.021 364.117C261.948 369.54 216.211 368.832 208.902 366.71C201.594 364.588 196.643 361.524 194.992 352.094C193.342 342.663 188.627 205.452 188.627 205.452H168.823C168.823 205.452 166.702 344.314 162.93 354.451C159.158 364.589 153.263 366.475 145.955 367.89C138.646 369.304 93.8531 371.138 90.0811 366.71C86.3091 362.282 86.3088 353.094 95.9746 346.436C100.695 343.184 108.227 342.658 115.935 342.12C124.009 341.557 132.276 340.98 137.704 337.241C140.931 335.018 142.867 321.782 144.005 304.438C142.858 306.01 141.226 307.062 138.902 306.994C130.317 306.742 130.748 289.775 130.75 289.695C130.73 289.75 127.787 297.553 120.901 292.438C113.992 287.306 131.816 265.761 131.816 265.761C131.816 265.761 18.7356 259.136 12.042 240.511C5.3487 221.886 61.5518 146.443 61.5518 146.443L84.2832 152.345C84.2832 152.345 35.533 214.108 41.1484 225.952C46.7646 237.796 131.922 244.804 138.902 246.485C142.467 247.344 144.409 252.11 145.457 256.568C145.656 228.331 145.012 203.566 145.012 203.566L137.18 204.263V195.658L212.758 197.733L213.413 203.592L213.146 203.566C213.146 203.566 213.094 231.34 213.797 261.481C214.37 256.639 216.137 247.253 221.283 246.014C228.261 244.333 313.421 237.324 319.037 225.48C324.646 213.65 276.015 152.015 275.903 151.874L298.635 145.973Z" fill="#0053FF"/>
<path d="M298.635 145.973L299.437 145.375L299.035 144.836L298.383 145.005L298.635 145.973ZM348.144 240.039L349.085 240.377V240.377L348.144 240.039ZM228.37 265.29L228.312 264.292L226.343 264.407L227.599 265.927L228.37 265.29ZM239.284 291.967L239.88 292.77V292.77L239.284 291.967ZM229.436 289.224L230.372 288.874L228.436 289.25L229.436 289.224ZM221.283 306.523L221.312 307.523H221.312L221.283 306.523ZM215.354 302.596L216.25 302.15L214.356 302.655L215.354 302.596ZM220.219 336.062L219.542 336.797L219.542 336.797L220.219 336.062ZM245.403 342.838L245.273 343.829V343.829L245.403 342.838ZM259.59 345.729L260.094 344.865V344.865L259.59 345.729ZM269.021 364.117L269.629 364.911V364.911L269.021 364.117ZM208.902 366.71L208.624 367.67V367.67L208.902 366.71ZM194.992 352.094L194.007 352.266V352.266L194.992 352.094ZM188.627 205.452L189.626 205.418L189.593 204.452H188.627V205.452ZM168.823 205.452V204.452H167.838L167.823 205.437L168.823 205.452ZM162.93 354.451L163.867 354.8V354.8L162.93 354.451ZM145.955 367.89L146.145 368.871H146.145L145.955 367.89ZM90.0811 366.71L89.3198 367.358L89.3198 367.358L90.0811 366.71ZM95.9746 346.436L95.4073 345.612H95.4073L95.9746 346.436ZM115.935 342.12L116.004 343.118H116.004L115.935 342.12ZM137.704 337.241L138.271 338.065L138.271 338.065L137.704 337.241ZM144.005 304.438L145.003 304.504L145.228 301.067L143.197 303.849L144.005 304.438ZM138.902 306.994L138.873 307.994H138.873L138.902 306.994ZM130.75 289.695L131.75 289.721L129.814 289.344L130.75 289.695ZM120.901 292.438L120.305 293.241L120.305 293.241L120.901 292.438ZM131.816 265.761L132.587 266.398L133.845 264.878L131.875 264.762L131.816 265.761ZM12.042 240.511L11.1009 240.849L11.1009 240.849L12.042 240.511ZM61.5518 146.443L61.803 145.475L61.1518 145.306L60.7498 145.846L61.5518 146.443ZM84.2832 152.345L85.0682 152.964L86.0173 151.762L84.5345 151.377L84.2832 152.345ZM41.1484 225.952L40.2449 226.381L40.2449 226.381L41.1484 225.952ZM138.902 246.485L139.137 245.513L139.136 245.513L138.902 246.485ZM145.457 256.568L144.484 256.797L146.457 256.575L145.457 256.568ZM145.012 203.566L146.011 203.54L145.984 202.476L144.923 202.57L145.012 203.566ZM137.18 204.263H136.18V205.356L137.268 205.259L137.18 204.263ZM137.18 195.658L137.207 194.659L136.18 194.63V195.658H137.18ZM212.758 197.733L213.752 197.622L213.655 196.758L212.785 196.734L212.758 197.733ZM213.413 203.592L213.319 204.587L214.544 204.704L214.407 203.481L213.413 203.592ZM213.146 203.566L213.24 202.571L212.148 202.467L212.146 203.565L213.146 203.566ZM213.797 261.481L212.797 261.505L214.79 261.599L213.797 261.481ZM221.283 246.014L221.049 245.041V245.041L221.283 246.014ZM319.037 225.48L319.941 225.909L319.941 225.909L319.037 225.48ZM275.903 151.874L275.652 150.906L274.169 151.291L275.118 152.494L275.903 151.874ZM298.635 145.973L297.833 146.57C297.891 146.648 311.919 165.487 325.095 186.621C331.684 197.192 338.042 208.308 342.333 217.924C344.479 222.733 346.093 227.136 346.967 230.889C347.848 234.674 347.939 237.652 347.202 239.701L348.144 240.039L349.085 240.377C350.02 237.775 349.821 234.33 348.915 230.436C348.001 226.51 346.331 221.977 344.159 217.109C339.813 207.369 333.399 196.163 326.792 185.563C313.572 164.358 299.504 145.466 299.437 145.375L298.635 145.973ZM348.144 240.039L347.202 239.701C346.501 241.652 344.307 243.64 340.618 245.582C336.98 247.497 332.096 249.261 326.361 250.872C314.899 254.092 300.207 256.658 285.679 258.649C256.633 262.629 228.392 264.287 228.312 264.292L228.37 265.29L228.429 266.288C228.523 266.283 256.826 264.621 285.95 260.63C300.507 258.636 315.307 256.055 326.902 252.797C332.696 251.169 337.733 249.361 341.55 247.352C345.317 245.369 348.114 243.079 349.085 240.377L348.144 240.039ZM228.37 265.29L227.599 265.927C227.632 265.967 232.044 271.308 235.583 277.256C237.359 280.24 238.872 283.306 239.529 285.898C240.204 288.556 239.886 290.274 238.688 291.164L239.284 291.967L239.88 292.77C242.13 291.099 242.181 288.215 241.468 285.406C240.738 282.531 239.107 279.266 237.302 276.233C233.681 270.148 229.189 264.711 229.141 264.653L228.37 265.29ZM239.284 291.967L238.688 291.164C237.084 292.355 235.814 292.717 234.844 292.704C233.877 292.691 233.076 292.306 232.408 291.751C231.73 291.188 231.216 290.47 230.867 289.871C230.694 289.575 230.567 289.317 230.485 289.136C230.444 289.046 230.414 288.976 230.395 288.93C230.386 288.908 230.379 288.891 230.375 288.882C230.374 288.877 230.372 288.874 230.372 288.872C230.372 288.872 230.372 288.872 230.372 288.872C230.372 288.872 230.372 288.872 230.372 288.873C230.372 288.873 230.372 288.873 230.372 288.873C230.372 288.874 230.372 288.874 229.436 289.224C228.499 289.573 228.499 289.574 228.499 289.574C228.499 289.574 228.499 289.575 228.499 289.575C228.5 289.576 228.5 289.577 228.501 289.578C228.501 289.58 228.502 289.583 228.504 289.586C228.506 289.592 228.509 289.601 228.513 289.611C228.521 289.63 228.532 289.658 228.545 289.691C228.573 289.759 228.613 289.853 228.666 289.968C228.771 290.198 228.928 290.515 229.139 290.877C229.556 291.594 230.209 292.525 231.13 293.289C232.06 294.062 233.289 294.683 234.817 294.703C236.341 294.724 238.029 294.145 239.88 292.77L239.284 291.967ZM229.436 289.224C228.436 289.25 228.436 289.25 228.436 289.25C228.436 289.25 228.436 289.25 228.436 289.25C228.436 289.25 228.436 289.251 228.436 289.251C228.436 289.253 228.436 289.255 228.436 289.259C228.436 289.265 228.436 289.276 228.437 289.291C228.437 289.32 228.438 289.365 228.439 289.425C228.44 289.544 228.44 289.721 228.438 289.947C228.434 290.4 228.419 291.051 228.374 291.834C228.283 293.404 228.076 295.485 227.611 297.56C227.142 299.65 226.43 301.656 225.374 303.132C224.339 304.581 223.017 305.472 221.254 305.524L221.283 306.523L221.312 307.523C223.852 307.449 225.701 306.115 227.001 304.295C228.281 302.505 229.068 300.202 229.562 297.998C230.059 295.78 230.277 293.583 230.37 291.949C230.417 291.129 230.434 290.446 230.438 289.966C230.44 289.726 230.44 289.536 230.438 289.405C230.438 289.34 230.437 289.289 230.436 289.254C230.436 289.237 230.436 289.223 230.436 289.213C230.435 289.209 230.435 289.205 230.435 289.202C230.435 289.201 230.435 289.2 230.435 289.199C230.435 289.198 230.435 289.198 230.435 289.198C230.435 289.197 230.435 289.197 229.436 289.224ZM221.283 306.523L221.254 305.524C218.825 305.595 217.285 304.231 216.25 302.15L215.354 302.596L214.459 303.041C215.708 305.552 217.843 307.625 221.312 307.523L221.283 306.523ZM215.354 302.596L214.356 302.655C214.88 311.544 215.53 319.417 216.336 325.34C216.739 328.298 217.184 330.796 217.679 332.699C217.927 333.651 218.192 334.476 218.482 335.147C218.762 335.798 219.103 336.393 219.542 336.797L220.219 336.062L220.896 335.326C220.767 335.207 220.561 334.919 220.318 334.355C220.084 333.812 219.848 333.092 219.615 332.196C219.148 330.404 218.716 327.996 218.318 325.07C217.522 319.223 216.876 311.41 216.353 302.537L215.354 302.596ZM220.219 336.062L219.542 336.797C221.948 339.012 226.101 340.434 230.661 341.468C235.271 342.512 240.518 343.203 245.273 343.829L245.403 342.838L245.534 341.846C240.758 341.217 235.606 340.538 231.103 339.517C226.55 338.485 222.876 337.147 220.896 335.326L220.219 336.062ZM245.403 342.838L245.273 343.829C248.454 344.248 251.408 344.638 253.848 345.086C256.331 345.541 258.126 346.032 259.086 346.592L259.59 345.729L260.094 344.865C258.792 344.106 256.668 343.569 254.209 343.118C251.709 342.66 248.7 342.264 245.534 341.846L245.403 342.838ZM259.59 345.729L259.086 346.592C261.831 348.194 265.838 351.349 268.269 354.713C269.487 356.399 270.235 358.035 270.328 359.485C270.417 360.855 269.929 362.161 268.412 363.324L269.021 364.117L269.629 364.911C271.648 363.363 272.457 361.426 272.324 359.356C272.196 357.365 271.206 355.362 269.89 353.541C267.252 349.892 263.007 346.564 260.094 344.865L259.59 345.729ZM269.021 364.117L268.412 363.324C267.697 363.872 266.376 364.414 264.459 364.903C262.574 365.384 260.225 365.787 257.549 366.116C252.2 366.773 245.63 367.125 239.032 367.243C232.438 367.36 225.838 367.243 220.436 366.964C214.987 366.683 210.877 366.242 209.181 365.75L208.902 366.71L208.624 367.67C210.582 368.239 214.93 368.682 220.333 368.961C225.784 369.242 232.43 369.361 239.068 369.243C245.702 369.124 252.349 368.77 257.793 368.101C260.514 367.767 262.955 367.351 264.954 366.841C266.92 366.34 268.576 365.718 269.629 364.911L269.021 364.117ZM208.902 366.71L209.181 365.75C205.576 364.703 202.694 363.461 200.509 361.413C198.347 359.386 196.775 356.479 195.977 351.921L194.992 352.094L194.007 352.266C194.86 357.139 196.589 360.479 199.142 362.872C201.673 365.244 204.92 366.595 208.624 367.67L208.902 366.71ZM194.992 352.094L195.977 351.921C195.783 350.811 195.531 347.703 195.243 343.024C194.957 338.376 194.637 332.248 194.3 325.155C193.626 310.97 192.882 292.938 192.19 275.198C191.497 257.458 190.857 240.013 190.389 227.003C190.155 220.498 189.964 215.101 189.832 211.331C189.766 209.446 189.715 207.968 189.68 206.961C189.662 206.457 189.649 206.071 189.64 205.812C189.635 205.682 189.632 205.583 189.63 205.517C189.629 205.484 189.628 205.459 189.627 205.443C189.627 205.434 189.627 205.428 189.627 205.424C189.627 205.422 189.626 205.42 189.626 205.419C189.626 205.418 189.626 205.418 188.627 205.452C187.628 205.486 187.628 205.487 187.628 205.488C187.628 205.489 187.628 205.491 187.628 205.493C187.628 205.497 187.628 205.503 187.628 205.512C187.629 205.528 187.63 205.553 187.631 205.586C187.633 205.652 187.637 205.751 187.641 205.881C187.65 206.141 187.663 206.526 187.681 207.03C187.716 208.037 187.767 209.516 187.833 211.401C187.966 215.172 188.156 220.569 188.39 227.075C188.858 240.086 189.499 257.533 190.191 275.276C190.884 293.017 191.628 311.056 192.303 325.25C192.64 332.347 192.959 338.485 193.247 343.147C193.532 347.776 193.789 351.019 194.007 352.266L194.992 352.094ZM188.627 205.452V204.452H168.823V205.452V206.452H188.627V205.452ZM168.823 205.452C167.823 205.437 167.823 205.437 167.823 205.438C167.823 205.439 167.823 205.441 167.823 205.443C167.823 205.447 167.823 205.454 167.823 205.462C167.823 205.479 167.822 205.504 167.822 205.537C167.821 205.604 167.819 205.704 167.817 205.835C167.813 206.098 167.807 206.488 167.799 206.998C167.782 208.017 167.758 209.513 167.725 211.422C167.66 215.238 167.562 220.701 167.433 227.288C167.175 240.463 166.792 258.135 166.291 276.122C165.791 294.111 165.172 312.41 164.443 326.843C164.079 334.06 163.687 340.302 163.27 345.051C163.061 347.426 162.847 349.418 162.627 350.967C162.404 352.545 162.186 353.582 161.992 354.102L162.93 354.451L163.867 354.8C164.145 354.053 164.385 352.818 164.608 351.247C164.834 349.649 165.052 347.618 165.262 345.226C165.683 340.44 166.076 334.17 166.441 326.944C167.171 312.488 167.79 294.171 168.291 276.178C168.792 258.183 169.175 240.505 169.433 227.327C169.562 220.738 169.659 215.273 169.725 211.456C169.757 209.547 169.782 208.05 169.798 207.03C169.807 206.52 169.813 206.13 169.817 205.866C169.819 205.735 169.821 205.635 169.822 205.568C169.822 205.535 169.822 205.51 169.823 205.493C169.823 205.484 169.823 205.478 169.823 205.474C169.823 205.472 169.823 205.47 169.823 205.469C169.823 205.468 169.823 205.467 168.823 205.452ZM162.93 354.451L161.992 354.102C160.163 359.02 157.859 361.837 155.212 363.611C152.534 365.405 149.408 366.203 145.765 366.908L145.955 367.89L146.145 368.871C149.81 368.162 153.286 367.309 156.325 365.272C159.395 363.215 161.925 360.019 163.867 354.8L162.93 354.451ZM145.955 367.89L145.765 366.908C142.214 367.595 129.276 368.409 116.685 368.491C110.407 368.532 104.261 368.39 99.463 367.965C97.0607 367.753 95.0255 367.472 93.4909 367.116C92.723 366.938 92.1065 366.747 91.6428 366.549C91.1611 366.343 90.9308 366.165 90.8423 366.061L90.0811 366.71L89.3198 367.358C89.7029 367.808 90.2645 368.135 90.857 368.388C91.4674 368.649 92.2071 368.871 93.0393 369.064C94.7049 369.45 96.845 369.741 99.2867 369.957C104.176 370.39 110.394 370.532 116.698 370.491C129.275 370.409 142.388 369.599 146.145 368.871L145.955 367.89ZM90.0811 366.71L90.8423 366.062C87.5377 362.182 87.2521 353.659 96.5419 347.259L95.9746 346.436L95.4073 345.612C85.3654 352.53 85.0804 362.382 89.3198 367.358L90.0811 366.71ZM95.9746 346.436L96.5419 347.259C98.7291 345.752 101.628 344.84 105.008 344.245C108.383 343.65 112.138 343.387 116.004 343.118L115.935 342.12L115.865 341.123C112.024 341.391 108.159 341.659 104.661 342.275C101.168 342.89 97.9406 343.867 95.4073 345.612L95.9746 346.436ZM115.935 342.12L116.004 343.118C120.029 342.837 124.172 342.549 127.99 341.856C131.807 341.162 135.39 340.05 138.271 338.065L137.704 337.241L137.137 336.418C134.59 338.172 131.326 339.217 127.633 339.888C123.943 340.558 119.914 340.84 115.865 341.123L115.935 342.12ZM137.704 337.241L138.271 338.065C139.361 337.314 140.172 335.795 140.831 333.954C141.511 332.055 142.103 329.588 142.622 326.686C143.662 320.877 144.433 313.188 145.003 304.504L144.005 304.438L143.007 304.373C142.439 313.032 141.673 320.634 140.654 326.334C140.143 329.187 139.575 331.53 138.948 333.28C138.301 335.088 137.661 336.057 137.137 336.418L137.704 337.241ZM144.005 304.438L143.197 303.849C142.211 305.2 140.872 306.051 138.932 305.995L138.902 306.994L138.873 307.994C141.579 308.073 143.505 306.82 144.813 305.028L144.005 304.438ZM138.902 306.994L138.932 305.995C137.172 305.943 135.853 305.055 134.819 303.613C133.764 302.143 133.051 300.145 132.581 298.06C132.115 295.99 131.906 293.912 131.814 292.338C131.768 291.554 131.752 290.9 131.748 290.441C131.743 289.983 131.75 289.721 131.75 289.721L130.75 289.695L129.75 289.669C129.749 289.73 129.637 294.092 130.63 298.5C131.126 300.699 131.914 302.995 133.194 304.779C134.493 306.592 136.34 307.919 138.873 307.994L138.902 306.994ZM130.75 289.695L129.814 289.344C129.814 289.343 129.148 291.093 127.764 292.234C127.096 292.784 126.296 293.165 125.332 293.175C124.362 293.186 123.095 292.823 121.498 291.636L120.901 292.438L120.305 293.241C122.15 294.612 123.833 295.191 125.353 295.175C126.877 295.159 128.105 294.545 129.036 293.777C130.85 292.282 131.665 290.102 131.686 290.047L130.75 289.695ZM120.901 292.438L121.498 291.636C120.297 290.744 119.98 289.019 120.661 286.352C121.324 283.752 122.845 280.676 124.627 277.687C126.399 274.713 128.39 271.889 129.941 269.804C130.716 268.763 131.38 267.91 131.848 267.317C132.083 267.021 132.268 266.79 132.395 266.633C132.458 266.555 132.507 266.496 132.539 266.456C132.555 266.437 132.568 266.422 132.576 266.412C132.58 266.407 132.583 266.403 132.584 266.401C132.585 266.4 132.586 266.399 132.586 266.399C132.587 266.398 132.587 266.398 132.587 266.398C132.587 266.398 132.587 266.398 131.816 265.761C131.046 265.123 131.046 265.123 131.046 265.124C131.045 265.124 131.045 265.124 131.045 265.125C131.044 265.126 131.043 265.127 131.042 265.128C131.039 265.131 131.036 265.135 131.031 265.141C131.022 265.152 131.009 265.168 130.992 265.189C130.957 265.231 130.907 265.294 130.841 265.374C130.71 265.536 130.519 265.773 130.28 266.076C129.801 266.682 129.125 267.551 128.337 268.61C126.763 270.726 124.729 273.609 122.909 276.663C121.098 279.701 119.458 282.974 118.723 285.857C118.005 288.673 118.051 291.567 120.305 293.241L120.901 292.438ZM131.816 265.761C131.875 264.762 131.875 264.762 131.874 264.762C131.873 264.762 131.872 264.762 131.87 264.762C131.867 264.762 131.862 264.762 131.855 264.761C131.841 264.76 131.821 264.759 131.794 264.758C131.74 264.754 131.66 264.75 131.553 264.743C131.34 264.73 131.023 264.71 130.609 264.684C129.781 264.631 128.565 264.551 127.014 264.442C123.913 264.225 119.475 263.894 114.128 263.438C103.432 262.527 89.1058 261.118 74.5749 259.129C60.036 257.139 45.327 254.572 33.8509 251.351C28.1093 249.739 23.2192 247.975 19.5759 246.058C15.8823 244.115 13.6848 242.125 12.9831 240.173L12.042 240.511L11.1009 240.849C12.0726 243.553 14.8731 245.844 18.6448 247.828C22.4668 249.839 27.5093 251.648 33.3103 253.276C44.9195 256.535 59.7357 259.117 74.3037 261.111C88.8797 263.106 103.242 264.518 113.958 265.431C119.317 265.887 123.765 266.219 126.875 266.437C128.429 266.546 129.649 266.627 130.481 266.68C130.897 266.706 131.216 266.726 131.431 266.739C131.538 266.746 131.62 266.751 131.675 266.754C131.702 266.756 131.723 266.757 131.737 266.758C131.744 266.758 131.749 266.758 131.752 266.759C131.754 266.759 131.756 266.759 131.756 266.759C131.757 266.759 131.758 266.759 131.816 265.761ZM12.042 240.511L12.9831 240.173C12.246 238.122 12.338 235.139 13.2216 231.348C14.0976 227.59 15.7165 223.18 17.8673 218.363C22.1674 208.733 28.5373 197.602 35.1354 187.022C41.7298 176.448 48.5351 166.451 53.6933 159.096C56.272 155.42 58.4381 152.404 59.9591 150.309C60.7196 149.261 61.3188 148.443 61.7276 147.888C61.932 147.61 62.0888 147.398 62.1943 147.256C62.2471 147.184 62.2871 147.13 62.3138 147.094C62.3272 147.076 62.3372 147.063 62.3439 147.054C62.3472 147.049 62.3497 147.046 62.3513 147.044C62.3521 147.043 62.3527 147.042 62.3531 147.042C62.3535 147.041 62.3537 147.041 61.5518 146.443C60.7498 145.846 60.7496 145.846 60.7491 145.847C60.7486 145.848 60.7479 145.848 60.7471 145.85C60.7453 145.852 60.7427 145.856 60.7392 145.86C60.7322 145.87 60.7219 145.883 60.7083 145.902C60.681 145.939 60.6405 145.993 60.5871 146.065C60.4804 146.209 60.3224 146.423 60.1168 146.702C59.7056 147.261 59.1038 148.082 58.3406 149.134C56.8141 151.237 54.6417 154.261 52.0559 157.948C46.8852 165.321 40.0581 175.349 33.4384 185.963C26.8224 196.572 20.3965 207.794 16.0411 217.548C13.864 222.423 12.1902 226.962 11.2738 230.894C10.3648 234.794 10.1646 238.244 11.1009 240.849L12.042 240.511ZM61.5518 146.443L61.3005 147.411L84.0319 153.313L84.2832 152.345L84.5345 151.377L61.803 145.475L61.5518 146.443ZM84.2832 152.345C83.4983 151.725 83.498 151.725 83.4976 151.726C83.4972 151.726 83.4966 151.727 83.4958 151.728C83.4943 151.73 83.492 151.733 83.489 151.737C83.483 151.745 83.474 151.756 83.4622 151.771C83.4386 151.801 83.4034 151.846 83.3571 151.905C83.2645 152.022 83.1275 152.197 82.9491 152.426C82.5923 152.882 82.0702 153.553 81.408 154.411C80.0835 156.126 78.1983 158.588 75.9538 161.58C71.4656 167.563 65.5373 175.667 59.7826 184.145C54.0322 192.617 48.4368 201.489 44.6274 209.002C42.7242 212.755 41.2481 216.205 40.4272 219.117C39.6237 221.968 39.3748 224.545 40.2449 226.381L41.1484 225.952L42.052 225.524C41.5182 224.398 41.5644 222.455 42.3521 219.66C43.1224 216.928 44.5336 213.609 46.4111 209.907C50.163 202.507 55.7023 193.718 61.4374 185.269C67.1684 176.825 73.0767 168.748 77.5537 162.78C79.7918 159.797 81.6713 157.342 82.9909 155.633C83.6507 154.779 84.1705 154.111 84.5251 153.657C84.7024 153.43 84.8384 153.257 84.93 153.14C84.9757 153.082 85.0104 153.038 85.0336 153.008C85.0452 152.993 85.0539 152.982 85.0596 152.975C85.0625 152.971 85.0647 152.969 85.0661 152.967C85.0668 152.966 85.0673 152.965 85.0677 152.965C85.068 152.964 85.0682 152.964 84.2832 152.345ZM41.1484 225.952L40.2449 226.381C40.692 227.323 41.492 228.162 42.494 228.915C43.5037 229.675 44.7779 230.392 46.2561 231.074C49.2119 232.438 53.0898 233.707 57.5545 234.887C66.4907 237.25 77.9231 239.296 89.3649 241.019C100.813 242.742 112.301 244.148 121.355 245.226C125.885 245.766 129.8 246.223 132.804 246.598C135.838 246.977 137.864 247.264 138.668 247.458L138.902 246.485L139.136 245.513C138.196 245.287 136.034 244.986 133.052 244.614C130.041 244.238 126.114 243.779 121.592 243.24C112.54 242.162 101.078 240.76 89.6627 239.041C78.2406 237.321 66.8944 235.288 58.0658 232.954C53.6483 231.786 49.8973 230.551 47.0938 229.258C45.6923 228.611 44.5543 227.962 43.6961 227.317C42.8303 226.666 42.3069 226.061 42.052 225.524L41.1484 225.952ZM138.902 246.485L138.668 247.458C140.063 247.794 141.254 248.924 142.255 250.674C143.249 252.41 143.969 254.611 144.484 256.797L145.457 256.568L146.43 256.339C145.896 254.068 145.122 251.656 143.991 249.68C142.868 247.718 141.306 246.036 139.137 245.513L138.902 246.485ZM145.457 256.568L146.457 256.575C146.557 242.448 146.445 229.19 146.309 219.464C146.241 214.601 146.167 210.621 146.109 207.856C146.08 206.474 146.056 205.395 146.039 204.662C146.03 204.296 146.023 204.015 146.019 203.827C146.016 203.732 146.014 203.661 146.013 203.613C146.013 203.589 146.012 203.571 146.012 203.559C146.012 203.553 146.012 203.548 146.012 203.545C146.011 203.544 146.011 203.542 146.011 203.542C146.011 203.541 146.011 203.541 146.011 203.541C146.011 203.54 146.011 203.54 145.012 203.566C144.012 203.592 144.012 203.593 144.012 203.593C144.012 203.593 144.012 203.593 144.012 203.593C144.012 203.594 144.012 203.595 144.012 203.597C144.012 203.6 144.012 203.604 144.013 203.61C144.013 203.622 144.013 203.64 144.014 203.664C144.015 203.711 144.017 203.782 144.019 203.876C144.024 204.064 144.031 204.343 144.039 204.709C144.057 205.441 144.081 206.517 144.11 207.898C144.167 210.659 144.241 214.635 144.309 219.492C144.445 229.209 144.557 242.452 144.457 256.561L145.457 256.568ZM145.012 203.566L144.923 202.57L137.091 203.267L137.18 204.263L137.268 205.259L145.1 204.562L145.012 203.566ZM137.18 204.263H138.18V195.658H137.18H136.18V204.263H137.18ZM137.18 195.658L137.152 196.658L212.73 198.733L212.758 197.733L212.785 196.734L137.207 194.659L137.18 195.658ZM212.758 197.733L211.764 197.845L212.419 203.703L213.413 203.592L214.407 203.481L213.752 197.622L212.758 197.733ZM213.413 203.592L213.508 202.596L213.24 202.571L213.146 203.566L213.051 204.562L213.319 204.587L213.413 203.592ZM213.146 203.566C212.146 203.565 212.146 203.565 212.146 203.565C212.146 203.565 212.146 203.565 212.146 203.566C212.146 203.567 212.146 203.568 212.146 203.57C212.145 203.573 212.145 203.578 212.145 203.585C212.145 203.599 212.145 203.619 212.145 203.646C212.145 203.699 212.145 203.779 212.145 203.885C212.145 204.096 212.145 204.409 212.145 204.819C212.145 205.638 212.145 206.841 212.148 208.379C212.155 211.455 212.17 215.87 212.208 221.228C212.282 231.942 212.445 246.427 212.797 261.505L213.797 261.481L214.797 261.458C214.445 246.394 214.282 231.921 214.207 221.214C214.17 215.86 214.155 211.448 214.148 208.375C214.145 206.838 214.145 205.636 214.145 204.819C214.145 204.41 214.145 204.097 214.145 203.887C214.145 203.781 214.145 203.702 214.145 203.648C214.145 203.622 214.145 203.602 214.145 203.588C214.145 203.582 214.145 203.577 214.145 203.573C214.145 203.572 214.146 203.57 214.146 203.569C214.146 203.569 214.146 203.569 214.146 203.569C214.146 203.568 214.146 203.568 213.146 203.566ZM213.797 261.481L214.79 261.599C215.073 259.206 215.647 255.741 216.762 252.745C217.909 249.666 219.48 247.477 221.517 246.986L221.283 246.014L221.049 245.041C217.94 245.79 216.055 248.914 214.888 252.048C213.69 255.265 213.094 258.914 212.804 261.364L213.797 261.481ZM221.283 246.014L221.517 246.986C222.322 246.792 224.347 246.506 227.381 246.127C230.384 245.752 234.299 245.294 238.83 244.755C247.884 243.676 259.372 242.271 270.82 240.547C282.262 238.824 293.695 236.779 302.631 234.416C307.096 233.235 310.974 231.966 313.93 230.602C315.408 229.92 316.682 229.203 317.692 228.444C318.694 227.69 319.494 226.852 319.941 225.909L319.037 225.48L318.134 225.052C317.879 225.59 317.355 226.194 316.489 226.845C315.631 227.491 314.493 228.14 313.092 228.786C310.288 230.08 306.537 231.314 302.12 232.482C293.291 234.817 281.944 236.849 270.522 238.569C259.106 240.288 247.645 241.69 238.593 242.769C234.071 243.308 230.144 243.766 227.133 244.142C224.151 244.515 221.989 244.815 221.049 245.041L221.283 246.014ZM319.037 225.48L319.941 225.909C320.81 224.076 320.562 221.502 319.761 218.656C318.943 215.748 317.47 212.304 315.571 208.556C311.77 201.055 306.186 192.196 300.443 183.732C288.952 166.797 276.748 151.33 276.688 151.255L275.903 151.874L275.118 152.494C275.17 152.559 287.338 167.98 298.788 184.855C304.515 193.296 310.044 202.073 313.787 209.46C315.661 213.157 317.068 216.47 317.836 219.198C318.621 221.988 318.667 223.928 318.134 225.052L319.037 225.48ZM275.903 151.874L276.155 152.842L298.886 146.941L298.635 145.973L298.383 145.005L275.652 150.906L275.903 151.874Z" fill="#034FF5" mask="url(#path-1-outside-1_322_39441)"/>
<path d="M130.063 26.3547C159.641 -4.38551 205.475 -8.88755 232.434 16.299C244.188 27.28 250.412 42.0916 251.244 57.8537C286.147 43.8506 324.876 51.3347 345.347 78.6652C370.265 111.932 358.694 162.006 319.503 190.507C289.253 212.506 251.389 215.222 224.229 200.019C212.278 209.738 196.357 215.67 178.875 215.67C163.479 215.67 149.292 211.069 137.962 203.332C128.701 213.026 110.886 216.547 92.9769 211.064C79.2169 206.85 68.5591 198.288 63.4271 188.578C19.2109 173.421 -8.06073 136.139 2.13609 103.805C12.6317 70.5241 58.8477 55.0907 105.363 69.3332C106.074 69.551 106.782 69.775 107.485 70.0041C110.137 54.5957 117.702 39.2005 130.063 26.3547Z" fill="white"/>
<path d="M231.652 136.095C222.864 138.399 215.75 133.878 215.75 133.878L246.169 119.826C246.169 119.826 240.441 133.791 231.652 136.095Z" fill="#312783" stroke="#312783" stroke-width="6.90195" stroke-linecap="round"/>
<path d="M199.365 146.855C199.365 146.855 203.864 131.646 226.147 121.826C248.43 112.007 263.994 116.342 263.994 116.342" stroke="#312783" stroke-width="8.4947" stroke-linecap="round"/>
<path d="M214.805 153.281C214.474 153.029 214.166 152.735 213.965 152.379C213.764 152.024 213.685 151.636 213.754 151.265C213.823 150.893 214.034 150.559 214.35 150.299C214.665 150.039 215.057 149.874 215.457 149.757C215.457 149.757 215.457 149.757 215.457 149.757C216.139 149.468 216.96 149.189 217.698 148.919C220.705 147.836 223.476 147.019 226.273 146.554C230.361 145.867 234.342 144.681 238.166 142.962C243.682 140.441 249.056 137.391 253.197 133.022C253.678 132.513 254.193 131.862 254.507 131.463C254.734 131.082 255.072 130.764 255.49 130.594C255.908 130.425 256.366 130.417 256.774 130.576C257.183 130.735 257.515 131.051 257.708 131.458C257.902 131.865 257.936 132.329 257.846 132.763C257.846 132.763 257.846 132.763 257.846 132.763C257.535 133.831 257.229 134.564 256.849 135.392C253.691 141.952 248.2 146.887 242.27 150.584C237.888 153.29 232.95 155.128 227.855 155.98C224.364 156.566 220.688 156.14 217.315 154.641C216.461 154.262 215.685 153.833 214.805 153.281Z" fill="#312783"/>
<path d="M137.344 136.095C146.132 138.399 153.247 133.878 153.247 133.878L122.827 119.826C122.827 119.826 128.556 133.791 137.344 136.095Z" fill="#312783" stroke="#312783" stroke-width="6.90195" stroke-linecap="round"/>
<path d="M169.631 146.855C169.631 146.855 165.133 131.646 142.849 121.826C120.566 112.007 105.002 116.342 105.002 116.342" stroke="#312783" stroke-width="8.4947" stroke-linecap="round"/>
<path d="M154.191 153.281C154.522 153.029 154.83 152.735 155.031 152.379C155.232 152.024 155.311 151.636 155.242 151.265C155.173 150.893 154.962 150.559 154.647 150.299C154.331 150.039 153.939 149.874 153.54 149.757C153.54 149.757 153.54 149.757 153.54 149.757C152.858 149.468 152.036 149.189 151.298 148.919C148.291 147.836 145.521 147.019 142.723 146.554C138.635 145.867 134.655 144.681 130.83 142.962C125.314 140.441 119.941 137.391 115.799 133.022C115.318 132.513 114.803 131.862 114.489 131.463C114.262 131.082 113.924 130.764 113.506 130.594C113.088 130.425 112.63 130.417 112.222 130.576C111.813 130.735 111.481 131.051 111.288 131.458C111.094 131.865 111.06 132.329 111.15 132.763C111.15 132.763 111.15 132.763 111.15 132.763C111.462 133.831 111.767 134.564 112.148 135.392C115.305 141.952 120.796 146.887 126.726 150.584C131.108 153.29 136.046 155.128 141.141 155.98C144.633 156.566 148.308 156.14 151.681 154.641C152.535 154.262 153.312 153.833 154.191 153.281Z" fill="#312783"/>
</svg>
