<svg width="367" height="391" viewBox="0 0 367 391" fill="none" xmlns="http://www.w3.org/2000/svg">
<path d="M55.1994 274.775C64.753 274.775 84.4063 262.491 93.687 238.471C102.968 214.45 110.338 187.973 110.338 187.973L279.301 192.613V198.072C279.301 198.072 290.766 248.024 299.227 272.864C307.689 297.703 318.062 300.433 329.799 308.622C341.537 316.811 341.264 329.094 334.44 334.007C327.616 338.921 319.973 334.007 319.973 334.007C325.978 340.74 329.253 345.472 329.799 353.934C330.345 362.395 319.154 374.406 303.049 364.852C286.944 355.298 291.312 343.834 291.312 343.834C287.49 348.474 275.186 354.207 268.383 339.467C261.58 324.727 274.388 290.333 273.296 272.864C272.204 255.394 255.554 200.256 255.554 200.256L232.625 198.072C232.625 198.072 232.352 343.692 240.814 351.477C249.275 359.262 279.847 358.847 286.398 362.668C292.949 366.49 305.506 377.681 297.317 383.959C289.128 390.238 236.173 389.419 227.711 386.962C219.25 384.505 213.517 380.957 211.607 370.038C209.696 359.12 204.237 200.256 204.237 200.256H181.308C181.308 200.256 178.851 361.031 174.484 372.768C170.116 384.505 163.292 386.689 154.831 388.327C146.369 389.965 94.5059 392.089 90.1385 386.962C85.7711 381.835 85.7711 371.197 96.9626 363.487C108.154 355.778 132.994 361.304 145.277 352.842C157.56 344.38 153.739 198.072 153.739 198.072L129.172 200.256C126.442 228.644 115.251 260.58 101.876 274.775C88.5008 288.969 63.1153 309.168 39.9135 313.535C16.7117 317.903 1.15287 312.716 0.0610253 299.614C-0.886339 288.246 9.46878 287.358 12.226 287.322C9.76647 287.202 1.39045 285.976 2.79065 274.775C4.42842 261.672 21.3521 267.405 19.4413 266.313C17.5306 265.221 18.8954 227.552 39.9135 227.279C60.9316 227.006 42.3701 253.756 42.3701 261.945C42.3701 270.134 45.6457 274.775 55.1994 274.775Z" fill="#0053FF"/>
<path d="M138.061 26.3547C167.639 -4.38551 213.473 -8.88755 240.432 16.299C252.186 27.28 258.41 42.0916 259.243 57.8537C294.145 43.8506 332.874 51.3347 353.345 78.6652C378.263 111.932 366.692 162.006 327.501 190.507C297.251 212.506 259.387 215.222 232.227 200.019C220.276 209.738 204.355 215.67 186.873 215.67C171.477 215.67 157.29 211.069 145.96 203.332C136.699 213.026 118.884 216.547 100.975 211.064C87.2149 206.85 76.5572 198.288 71.4252 188.578C27.209 173.421 -0.0626843 136.139 10.1341 103.805C20.6297 70.5241 66.8457 55.0907 113.361 69.3332C114.072 69.551 114.78 69.775 115.483 70.0041C118.136 54.5957 125.7 39.2005 138.061 26.3547Z" fill="white"/>
<path d="M235.624 135.842C227.27 135.842 224.164 127.878 224.164 127.878L247.603 127.878C247.603 127.878 243.978 135.842 235.624 135.842Z" fill="#312783" stroke="#312783" stroke-width="6.45362" stroke-linecap="round"/>
<path d="M267.161 122.716C267.161 122.716 261.412 147.3 235.627 147.3C209.843 147.3 204.233 122.954 204.233 122.954" stroke="#312783" stroke-width="7.48605" stroke-linecap="round"/>
<line x1="204.339" y1="121.732" x2="266.476" y2="121.732" stroke="#312783" stroke-width="7.94291" stroke-linecap="round"/>
<path d="M250.493 152.22L249.016 148.516" stroke="#312783" stroke-width="6.95005" stroke-linecap="round"/>
<path d="M269.331 140.172L261.633 138.045" stroke="#312783" stroke-width="6.95005" stroke-linecap="round"/>
<path d="M145.905 136.055C137.551 136.055 134.445 128.091 134.445 128.091L157.884 128.091C157.884 128.091 154.259 136.055 145.905 136.055Z" fill="#312783" stroke="#312783" stroke-width="6.45362" stroke-linecap="round"/>
<path d="M177.438 122.933C177.438 122.933 171.689 147.516 145.905 147.517C120.12 147.517 114.51 123.17 114.51 123.17" stroke="#312783" stroke-width="7.48605" stroke-linecap="round"/>
<line x1="114.616" y1="121.948" x2="176.754" y2="121.948" stroke="#312783" stroke-width="7.94291" stroke-linecap="round"/>
<path d="M160.77 152.436L159.293 148.732" stroke="#312783" stroke-width="6.95005" stroke-linecap="round"/>
<path d="M179.612 140.389L171.914 138.262" stroke="#312783" stroke-width="6.95005" stroke-linecap="round"/>
</svg>
