<svg width="387" height="421" viewBox="0 0 387 421" fill="none" xmlns="http://www.w3.org/2000/svg">
<path d="M112.901 277.296C141.394 272.597 155.962 223.525 155.962 223.525L320.492 201.309C320.492 201.309 338.702 312.621 340.844 314.361C342.986 316.101 375.336 325.324 369.766 338.027C364.195 350.731 354.341 345.51 354.341 345.51C354.341 345.51 363.553 360.43 349.628 363.956C335.703 367.481 327.133 349.512 327.133 349.512C327.133 349.512 323.492 360.301 312.566 351.079C301.64 341.856 314.279 320.626 314.279 315.927C314.279 311.229 296.284 211.054 296.284 211.054L266.077 236.054C266.077 236.054 271.862 373.556 273.575 377.732C275.289 381.908 330.133 403.893 315.136 416.886C300.14 429.879 250.652 405.227 246.368 390.957C242.083 376.688 239.512 236.054 239.512 236.054H215.518C215.518 236.054 212.947 378.776 208.02 388.869C203.092 398.962 152.1 428.075 138.603 412.936C125.107 397.796 180.812 381.735 182.741 377.732C184.669 373.73 188.311 236.054 188.311 236.054H178.456C178.456 236.054 178.456 274.337 134.753 294.175C91.0491 314.013 57.2003 289.825 57.2003 289.825C57.2003 289.825 43.4892 300.788 31.2781 285.126C19.067 269.465 38.3478 261.286 38.3478 261.286C38.3478 261.286 0 261.808 0 247.365C0 232.921 34.9201 246.321 34.9201 246.321C34.9201 246.321 16.71 225.787 29.5641 219.174C42.4182 212.561 51.416 236.054 51.416 236.054C51.416 236.054 61.485 263.722 64.9127 266.159C68.3404 268.595 84.4079 281.994 112.901 277.296Z" fill="#0053FF"/>
<path d="M205.194 18.2295C248.13 9.74193 288.362 32.6041 295.055 69.2935C295.171 69.9288 295.275 70.5647 295.369 71.1998C326.032 64.5539 358.699 83.5362 371.418 117.048C385.41 153.915 369.961 194.404 336.912 207.483C324.696 212.317 311.785 212.729 299.655 209.466C285.766 229.969 254.009 244.308 217.047 244.319C167.285 244.335 126.937 218.379 126.927 186.344C126.927 184.745 127.028 183.16 127.225 181.592C101.509 166.49 88.5176 140.392 97.9193 120.36C104.525 106.286 120.577 98.6296 139.341 98.6773C133.603 62.4445 162.786 26.6129 205.194 18.2295Z" fill="white"/>
<path d="M283.967 148.989C275.967 148.989 272.994 141.363 272.994 141.363L295.436 141.363C295.436 141.363 291.966 148.989 283.967 148.989Z" fill="#312783" stroke="#312783" stroke-width="6.17946" stroke-linecap="round"/>
<path d="M314.163 136.423C314.163 136.423 308.658 159.962 283.969 159.962C259.28 159.962 253.908 136.65 253.908 136.65" stroke="#312783" stroke-width="7.16803" stroke-linecap="round"/>
<line x1="254.008" y1="135.48" x2="313.506" y2="135.48" stroke="#312783" stroke-width="7.60548" stroke-linecap="round"/>
<path d="M298.204 164.674L296.789 161.127" stroke="#312783" stroke-width="6.6548" stroke-linecap="round"/>
<path d="M316.24 153.137L308.869 151.1" stroke="#312783" stroke-width="6.6548" stroke-linecap="round"/>
<path d="M195.533 149.196C187.534 149.196 184.56 141.57 184.56 141.57L207.003 141.57C207.003 141.57 203.532 149.196 195.533 149.196Z" fill="#312783" stroke="#312783" stroke-width="6.17946" stroke-linecap="round"/>
<path d="M225.73 136.63C225.73 136.63 220.225 160.169 195.536 160.169C170.847 160.169 165.475 136.857 165.475 136.857" stroke="#312783" stroke-width="7.16803" stroke-linecap="round"/>
<line x1="165.572" y1="135.687" x2="225.07" y2="135.687" stroke="#312783" stroke-width="7.60548" stroke-linecap="round"/>
<path d="M209.77 164.881L208.355 161.334" stroke="#312783" stroke-width="6.6548" stroke-linecap="round"/>
<path d="M227.807 153.344L220.436 151.307" stroke="#312783" stroke-width="6.6548" stroke-linecap="round"/>
</svg>
