<svg width="350" height="403" viewBox="0 0 350 403" fill="none" xmlns="http://www.w3.org/2000/svg">
<path d="M117.936 184.661C117.936 184.661 78.0367 268.135 61.4748 282.558C44.913 296.981 44.5542 291.354 33.8469 288.089C23.1397 284.825 13.943 293.055 14.2759 299.796C14.6088 306.536 23.4292 312.856 23.4292 312.856C23.4292 312.856 5.10279 320.643 15.5407 330.274C25.9786 339.905 38.7659 327.752 38.7659 327.752C39.5821 332.717 43.5616 344.286 54.6791 336.476C62.8224 330.755 57.6097 321.522 65.7405 309.336C73.866 297.159 138.924 214.796 138.97 214.753L149.024 219.377L152.135 214.019L117.936 184.661Z" fill="#0053FF"/>
<path d="M307.263 257.086C313.659 224.647 285.236 191.233 285.236 191.233L307.263 185.515C307.263 185.515 351.353 249.08 336.504 277.19C321.655 305.299 239.177 301.133 239.177 301.133C239.177 301.133 251.522 304.603 254.035 314.427C256.548 324.25 242.612 321.052 242.612 321.052C242.612 321.052 247.516 339.997 239.177 340.241C230.838 340.486 224.8 326.692 224.8 326.692L224.807 300.225C224.807 300.225 225.548 284.083 232.31 282.455C239.072 280.826 300.866 289.526 307.263 257.086Z" fill="#0053FF"/>
<path d="M224.011 235.671L224.647 241.348L224.387 241.323C224.387 241.323 224.159 363.196 231.241 369.711C235.492 373.622 246.41 375.06 255.645 376.277C261.795 377.087 267.2 377.799 269.391 379.077C274.874 382.276 285.383 391.642 278.529 396.896C271.676 402.151 227.357 401.465 220.275 399.409C213.193 397.353 208.396 394.383 206.797 385.245C205.198 376.108 200.629 243.151 200.629 243.151H181.439C181.439 243.151 179.383 377.707 175.728 387.53C172.073 397.353 166.362 399.181 159.28 400.551C152.198 401.922 108.793 403.7 105.138 399.409C101.482 395.118 101.482 386.215 110.849 379.763C115.423 376.612 122.721 376.103 130.19 375.581C138.014 375.036 146.024 374.477 151.284 370.853C161.564 363.771 158.366 241.323 158.366 241.323L150.776 241.998V233.66L224.011 235.671Z" fill="#0053FF"/>
<path d="M168.194 18.2295C211.13 9.74193 251.362 32.6041 258.055 69.2935C258.171 69.9288 258.275 70.5647 258.369 71.1998C289.032 64.5539 321.699 83.5362 334.418 117.048C348.41 153.915 332.961 194.404 299.912 207.483C287.696 212.317 274.785 212.729 262.655 209.466C248.766 229.969 217.009 244.308 180.047 244.319C130.285 244.335 89.9373 218.379 89.9272 186.344C89.9267 184.745 90.0277 183.16 90.2246 181.592C64.5088 166.49 51.5176 140.392 60.9193 120.36C67.5246 106.286 83.5768 98.6296 102.341 98.6773C96.6029 62.4445 125.786 26.6129 168.194 18.2295Z" fill="white"/>
<path d="M241.965 151.987C233.965 151.987 230.992 144.361 230.992 144.361L253.435 144.361C253.435 144.361 249.964 151.987 241.965 151.987Z" fill="#312783" stroke="#312783" stroke-width="6.17946" stroke-linecap="round"/>
<path d="M272.159 139.421C272.159 139.421 266.654 162.96 241.965 162.96C217.276 162.96 211.904 139.648 211.904 139.648" stroke="#312783" stroke-width="7.16803" stroke-linecap="round"/>
<line x1="212.006" y1="138.477" x2="271.504" y2="138.477" stroke="#312783" stroke-width="7.60548" stroke-linecap="round"/>
<path d="M256.2 167.672L254.785 164.125" stroke="#312783" stroke-width="6.6548" stroke-linecap="round"/>
<path d="M274.238 156.135L266.867 154.098" stroke="#312783" stroke-width="6.6548" stroke-linecap="round"/>
<path d="M153.531 152.194C145.532 152.194 142.558 144.568 142.558 144.568L165.001 144.568C165.001 144.568 161.53 152.194 153.531 152.194Z" fill="#312783" stroke="#312783" stroke-width="6.17946" stroke-linecap="round"/>
<path d="M183.726 139.628C183.726 139.628 178.221 163.167 153.532 163.167C128.843 163.167 123.471 139.855 123.471 139.855" stroke="#312783" stroke-width="7.16803" stroke-linecap="round"/>
<line x1="123.568" y1="138.686" x2="183.066" y2="138.686" stroke="#312783" stroke-width="7.60548" stroke-linecap="round"/>
<path d="M167.766 167.879L166.352 164.332" stroke="#312783" stroke-width="6.6548" stroke-linecap="round"/>
<path d="M185.803 156.342L178.432 154.305" stroke="#312783" stroke-width="6.6548" stroke-linecap="round"/>
</svg>
