<svg width="350" height="394" viewBox="0 0 350 394" fill="none" xmlns="http://www.w3.org/2000/svg">
<path d="M117.936 176.309C117.936 176.309 78.0367 259.783 61.4748 274.206C44.913 288.629 44.5542 283.003 33.8469 279.738C23.1397 276.473 13.943 284.703 14.2759 291.444C14.6088 298.185 23.4292 304.505 23.4292 304.505C23.4292 304.505 5.10279 312.291 15.5407 321.922C25.9786 331.553 38.7659 319.401 38.7659 319.401C39.5821 324.365 43.5616 335.934 54.6791 328.124C62.8224 322.404 57.6097 313.17 65.7405 300.985C73.866 288.807 138.924 206.444 138.97 206.402L149.024 211.025L152.135 205.667L117.936 176.309Z" fill="#0053FF"/>
<path d="M307.265 248.735C313.661 216.295 285.238 182.882 285.238 182.882L307.265 177.163C307.265 177.163 351.355 240.729 336.506 268.838C321.657 296.948 239.179 292.781 239.179 292.781C239.179 292.781 251.524 296.252 254.037 306.075C256.55 315.898 242.614 312.7 242.614 312.7C242.614 312.7 247.518 331.645 239.179 331.89C230.84 332.134 224.802 318.341 224.802 318.341L224.809 291.874C224.809 291.874 225.55 275.732 232.312 274.103C239.074 272.474 300.868 281.174 307.265 248.735Z" fill="#0053FF"/>
<path d="M224.015 227.32L224.65 232.996L224.391 232.972C224.391 232.972 224.163 354.844 231.245 361.359C235.495 365.27 246.413 366.708 255.649 367.925C261.799 368.735 267.204 369.447 269.395 370.726C274.878 373.924 285.387 383.29 278.533 388.545C271.68 393.799 227.361 393.114 220.279 391.058C213.197 389.002 208.4 386.032 206.801 376.894C205.202 367.756 200.633 234.799 200.633 234.799H181.443C181.443 234.799 179.387 369.355 175.732 379.178C172.077 389.002 166.365 390.829 159.284 392.2C152.202 393.571 108.797 395.348 105.142 391.058C101.486 386.767 101.486 377.864 110.853 371.411C115.427 368.26 122.725 367.751 130.194 367.23C138.018 366.684 146.028 366.125 151.288 362.502C161.568 355.42 158.37 232.972 158.37 232.972L150.78 233.646V225.309L224.015 227.32Z" fill="#0053FF"/>
<path d="M181.65 18.2662C225.971 4.48287 271.032 21.2197 282.298 55.6483C284.943 63.7315 285.489 72.0712 284.204 80.2799C305.993 85.1823 325.987 102.536 335.535 127.694C349.786 165.245 335.371 205.962 303.339 218.639C287.713 224.822 270.782 223.189 255.882 215.537C241.7 229.79 217.111 240.85 188.273 244.182C140.734 249.674 99.6503 232.09 96.5093 204.908C95.9874 200.391 96.5459 195.892 98.0586 191.507C93.6591 189.168 89.3175 186.494 85.0843 183.484C47.0343 156.427 32.1078 112.498 51.7446 85.3659C65.9046 65.8012 94.1696 60.3136 123.102 68.9191C131.48 46.8347 152.871 27.2164 181.65 18.2662Z" fill="white"/>
<path d="M241.806 148.145C233.807 148.145 230.833 140.519 230.833 140.519L253.276 140.519C253.276 140.519 249.805 148.145 241.806 148.145Z" fill="#312783" stroke="#312783" stroke-width="6.17946" stroke-linecap="round"/>
<path d="M272.003 135.579C272.003 135.579 266.498 159.118 241.809 159.118C217.12 159.118 211.748 135.806 211.748 135.806" stroke="#312783" stroke-width="7.16803" stroke-linecap="round"/>
<line x1="211.85" y1="134.637" x2="271.348" y2="134.637" stroke="#312783" stroke-width="7.60548" stroke-linecap="round"/>
<path d="M256.043 163.83L254.629 160.283" stroke="#312783" stroke-width="6.6548" stroke-linecap="round"/>
<path d="M274.078 152.293L266.707 150.256" stroke="#312783" stroke-width="6.6548" stroke-linecap="round"/>
<path d="M153.373 148.352C145.374 148.352 142.4 140.726 142.4 140.726L164.843 140.726C164.843 140.726 161.372 148.352 153.373 148.352Z" fill="#312783" stroke="#312783" stroke-width="6.17946" stroke-linecap="round"/>
<path d="M183.569 135.786C183.569 135.786 178.064 159.325 153.375 159.325C128.686 159.325 123.315 136.013 123.315 136.013" stroke="#312783" stroke-width="7.16803" stroke-linecap="round"/>
<line x1="123.412" y1="134.844" x2="182.91" y2="134.844" stroke="#312783" stroke-width="7.60548" stroke-linecap="round"/>
<path d="M167.61 164.037L166.195 160.49" stroke="#312783" stroke-width="6.6548" stroke-linecap="round"/>
<path d="M185.645 152.5L178.273 150.463" stroke="#312783" stroke-width="6.6548" stroke-linecap="round"/>
</svg>
