<svg width="382" height="420" viewBox="0 0 382 420" fill="none" xmlns="http://www.w3.org/2000/svg">
<path d="M112.901 275.987C141.394 271.289 155.962 222.216 155.962 222.216L320.492 200C320.492 200 338.702 311.312 340.844 313.053C342.986 314.793 375.336 324.016 369.766 336.719C364.195 349.422 354.341 344.201 354.341 344.201C354.341 344.201 363.553 359.122 349.628 362.647C335.703 366.173 327.133 348.204 327.133 348.204C327.133 348.204 323.492 358.993 312.566 349.77C301.64 340.547 314.279 319.317 314.279 314.619C314.279 309.92 296.284 209.745 296.284 209.745L266.077 234.745C266.077 234.745 271.862 372.247 273.575 376.424C275.289 380.6 330.133 402.584 315.136 415.577C300.14 428.57 250.652 403.918 246.368 389.649C242.083 375.379 239.512 234.745 239.512 234.745H215.518C215.518 234.745 212.947 377.468 208.02 387.561C203.092 397.654 152.1 426.767 138.603 411.627C125.107 396.488 180.812 380.426 182.741 376.424C184.669 372.421 188.311 234.745 188.311 234.745H178.456C178.456 234.745 178.456 273.029 134.753 292.867C91.0491 312.705 57.2003 288.516 57.2003 288.516C57.2003 288.516 43.4892 299.479 31.2781 283.818C19.067 268.156 38.3478 259.978 38.3478 259.978C38.3478 259.978 0 260.499 0 246.056C0 231.613 34.9201 245.012 34.9201 245.012C34.9201 245.012 16.71 224.478 29.5641 217.866C42.4182 211.253 51.416 234.745 51.416 234.745C51.416 234.745 61.485 262.414 64.9127 264.85C68.3404 267.286 84.4079 280.686 112.901 275.987Z" fill="#0053FF"/>
<path d="M213.646 18.2662C257.967 4.48287 303.028 21.2197 314.294 55.6483C316.939 63.7315 317.485 72.0712 316.2 80.2799C337.989 85.1823 357.983 102.536 367.531 127.694C381.782 165.245 367.367 205.962 335.335 218.639C319.709 224.822 302.778 223.189 287.878 215.537C273.696 229.79 249.107 240.85 220.269 244.182C172.73 249.674 131.646 232.09 128.505 204.908C127.984 200.391 128.542 195.892 130.055 191.507C125.655 189.168 121.314 186.494 117.08 183.484C79.0304 156.427 64.1039 112.498 83.7407 85.3659C97.9007 65.8012 126.166 60.3136 155.098 68.9191C163.476 46.8347 184.867 27.2164 213.646 18.2662Z" fill="white"/>
<path d="M268.806 149.145C260.807 149.145 257.833 141.519 257.833 141.519L280.276 141.519C280.276 141.519 276.805 149.145 268.806 149.145Z" fill="#312783" stroke="#312783" stroke-width="6.17946" stroke-linecap="round"/>
<path d="M299.003 136.579C299.003 136.579 293.498 160.118 268.809 160.118C244.12 160.118 238.748 136.806 238.748 136.806" stroke="#312783" stroke-width="7.16803" stroke-linecap="round"/>
<line x1="238.85" y1="135.637" x2="298.348" y2="135.637" stroke="#312783" stroke-width="7.60548" stroke-linecap="round"/>
<path d="M283.043 164.83L281.629 161.283" stroke="#312783" stroke-width="6.6548" stroke-linecap="round"/>
<path d="M301.078 153.293L293.707 151.256" stroke="#312783" stroke-width="6.6548" stroke-linecap="round"/>
<path d="M180.373 149.352C172.374 149.352 169.4 141.726 169.4 141.726L191.843 141.726C191.843 141.726 188.372 149.352 180.373 149.352Z" fill="#312783" stroke="#312783" stroke-width="6.17946" stroke-linecap="round"/>
<path d="M210.569 136.786C210.569 136.786 205.064 160.325 180.375 160.325C155.686 160.325 150.315 137.013 150.315 137.013" stroke="#312783" stroke-width="7.16803" stroke-linecap="round"/>
<line x1="150.412" y1="135.844" x2="209.91" y2="135.844" stroke="#312783" stroke-width="7.60548" stroke-linecap="round"/>
<path d="M194.61 165.037L193.195 161.49" stroke="#312783" stroke-width="6.6548" stroke-linecap="round"/>
<path d="M212.645 153.5L205.273 151.463" stroke="#312783" stroke-width="6.6548" stroke-linecap="round"/>
</svg>
