<svg width="400" height="425" viewBox="0 0 400 425" fill="none" xmlns="http://www.w3.org/2000/svg">
<path d="M112.901 281.641C141.394 276.942 155.962 227.87 155.962 227.87L320.492 230.654C320.492 230.654 338.702 316.966 340.844 318.706C342.986 320.446 375.336 329.669 369.766 342.372C364.195 355.075 354.341 349.855 354.341 349.855C354.341 349.855 363.553 364.775 349.628 368.301C335.703 371.826 327.133 353.857 327.133 353.857C327.133 353.857 323.492 364.646 312.566 355.424C301.64 346.201 314.279 324.971 314.279 320.272C314.279 315.574 296.284 240.399 296.284 240.399H266.077C266.077 240.399 271.862 377.901 273.575 382.077C275.289 386.253 330.133 408.238 315.136 421.231C300.14 434.224 250.652 409.572 246.368 395.302C242.083 381.033 239.512 240.399 239.512 240.399H215.518C215.518 240.399 212.947 383.121 208.02 393.214C203.092 403.307 152.1 432.42 138.603 417.281C125.107 402.141 180.812 386.079 182.741 382.077C184.669 378.075 188.311 240.399 188.311 240.399H178.456C178.456 240.399 178.456 278.682 134.753 298.52C91.0491 318.358 57.2003 294.17 57.2003 294.17C57.2003 294.17 43.4892 305.133 31.2781 289.471C19.067 273.81 38.3478 265.631 38.3478 265.631C38.3478 265.631 0 266.153 0 251.71C0 237.266 34.9201 250.666 34.9201 250.666C34.9201 250.666 16.71 230.132 29.5641 223.519C42.4182 216.907 51.416 240.399 51.416 240.399C51.416 240.399 61.485 268.067 64.9127 270.504C68.3404 272.94 84.4079 286.339 112.901 281.641Z" fill="#0053FF"/>
<path d="M120.411 85.9053C126.22 55.033 165.871 36.2783 208.974 44.0155C228.21 47.4686 244.883 55.6147 256.932 66.3211C299.628 55.4188 343.831 73.097 362.266 111.361C381.041 150.334 366.882 197.787 330.859 225.326C330.809 242.949 322.879 259.137 308.297 267.565C289.921 278.186 266.524 273.279 250.078 257.162C243.188 260.358 235.701 263.094 227.755 265.226C184.405 276.863 143.867 266.203 137.213 241.414C136.107 237.295 136.007 233.046 136.807 228.769C132.404 227.204 128.008 225.321 123.666 223.11C84.6405 203.242 64.7475 164.539 79.2333 136.664C87.131 121.467 103.617 112.625 123.304 110.946C119.941 102.898 118.816 94.3859 120.411 85.9053Z" fill="white"/>
<path d="M272.806 173.143C264.807 173.143 261.833 165.517 261.833 165.517L284.276 165.517C284.276 165.517 280.805 173.143 272.806 173.143Z" fill="#312783" stroke="#312783" stroke-width="6.17946" stroke-linecap="round"/>
<path d="M303.003 160.577C303.003 160.577 297.498 184.116 272.809 184.116C248.12 184.116 242.748 160.804 242.748 160.804" stroke="#312783" stroke-width="7.16803" stroke-linecap="round"/>
<line x1="242.85" y1="159.635" x2="302.348" y2="159.635" stroke="#312783" stroke-width="7.60548" stroke-linecap="round"/>
<path d="M287.043 188.83L285.629 185.283" stroke="#312783" stroke-width="6.6548" stroke-linecap="round"/>
<path d="M305.082 177.291L297.711 175.254" stroke="#312783" stroke-width="6.6548" stroke-linecap="round"/>
<path d="M184.373 173.35C176.374 173.35 173.4 165.724 173.4 165.724L195.843 165.724C195.843 165.724 192.372 173.35 184.373 173.35Z" fill="#312783" stroke="#312783" stroke-width="6.17946" stroke-linecap="round"/>
<path d="M214.569 160.786C214.569 160.786 209.064 184.325 184.375 184.325C159.686 184.325 154.315 161.013 154.315 161.013" stroke="#312783" stroke-width="7.16803" stroke-linecap="round"/>
<line x1="154.412" y1="159.842" x2="213.91" y2="159.842" stroke="#312783" stroke-width="7.60548" stroke-linecap="round"/>
<path d="M198.61 189.035L197.195 185.488" stroke="#312783" stroke-width="6.6548" stroke-linecap="round"/>
<path d="M216.648 177.498L209.277 175.461" stroke="#312783" stroke-width="6.6548" stroke-linecap="round"/>
</svg>
