<svg width="349" height="426" viewBox="0 0 349 426" fill="none" xmlns="http://www.w3.org/2000/svg">
<path d="M290.385 202C290.51 202.168 346.579 277.462 339.894 296.066C333.205 314.677 220.295 321.307 220.12 321.317C220.201 321.415 237.928 342.873 231.034 347.994C224.124 353.127 221.186 345.251 221.186 345.251C221.186 345.251 221.639 362.299 213.033 362.551C210.084 362.637 208.246 360.919 207.104 358.623C208.152 376.385 209.695 389.997 211.969 392.089C216.356 396.125 227.623 397.61 237.153 398.865C243.501 399.701 249.078 400.436 251.34 401.756C256.998 405.056 267.843 414.722 260.77 420.145C253.698 425.567 207.961 424.859 200.652 422.737C193.344 420.616 188.392 417.551 186.742 408.121C185.092 398.691 180.377 261.479 180.377 261.479H160.573C160.573 261.479 158.452 400.341 154.68 410.479C150.908 420.616 145.013 422.502 137.705 423.917C130.396 425.332 85.6031 427.165 81.831 422.737C78.059 418.309 78.0587 409.122 87.7246 402.463C92.4451 399.211 99.9773 398.685 107.685 398.147C115.759 397.584 124.026 397.008 129.454 393.269C132.681 391.046 134.617 377.81 135.755 360.466C134.608 362.037 132.976 363.09 130.652 363.021C122.067 362.769 122.498 345.802 122.5 345.723C122.479 345.777 119.537 353.581 112.651 348.466C105.742 343.333 123.566 321.788 123.566 321.788C123.566 321.788 10.4856 315.163 3.79195 296.538C-2.90134 277.913 53.3017 202.471 53.3017 202.471L76.0332 208.372C76.0332 208.372 27.283 270.135 32.8984 281.979C38.5145 293.823 123.672 300.832 130.652 302.513C134.217 303.371 136.159 308.138 137.207 312.596C137.406 284.359 136.762 259.594 136.762 259.594L128.93 260.29V251.686L204.508 253.761L205.163 259.619L204.895 259.594C204.895 259.594 204.844 287.367 205.547 317.509C206.12 312.666 207.887 303.281 213.033 302.041C220.011 300.36 305.171 293.352 310.787 281.508C316.396 269.677 267.765 208.042 267.653 207.901L290.385 202Z" fill="#0053FF"/>
<path d="M69.3181 85.9032C75.1269 55.031 114.778 36.2762 157.881 44.0134C177.117 47.4664 193.789 55.6127 205.839 66.3189C248.535 55.4168 292.738 73.096 311.172 111.36C329.947 150.333 315.789 197.784 279.766 225.324C279.716 242.947 271.786 259.136 257.204 267.564C238.828 278.185 215.429 273.278 198.983 257.161C192.093 260.356 184.606 263.093 176.662 265.225C133.311 276.862 92.7742 266.201 86.1199 241.413C85.0142 237.294 84.914 233.044 85.714 228.767C81.3104 227.202 76.9147 225.318 72.5731 223.108C33.5474 203.24 13.6535 164.537 28.1392 136.662C36.037 121.465 52.5239 112.623 72.2111 110.945C68.8475 102.897 67.7225 94.384 69.3181 85.9032Z" fill="white"/>
<path d="M218.806 176.143C210.807 176.143 207.833 168.517 207.833 168.517L230.276 168.517C230.276 168.517 226.805 176.143 218.806 176.143Z" fill="#312783" stroke="#312783" stroke-width="6.17946" stroke-linecap="round"/>
<path d="M249.003 163.577C249.003 163.577 243.498 187.116 218.809 187.116C194.12 187.116 188.748 163.804 188.748 163.804" stroke="#312783" stroke-width="7.16803" stroke-linecap="round"/>
<line x1="188.85" y1="162.635" x2="248.348" y2="162.635" stroke="#312783" stroke-width="7.60548" stroke-linecap="round"/>
<path d="M233.043 191.83L231.629 188.283" stroke="#312783" stroke-width="6.6548" stroke-linecap="round"/>
<path d="M251.082 180.291L243.711 178.254" stroke="#312783" stroke-width="6.6548" stroke-linecap="round"/>
<path d="M130.373 176.35C122.374 176.35 119.4 168.724 119.4 168.724L141.843 168.724C141.843 168.724 138.372 176.35 130.373 176.35Z" fill="#312783" stroke="#312783" stroke-width="6.17946" stroke-linecap="round"/>
<path d="M160.569 163.786C160.569 163.786 155.064 187.325 130.375 187.325C105.686 187.325 100.315 164.013 100.315 164.013" stroke="#312783" stroke-width="7.16803" stroke-linecap="round"/>
<line x1="100.412" y1="162.842" x2="159.91" y2="162.842" stroke="#312783" stroke-width="7.60548" stroke-linecap="round"/>
<path d="M144.61 192.035L143.195 188.488" stroke="#312783" stroke-width="6.6548" stroke-linecap="round"/>
<path d="M162.648 180.498L155.277 178.461" stroke="#312783" stroke-width="6.6548" stroke-linecap="round"/>
</svg>
