<svg width="350" height="403" viewBox="0 0 350 403" fill="none" xmlns="http://www.w3.org/2000/svg">
<path d="M117.936 184.659C117.936 184.659 78.0367 268.133 61.4748 282.556C44.913 296.979 44.5542 291.352 33.8469 288.088C23.1397 284.823 13.943 293.053 14.2759 299.794C14.6088 306.534 23.4292 312.854 23.4292 312.854C23.4292 312.854 5.10279 320.641 15.5407 330.272C25.9786 339.903 38.7659 327.751 38.7659 327.751C39.5821 332.715 43.5616 344.284 54.6791 336.474C62.8224 330.753 57.6097 321.52 65.7405 309.334C73.866 297.157 138.924 214.794 138.97 214.751L149.024 219.375L152.135 214.017L117.936 184.659Z" fill="#0053FF"/>
<path d="M307.265 257.084C313.661 224.645 285.238 191.232 285.238 191.232L307.265 185.513C307.265 185.513 351.355 249.078 336.506 277.188C321.657 305.297 239.179 301.131 239.179 301.131C239.179 301.131 251.524 304.601 254.037 314.425C256.55 324.248 242.614 321.05 242.614 321.05C242.614 321.05 247.518 339.995 239.179 340.239C230.84 340.484 224.802 326.69 224.802 326.69L224.809 300.223C224.809 300.223 225.55 284.081 232.312 282.453C239.074 280.824 300.868 289.524 307.265 257.084Z" fill="#0053FF"/>
<path d="M224.011 235.669L224.647 241.346L224.387 241.321C224.387 241.321 224.159 363.194 231.241 369.709C235.492 373.62 246.41 375.058 255.645 376.275C261.795 377.085 267.2 377.797 269.391 379.075C274.874 382.274 285.383 391.64 278.529 396.894C271.676 402.149 227.357 401.463 220.275 399.407C213.193 397.351 208.396 394.381 206.797 385.243C205.198 376.106 200.629 243.149 200.629 243.149H181.439C181.439 243.149 179.383 377.705 175.728 387.528C172.073 397.351 166.362 399.179 159.28 400.549C152.198 401.92 108.793 403.698 105.138 399.407C101.482 395.116 101.482 386.213 110.849 379.761C115.423 376.61 122.721 376.101 130.19 375.58C138.014 375.034 146.024 374.475 151.284 370.851C161.564 363.769 158.366 241.321 158.366 241.321L150.776 241.996V233.658L224.011 235.669Z" fill="#0053FF"/>
<path d="M168.194 18.2295C211.13 9.74193 251.362 32.6041 258.055 69.2935C258.171 69.9288 258.275 70.5647 258.369 71.1998C289.032 64.5539 321.699 83.5362 334.418 117.048C348.41 153.915 332.961 194.404 299.912 207.483C287.696 212.317 274.785 212.729 262.655 209.466C248.766 229.969 217.009 244.308 180.047 244.319C130.285 244.335 89.9373 218.379 89.9272 186.344C89.9267 184.745 90.0277 183.16 90.2246 181.592C64.5088 166.49 51.5176 140.392 60.9193 120.36C67.5246 106.286 83.5768 98.6296 102.341 98.6773C96.6029 62.4445 125.786 26.6129 168.194 18.2295Z" fill="white"/>
<path d="M246.652 151.735C237.864 154.04 230.75 149.519 230.75 149.519L261.169 135.467C261.169 135.467 255.441 149.431 246.652 151.735Z" fill="#312783" stroke="#312783" stroke-width="6.90195" stroke-linecap="round"/>
<path d="M214.365 162.496C214.365 162.496 218.864 147.286 241.147 137.467C263.43 127.648 278.994 131.983 278.994 131.983" stroke="#312783" stroke-width="8.4947" stroke-linecap="round"/>
<path d="M229.805 168.922C229.474 168.67 229.166 168.376 228.965 168.02C228.764 167.664 228.685 167.276 228.754 166.905C228.823 166.534 229.034 166.2 229.35 165.94C229.665 165.679 230.057 165.515 230.457 165.398C230.457 165.398 230.457 165.398 230.457 165.398C231.139 165.108 231.96 164.83 232.698 164.56C235.705 163.476 238.476 162.66 241.273 162.195C245.361 161.508 249.342 160.322 253.166 158.602C258.682 156.081 264.056 153.031 268.197 148.662C268.678 148.153 269.193 147.503 269.507 147.104C269.734 146.723 270.072 146.404 270.49 146.235C270.908 146.066 271.366 146.058 271.774 146.217C272.183 146.375 272.515 146.691 272.708 147.098C272.902 147.506 272.936 147.969 272.846 148.404C272.846 148.404 272.846 148.404 272.846 148.404C272.535 149.471 272.229 150.204 271.849 151.033C268.691 157.592 263.2 162.528 257.27 166.225C252.888 168.93 247.95 170.768 242.855 171.621C239.364 172.206 235.688 171.781 232.315 170.282C231.461 169.902 230.685 169.473 229.805 168.922Z" fill="#312783"/>
<path d="M152.348 151.735C161.136 154.04 168.25 149.519 168.25 149.519L137.831 135.467C137.831 135.467 143.559 149.431 152.348 151.735Z" fill="#312783" stroke="#312783" stroke-width="6.90195" stroke-linecap="round"/>
<path d="M184.635 162.496C184.635 162.496 180.136 147.286 157.853 137.467C135.57 127.648 120.006 131.983 120.006 131.983" stroke="#312783" stroke-width="8.4947" stroke-linecap="round"/>
<path d="M169.195 168.922C169.526 168.67 169.834 168.376 170.035 168.02C170.236 167.664 170.315 167.276 170.246 166.905C170.177 166.534 169.966 166.2 169.65 165.94C169.335 165.679 168.943 165.515 168.543 165.398C168.543 165.398 168.543 165.398 168.543 165.398C167.861 165.108 167.04 164.83 166.302 164.56C163.295 163.476 160.524 162.66 157.727 162.195C153.639 161.508 149.658 160.322 145.834 158.602C140.318 156.081 134.944 153.031 130.803 148.662C130.322 148.153 129.807 147.503 129.493 147.104C129.266 146.723 128.928 146.404 128.51 146.235C128.092 146.066 127.634 146.058 127.226 146.217C126.817 146.375 126.485 146.691 126.292 147.098C126.098 147.506 126.064 147.969 126.154 148.404C126.154 148.404 126.154 148.404 126.154 148.404C126.465 149.471 126.771 150.204 127.151 151.033C130.309 157.592 135.8 162.528 141.73 166.225C146.112 168.93 151.05 170.768 156.145 171.621C159.636 172.206 163.312 171.781 166.685 170.282C167.539 169.902 168.315 169.473 169.195 168.922Z" fill="#312783"/>
</svg>
