<svg width="350" height="403" viewBox="0 0 350 403" fill="none" xmlns="http://www.w3.org/2000/svg">
<path d="M117.936 184.659C117.936 184.659 78.0367 268.133 61.4748 282.556C44.913 296.979 44.5542 291.352 33.8469 288.088C23.1397 284.823 13.943 293.053 14.2759 299.794C14.6088 306.534 23.4292 312.854 23.4292 312.854C23.4292 312.854 5.10279 320.641 15.5407 330.272C25.9786 339.903 38.7659 327.751 38.7659 327.751C39.5821 332.715 43.5616 344.284 54.6791 336.474C62.8224 330.753 57.6097 321.52 65.7405 309.334C73.866 297.157 138.924 214.794 138.97 214.751L149.024 219.375L152.135 214.017L117.936 184.659Z" fill="#0053FF"/>
<path d="M307.265 257.084C313.661 224.645 285.238 191.232 285.238 191.232L307.265 185.513C307.265 185.513 351.355 249.078 336.506 277.188C321.657 305.297 239.179 301.131 239.179 301.131C239.179 301.131 251.524 304.601 254.037 314.425C256.55 324.248 242.614 321.05 242.614 321.05C242.614 321.05 247.518 339.995 239.179 340.239C230.84 340.484 224.802 326.69 224.802 326.69L224.809 300.223C224.809 300.223 225.55 284.081 232.312 282.453C239.074 280.824 300.868 289.524 307.265 257.084Z" fill="#0053FF"/>
<path d="M224.011 235.669L224.647 241.346L224.387 241.321C224.387 241.321 224.159 363.194 231.241 369.709C235.492 373.62 246.41 375.058 255.645 376.275C261.795 377.085 267.2 377.797 269.391 379.075C274.874 382.274 285.383 391.64 278.529 396.894C271.676 402.149 227.357 401.463 220.275 399.407C213.193 397.351 208.396 394.381 206.797 385.243C205.198 376.106 200.629 243.149 200.629 243.149H181.439C181.439 243.149 179.383 377.705 175.728 387.528C172.073 397.351 166.362 399.179 159.28 400.549C152.198 401.92 108.793 403.698 105.138 399.407C101.482 395.116 101.482 386.213 110.849 379.761C115.423 376.61 122.721 376.101 130.19 375.58C138.014 375.034 146.024 374.475 151.284 370.851C161.564 363.769 158.366 241.321 158.366 241.321L150.776 241.996V233.658L224.011 235.669Z" fill="#0053FF"/>
<path d="M168.194 18.2295C211.13 9.74193 251.362 32.6041 258.055 69.2935C258.171 69.9288 258.275 70.5647 258.369 71.1998C289.032 64.5539 321.699 83.5362 334.418 117.048C348.41 153.915 332.961 194.404 299.912 207.483C287.696 212.317 274.785 212.729 262.655 209.466C248.766 229.969 217.009 244.308 180.047 244.319C130.285 244.335 89.9373 218.379 89.9272 186.344C89.9267 184.745 90.0277 183.16 90.2246 181.592C64.5088 166.49 51.5176 140.392 60.9193 120.36C67.5246 106.286 83.5768 98.6296 102.341 98.6773C96.6029 62.4445 125.786 26.6129 168.194 18.2295Z" fill="white"/>
<path d="M216.108 164.587C216.108 164.587 215.874 138.221 236.255 129.24C256.636 120.259 275.219 136.679 275.219 136.679" stroke="#312783" stroke-width="7.3255" stroke-linecap="round"/>
<ellipse cx="241.597" cy="143.718" rx="19.9162" ry="17.8709" transform="rotate(-16.2061 241.597 143.718)" fill="#312783"/>
<path d="M257.652 167.316L256.117 163.469" stroke="#312783" stroke-width="5.49413" stroke-linecap="round"/>
<path d="M275.51 156.173L268.887 154.107" stroke="#312783" stroke-width="5.49413" stroke-linecap="round"/>
<path d="M185.165 164.587C185.165 164.587 185.399 138.221 165.019 129.24C144.638 120.259 126.054 136.679 126.054 136.679" stroke="#312783" stroke-width="7.3255" stroke-linecap="round"/>
<ellipse cx="19.9162" cy="17.8709" rx="19.9162" ry="17.8709" transform="matrix(-0.960264 -0.279093 -0.279093 0.960264 183.789 132.115)" fill="#312783"/>
<path d="M143.618 167.316L145.152 163.469" stroke="#312783" stroke-width="5.49413" stroke-linecap="round"/>
<path d="M125.764 156.173L132.387 154.107" stroke="#312783" stroke-width="5.49413" stroke-linecap="round"/>
</svg>
