<svg width="347" height="404" viewBox="0 0 347 404" fill="none" xmlns="http://www.w3.org/2000/svg">
<path d="M55.1994 287.802C64.753 287.802 84.4063 275.519 93.687 251.498C102.968 227.477 110.338 201 110.338 201L279.301 205.64V211.1C279.301 211.1 290.766 261.052 299.227 285.891C307.689 310.731 318.062 313.46 329.799 321.649C341.537 329.838 341.264 342.121 334.44 347.035C327.616 351.948 319.973 347.035 319.973 347.035C325.978 353.768 329.253 358.499 329.799 366.961C330.345 375.423 319.154 387.433 303.049 377.879C286.944 368.326 291.312 356.861 291.312 356.861C287.49 361.502 275.186 367.234 268.383 352.494C261.58 337.754 274.388 303.361 273.296 285.891C272.204 268.422 255.554 213.283 255.554 213.283L232.625 211.1C232.625 211.1 232.352 356.719 240.814 364.504C249.275 372.289 279.847 371.874 286.398 375.696C292.949 379.517 305.506 390.709 297.317 396.987C289.128 403.265 236.173 402.446 227.711 399.989C219.25 397.533 213.517 393.984 211.607 383.066C209.696 372.147 204.237 213.283 204.237 213.283H181.308C181.308 213.283 178.851 374.058 174.484 385.795C170.116 397.533 163.292 399.716 154.831 401.354C146.369 402.992 94.5059 405.116 90.1385 399.989C85.7711 394.862 85.7711 384.224 96.9626 376.515C108.154 368.805 132.994 374.331 145.277 365.869C157.56 357.407 153.739 211.1 153.739 211.1L129.172 213.283C126.442 241.671 115.251 273.608 101.876 287.802C88.5008 301.996 63.1153 322.195 39.9135 326.563C16.7117 330.93 1.15287 325.744 0.0610253 312.641C-0.886339 301.273 9.46878 300.385 12.226 300.349C9.76647 300.229 1.39045 299.003 2.79065 287.802C4.42842 274.7 21.3521 280.432 19.4413 279.34C17.5306 278.248 18.8954 240.579 39.9135 240.307C60.9316 240.034 42.3701 266.784 42.3701 274.973C42.3701 283.162 45.6457 287.802 55.1994 287.802Z" fill="#0053FF"/>
<path d="M165.205 18.2295C208.141 9.74193 248.374 32.6041 255.067 69.2935C255.183 69.9288 255.286 70.5647 255.381 71.1998C286.044 64.5539 318.711 83.5362 331.429 117.048C345.421 153.915 329.972 194.404 296.923 207.483C284.707 212.317 271.796 212.729 259.667 209.466C245.778 229.969 214.02 244.308 177.058 244.319C127.297 244.335 86.949 218.379 86.9389 186.344C86.9384 184.745 87.0394 183.16 87.2363 181.592C61.5205 166.49 48.5293 140.392 57.931 120.36C64.5363 106.286 80.5885 98.6296 99.3529 98.6773C93.6146 62.4445 122.797 26.6129 165.205 18.2295Z" fill="white"/>
<path d="M240.652 151.735C231.864 154.04 224.75 149.519 224.75 149.519L255.169 135.467C255.169 135.467 249.441 149.431 240.652 151.735Z" fill="#312783" stroke="#312783" stroke-width="6.90195" stroke-linecap="round"/>
<path d="M208.365 162.496C208.365 162.496 212.864 147.286 235.147 137.467C257.43 127.648 272.994 131.983 272.994 131.983" stroke="#312783" stroke-width="8.4947" stroke-linecap="round"/>
<path d="M223.805 168.922C223.474 168.67 223.166 168.376 222.965 168.02C222.764 167.664 222.685 167.276 222.754 166.905C222.823 166.534 223.034 166.2 223.35 165.94C223.665 165.679 224.057 165.515 224.457 165.398C224.457 165.398 224.457 165.398 224.457 165.398C225.139 165.108 225.96 164.83 226.698 164.56C229.705 163.476 232.476 162.66 235.273 162.195C239.361 161.508 243.342 160.322 247.166 158.602C252.682 156.081 258.056 153.031 262.197 148.662C262.678 148.153 263.193 147.503 263.507 147.104C263.734 146.723 264.072 146.404 264.49 146.235C264.908 146.066 265.366 146.058 265.774 146.217C266.183 146.375 266.515 146.691 266.708 147.098C266.902 147.506 266.936 147.969 266.846 148.404C266.846 148.404 266.846 148.404 266.846 148.404C266.535 149.471 266.229 150.204 265.849 151.033C262.691 157.592 257.2 162.528 251.27 166.225C246.888 168.93 241.95 170.768 236.855 171.621C233.364 172.206 229.688 171.781 226.315 170.282C225.461 169.902 224.685 169.473 223.805 168.922Z" fill="#312783"/>
<path d="M146.348 151.735C155.136 154.04 162.25 149.519 162.25 149.519L131.831 135.467C131.831 135.467 137.559 149.431 146.348 151.735Z" fill="#312783" stroke="#312783" stroke-width="6.90195" stroke-linecap="round"/>
<path d="M178.635 162.496C178.635 162.496 174.136 147.286 151.853 137.467C129.57 127.648 114.006 131.983 114.006 131.983" stroke="#312783" stroke-width="8.4947" stroke-linecap="round"/>
<path d="M163.191 168.922C163.522 168.67 163.83 168.376 164.031 168.02C164.232 167.664 164.311 167.276 164.242 166.905C164.173 166.534 163.962 166.2 163.647 165.94C163.331 165.679 162.939 165.515 162.54 165.398C162.54 165.398 162.54 165.398 162.54 165.398C161.858 165.108 161.036 164.83 160.298 164.56C157.291 163.476 154.521 162.66 151.723 162.195C147.635 161.508 143.655 160.322 139.83 158.602C134.314 156.081 128.941 153.031 124.799 148.662C124.318 148.153 123.803 147.503 123.489 147.104C123.262 146.723 122.924 146.404 122.506 146.235C122.088 146.066 121.63 146.058 121.222 146.217C120.813 146.375 120.481 146.691 120.288 147.098C120.094 147.506 120.06 147.969 120.15 148.404C120.15 148.404 120.15 148.404 120.15 148.404C120.462 149.471 120.767 150.204 121.148 151.033C124.305 157.592 129.796 162.528 135.726 166.225C140.108 168.93 145.046 170.768 150.141 171.621C153.633 172.206 157.308 171.781 160.681 170.282C161.535 169.902 162.312 169.473 163.191 168.922Z" fill="#312783"/>
</svg>
