<svg width="387" height="421" viewBox="0 0 387 421" fill="none" xmlns="http://www.w3.org/2000/svg">
<path d="M112.901 277.296C141.394 272.597 155.962 223.525 155.962 223.525L320.492 201.309C320.492 201.309 338.702 312.621 340.844 314.361C342.986 316.101 375.336 325.324 369.766 338.027C364.195 350.731 354.341 345.51 354.341 345.51C354.341 345.51 363.553 360.43 349.628 363.956C335.703 367.481 327.133 349.512 327.133 349.512C327.133 349.512 323.492 360.301 312.566 351.079C301.64 341.856 314.279 320.626 314.279 315.927C314.279 311.229 296.284 211.054 296.284 211.054L266.077 236.054C266.077 236.054 271.862 373.556 273.575 377.732C275.289 381.908 330.133 403.893 315.136 416.886C300.14 429.879 250.652 405.227 246.368 390.957C242.083 376.688 239.512 236.054 239.512 236.054H215.518C215.518 236.054 212.947 378.776 208.02 388.869C203.092 398.962 152.1 428.075 138.603 412.936C125.107 397.796 180.812 381.735 182.741 377.732C184.669 373.73 188.311 236.054 188.311 236.054H178.456C178.456 236.054 178.456 274.337 134.753 294.175C91.0491 314.013 57.2003 289.825 57.2003 289.825C57.2003 289.825 43.4892 300.788 31.2781 285.126C19.067 269.465 38.3478 261.286 38.3478 261.286C38.3478 261.286 0 261.808 0 247.365C0 232.921 34.9201 246.321 34.9201 246.321C34.9201 246.321 16.71 225.787 29.5641 219.174C42.4182 212.561 51.416 236.054 51.416 236.054C51.416 236.054 61.485 263.722 64.9127 266.159C68.3404 268.595 84.4079 281.994 112.901 277.296Z" fill="#0053FF"/>
<path d="M205.194 18.2295C248.13 9.74193 288.362 32.6041 295.055 69.2935C295.171 69.9288 295.275 70.5647 295.369 71.1998C326.032 64.5539 358.699 83.5362 371.418 117.048C385.41 153.915 369.961 194.404 336.912 207.483C324.696 212.317 311.785 212.729 299.655 209.466C285.766 229.969 254.009 244.308 217.047 244.319C167.285 244.335 126.937 218.379 126.927 186.344C126.927 184.745 127.028 183.16 127.225 181.592C101.509 166.49 88.5176 140.392 97.9193 120.36C104.525 106.286 120.577 98.6296 139.341 98.6773C133.603 62.4445 162.786 26.6129 205.194 18.2295Z" fill="white"/>
<path d="M283.652 151.735C274.864 154.04 267.75 149.519 267.75 149.519L298.169 135.467C298.169 135.467 292.441 149.431 283.652 151.735Z" fill="#312783" stroke="#312783" stroke-width="6.90195" stroke-linecap="round"/>
<path d="M251.365 162.496C251.365 162.496 255.864 147.286 278.147 137.467C300.43 127.648 315.994 131.983 315.994 131.983" stroke="#312783" stroke-width="8.4947" stroke-linecap="round"/>
<path d="M266.805 168.922C266.474 168.67 266.166 168.376 265.965 168.02C265.764 167.664 265.685 167.276 265.754 166.905C265.823 166.534 266.034 166.2 266.35 165.94C266.665 165.679 267.057 165.515 267.457 165.398C267.457 165.398 267.457 165.398 267.457 165.398C268.139 165.108 268.96 164.83 269.698 164.56C272.705 163.476 275.476 162.66 278.273 162.195C282.361 161.508 286.342 160.322 290.166 158.602C295.682 156.081 301.056 153.031 305.197 148.662C305.678 148.153 306.193 147.503 306.507 147.104C306.734 146.723 307.072 146.404 307.49 146.235C307.908 146.066 308.366 146.058 308.774 146.217C309.183 146.375 309.515 146.691 309.708 147.098C309.902 147.506 309.936 147.969 309.846 148.404C309.846 148.404 309.846 148.404 309.846 148.404C309.535 149.471 309.229 150.204 308.849 151.033C305.691 157.592 300.2 162.528 294.27 166.225C289.888 168.93 284.95 170.768 279.855 171.621C276.364 172.206 272.688 171.781 269.315 170.282C268.461 169.902 267.685 169.473 266.805 168.922Z" fill="#312783"/>
<path d="M189.348 151.735C198.136 154.04 205.25 149.519 205.25 149.519L174.831 135.467C174.831 135.467 180.559 149.431 189.348 151.735Z" fill="#312783" stroke="#312783" stroke-width="6.90195" stroke-linecap="round"/>
<path d="M221.635 162.496C221.635 162.496 217.136 147.286 194.853 137.467C172.57 127.648 157.006 131.983 157.006 131.983" stroke="#312783" stroke-width="8.4947" stroke-linecap="round"/>
<path d="M206.191 168.922C206.522 168.67 206.83 168.376 207.031 168.02C207.232 167.664 207.311 167.276 207.242 166.905C207.173 166.534 206.962 166.2 206.647 165.94C206.331 165.679 205.939 165.515 205.54 165.398C205.54 165.398 205.54 165.398 205.54 165.398C204.858 165.108 204.036 164.83 203.298 164.56C200.291 163.476 197.521 162.66 194.723 162.195C190.635 161.508 186.655 160.322 182.83 158.602C177.314 156.081 171.941 153.031 167.799 148.662C167.318 148.153 166.803 147.503 166.489 147.104C166.262 146.723 165.924 146.404 165.506 146.235C165.088 146.066 164.63 146.058 164.222 146.217C163.813 146.375 163.481 146.691 163.288 147.098C163.094 147.506 163.06 147.969 163.15 148.404C163.15 148.404 163.15 148.404 163.15 148.404C163.462 149.471 163.767 150.204 164.148 151.033C167.305 157.592 172.796 162.528 178.726 166.225C183.108 168.93 188.046 170.768 193.141 171.621C196.633 172.206 200.308 171.781 203.681 170.282C204.535 169.902 205.312 169.473 206.191 168.922Z" fill="#312783"/>
</svg>
