<svg width="347" height="404" viewBox="0 0 347 404" fill="none" xmlns="http://www.w3.org/2000/svg">
<path d="M55.1994 287.802C64.753 287.802 84.4063 275.519 93.687 251.498C102.968 227.477 110.338 201 110.338 201L279.301 205.64V211.1C279.301 211.1 290.766 261.052 299.227 285.891C307.689 310.731 318.062 313.46 329.799 321.649C341.537 329.838 341.264 342.121 334.44 347.035C327.616 351.948 319.973 347.035 319.973 347.035C325.978 353.768 329.253 358.499 329.799 366.961C330.345 375.423 319.154 387.433 303.049 377.879C286.944 368.326 291.312 356.861 291.312 356.861C287.49 361.502 275.186 367.234 268.383 352.494C261.58 337.754 274.388 303.361 273.296 285.891C272.204 268.422 255.554 213.283 255.554 213.283L232.625 211.1C232.625 211.1 232.352 356.719 240.814 364.504C249.275 372.289 279.847 371.874 286.398 375.696C292.949 379.517 305.506 390.709 297.317 396.987C289.128 403.265 236.173 402.446 227.711 399.989C219.25 397.533 213.517 393.984 211.607 383.066C209.696 372.147 204.237 213.283 204.237 213.283H181.308C181.308 213.283 178.851 374.058 174.484 385.795C170.116 397.533 163.292 399.716 154.831 401.354C146.369 402.992 94.5059 405.116 90.1385 399.989C85.7711 394.862 85.7711 384.224 96.9626 376.515C108.154 368.805 132.994 374.331 145.277 365.869C157.56 357.407 153.739 211.1 153.739 211.1L129.172 213.283C126.442 241.671 115.251 273.608 101.876 287.802C88.5008 301.996 63.1153 322.195 39.9135 326.563C16.7117 330.93 1.15287 325.744 0.0610253 312.641C-0.886339 301.273 9.46878 300.385 12.226 300.349C9.76647 300.229 1.39045 299.003 2.79065 287.802C4.42842 274.7 21.3521 280.432 19.4413 279.34C17.5306 278.248 18.8954 240.579 39.9135 240.307C60.9316 240.034 42.3701 266.784 42.3701 274.973C42.3701 283.162 45.6457 287.802 55.1994 287.802Z" fill="#0053FF"/>
<path d="M165.205 18.2295C208.141 9.74193 248.374 32.6041 255.067 69.2935C255.183 69.9288 255.286 70.5647 255.381 71.1998C286.044 64.5539 318.711 83.5362 331.429 117.048C345.421 153.915 329.972 194.404 296.923 207.483C284.707 212.317 271.796 212.729 259.667 209.466C245.778 229.969 214.02 244.308 177.058 244.319C127.297 244.335 86.949 218.379 86.9389 186.344C86.9384 184.745 87.0394 183.16 87.2363 181.592C61.5205 166.49 48.5293 140.392 57.931 120.36C64.5363 106.286 80.5885 98.6296 99.3529 98.6773C93.6146 62.4445 122.797 26.6129 165.205 18.2295Z" fill="white"/>
<path d="M142.202 167.548L143.898 163.295" stroke="#312783" stroke-width="6.07355" stroke-linecap="round"/>
<path d="M122.456 155.23L129.777 152.947" stroke="#312783" stroke-width="6.07355" stroke-linecap="round"/>
<path d="M146.841 155.876C153.173 157.669 159.5 155.287 159.5 155.287L136.082 140.249C136.082 140.249 140.51 154.084 146.841 155.876Z" fill="#312783" stroke="#312783" stroke-width="6.57968" stroke-linecap="round"/>
<path d="M178.446 168.715C178.446 168.715 173.487 155.663 152.622 142.593C131.757 129.523 119.006 132.203 119.006 132.203" stroke="#312783" stroke-width="9.11033" stroke-linecap="round"/>
<path d="M241.685 167.136L239.988 162.883" stroke="#312783" stroke-width="6.07355" stroke-linecap="round"/>
<path d="M261.423 154.818L254.102 152.535" stroke="#312783" stroke-width="6.07355" stroke-linecap="round"/>
<path d="M237.042 155.462C230.71 157.255 224.383 154.873 224.383 154.873L247.801 139.834C247.801 139.834 243.373 153.67 237.042 155.462Z" fill="#312783" stroke="#312783" stroke-width="6.57968" stroke-linecap="round"/>
<path d="M205.44 168.302C205.44 168.302 210.4 155.251 231.265 142.181C252.13 129.111 264.881 131.791 264.881 131.791" stroke="#312783" stroke-width="9.11033" stroke-linecap="round"/>
</svg>
