<svg width="347" height="404" viewBox="0 0 347 404" fill="none" xmlns="http://www.w3.org/2000/svg">
<path d="M55.1994 287.802C64.753 287.802 84.4063 275.519 93.687 251.498C102.968 227.477 110.338 201 110.338 201L279.301 205.64V211.1C279.301 211.1 290.766 261.052 299.227 285.891C307.689 310.731 318.062 313.46 329.799 321.649C341.537 329.838 341.264 342.121 334.44 347.035C327.616 351.948 319.973 347.035 319.973 347.035C325.978 353.768 329.253 358.499 329.799 366.961C330.345 375.423 319.154 387.433 303.049 377.879C286.944 368.326 291.312 356.861 291.312 356.861C287.49 361.502 275.186 367.234 268.383 352.494C261.58 337.754 274.388 303.361 273.296 285.891C272.204 268.422 255.554 213.283 255.554 213.283L232.625 211.1C232.625 211.1 232.352 356.719 240.814 364.504C249.275 372.289 279.847 371.874 286.398 375.696C292.949 379.517 305.506 390.709 297.317 396.987C289.128 403.265 236.173 402.446 227.711 399.989C219.25 397.533 213.517 393.984 211.607 383.066C209.696 372.147 204.237 213.283 204.237 213.283H181.308C181.308 213.283 178.851 374.058 174.484 385.795C170.116 397.533 163.292 399.716 154.831 401.354C146.369 402.992 94.5059 405.116 90.1385 399.989C85.7711 394.862 85.7711 384.224 96.9626 376.515C108.154 368.805 132.994 374.331 145.277 365.869C157.56 357.407 153.739 211.1 153.739 211.1L129.172 213.283C126.442 241.671 115.251 273.608 101.876 287.802C88.5008 301.996 63.1153 322.195 39.9135 326.563C16.7117 330.93 1.15287 325.744 0.0610253 312.641C-0.886339 301.273 9.46878 300.385 12.226 300.349C9.76647 300.229 1.39045 299.003 2.79065 287.802C4.42842 274.7 21.3521 280.432 19.4413 279.34C17.5306 278.248 18.8954 240.579 39.9135 240.307C60.9316 240.034 42.3701 266.784 42.3701 274.973C42.3701 283.162 45.6457 287.802 55.1994 287.802Z" fill="#0053FF"/>
<path d="M165.206 18.2294C208.141 9.74189 248.374 32.6048 255.067 69.2945C255.183 69.9295 255.286 70.5649 255.381 71.1998C286.044 64.554 318.711 83.5369 331.43 117.049C345.421 153.916 329.972 194.404 296.922 207.483C284.707 212.317 271.797 212.729 259.668 209.466C245.779 229.97 214.02 244.309 177.057 244.32C127.296 244.336 86.9489 218.379 86.939 186.344C86.9385 184.744 87.0394 183.16 87.2363 181.592C61.5205 166.49 48.5293 140.392 57.931 120.36C64.5365 106.286 80.5886 98.6295 99.353 98.6773C93.6148 62.4445 122.797 26.6127 165.206 18.2294Z" fill="white"/>
<path d="M238.963 151.989C230.963 151.989 227.99 144.363 227.99 144.363L250.433 144.363C250.433 144.363 246.962 151.989 238.963 151.989Z" fill="#312783" stroke="#312783" stroke-width="6.17946" stroke-linecap="round"/>
<path d="M269.159 139.423C269.159 139.423 263.654 162.962 238.965 162.962C214.276 162.962 208.904 139.65 208.904 139.65" stroke="#312783" stroke-width="7.16803" stroke-linecap="round"/>
<line x1="209.006" y1="138.479" x2="268.504" y2="138.479" stroke="#312783" stroke-width="7.60548" stroke-linecap="round"/>
<path d="M253.2 167.674L251.785 164.127" stroke="#312783" stroke-width="6.6548" stroke-linecap="round"/>
<path d="M271.234 156.137L263.863 154.1" stroke="#312783" stroke-width="6.6548" stroke-linecap="round"/>
<path d="M150.529 152.196C142.53 152.196 139.556 144.57 139.556 144.57L161.999 144.57C161.999 144.57 158.528 152.196 150.529 152.196Z" fill="#312783" stroke="#312783" stroke-width="6.17946" stroke-linecap="round"/>
<path d="M180.726 139.63C180.726 139.63 175.221 163.169 150.532 163.169C125.843 163.169 120.471 139.857 120.471 139.857" stroke="#312783" stroke-width="7.16803" stroke-linecap="round"/>
<line x1="120.568" y1="138.687" x2="180.066" y2="138.687" stroke="#312783" stroke-width="7.60548" stroke-linecap="round"/>
<path d="M164.766 167.881L163.352 164.334" stroke="#312783" stroke-width="6.6548" stroke-linecap="round"/>
<path d="M182.801 156.344L175.43 154.307" stroke="#312783" stroke-width="6.6548" stroke-linecap="round"/>
</svg>
