<svg width="112" height="440" viewBox="0 0 112 440" fill="none" xmlns="http://www.w3.org/2000/svg">
<path d="M55.8447 0.5C72.3654 0.500116 85.6778 12.3035 94.834 32.7041C103.994 53.1124 109.059 82.2417 109.059 117.205C109.059 142.01 105.855 163.81 100.753 180.455C98.2018 188.777 95.1722 195.823 91.8232 201.315C88.7414 206.369 85.3697 210.135 81.8252 212.356C85.0465 213.737 88.3375 216.711 91.4873 221.145C94.9694 226.046 98.3132 232.78 101.225 241.265C107.048 258.235 111.16 282.264 111.16 312.785C111.16 349.976 105.376 381.483 95.5752 403.712C85.786 425.913 71.9075 439.015 55.6533 439.015C43.3137 439.015 32.0112 431.746 22.5771 419.774C13.1399 407.799 5.52349 391.061 0.545898 371.966L0.514648 371.849L0.541016 371.73L17.1582 297.436L17.5693 295.595L18.124 297.398C22.6905 312.264 29.1046 323.308 35.7314 330.626C42.3731 337.96 49.1723 341.495 54.5078 341.495C61.8142 341.495 67.4945 337.204 71.375 329.933C75.2622 322.648 77.3086 312.419 77.3086 300.72C77.3086 288.674 75.7309 279.911 71.9482 274.166C68.1988 268.472 62.2229 265.66 53.1709 265.66H26.6953V168.775H53.1709C59.801 168.775 65.2792 166.145 69.1182 160.808C72.9731 155.448 75.208 147.311 75.208 136.255C75.208 122.973 72.6851 113.399 68.5811 107.161C64.4913 100.945 58.8196 98.0195 52.4062 98.0195C46.7861 98.0197 40.705 101.394 34.8799 108.165C29.0614 114.928 23.5491 125.024 19.0742 138.319L18.5117 139.993L18.1133 138.272L2.26074 69.6924L2.2334 69.5713L2.26562 69.4512C7.62279 49.4137 15.0445 32.203 24.0957 19.9902C33.144 7.78142 43.8756 0.5 55.8447 0.5Z" fill="#C3FB4F" stroke="#C3FB4F"/>
</svg>
