<svg width="111" height="426" viewBox="0 0 111 426" fill="none" xmlns="http://www.w3.org/2000/svg">
<path d="M34.3506 0.5V142.74H64.792C72.1654 142.74 78.6472 146.873 84.1992 154.148C89.7487 161.42 94.4134 171.884 98.1699 184.691C105.685 210.313 109.603 245.449 109.603 283.575C109.603 322.019 105.686 357.313 98.1709 383.014C94.4144 395.861 89.7487 406.344 84.1992 413.626C78.6471 420.911 72.1655 425.045 64.792 425.045H0.5V0.5H34.3506ZM34.3506 328.795H60.3994C62.4218 328.795 64.3497 327.849 66.125 325.92C67.9064 323.984 69.5132 321.077 70.8613 317.224C73.557 309.519 75.1787 298.152 75.1787 283.575C75.1787 269.317 73.5577 258.108 70.8623 250.483C69.5143 246.67 67.9076 243.782 66.126 241.855C64.3504 239.935 62.4221 238.99 60.3994 238.99H34.3506V328.795Z" fill="#C3FB4F" stroke="#C3FB4F"/>
</svg>
