<svg width="38" height="433" viewBox="0 0 38 433" fill="none" xmlns="http://www.w3.org/2000/svg">
<path d="M18.7627 312.285C21.4465 312.285 23.9165 314.162 26.0869 317.271C28.2691 320.398 30.2281 324.879 31.8711 330.342C35.159 341.273 37.2158 356.246 37.2158 372.475C37.2158 388.387 35.1582 403.202 31.8701 414.054C30.227 419.477 28.2691 423.938 26.0869 427.055C23.9166 430.154 21.4462 432.03 18.7627 432.03C16.0782 432.03 13.6194 430.153 11.4668 427.053C9.30265 423.936 7.36804 419.474 5.74902 414.052C2.50906 403.2 0.5 388.386 0.5 372.475C0.50003 356.247 2.50922 341.275 5.74902 330.344C7.36799 324.881 9.30265 320.399 11.4668 317.272C13.6194 314.162 16.078 312.285 18.7627 312.285ZM36.8418 0.5L36.834 1.00781L32.4414 276.598L32.4336 277.09H5.2832L5.27539 276.599L0.691406 1.00879L0.682617 0.5H36.8418Z" fill="#C3FB4F" stroke="#C3FB4F"/>
</svg>
