<svg width="114" height="426" viewBox="0 0 114 426" fill="none" xmlns="http://www.w3.org/2000/svg">
<path d="M73.1953 0.5C79.7028 0.5 85.3127 4.03081 90.0439 10.0576C94.7713 16.0795 98.6615 24.6384 101.75 34.8271C107.929 55.2101 110.939 82.251 110.939 108.95C110.939 135.33 108.502 157.437 104.552 174.073C102.577 182.391 100.22 189.354 97.5947 194.803C95.1441 199.889 92.4427 203.691 89.5674 206.037C92.8456 208.015 95.8879 211.985 98.625 217.501C101.557 223.41 104.177 231.169 106.366 240.358C110.746 258.74 113.423 282.911 113.423 309.61C113.423 340.433 110.317 369.219 104.067 390.317C100.943 400.864 97.0225 409.524 92.2852 415.557C87.543 421.596 81.9447 425.045 75.4873 425.045H0.5V0.5H73.1953ZM34.3506 331.97H66.8926C68.6675 331.97 70.3065 331.113 71.7881 329.404C73.2764 327.688 74.5819 325.138 75.6572 321.838C77.8069 315.241 78.998 305.774 78.998 294.37C78.998 283.921 77.8549 274.451 75.7266 267.61C74.6616 264.188 73.36 261.456 71.8574 259.59C70.3586 257.728 68.6974 256.77 66.8926 256.77H34.3506V331.97ZM34.3506 163.06H65.7471C67.2151 163.06 68.6255 162.263 69.9385 160.637C71.2538 159.008 72.4301 156.592 73.4111 153.487C75.3718 147.283 76.5156 138.448 76.5156 128C76.5156 117.87 75.3724 109.195 73.4121 103.07C72.4312 100.006 71.2547 97.6099 69.9395 95.9902C68.6262 94.3731 67.2157 93.5752 65.7471 93.5752H34.3506V163.06Z" fill="#C3FB4F" stroke="#C3FB4F"/>
</svg>
