<svg width="132" height="434" viewBox="0 0 132 434" fill="none" xmlns="http://www.w3.org/2000/svg">
<path d="M38.6523 0.5L38.7119 0.931641L65.7207 195.496L92.9189 0.930664L92.9795 0.5H131.049L130.961 1.0752L79.2021 341.436V341.437C75.1897 367.481 69.9772 390.236 62.8115 406.49C55.6617 422.709 46.4684 432.665 34.3975 432.665C21.8442 432.665 9.49985 420.96 1.65039 399.955L1.60547 399.833L1.625 399.704L14.6123 314.614L14.8857 312.821L15.5693 314.502C17.7607 319.887 20.2749 325.084 23.0107 328.926C25.7711 332.802 28.6477 335.145 31.5322 335.145C33.4702 335.145 35.124 334.549 36.5879 333.335C38.0635 332.111 39.3672 330.239 40.5557 327.657C42.9309 322.497 44.781 314.645 46.6865 303.888L0.669922 1.0752L0.582031 0.5H38.6523Z" fill="#C3FB4F" stroke="#C3FB4F"/>
</svg>
