<svg width="111" height="426" viewBox="0 0 111 426" fill="none" xmlns="http://www.w3.org/2000/svg">
<path d="M110.357 0.5V425.045H76.3154V282.805H60.4395L39.3018 424.619L39.2383 425.045H0.59082L0.688477 424.463L26.626 269.114C20.5795 261.994 14.2219 248.622 9.36133 227.969C4.45634 207.127 1.06348 178.829 1.06348 141.97C1.0635 102.573 5.12439 67.278 12.7354 41.8145C16.5401 29.0853 21.2414 18.7797 26.792 11.6465C32.3456 4.50944 38.7914 0.5 46.0654 0.5H110.357ZM50.8398 96.75C48.8666 96.7501 46.9371 97.6941 45.1318 99.6182C43.3223 101.547 41.6629 104.437 40.2559 108.25C37.4426 115.874 35.6787 127.081 35.6787 141.335C35.6787 156.226 37.4431 167.591 40.2559 175.214C41.6624 179.026 43.3206 181.875 45.1279 183.763C46.9299 185.645 48.8603 186.555 50.8398 186.555H76.3154V96.75H50.8398Z" fill="#C3FB4F" stroke="#C3FB4F"/>
</svg>
