<svg width="111" height="426" viewBox="0 0 111 426" fill="none" xmlns="http://www.w3.org/2000/svg">
<path d="M64.792 0.5C72.1655 0.500023 78.6471 4.63347 84.1992 11.9189C89.7487 19.201 94.4144 29.684 98.1709 42.5312C105.686 68.2316 109.603 103.526 109.603 141.97C109.603 180.096 105.686 215.232 98.1709 240.854C94.4143 253.661 89.7487 264.124 84.1992 271.396C78.6471 278.672 72.1654 282.805 64.792 282.805H34.3506V425.045H0.5V0.5H64.792ZM34.3506 186.555H60.3994C62.4221 186.555 64.3504 185.609 66.126 183.689C67.9076 181.763 69.5143 178.875 70.8623 175.062C73.5577 167.437 75.1787 156.228 75.1787 141.97C75.1787 127.393 73.557 116.026 70.8613 108.321C69.5132 104.468 67.9064 101.561 66.125 99.625C64.3496 97.6957 62.4218 96.7501 60.3994 96.75H34.3506V186.555Z" fill="#C3FB4F" stroke="#C3FB4F"/>
</svg>
