<svg width="383" height="388" viewBox="0 0 383 388" fill="none" xmlns="http://www.w3.org/2000/svg">
<path d="M126.443 154.871C126.443 154.871 83.6654 244.366 65.9088 259.829C48.1523 275.293 47.7676 269.26 36.288 265.76C24.8084 262.26 14.9483 271.083 15.3052 278.31C15.6622 285.537 25.1188 292.313 25.1188 292.313C25.1188 292.313 5.4704 300.661 16.6612 310.987C27.8521 321.313 41.5619 308.284 41.5619 308.284C42.4369 313.606 46.7034 326.01 58.6229 317.637C67.3536 311.503 61.7649 301.604 70.4822 288.539C79.1938 275.483 148.945 187.179 148.994 187.133L159.774 192.09L163.109 186.346L126.443 154.871Z" fill="#0053FF"/>
<path d="M333.35 237.5C340.208 202.721 305.812 161.915 305.812 161.915L329.429 176C329.429 176 376.698 223.935 360.778 254.072C344.858 284.209 256.43 279.742 256.43 279.742C256.43 279.742 269.666 283.463 272.36 293.995C275.054 304.527 260.114 301.098 260.114 301.098C260.114 301.098 265.371 321.409 256.43 321.671C247.49 321.933 241.017 307.145 241.017 307.145L241.023 278.769C241.023 278.769 241.819 261.463 249.068 259.716C256.317 257.97 326.492 272.279 333.35 237.5Z" fill="#0053FF"/>
<path d="M240.178 209.557L240.859 215.644L240.581 215.617C240.581 215.617 240.336 346.281 247.929 353.266C252.486 357.459 264.192 359.001 274.093 360.305C280.688 361.174 286.482 361.937 288.831 363.308C294.71 366.737 305.976 376.779 298.629 382.412C291.281 388.046 243.765 387.311 236.172 385.107C228.579 382.902 223.436 379.718 221.722 369.921C220.007 360.124 215.109 217.577 215.109 217.577H194.535C194.535 217.577 192.33 361.839 188.411 372.37C184.493 382.902 178.369 384.862 170.777 386.331C163.184 387.801 116.648 389.707 112.729 385.107C108.81 380.506 108.81 370.961 118.852 364.043C123.756 360.665 131.581 360.119 139.588 359.56C147.977 358.975 156.565 358.375 162.204 354.491C173.226 346.898 169.797 215.617 169.797 215.617L161.66 182.256V173.316L240.178 209.557Z" fill="#0053FF"/>
<path d="M153.887 26.3543C183.465 -4.38543 229.298 -8.88742 256.257 16.2987C268.011 27.2797 274.236 42.0913 275.069 57.8534C309.971 43.8505 348.7 51.3345 369.171 78.6649C394.089 111.932 382.518 162.005 343.327 190.507C313.076 212.506 275.213 215.222 248.053 200.018C236.102 209.738 220.18 215.67 202.699 215.67C187.302 215.67 173.115 211.069 161.786 203.332C152.524 213.025 134.71 216.547 116.801 211.063C103.041 206.85 92.3835 198.288 87.2513 188.579C43.0349 173.422 15.7635 136.138 25.9603 103.805C36.4562 70.524 82.672 55.0903 129.187 69.3329C129.898 69.5506 130.605 69.7738 131.308 70.0028C133.961 54.5948 141.527 39.1999 153.887 26.3543Z" fill="white"/>
<path d="M251.651 136.095C242.863 138.399 235.748 133.878 235.748 133.878L266.167 119.826C266.167 119.826 260.439 133.791 251.651 136.095Z" fill="#312783" stroke="#312783" stroke-width="6.90195" stroke-linecap="round"/>
<path d="M219.365 146.855C219.365 146.855 223.864 131.646 246.147 121.826C268.43 112.007 283.994 116.342 283.994 116.342" stroke="#312783" stroke-width="8.4947" stroke-linecap="round"/>
<path d="M234.805 153.281C234.474 153.029 234.166 152.735 233.965 152.379C233.764 152.024 233.685 151.636 233.754 151.265C233.823 150.893 234.034 150.559 234.35 150.299C234.665 150.039 235.057 149.874 235.457 149.757C235.457 149.757 235.457 149.757 235.457 149.757C236.139 149.468 236.96 149.189 237.698 148.919C240.705 147.836 243.476 147.019 246.273 146.554C250.361 145.867 254.342 144.681 258.166 142.962C263.682 140.441 269.056 137.391 273.197 133.022C273.678 132.513 274.193 131.862 274.507 131.463C274.734 131.082 275.072 130.764 275.49 130.594C275.908 130.425 276.366 130.417 276.774 130.576C277.183 130.735 277.515 131.051 277.708 131.458C277.902 131.865 277.936 132.329 277.846 132.763C277.846 132.763 277.846 132.763 277.846 132.763C277.535 133.831 277.229 134.564 276.849 135.392C273.691 141.952 268.2 146.887 262.27 150.584C257.888 153.29 252.95 155.128 247.855 155.98C244.364 156.566 240.688 156.14 237.315 154.641C236.461 154.262 235.685 153.833 234.805 153.281Z" fill="#312783"/>
<path d="M157.348 136.095C166.136 138.399 173.25 133.878 173.25 133.878L142.831 119.826C142.831 119.826 148.559 133.791 157.348 136.095Z" fill="#312783" stroke="#312783" stroke-width="6.90195" stroke-linecap="round"/>
<path d="M189.633 146.855C189.633 146.855 185.134 131.646 162.851 121.826C140.568 112.007 125.004 116.342 125.004 116.342" stroke="#312783" stroke-width="8.4947" stroke-linecap="round"/>
<path d="M174.193 153.281C174.524 153.029 174.832 152.735 175.033 152.379C175.234 152.024 175.313 151.636 175.244 151.265C175.175 150.893 174.964 150.559 174.648 150.299C174.333 150.039 173.941 149.874 173.541 149.757C173.541 149.757 173.541 149.757 173.541 149.757C172.859 149.468 172.038 149.189 171.3 148.919C168.293 147.836 165.522 147.019 162.725 146.554C158.637 145.867 154.656 144.681 150.832 142.962C145.316 140.441 139.943 137.391 135.801 133.022C135.32 132.513 134.805 131.862 134.491 131.463C134.264 131.082 133.926 130.764 133.508 130.594C133.09 130.425 132.632 130.417 132.224 130.576C131.815 130.735 131.483 131.051 131.29 131.458C131.096 131.865 131.062 132.329 131.152 132.763C131.152 132.763 131.152 132.763 131.152 132.763C131.464 133.831 131.769 134.564 132.15 135.392C135.307 141.952 140.798 146.887 146.728 150.584C151.11 153.29 156.048 155.128 161.143 155.98C164.635 156.566 168.31 156.14 171.683 154.641C172.537 154.262 173.314 153.833 174.193 153.281Z" fill="#312783"/>
</svg>
