<svg width="367" height="391" viewBox="0 0 367 391" fill="none" xmlns="http://www.w3.org/2000/svg">
<path d="M55.1994 274.775C64.753 274.775 84.4063 262.491 93.687 238.471C102.968 214.45 110.338 187.973 110.338 187.973L279.301 192.613V198.072C279.301 198.072 290.766 248.024 299.227 272.864C307.689 297.703 318.062 300.433 329.799 308.622C341.537 316.811 341.264 329.094 334.44 334.007C327.616 338.921 319.973 334.007 319.973 334.007C325.978 340.74 329.253 345.472 329.799 353.934C330.345 362.395 319.154 374.406 303.049 364.852C286.944 355.298 291.312 343.834 291.312 343.834C287.49 348.474 275.186 354.207 268.383 339.467C261.58 324.727 274.388 290.333 273.296 272.864C272.204 255.394 255.554 200.256 255.554 200.256L232.625 198.072C232.625 198.072 232.352 343.692 240.814 351.477C249.275 359.262 279.847 358.847 286.398 362.668C292.949 366.49 305.506 377.681 297.317 383.959C289.128 390.238 236.173 389.419 227.711 386.962C219.25 384.505 213.517 380.957 211.607 370.038C209.696 359.12 204.237 200.256 204.237 200.256H181.308C181.308 200.256 178.851 361.031 174.484 372.768C170.116 384.505 163.292 386.689 154.831 388.327C146.369 389.965 94.5059 392.089 90.1385 386.962C85.7711 381.835 85.7711 371.197 96.9626 363.487C108.154 355.778 132.994 361.304 145.277 352.842C157.56 344.38 153.739 198.072 153.739 198.072L129.172 200.256C126.442 228.644 115.251 260.58 101.876 274.775C88.5008 288.969 63.1153 309.168 39.9135 313.535C16.7117 317.903 1.15287 312.716 0.0610253 299.614C-0.886339 288.246 9.46878 287.358 12.226 287.322C9.76647 287.202 1.39045 285.976 2.79065 274.775C4.42842 261.672 21.3521 267.405 19.4413 266.313C17.5306 265.221 18.8954 227.552 39.9135 227.279C60.9316 227.006 42.3701 253.756 42.3701 261.945C42.3701 270.134 45.6457 274.775 55.1994 274.775Z" fill="#0053FF"/>
<path d="M138.061 26.3546C167.639 -4.38556 213.473 -8.88749 240.432 16.299C252.186 27.28 258.41 42.0916 259.243 57.8536C294.145 43.8504 332.875 51.3346 353.346 78.6652C378.263 111.932 366.692 162.006 327.501 190.507C297.251 212.506 259.388 215.222 232.228 200.019C220.277 209.738 204.355 215.67 186.873 215.67C171.477 215.67 157.29 211.069 145.96 203.332C136.699 213.026 118.884 216.547 100.975 211.064C87.2155 206.85 76.5583 198.288 71.4261 188.579C27.2094 173.422 -0.0627555 136.139 10.1341 103.805C20.6298 70.524 66.8466 55.0905 113.362 69.3331C114.073 69.5509 114.78 69.775 115.483 70.004C118.136 54.5957 125.701 39.2004 138.061 26.3546Z" fill="white"/>
<path d="M238.652 137.095C229.864 139.399 222.75 134.878 222.75 134.878L253.169 120.826C253.169 120.826 247.441 134.791 238.652 137.095Z" fill="#312783" stroke="#312783" stroke-width="6.90195" stroke-linecap="round"/>
<path d="M206.367 147.855C206.367 147.855 210.866 132.646 233.149 122.826C255.432 113.007 270.996 117.342 270.996 117.342" stroke="#312783" stroke-width="8.4947" stroke-linecap="round"/>
<path d="M221.807 154.281C221.476 154.029 221.168 153.735 220.967 153.379C220.766 153.024 220.687 152.636 220.756 152.265C220.825 151.893 221.036 151.559 221.352 151.299C221.667 151.039 222.059 150.874 222.459 150.757C222.459 150.757 222.459 150.757 222.459 150.757C223.141 150.468 223.962 150.189 224.7 149.919C227.707 148.836 230.478 148.019 233.275 147.554C237.363 146.867 241.344 145.681 245.168 143.962C250.684 141.441 256.057 138.391 260.199 134.022C260.68 133.513 261.195 132.862 261.509 132.463C261.736 132.082 262.074 131.764 262.492 131.594C262.91 131.425 263.368 131.417 263.776 131.576C264.185 131.735 264.517 132.051 264.71 132.458C264.904 132.865 264.938 133.329 264.848 133.763C264.848 133.763 264.848 133.763 264.848 133.763C264.536 134.831 264.231 135.564 263.85 136.392C260.693 142.952 255.202 147.887 249.272 151.584C244.89 154.29 239.952 156.128 234.857 156.98C231.365 157.566 227.69 157.14 224.317 155.641C223.463 155.262 222.686 154.833 221.807 154.281Z" fill="#312783"/>
<path d="M144.348 137.095C153.136 139.399 160.25 134.878 160.25 134.878L129.831 120.826C129.831 120.826 135.559 134.791 144.348 137.095Z" fill="#312783" stroke="#312783" stroke-width="6.90195" stroke-linecap="round"/>
<path d="M176.633 147.855C176.633 147.855 172.134 132.646 149.851 122.826C127.568 113.007 112.004 117.342 112.004 117.342" stroke="#312783" stroke-width="8.4947" stroke-linecap="round"/>
<path d="M161.193 154.281C161.524 154.029 161.832 153.735 162.033 153.379C162.234 153.024 162.313 152.636 162.244 152.265C162.175 151.893 161.964 151.559 161.648 151.299C161.333 151.039 160.941 150.874 160.541 150.757C160.541 150.757 160.541 150.757 160.541 150.757C159.859 150.468 159.038 150.189 158.3 149.919C155.293 148.836 152.522 148.019 149.725 147.554C145.637 146.867 141.656 145.681 137.832 143.962C132.316 141.441 126.943 138.391 122.801 134.022C122.32 133.513 121.805 132.862 121.491 132.463C121.264 132.082 120.926 131.764 120.508 131.594C120.09 131.425 119.632 131.417 119.224 131.576C118.815 131.735 118.483 132.051 118.29 132.458C118.096 132.865 118.062 133.329 118.152 133.763C118.152 133.763 118.152 133.763 118.152 133.763C118.464 134.831 118.769 135.564 119.15 136.392C122.307 142.952 127.798 147.887 133.728 151.584C138.11 154.29 143.048 156.128 148.143 156.98C151.635 157.566 155.31 157.14 158.683 155.641C159.537 155.262 160.314 154.833 161.193 154.281Z" fill="#312783"/>
</svg>
