<svg width="347" height="404" viewBox="0 0 347 404" fill="none" xmlns="http://www.w3.org/2000/svg">
<path d="M55.1994 287.802C64.753 287.802 84.4063 275.519 93.687 251.498C102.968 227.477 110.338 201 110.338 201L279.301 205.64V211.1C279.301 211.1 290.766 261.052 299.227 285.891C307.689 310.731 318.062 313.46 329.799 321.649C341.537 329.838 341.264 342.121 334.44 347.035C327.616 351.948 319.973 347.035 319.973 347.035C325.978 353.768 329.253 358.499 329.799 366.961C330.345 375.423 319.154 387.433 303.049 377.879C286.944 368.326 291.312 356.861 291.312 356.861C287.49 361.502 275.186 367.234 268.383 352.494C261.58 337.754 274.388 303.361 273.296 285.891C272.204 268.422 255.554 213.283 255.554 213.283L232.625 211.1C232.625 211.1 232.352 356.719 240.814 364.504C249.275 372.289 279.847 371.874 286.398 375.696C292.949 379.517 305.506 390.709 297.317 396.987C289.128 403.265 236.173 402.446 227.711 399.989C219.25 397.533 213.517 393.984 211.607 383.066C209.696 372.147 204.237 213.283 204.237 213.283H181.308C181.308 213.283 178.851 374.058 174.484 385.795C170.116 397.533 163.292 399.716 154.831 401.354C146.369 402.992 94.5059 405.116 90.1385 399.989C85.7711 394.862 85.7711 384.224 96.9626 376.515C108.154 368.805 132.994 374.331 145.277 365.869C157.56 357.407 153.739 211.1 153.739 211.1L129.172 213.283C126.442 241.671 115.251 273.608 101.876 287.802C88.5008 301.996 63.1153 322.195 39.9135 326.563C16.7117 330.93 1.15287 325.744 0.0610253 312.641C-0.886339 301.273 9.46878 300.385 12.226 300.349C9.76647 300.229 1.39045 299.003 2.79065 287.802C4.42842 274.7 21.3521 280.432 19.4413 279.34C17.5306 278.248 18.8954 240.579 39.9135 240.307C60.9316 240.034 42.3701 266.784 42.3701 274.973C42.3701 283.162 45.6457 287.802 55.1994 287.802Z" fill="#0053FF"/>
<path d="M165.205 18.2295C208.141 9.74193 248.374 32.6041 255.067 69.2935C255.183 69.9288 255.286 70.5647 255.381 71.1998C286.044 64.5539 318.711 83.5362 331.429 117.048C345.421 153.915 329.972 194.404 296.923 207.483C284.707 212.317 271.796 212.729 259.667 209.466C245.778 229.969 214.02 244.308 177.058 244.319C127.297 244.335 86.949 218.379 86.9389 186.344C86.9384 184.745 87.0394 183.16 87.2363 181.592C61.5205 166.49 48.5293 140.392 57.931 120.36C64.5363 106.286 80.5885 98.6296 99.3529 98.6773C93.6146 62.4445 122.797 26.6129 165.205 18.2295Z" fill="white"/>
<path d="M240.656 151.735C231.868 154.04 224.753 149.519 224.753 149.519L255.173 135.467C255.173 135.467 249.444 149.431 240.656 151.735Z" fill="#312783" stroke="#312783" stroke-width="6.90195" stroke-linecap="round"/>
<path d="M208.369 162.496C208.369 162.496 212.867 147.286 235.151 137.467C257.434 127.648 272.998 131.983 272.998 131.983" stroke="#312783" stroke-width="8.4947" stroke-linecap="round"/>
<path d="M223.809 168.922C223.478 168.67 223.17 168.376 222.969 168.02C222.768 167.664 222.689 167.276 222.758 166.905C222.827 166.534 223.038 166.2 223.353 165.94C223.669 165.679 224.061 165.515 224.46 165.398C224.46 165.398 224.46 165.398 224.46 165.398C225.142 165.108 225.964 164.83 226.702 164.56C229.709 163.476 232.479 162.66 235.277 162.195C239.365 161.508 243.345 160.322 247.17 158.602C252.686 156.081 258.059 153.031 262.201 148.662C262.682 148.153 263.197 147.503 263.511 147.104C263.738 146.723 264.076 146.404 264.494 146.235C264.912 146.066 265.37 146.058 265.778 146.217C266.187 146.375 266.519 146.691 266.712 147.098C266.906 147.506 266.94 147.969 266.85 148.404C266.85 148.404 266.85 148.404 266.85 148.404C266.538 149.471 266.233 150.204 265.852 151.033C262.695 157.592 257.204 162.528 251.274 166.225C246.892 168.93 241.954 170.768 236.859 171.621C233.367 172.206 229.692 171.781 226.319 170.282C225.465 169.902 224.688 169.473 223.809 168.922Z" fill="#312783"/>
<path d="M146.348 151.735C155.136 154.04 162.25 149.519 162.25 149.519L131.831 135.467C131.831 135.467 137.559 149.431 146.348 151.735Z" fill="#312783" stroke="#312783" stroke-width="6.90195" stroke-linecap="round"/>
<path d="M178.635 162.496C178.635 162.496 174.136 147.286 151.853 137.467C129.57 127.648 114.006 131.983 114.006 131.983" stroke="#312783" stroke-width="8.4947" stroke-linecap="round"/>
<path d="M163.195 168.922C163.526 168.67 163.834 168.376 164.035 168.02C164.236 167.664 164.315 167.276 164.246 166.905C164.177 166.534 163.966 166.2 163.65 165.94C163.335 165.679 162.943 165.515 162.543 165.398C162.543 165.398 162.543 165.398 162.543 165.398C161.861 165.108 161.04 164.83 160.302 164.56C157.295 163.476 154.524 162.66 151.727 162.195C147.639 161.508 143.658 160.322 139.834 158.602C134.318 156.081 128.944 153.031 124.803 148.662C124.322 148.153 123.807 147.503 123.493 147.104C123.266 146.723 122.928 146.404 122.51 146.235C122.092 146.066 121.634 146.058 121.226 146.217C120.817 146.375 120.485 146.691 120.292 147.098C120.098 147.506 120.064 147.969 120.154 148.404C120.154 148.404 120.154 148.404 120.154 148.404C120.465 149.471 120.771 150.204 121.151 151.033C124.309 157.592 129.8 162.528 135.73 166.225C140.112 168.93 145.05 170.768 150.145 171.621C153.636 172.206 157.312 171.781 160.685 170.282C161.539 169.902 162.315 169.473 163.195 168.922Z" fill="#312783"/>
</svg>
