<svg width="387" height="421" viewBox="0 0 387 421" fill="none" xmlns="http://www.w3.org/2000/svg">
<path d="M112.901 277.296C141.394 272.597 155.962 223.525 155.962 223.525L320.492 201.309C320.492 201.309 338.702 312.621 340.844 314.361C342.986 316.101 375.336 325.324 369.766 338.027C364.195 350.731 354.341 345.51 354.341 345.51C354.341 345.51 363.553 360.43 349.628 363.956C335.703 367.481 327.133 349.512 327.133 349.512C327.133 349.512 323.492 360.301 312.566 351.079C301.64 341.856 314.279 320.626 314.279 315.927C314.279 311.229 296.284 211.054 296.284 211.054L266.077 236.054C266.077 236.054 271.862 373.556 273.575 377.732C275.289 381.908 330.133 403.893 315.136 416.886C300.14 429.879 250.652 405.227 246.368 390.957C242.083 376.688 239.512 236.054 239.512 236.054H215.518C215.518 236.054 212.947 378.776 208.02 388.869C203.092 398.962 152.1 428.075 138.603 412.936C125.107 397.796 180.812 381.735 182.741 377.732C184.669 373.73 188.311 236.054 188.311 236.054H178.456C178.456 236.054 178.456 274.337 134.753 294.175C91.0491 314.013 57.2003 289.825 57.2003 289.825C57.2003 289.825 43.4892 300.788 31.2781 285.126C19.067 269.465 38.3478 261.286 38.3478 261.286C38.3478 261.286 0 261.808 0 247.365C0 232.921 34.9201 246.321 34.9201 246.321C34.9201 246.321 16.71 225.787 29.5641 219.174C42.4182 212.561 51.416 236.054 51.416 236.054C51.416 236.054 61.485 263.722 64.9127 266.159C68.3404 268.595 84.4079 281.994 112.901 277.296Z" fill="#0053FF"/>
<path d="M205.194 18.2295C248.13 9.74193 288.362 32.6041 295.055 69.2935C295.171 69.9288 295.275 70.5647 295.369 71.1998C326.032 64.5539 358.699 83.5362 371.418 117.048C385.41 153.915 369.961 194.404 336.912 207.483C324.696 212.317 311.785 212.729 299.655 209.466C285.766 229.969 254.009 244.308 217.047 244.319C167.285 244.335 126.937 218.379 126.927 186.344C126.927 184.745 127.028 183.16 127.225 181.592C101.509 166.49 88.5176 140.392 97.9193 120.36C104.525 106.286 120.577 98.6296 139.341 98.6773C133.603 62.4445 162.786 26.6129 205.194 18.2295Z" fill="white"/>
<path d="M283.652 151.735C274.864 154.04 267.75 149.519 267.75 149.519L298.169 135.467C298.169 135.467 292.441 149.431 283.652 151.735Z" fill="#312783" stroke="#312783" stroke-width="6.90195" stroke-linecap="round"/>
<path d="M251.365 162.496C251.365 162.496 255.864 147.286 278.147 137.467C300.43 127.648 315.994 131.983 315.994 131.983" stroke="#312783" stroke-width="8.4947" stroke-linecap="round"/>
<path d="M266.807 168.922C266.476 168.67 266.168 168.376 265.967 168.02C265.766 167.664 265.687 167.276 265.756 166.905C265.825 166.534 266.036 166.2 266.352 165.94C266.667 165.679 267.059 165.515 267.459 165.398C267.459 165.398 267.459 165.398 267.459 165.398C268.141 165.108 268.962 164.83 269.7 164.56C272.707 163.476 275.478 162.66 278.275 162.195C282.363 161.508 286.344 160.322 290.168 158.602C295.684 156.081 301.057 153.031 305.199 148.662C305.68 148.153 306.195 147.503 306.509 147.104C306.736 146.723 307.074 146.404 307.492 146.235C307.91 146.066 308.368 146.058 308.776 146.217C309.185 146.375 309.517 146.691 309.71 147.098C309.904 147.506 309.938 147.969 309.848 148.404C309.848 148.404 309.848 148.404 309.848 148.404C309.536 149.471 309.231 150.204 308.85 151.033C305.693 157.592 300.202 162.528 294.272 166.225C289.89 168.93 284.952 170.768 279.857 171.621C276.365 172.206 272.69 171.781 269.317 170.282C268.463 169.902 267.686 169.473 266.807 168.922Z" fill="#312783"/>
<path d="M189.348 151.735C198.136 154.04 205.25 149.519 205.25 149.519L174.831 135.467C174.831 135.467 180.559 149.431 189.348 151.735Z" fill="#312783" stroke="#312783" stroke-width="6.90195" stroke-linecap="round"/>
<path d="M221.633 162.496C221.633 162.496 217.134 147.286 194.851 137.467C172.568 127.648 157.004 131.983 157.004 131.983" stroke="#312783" stroke-width="8.4947" stroke-linecap="round"/>
<path d="M206.193 168.922C206.524 168.67 206.832 168.376 207.033 168.02C207.234 167.664 207.313 167.276 207.244 166.905C207.175 166.534 206.964 166.2 206.648 165.94C206.333 165.679 205.941 165.515 205.541 165.398C205.541 165.398 205.541 165.398 205.541 165.398C204.859 165.108 204.038 164.83 203.3 164.56C200.293 163.476 197.522 162.66 194.725 162.195C190.637 161.508 186.656 160.322 182.832 158.602C177.316 156.081 171.943 153.031 167.801 148.662C167.32 148.153 166.805 147.503 166.491 147.104C166.264 146.723 165.926 146.404 165.508 146.235C165.09 146.066 164.632 146.058 164.224 146.217C163.815 146.375 163.483 146.691 163.29 147.098C163.096 147.506 163.062 147.969 163.152 148.404C163.152 148.404 163.152 148.404 163.152 148.404C163.464 149.471 163.769 150.204 164.15 151.033C167.307 157.592 172.798 162.528 178.728 166.225C183.11 168.93 188.048 170.768 193.143 171.621C196.635 172.206 200.31 171.781 203.683 170.282C204.537 169.902 205.314 169.473 206.193 168.922Z" fill="#312783"/>
</svg>
