<svg width="344" height="400" viewBox="0 0 344 400" fill="none" xmlns="http://www.w3.org/2000/svg">
<mask id="path-1-outside-1_339_40327" maskUnits="userSpaceOnUse" x="-0.8125" y="168.361" width="345" height="231" fill="black">
<rect fill="white" x="-0.8125" y="168.361" width="345" height="231"/>
<path d="M290.334 172.361C290.459 172.529 346.528 247.823 339.843 266.428C333.154 285.038 220.245 291.668 220.069 291.679C220.15 291.776 237.877 313.234 230.983 318.355C224.074 323.488 221.135 315.612 221.135 315.612C221.135 315.612 221.588 332.66 212.982 332.912C210.033 332.999 208.196 331.28 207.054 328.984C208.101 346.746 209.645 360.358 211.918 362.45C216.305 366.486 227.572 367.971 237.102 369.227C243.45 370.063 249.027 370.798 251.289 372.117C256.947 375.418 267.792 385.083 260.72 390.506C253.647 395.928 207.91 395.22 200.602 393.099C193.293 390.977 188.342 387.913 186.691 378.482C185.041 369.052 180.326 231.841 180.326 231.841H160.522C160.522 231.841 158.401 370.702 154.629 380.84C150.857 390.977 144.963 392.864 137.654 394.278C130.345 395.693 85.5523 397.527 81.7802 393.099C78.0082 388.67 78.008 379.483 87.6738 372.824C92.3943 369.572 99.9265 369.047 107.634 368.509C115.708 367.945 123.975 367.369 129.403 363.63C132.63 361.407 134.567 348.171 135.704 330.827C134.557 332.398 132.925 333.451 130.602 333.383C122.016 333.131 122.447 316.164 122.449 316.084C122.429 316.139 119.486 323.942 112.601 318.827C105.691 313.694 123.516 292.149 123.516 292.149C123.516 292.149 10.4348 285.524 3.74117 266.899C-2.95212 248.274 53.2509 172.832 53.2509 172.832L75.9824 178.733C75.9824 178.733 27.2322 240.497 32.8476 252.341C38.4638 264.185 123.621 271.193 130.602 272.874C134.166 273.733 136.108 278.499 137.156 282.957C137.356 254.72 136.711 229.955 136.711 229.955L128.879 230.651V222.047L204.457 224.122L205.112 229.98L204.845 229.955C204.845 229.955 204.793 257.728 205.496 287.87C206.069 283.028 207.836 273.642 212.982 272.402C219.961 270.721 305.121 263.713 310.736 251.869C316.345 240.039 267.714 178.404 267.602 178.263L290.334 172.361Z"/>
</mask>
<path d="M290.334 172.361C290.459 172.529 346.528 247.823 339.843 266.428C333.154 285.038 220.245 291.668 220.069 291.679C220.15 291.776 237.877 313.234 230.983 318.355C224.074 323.488 221.135 315.612 221.135 315.612C221.135 315.612 221.588 332.66 212.982 332.912C210.033 332.999 208.196 331.28 207.054 328.984C208.101 346.746 209.645 360.358 211.918 362.45C216.305 366.486 227.572 367.971 237.102 369.227C243.45 370.063 249.027 370.798 251.289 372.117C256.947 375.418 267.792 385.083 260.72 390.506C253.647 395.928 207.91 395.22 200.602 393.099C193.293 390.977 188.342 387.913 186.691 378.482C185.041 369.052 180.326 231.841 180.326 231.841H160.522C160.522 231.841 158.401 370.702 154.629 380.84C150.857 390.977 144.963 392.864 137.654 394.278C130.345 395.693 85.5523 397.527 81.7802 393.099C78.0082 388.67 78.008 379.483 87.6738 372.824C92.3943 369.572 99.9265 369.047 107.634 368.509C115.708 367.945 123.975 367.369 129.403 363.63C132.63 361.407 134.567 348.171 135.704 330.827C134.557 332.398 132.925 333.451 130.602 333.383C122.016 333.131 122.447 316.164 122.449 316.084C122.429 316.139 119.486 323.942 112.601 318.827C105.691 313.694 123.516 292.149 123.516 292.149C123.516 292.149 10.4348 285.524 3.74117 266.899C-2.95212 248.274 53.2509 172.832 53.2509 172.832L75.9824 178.733C75.9824 178.733 27.2322 240.497 32.8476 252.341C38.4638 264.185 123.621 271.193 130.602 272.874C134.166 273.733 136.108 278.499 137.156 282.957C137.356 254.72 136.711 229.955 136.711 229.955L128.879 230.651V222.047L204.457 224.122L205.112 229.98L204.845 229.955C204.845 229.955 204.793 257.728 205.496 287.87C206.069 283.028 207.836 273.642 212.982 272.402C219.961 270.721 305.121 263.713 310.736 251.869C316.345 240.039 267.714 178.404 267.602 178.263L290.334 172.361Z" fill="#0053FF"/>
<path d="M290.334 172.361L292.889 170.458L291.608 168.739L289.533 169.278L290.334 172.361ZM339.843 266.428L342.841 267.505L342.841 267.505L339.843 266.428ZM220.069 291.679L219.883 288.498L213.611 288.866L217.614 293.709L220.069 291.679ZM230.983 318.355L232.883 320.913L232.883 320.913L230.983 318.355ZM221.135 315.612L224.119 314.499L217.95 315.697L221.135 315.612ZM212.982 332.912L213.076 336.097L213.076 336.097L212.982 332.912ZM207.054 328.984L209.906 327.565L203.873 329.172L207.054 328.984ZM211.918 362.45L209.761 364.794L209.761 364.795L211.918 362.45ZM237.102 369.227L236.686 372.385V372.385L237.102 369.227ZM251.289 372.117L252.894 369.365H252.894L251.289 372.117ZM260.72 390.506L262.658 393.034V393.034L260.72 390.506ZM200.602 393.099L199.713 396.158V396.158L200.602 393.099ZM186.691 378.482L183.553 379.032L183.553 379.032L186.691 378.482ZM180.326 231.841L183.51 231.731L183.404 228.655H180.326V231.841ZM160.522 231.841V228.655H157.385L157.337 231.792L160.522 231.841ZM154.629 380.84L157.615 381.951V381.951L154.629 380.84ZM137.654 394.278L138.26 397.406L138.26 397.406L137.654 394.278ZM81.7802 393.099L79.355 395.164L79.3551 395.165L81.7802 393.099ZM87.6738 372.824L85.8665 370.201H85.8664L87.6738 372.824ZM107.634 368.509L107.855 371.687H107.855L107.634 368.509ZM129.403 363.63L131.211 366.253L131.211 366.253L129.403 363.63ZM135.704 330.827L138.883 331.036L139.601 320.086L133.131 328.949L135.704 330.827ZM130.602 333.383L130.508 336.567H130.508L130.602 333.383ZM122.449 316.084L125.634 316.167L119.466 314.965L122.449 316.084ZM112.601 318.827L110.701 321.384L110.701 321.385L112.601 318.827ZM123.516 292.149L125.97 294.18L129.977 289.337L123.702 288.969L123.516 292.149ZM3.74117 266.899L0.743092 267.977L0.743114 267.977L3.74117 266.899ZM53.2509 172.832L54.0515 169.748L51.9767 169.21L50.6962 170.929L53.2509 172.832ZM75.9824 178.733L78.4831 180.707L81.5069 176.876L76.7829 175.65L75.9824 178.733ZM32.8476 252.341L29.969 253.706L29.9691 253.706L32.8476 252.341ZM130.602 272.874L131.348 269.777L131.347 269.777L130.602 272.874ZM137.156 282.957L134.055 283.686L140.342 282.98L137.156 282.957ZM136.711 229.955L139.896 229.872L139.807 226.481L136.429 226.782L136.711 229.955ZM128.879 230.651H125.693V234.133L129.161 233.825L128.879 230.651ZM128.879 222.047L128.966 218.862L125.693 218.772V222.047H128.879ZM204.457 224.122L207.623 223.768L207.315 221.014L204.544 220.937L204.457 224.122ZM205.112 229.98L204.811 233.152L208.714 233.522L208.278 229.626L205.112 229.98ZM204.845 229.955L205.146 226.784L201.665 226.453L201.659 229.949L204.845 229.955ZM205.496 287.87L202.311 287.944L208.66 288.245L205.496 287.87ZM212.982 272.402L212.236 269.305H212.236L212.982 272.402ZM310.736 251.869L313.615 253.234L313.615 253.234L310.736 251.869ZM267.603 178.263L266.802 175.179L262.078 176.405L265.102 180.236L267.603 178.263ZM290.334 172.361L287.779 174.264C287.826 174.328 301.812 193.109 314.939 214.166C321.509 224.705 327.806 235.723 332.036 245.203C334.153 249.948 335.708 254.21 336.537 257.773C337.39 261.439 337.363 263.907 336.845 265.35L339.843 266.428L342.841 267.505C343.994 264.297 343.677 260.343 342.743 256.329C341.785 252.213 340.055 247.539 337.854 242.607C333.448 232.731 326.973 221.426 320.346 210.796C307.078 189.512 292.967 170.563 292.889 170.458L290.334 172.361ZM339.843 266.428L336.845 265.35C336.438 266.481 334.902 268.14 331.299 270.036C327.856 271.849 323.139 273.563 317.469 275.156C306.153 278.335 291.577 280.886 277.081 282.872C248.121 286.84 219.949 288.495 219.883 288.498L220.069 291.679L220.256 294.859C220.365 294.853 248.735 293.187 277.946 289.185C292.535 287.186 307.452 284.588 319.193 281.29C325.052 279.644 330.254 277.787 334.267 275.675C338.12 273.646 341.575 271.027 342.841 267.505L339.843 266.428ZM220.069 291.679L217.614 293.709C217.61 293.704 218.697 295.019 220.222 297.069C221.75 299.125 223.69 301.881 225.404 304.762C227.147 307.692 228.531 310.542 229.11 312.824C229.743 315.317 229.133 315.762 229.084 315.798L230.983 318.355L232.883 320.913C236.281 318.389 236.04 314.231 235.286 311.257C234.477 308.072 232.716 304.591 230.88 301.504C227.169 295.269 222.588 289.726 222.525 289.649L220.069 291.679ZM230.983 318.355L229.084 315.798C227.751 316.788 226.939 316.912 226.572 316.907C226.22 316.902 225.885 316.775 225.503 316.458C225.091 316.116 224.73 315.631 224.455 315.159C224.324 314.935 224.23 314.743 224.172 314.616C224.143 314.554 224.125 314.509 224.116 314.488C224.111 314.477 224.109 314.472 224.11 314.474C224.11 314.474 224.111 314.477 224.113 314.481C224.114 314.483 224.115 314.485 224.116 314.488C224.116 314.49 224.117 314.491 224.117 314.493C224.118 314.494 224.118 314.495 224.118 314.496C224.119 314.497 224.119 314.499 221.135 315.612C218.15 316.726 218.151 316.728 218.151 316.729C218.151 316.73 218.152 316.731 218.152 316.732C218.153 316.734 218.154 316.737 218.155 316.739C218.157 316.744 218.159 316.749 218.161 316.755C218.165 316.767 218.171 316.78 218.177 316.796C218.189 316.827 218.204 316.866 218.223 316.911C218.261 317.003 218.312 317.122 218.377 317.265C218.507 317.549 218.696 317.932 218.949 318.367C219.441 319.21 220.246 320.374 221.433 321.36C222.649 322.37 224.345 323.249 226.487 323.278C228.615 323.306 230.76 322.49 232.883 320.913L230.983 318.355ZM221.135 315.612C217.95 315.697 217.95 315.696 217.95 315.696C217.95 315.696 217.95 315.695 217.95 315.695C217.95 315.694 217.95 315.694 217.95 315.694C217.95 315.694 217.95 315.695 217.95 315.697C217.95 315.701 217.95 315.708 217.951 315.72C217.951 315.743 217.952 315.782 217.952 315.835C217.953 315.941 217.954 316.104 217.952 316.315C217.948 316.739 217.933 317.354 217.891 318.097C217.804 319.597 217.607 321.551 217.177 323.471C216.737 325.435 216.106 327.116 215.295 328.25C214.55 329.293 213.804 329.701 212.889 329.728L212.982 332.912L213.076 336.097C216.464 335.997 218.888 334.18 220.479 331.955C222.003 329.822 222.872 327.193 223.394 324.864C223.926 322.491 224.154 320.167 224.252 318.462C224.301 317.603 224.318 316.885 224.323 316.375C224.325 316.12 224.325 315.917 224.323 315.773C224.323 315.701 224.322 315.644 224.321 315.602C224.321 315.582 224.32 315.565 224.32 315.553C224.32 315.546 224.32 315.541 224.32 315.537C224.32 315.535 224.32 315.533 224.319 315.532C224.319 315.531 224.319 315.53 224.319 315.529C224.319 315.528 224.319 315.528 221.135 315.612ZM212.982 332.912L212.889 329.728C211.598 329.766 210.707 329.176 209.906 327.565L207.054 328.984L204.201 330.403C205.684 333.384 208.468 336.232 213.076 336.097L212.982 332.912ZM207.054 328.984L203.873 329.172C204.399 338.079 205.052 346.018 205.869 352.023C206.277 355.017 206.736 357.613 207.263 359.638C207.526 360.649 207.824 361.591 208.174 362.402C208.496 363.148 208.983 364.079 209.761 364.794L211.918 362.45L214.075 360.106C214.284 360.298 214.226 360.346 214.025 359.878C213.85 359.474 213.647 358.871 213.429 358.034C212.995 356.364 212.576 354.054 212.183 351.164C211.398 345.4 210.756 337.652 210.234 328.797L207.054 328.984ZM211.918 362.45L209.761 364.795C212.634 367.438 217.31 368.953 221.877 369.988C226.603 371.059 231.955 371.762 236.686 372.385L237.102 369.227L237.519 366.068C232.72 365.436 227.672 364.768 223.285 363.774C218.74 362.744 215.589 361.498 214.075 360.106L211.918 362.45ZM237.102 369.227L236.686 372.385C239.885 372.806 242.778 373.189 245.153 373.624C247.662 374.084 249.096 374.526 249.684 374.869L251.289 372.117L252.894 369.365C251.22 368.389 248.735 367.803 246.303 367.357C243.736 366.886 240.667 366.483 237.519 366.068L237.102 369.227ZM251.289 372.117L249.684 374.869C252.246 376.364 255.991 379.331 258.196 382.382C259.309 383.921 259.791 385.157 259.846 386.014C259.885 386.62 259.749 387.236 258.781 387.978L260.72 390.506L262.658 393.034C265.227 391.065 266.387 388.439 266.205 385.605C266.039 383.021 264.783 380.618 263.36 378.65C260.497 374.687 255.99 371.171 252.894 369.365L251.289 372.117ZM260.72 390.506L258.781 387.978C258.436 388.242 257.481 388.699 255.618 389.174C253.857 389.624 251.608 390.012 248.982 390.335C243.737 390.979 237.25 391.329 230.692 391.446C224.145 391.563 217.596 391.446 212.248 391.17C206.747 390.886 202.899 390.448 201.49 390.039L200.602 393.099L199.713 396.158C201.958 396.81 206.568 397.257 211.919 397.533C217.424 397.817 224.121 397.936 230.806 397.817C237.48 397.698 244.21 397.341 249.759 396.659C252.529 396.319 255.071 395.89 257.193 395.348C259.214 394.832 261.235 394.125 262.658 393.034L260.72 390.506ZM200.602 393.099L201.49 390.039C197.993 389.024 195.509 387.9 193.703 386.207C191.967 384.579 190.567 382.146 189.829 377.933L186.691 378.482L183.553 379.032C184.466 384.249 186.367 388.063 189.346 390.855C192.255 393.583 195.902 395.052 199.713 396.158L200.602 393.099ZM186.691 378.482L189.829 377.933C189.661 376.973 189.416 374.012 189.124 369.278C188.838 364.646 188.52 358.53 188.183 351.44C187.509 337.264 186.766 319.239 186.073 301.501C185.381 283.765 184.74 266.322 184.272 253.313C184.038 246.809 183.848 241.413 183.716 237.643C183.65 235.759 183.598 234.281 183.563 233.274C183.546 232.77 183.533 232.385 183.524 232.125C183.519 231.995 183.516 231.897 183.513 231.831C183.512 231.798 183.511 231.773 183.511 231.756C183.511 231.748 183.51 231.742 183.51 231.738C183.51 231.736 183.51 231.734 183.51 231.733C183.51 231.732 183.51 231.731 180.326 231.841C177.142 231.95 177.142 231.951 177.142 231.952C177.142 231.953 177.142 231.954 177.142 231.957C177.143 231.961 177.143 231.967 177.143 231.975C177.144 231.992 177.145 232.017 177.146 232.05C177.148 232.116 177.151 232.215 177.156 232.345C177.165 232.605 177.178 232.991 177.196 233.494C177.231 234.502 177.282 235.981 177.348 237.867C177.48 241.638 177.671 247.035 177.905 253.542C178.373 266.555 179.014 284.004 179.706 301.75C180.399 319.493 181.144 337.539 181.818 351.742C182.156 358.843 182.476 364.993 182.764 369.67C183.046 374.245 183.309 377.635 183.553 379.032L186.691 378.482ZM180.326 231.841V228.655H160.522V231.841V235.027H180.326V231.841ZM160.522 231.841C157.337 231.792 157.337 231.793 157.337 231.794C157.337 231.795 157.337 231.796 157.337 231.798C157.337 231.803 157.337 231.809 157.337 231.817C157.336 231.834 157.336 231.859 157.335 231.892C157.334 231.959 157.333 232.058 157.331 232.189C157.327 232.452 157.321 232.842 157.312 233.351C157.296 234.37 157.271 235.865 157.239 237.773C157.173 241.587 157.076 247.049 156.947 253.634C156.689 266.805 156.306 284.471 155.806 302.45C155.305 320.434 154.687 338.714 153.959 353.121C153.595 360.329 153.205 366.539 152.792 371.248C152.584 373.605 152.374 375.554 152.162 377.049C151.938 378.635 151.745 379.456 151.643 379.729L154.629 380.84L157.615 381.951C157.985 380.956 158.25 379.504 158.471 377.942C158.705 376.29 158.927 374.216 159.139 371.806C159.563 366.981 159.957 360.679 160.323 353.443C161.054 338.962 161.674 320.626 162.175 302.627C162.676 284.624 163.059 266.94 163.317 253.759C163.446 247.167 163.544 241.701 163.609 237.882C163.642 235.972 163.667 234.475 163.683 233.454C163.691 232.944 163.697 232.553 163.702 232.289C163.704 232.158 163.705 232.058 163.706 231.991C163.707 231.957 163.707 231.932 163.707 231.915C163.708 231.907 163.708 231.9 163.708 231.896C163.708 231.894 163.708 231.892 163.708 231.891C163.708 231.89 163.708 231.889 160.522 231.841ZM154.629 380.84L151.643 379.729C149.936 384.317 147.881 386.718 145.694 388.184C143.41 389.714 140.668 390.45 137.049 391.151L137.654 394.278L138.26 397.406C141.949 396.692 145.808 395.778 149.241 393.477C152.772 391.111 155.55 387.5 157.615 381.951L154.629 380.84ZM137.654 394.278L137.049 391.151C133.723 391.794 120.976 392.612 108.37 392.694C102.12 392.734 96.0532 392.592 91.3549 392.177C88.9957 391.968 87.0751 391.698 85.6836 391.375C84.9861 391.213 84.5041 391.057 84.2007 390.928C83.8401 390.773 83.9719 390.759 84.2054 391.033L81.7802 393.099L79.3551 395.165C80.06 395.992 80.9839 396.482 81.6973 396.787C82.4681 397.116 83.3424 397.373 84.2449 397.582C86.0537 398.001 88.3085 398.303 90.7932 398.523C95.7829 398.965 102.079 399.106 108.412 399.065C120.973 398.984 134.277 398.177 138.26 397.406L137.654 394.278ZM81.7802 393.099L84.2054 391.033C81.9225 388.353 81.0133 381.281 89.4811 375.448L87.6738 372.824L85.8664 370.201C75.0026 377.685 74.094 388.988 79.355 395.164L81.7802 393.099ZM87.6738 372.824L89.4811 375.448C91.29 374.202 93.8292 373.36 97.0863 372.786C100.327 372.215 103.962 371.958 107.855 371.687L107.634 368.509L107.412 365.331C103.598 365.597 99.6131 365.872 95.9813 366.511C92.3653 367.148 88.7781 368.195 85.8665 370.201L87.6738 372.824ZM107.634 368.509L107.855 371.687C111.854 371.408 116.121 371.114 120.08 370.395C124.033 369.677 127.963 368.491 131.211 366.253L129.403 363.63L127.596 361.006C125.416 362.508 122.499 363.48 118.942 364.126C115.391 364.771 111.487 365.046 107.412 365.331L107.634 368.509ZM129.403 363.63L131.211 366.253C132.917 365.077 133.917 362.955 134.588 361.079C135.327 359.016 135.944 356.416 136.473 353.46C137.534 347.531 138.312 339.747 138.883 331.036L135.704 330.827L132.525 330.619C131.959 339.251 131.2 346.757 130.201 352.338C129.7 355.137 129.157 357.346 128.59 358.932C127.955 360.705 127.502 361.071 127.596 361.006L129.403 363.63ZM135.704 330.827L133.131 328.949C132.497 329.818 131.8 330.231 130.695 330.198L130.602 333.383L130.508 336.567C134.05 336.671 136.617 334.979 138.277 332.706L135.704 330.827ZM130.602 333.383L130.695 330.198C129.782 330.172 129.038 329.765 128.295 328.728C127.486 327.6 126.854 325.927 126.413 323.968C125.537 320.081 125.635 316.14 125.634 316.167L122.449 316.084L119.264 316.001C119.262 316.107 119.143 320.69 120.197 325.369C120.721 327.693 121.592 330.315 123.117 332.441C124.707 334.659 127.129 336.468 130.508 336.567L130.602 333.383ZM122.449 316.084L119.466 314.965C119.49 314.903 118.987 316.182 118.073 316.936C117.693 317.249 117.36 317.375 117.008 317.378C116.64 317.382 115.828 317.256 114.5 316.27L112.601 318.827L110.701 321.385C112.816 322.956 114.954 323.772 117.075 323.75C119.212 323.727 120.906 322.858 122.126 321.852C124.409 319.97 125.388 317.32 125.432 317.203L122.449 316.084ZM112.601 318.827L114.5 316.27C114.451 316.233 113.839 315.786 114.478 313.281C115.063 310.989 116.454 308.13 118.204 305.194C119.924 302.307 121.868 299.549 123.394 297.498C124.154 296.477 124.804 295.64 125.262 295.062C125.491 294.772 125.671 294.548 125.792 294.398C125.853 294.323 125.899 294.267 125.929 294.23C125.944 294.212 125.955 294.198 125.962 294.19C125.966 294.186 125.968 294.183 125.969 294.181C125.97 294.18 125.971 294.18 125.971 294.18C125.971 294.18 125.971 294.18 125.971 294.18C125.97 294.18 125.97 294.18 123.516 292.149C121.061 290.119 121.061 290.119 121.06 290.12C121.06 290.12 121.059 290.121 121.059 290.121C121.058 290.122 121.057 290.124 121.055 290.126C121.052 290.129 121.048 290.134 121.043 290.14C121.033 290.153 121.018 290.17 121 290.193C120.963 290.238 120.91 290.303 120.842 290.387C120.706 290.555 120.51 290.799 120.265 291.109C119.774 291.729 119.086 292.615 118.283 293.694C116.683 295.843 114.602 298.792 112.73 301.932C110.888 305.025 109.118 308.514 108.304 311.706C107.544 314.684 107.295 318.855 110.701 321.384L112.601 318.827ZM123.516 292.149C123.702 288.969 123.702 288.969 123.701 288.969C123.7 288.969 123.699 288.969 123.698 288.969C123.695 288.969 123.69 288.968 123.683 288.968C123.67 288.967 123.65 288.966 123.624 288.964C123.571 288.961 123.491 288.956 123.386 288.95C123.174 288.937 122.859 288.918 122.447 288.891C121.623 288.838 120.412 288.759 118.866 288.65C115.775 288.434 111.347 288.103 106.013 287.649C95.3384 286.74 81.052 285.335 66.5705 283.352C52.0635 281.367 37.4716 278.816 26.1408 275.635C20.4641 274.041 15.7406 272.326 12.2927 270.512C8.68444 268.614 7.14591 266.954 6.73922 265.822L3.74117 266.899L0.743114 267.977C2.00983 271.501 5.4693 274.122 9.32631 276.151C13.3437 278.265 18.5528 280.123 24.4188 281.769C36.1732 285.069 51.1066 287.667 65.7064 289.665C80.3319 291.667 94.734 293.083 105.472 293.998C110.843 294.455 115.302 294.788 118.421 295.006C119.98 295.116 121.205 295.196 122.041 295.25C122.459 295.276 122.779 295.296 122.996 295.31C123.105 295.316 123.187 295.321 123.243 295.325C123.271 295.326 123.292 295.328 123.307 295.328C123.314 295.329 123.319 295.329 123.323 295.329C123.325 295.329 123.327 295.33 123.327 295.33C123.329 295.33 123.329 295.33 123.516 292.149ZM3.74117 266.899L6.73924 265.822C6.21994 264.377 6.19373 261.905 7.04947 258.233C7.88138 254.664 9.44021 250.395 11.5623 245.643C15.8019 236.148 22.1107 225.116 28.6893 214.567C35.256 204.037 42.0376 194.075 47.1821 186.74C49.753 183.074 51.9122 180.069 53.4272 177.981C54.1847 176.938 54.7811 176.124 55.1872 175.572C55.3903 175.296 55.5457 175.086 55.65 174.945C55.7022 174.875 55.7415 174.822 55.7676 174.786C55.7807 174.769 55.7904 174.756 55.7968 174.747C55.8 174.743 55.8023 174.74 55.8038 174.738C55.8045 174.737 55.805 174.736 55.8054 174.736C55.8057 174.735 55.8057 174.735 53.2509 172.832C50.6962 170.929 50.6958 170.929 50.6952 170.93C50.6947 170.931 50.6939 170.932 50.6929 170.933C50.691 170.936 50.6882 170.939 50.6846 170.944C50.6774 170.954 50.6667 170.968 50.6528 170.987C50.6249 171.025 50.5838 171.08 50.5298 171.153C50.4218 171.299 50.2625 171.514 50.0556 171.795C49.6417 172.358 49.0371 173.183 48.2708 174.239C46.7384 176.35 44.559 179.384 41.9655 183.082C36.7811 190.474 29.9302 200.536 23.2829 211.195C16.6473 221.836 10.1603 233.156 5.74439 243.045C3.53867 247.985 1.80475 252.666 0.844196 256.787C-0.0925336 260.806 -0.410933 264.766 0.743092 267.977L3.74117 266.899ZM53.2509 172.832L52.4504 175.916L75.1818 181.817L75.9824 178.733L76.7829 175.65L54.0515 169.748L53.2509 172.832ZM75.9824 178.733C73.4817 176.76 73.4814 176.76 73.4809 176.761C73.4804 176.761 73.4797 176.762 73.4789 176.763C73.4772 176.765 73.4748 176.768 73.4717 176.772C73.4654 176.78 73.4562 176.792 73.4441 176.807C73.4199 176.838 73.3841 176.884 73.3373 176.943C73.2436 177.062 73.1054 177.239 72.9258 177.469C72.5667 177.928 72.0421 178.602 71.3771 179.463C70.0474 181.185 68.1559 183.656 65.9045 186.657C61.4041 192.656 55.4539 200.79 49.6733 209.306C43.906 217.803 38.2495 226.765 34.377 234.402C32.4459 238.211 30.8988 241.804 30.0225 244.913C29.2019 247.824 28.7314 251.095 29.969 253.706L32.8476 252.341L35.7263 250.976C35.56 250.625 35.3845 249.376 36.1551 246.642C36.87 244.106 38.2103 240.931 40.0598 237.284C43.7487 230.009 49.2268 221.309 54.9451 212.885C60.6502 204.48 66.5365 196.432 71.0013 190.481C73.2325 187.507 75.1057 185.06 76.4201 183.358C77.0772 182.507 77.5945 181.842 77.9467 181.391C78.1228 181.166 78.2577 180.994 78.3481 180.879C78.3933 180.821 78.4275 180.778 78.4501 180.749C78.4614 180.735 78.4698 180.724 78.4753 180.717C78.4781 180.713 78.4801 180.711 78.4814 180.709C78.4821 180.708 78.4825 180.708 78.4828 180.708C78.483 180.707 78.4831 180.707 75.9824 178.733ZM32.8476 252.341L29.9691 253.706C30.6261 255.091 31.7286 256.185 32.8795 257.051C34.0548 257.935 35.4777 258.727 37.0396 259.447C40.1619 260.888 44.1785 262.195 48.6949 263.389C57.7486 265.783 69.2754 267.843 80.7386 269.569C92.2223 271.298 103.738 272.706 112.796 273.785C117.335 274.326 121.237 274.782 124.233 275.156C127.322 275.542 129.2 275.813 129.856 275.971L130.602 272.874L131.347 269.777C130.258 269.514 127.947 269.199 125.022 268.834C122.003 268.456 118.063 267.996 113.549 267.459C104.501 266.381 93.0675 264.982 81.6873 263.268C70.2867 261.552 59.0348 259.533 50.3238 257.229C45.9578 256.075 42.3456 254.878 39.7086 253.662C38.3909 253.054 37.4015 252.479 36.709 251.959C35.992 251.419 35.7711 251.071 35.7262 250.976L32.8476 252.341ZM130.602 272.874L129.855 275.971C130.405 276.104 131.189 276.63 132.057 278.148C132.901 279.623 133.563 281.593 134.055 283.686L137.156 282.957L140.257 282.228C139.701 279.863 138.867 277.221 137.587 274.984C136.332 272.789 134.362 270.503 131.348 269.777L130.602 272.874ZM137.156 282.957L140.342 282.98C140.442 268.832 140.33 255.558 140.194 245.822C140.126 240.954 140.051 236.969 139.994 234.2C139.965 232.815 139.94 231.734 139.923 230.999C139.914 230.632 139.908 230.351 139.903 230.161C139.901 230.066 139.899 229.994 139.897 229.946C139.897 229.922 139.896 229.903 139.896 229.891C139.896 229.885 139.896 229.88 139.896 229.877C139.896 229.876 139.896 229.874 139.896 229.874C139.896 229.873 139.896 229.873 139.896 229.873C139.896 229.872 139.896 229.872 136.711 229.955C133.526 230.038 133.526 230.038 133.526 230.038C133.526 230.038 133.526 230.039 133.526 230.039C133.526 230.04 133.526 230.041 133.526 230.042C133.526 230.045 133.526 230.049 133.527 230.055C133.527 230.067 133.527 230.084 133.528 230.108C133.529 230.155 133.531 230.226 133.533 230.319C133.538 230.506 133.545 230.785 133.553 231.149C133.57 231.879 133.595 232.954 133.623 234.332C133.681 237.089 133.755 241.059 133.823 245.912C133.959 255.618 134.07 268.845 133.97 282.935L137.156 282.957ZM136.711 229.955L136.429 226.782L128.597 227.478L128.879 230.651L129.161 233.825L136.993 233.128L136.711 229.955ZM128.879 230.651H132.065V222.047H128.879H125.693V230.651H128.879ZM128.879 222.047L128.791 225.231L204.37 227.307L204.457 224.122L204.544 220.937L128.966 218.862L128.879 222.047ZM204.457 224.122L201.291 224.476L201.946 230.335L205.112 229.98L208.278 229.626L207.623 223.768L204.457 224.122ZM205.112 229.98L205.413 226.809L205.146 226.784L204.845 229.955L204.544 233.127L204.811 233.152L205.112 229.98ZM204.845 229.955C201.659 229.949 201.659 229.949 201.659 229.95C201.659 229.95 201.659 229.95 201.659 229.951C201.659 229.951 201.659 229.953 201.659 229.955C201.659 229.958 201.659 229.963 201.659 229.97C201.659 229.984 201.659 230.004 201.659 230.031C201.659 230.085 201.659 230.165 201.658 230.271C201.658 230.483 201.658 230.797 201.658 231.207C201.658 232.027 201.659 233.232 201.662 234.772C201.668 237.851 201.683 242.27 201.721 247.632C201.796 258.354 201.959 272.851 202.311 287.944L205.496 287.87L208.681 287.796C208.33 272.748 208.167 258.287 208.092 247.587C208.055 242.238 208.039 237.829 208.033 234.759C208.03 233.224 208.03 232.024 208.03 231.207C208.03 230.799 208.03 230.487 208.03 230.277C208.03 230.173 208.03 230.093 208.03 230.04C208.03 230.014 208.03 229.994 208.03 229.981C208.03 229.974 208.03 229.969 208.03 229.966C208.03 229.964 208.03 229.963 208.03 229.962C208.03 229.962 208.03 229.961 208.03 229.961C208.03 229.961 208.03 229.961 204.845 229.955ZM205.496 287.87L208.66 288.245C208.936 285.914 209.485 282.651 210.51 279.897C211.635 276.876 212.862 275.708 213.728 275.5L212.982 272.402L212.236 269.305C207.957 270.336 205.728 274.481 204.539 277.674C203.251 281.133 202.63 284.983 202.332 287.496L205.496 287.87ZM212.982 272.402L213.728 275.5C214.384 275.342 216.261 275.07 219.351 274.684C222.346 274.31 226.249 273.855 230.787 273.314C239.845 272.235 251.361 270.826 262.845 269.097C274.308 267.371 285.835 265.312 294.889 262.918C299.405 261.723 303.422 260.416 306.544 258.976C308.106 258.255 309.529 257.463 310.704 256.579C311.855 255.714 312.958 254.62 313.615 253.234L310.736 251.869L307.858 250.504C307.813 250.599 307.592 250.948 306.875 251.487C306.182 252.008 305.193 252.582 303.875 253.19C301.238 254.407 297.626 255.603 293.26 256.758C284.549 259.061 273.297 261.08 261.896 262.797C250.516 264.51 239.082 265.909 230.034 266.987C225.52 267.525 221.58 267.985 218.561 268.362C215.636 268.727 213.325 269.043 212.236 269.305L212.982 272.402ZM310.736 251.869L313.615 253.234C314.851 250.626 314.383 247.359 313.564 244.452C312.691 241.348 311.147 237.76 309.22 233.957C305.356 226.332 299.71 217.382 293.951 208.894C282.414 191.892 270.172 176.376 270.103 176.289L267.603 178.263L265.102 180.236C265.145 180.291 277.273 195.663 288.678 212.471C294.389 220.888 299.856 229.574 303.537 236.837C305.382 240.479 306.719 243.647 307.431 246.179C308.199 248.907 308.024 250.154 307.858 250.504L310.736 251.869ZM267.603 178.263L268.403 181.346L291.134 175.445L290.334 172.361L289.533 169.278L266.802 175.179L267.603 178.263Z" fill="#034FF5" mask="url(#path-1-outside-1_339_40327)"/>
<path d="M141.393 18.2295C184.329 9.74193 224.561 32.6041 231.255 69.2935C231.371 69.9288 231.474 70.5647 231.568 71.1998C262.231 64.5539 294.898 83.5362 307.617 117.048C321.609 153.915 306.16 194.404 273.111 207.483C260.895 212.317 247.984 212.729 235.854 209.466C221.966 229.969 190.208 244.308 153.246 244.319C103.484 244.335 63.1365 218.379 63.1264 186.344C63.1259 184.745 63.2269 183.16 63.4238 181.592C37.708 166.49 24.7168 140.392 34.1185 120.36C40.7238 106.286 56.776 98.6296 75.5404 98.6773C69.8021 62.4445 98.9849 26.6129 141.393 18.2295Z" fill="white"/>
<path d="M221.844 151.735C213.056 154.04 205.941 149.519 205.941 149.519L236.361 135.467C236.361 135.467 230.632 149.431 221.844 151.735Z" fill="#312783" stroke="#312783" stroke-width="6.90195" stroke-linecap="round"/>
<path d="M189.557 162.496C189.557 162.496 194.055 147.286 216.338 137.467C238.622 127.648 254.186 131.983 254.186 131.983" stroke="#312783" stroke-width="8.4947" stroke-linecap="round"/>
<path d="M204.996 168.922C204.665 168.67 204.358 168.376 204.156 168.02C203.955 167.664 203.877 167.276 203.945 166.905C204.014 166.534 204.226 166.2 204.541 165.94C204.856 165.679 205.249 165.515 205.648 165.398C205.648 165.398 205.648 165.398 205.648 165.398C206.33 165.108 207.151 164.83 207.889 164.56C210.897 163.476 213.667 162.66 216.464 162.195C220.552 161.508 224.533 160.322 228.357 158.602C233.874 156.081 239.247 153.031 243.388 148.662C243.869 148.153 244.384 147.503 244.698 147.104C244.925 146.723 245.263 146.404 245.682 146.235C246.099 146.066 246.558 146.058 246.966 146.217C247.374 146.375 247.706 146.691 247.9 147.098C248.094 147.506 248.128 147.969 248.038 148.404C248.038 148.404 248.038 148.404 248.038 148.404C247.726 149.471 247.421 150.204 247.04 151.033C243.883 157.592 238.391 162.528 232.462 166.225C228.08 168.93 223.141 170.768 218.046 171.621C214.555 172.206 210.879 171.781 207.506 170.282C206.652 169.902 205.876 169.473 204.996 168.922Z" fill="#312783"/>
<path d="M127.539 151.735C136.327 154.04 143.442 149.519 143.442 149.519L113.022 135.467C113.022 135.467 118.751 149.431 127.539 151.735Z" fill="#312783" stroke="#312783" stroke-width="6.90195" stroke-linecap="round"/>
<path d="M159.826 162.496C159.826 162.496 155.328 147.286 133.044 137.467C110.761 127.648 95.1969 131.983 95.1969 131.983" stroke="#312783" stroke-width="8.4947" stroke-linecap="round"/>
<path d="M144.383 168.922C144.714 168.67 145.021 168.376 145.223 168.02C145.424 167.664 145.502 167.276 145.434 166.905C145.365 166.534 145.153 166.2 144.838 165.94C144.523 165.679 144.13 165.515 143.731 165.398C143.731 165.398 143.731 165.398 143.731 165.398C143.049 165.108 142.228 164.83 141.49 164.56C138.482 163.476 135.712 162.66 132.915 162.195C128.827 161.508 124.846 160.322 121.022 158.602C115.505 156.081 110.132 153.031 105.99 148.662C105.51 148.153 104.995 147.503 104.681 147.104C104.454 146.723 104.115 146.404 103.697 146.235C103.279 146.066 102.821 146.058 102.413 146.217C102.005 146.375 101.673 146.691 101.479 147.098C101.285 147.506 101.251 147.969 101.341 148.404C101.341 148.404 101.341 148.404 101.341 148.404C101.653 149.471 101.958 150.204 102.339 151.033C105.496 157.592 110.987 162.528 116.917 166.225C121.299 168.93 126.238 170.768 131.333 171.621C134.824 172.206 138.5 171.781 141.872 170.282C142.727 169.902 143.503 169.473 144.383 168.922Z" fill="#312783"/>
</svg>
