<svg width="350" height="403" viewBox="0 0 350 403" fill="none" xmlns="http://www.w3.org/2000/svg">
<path d="M117.936 184.661C117.936 184.661 78.0367 268.135 61.4748 282.558C44.913 296.981 44.5542 291.354 33.8469 288.089C23.1397 284.825 13.943 293.055 14.2759 299.796C14.6088 306.536 23.4292 312.856 23.4292 312.856C23.4292 312.856 5.10279 320.643 15.5407 330.274C25.9786 339.905 38.7659 327.752 38.7659 327.752C39.5821 332.717 43.5616 344.286 54.6791 336.476C62.8224 330.755 57.6097 321.522 65.7405 309.336C73.866 297.159 138.924 214.796 138.97 214.753L149.024 219.377L152.135 214.019L117.936 184.661Z" fill="#0053FF"/>
<path d="M307.265 257.086C313.661 224.647 285.238 191.233 285.238 191.233L307.265 185.515C307.265 185.515 351.355 249.08 336.506 277.19C321.657 305.299 239.179 301.133 239.179 301.133C239.179 301.133 251.524 304.603 254.037 314.427C256.55 324.25 242.614 321.052 242.614 321.052C242.614 321.052 247.518 339.997 239.179 340.241C230.84 340.486 224.802 326.692 224.802 326.692L224.809 300.225C224.809 300.225 225.55 284.083 232.312 282.455C239.074 280.826 300.868 289.526 307.265 257.086Z" fill="#0053FF"/>
<path d="M224.011 235.671L224.647 241.348L224.387 241.323C224.387 241.323 224.159 363.196 231.241 369.711C235.492 373.622 246.41 375.06 255.645 376.277C261.795 377.087 267.2 377.799 269.391 379.077C274.874 382.276 285.383 391.642 278.529 396.896C271.676 402.151 227.357 401.465 220.275 399.409C213.193 397.353 208.396 394.383 206.797 385.245C205.198 376.108 200.629 243.151 200.629 243.151H181.439C181.439 243.151 179.383 377.707 175.728 387.53C172.073 397.353 166.362 399.181 159.28 400.551C152.198 401.922 108.793 403.7 105.138 399.409C101.482 395.118 101.482 386.215 110.849 379.763C115.423 376.612 122.721 376.103 130.19 375.581C138.014 375.036 146.024 374.477 151.284 370.853C161.564 363.771 158.366 241.323 158.366 241.323L150.776 241.998V233.66L224.011 235.671Z" fill="#0053FF"/>
<path d="M168.194 18.2295C211.13 9.74193 251.362 32.6041 258.055 69.2935C258.171 69.9288 258.275 70.5647 258.369 71.1998C289.032 64.5539 321.699 83.5362 334.418 117.048C348.41 153.915 332.961 194.404 299.912 207.483C287.696 212.317 274.785 212.729 262.655 209.466C248.766 229.969 217.009 244.308 180.047 244.319C130.285 244.335 89.9373 218.379 89.9272 186.344C89.9267 184.745 90.0277 183.16 90.2246 181.592C64.5088 166.49 51.5176 140.392 60.9193 120.36C67.5246 106.286 83.5768 98.6296 102.341 98.6773C96.6029 62.4445 125.786 26.6129 168.194 18.2295Z" fill="white"/>
<path d="M246.652 151.735C237.864 154.04 230.75 149.519 230.75 149.519L261.169 135.467C261.169 135.467 255.441 149.431 246.652 151.735Z" fill="#312783" stroke="#312783" stroke-width="6.90195" stroke-linecap="round"/>
<path d="M214.365 162.496C214.365 162.496 218.864 147.286 241.147 137.467C263.43 127.648 278.994 131.983 278.994 131.983" stroke="#312783" stroke-width="8.4947" stroke-linecap="round"/>
<path d="M229.805 168.922C229.474 168.67 229.166 168.376 228.965 168.02C228.764 167.664 228.685 167.276 228.754 166.905C228.823 166.534 229.034 166.2 229.35 165.94C229.665 165.679 230.057 165.515 230.457 165.398C230.457 165.398 230.457 165.398 230.457 165.398C231.139 165.108 231.96 164.83 232.698 164.56C235.705 163.476 238.476 162.66 241.273 162.195C245.361 161.508 249.342 160.322 253.166 158.602C258.682 156.081 264.056 153.031 268.197 148.662C268.678 148.153 269.193 147.503 269.507 147.104C269.734 146.723 270.072 146.404 270.49 146.235C270.908 146.066 271.366 146.058 271.774 146.217C272.183 146.375 272.515 146.691 272.708 147.098C272.902 147.506 272.936 147.969 272.846 148.404C272.846 148.404 272.846 148.404 272.846 148.404C272.535 149.471 272.229 150.204 271.849 151.033C268.691 157.592 263.2 162.528 257.27 166.225C252.888 168.93 247.95 170.768 242.855 171.621C239.364 172.206 235.688 171.781 232.315 170.282C231.461 169.902 230.685 169.473 229.805 168.922Z" fill="#312783"/>
<path d="M152.348 151.735C161.136 154.04 168.25 149.519 168.25 149.519L137.831 135.467C137.831 135.467 143.559 149.431 152.348 151.735Z" fill="#312783" stroke="#312783" stroke-width="6.90195" stroke-linecap="round"/>
<path d="M184.633 162.496C184.633 162.496 180.134 147.286 157.851 137.467C135.568 127.648 120.004 131.983 120.004 131.983" stroke="#312783" stroke-width="8.4947" stroke-linecap="round"/>
<path d="M169.193 168.922C169.524 168.67 169.832 168.376 170.033 168.02C170.234 167.664 170.313 167.276 170.244 166.905C170.175 166.534 169.964 166.2 169.648 165.94C169.333 165.679 168.941 165.515 168.541 165.398C168.541 165.398 168.541 165.398 168.541 165.398C167.859 165.108 167.038 164.83 166.3 164.56C163.293 163.476 160.522 162.66 157.725 162.195C153.637 161.508 149.656 160.322 145.832 158.602C140.316 156.081 134.943 153.031 130.801 148.662C130.32 148.153 129.805 147.503 129.491 147.104C129.264 146.723 128.926 146.404 128.508 146.235C128.09 146.066 127.632 146.058 127.224 146.217C126.815 146.375 126.483 146.691 126.29 147.098C126.096 147.506 126.062 147.969 126.152 148.404C126.152 148.404 126.152 148.404 126.152 148.404C126.464 149.471 126.769 150.204 127.15 151.033C130.307 157.592 135.798 162.528 141.728 166.225C146.11 168.93 151.048 170.768 156.143 171.621C159.635 172.206 163.31 171.781 166.683 170.282C167.537 169.902 168.314 169.473 169.193 168.922Z" fill="#312783"/>
</svg>
