<svg width="338" height="397" viewBox="0 0 338 397" fill="none" xmlns="http://www.w3.org/2000/svg">
<path d="M287.146 173C287.272 173.168 343.341 248.462 336.655 267.066C329.967 285.677 217.057 292.307 216.882 292.317C216.963 292.415 234.69 313.873 227.796 318.994C220.886 324.127 217.947 316.251 217.947 316.251C217.947 316.251 218.401 333.299 209.795 333.551C206.845 333.637 205.008 331.919 203.866 329.623C204.914 347.385 206.457 360.997 208.73 363.089C213.117 367.125 224.384 368.61 233.915 369.865C240.262 370.701 245.84 371.436 248.102 372.756C253.76 376.056 264.605 385.722 257.532 391.145C250.459 396.567 204.723 395.859 197.414 393.737C190.106 391.616 185.154 388.551 183.504 379.121C181.854 369.691 177.139 232.479 177.139 232.479H157.335C157.335 232.479 155.213 371.341 151.441 381.479C147.669 391.616 141.775 393.502 134.467 394.917C127.158 396.332 82.3648 398.165 78.5927 393.737C74.8207 389.309 74.8205 380.122 84.4863 373.463C89.2068 370.211 96.739 369.685 104.446 369.147C112.521 368.584 120.788 368.008 126.216 364.269C129.442 362.046 131.379 348.81 132.517 331.466C131.369 333.037 129.737 334.09 127.414 334.021C118.829 333.769 119.26 316.802 119.262 316.723C119.241 316.777 116.299 324.581 109.413 319.466C102.504 314.333 120.328 292.788 120.328 292.788C120.328 292.788 7.24728 286.163 0.553666 267.538C-6.13962 248.913 50.0634 173.471 50.0634 173.471L72.7949 179.372C72.7949 179.372 24.0447 241.135 29.6601 252.979C35.2763 264.823 120.434 271.832 127.414 273.513C130.978 274.371 132.92 279.138 133.969 283.596C134.168 255.359 133.523 230.594 133.523 230.594L125.691 231.29V222.686L201.269 224.761L201.925 230.619L201.657 230.594C201.657 230.594 201.605 258.367 202.309 288.509C202.882 283.666 204.649 274.281 209.795 273.041C216.773 271.36 301.933 264.352 307.549 252.508C313.158 240.677 264.526 179.042 264.415 178.901L287.146 173Z" fill="#0053FF"/>
<path d="M162.646 18.2662C206.967 4.48287 252.028 21.2197 263.294 55.6483C265.939 63.7315 266.485 72.0712 265.2 80.2799C286.989 85.1823 306.983 102.536 316.531 127.694C330.782 165.245 316.367 205.962 284.335 218.639C268.709 224.822 251.778 223.189 236.878 215.537C222.696 229.79 198.107 240.85 169.269 244.182C121.73 249.674 80.6464 232.09 77.5054 204.908C76.9835 200.391 77.542 195.892 79.0547 191.507C74.6552 189.168 70.3136 186.494 66.0804 183.484C28.0304 156.427 13.1039 112.498 32.7407 85.3659C46.9007 65.8012 75.1657 60.3136 104.098 68.9191C112.476 46.8347 133.867 27.2164 162.646 18.2662Z" fill="white"/>
<path d="M219.833 146.952C211.736 149.075 205.181 144.91 205.181 144.91L233.208 131.963C233.208 131.963 227.93 144.829 219.833 146.952Z" fill="#312783" stroke="#312783" stroke-width="6.35901" stroke-linecap="round"/>
<path d="M190.086 156.866C190.086 156.866 194.23 142.853 214.761 133.806C235.291 124.759 249.631 128.754 249.631 128.754" stroke="#312783" stroke-width="7.82648" stroke-linecap="round"/>
<path d="M204.312 162.787C204.007 162.555 203.723 162.284 203.538 161.956C203.352 161.628 203.28 161.271 203.343 160.929C203.407 160.587 203.602 160.279 203.892 160.04C204.183 159.8 204.544 159.648 204.912 159.54C204.912 159.54 204.912 159.54 204.912 159.54C205.54 159.274 206.297 159.017 206.977 158.768C209.748 157.77 212.3 157.018 214.878 156.589C218.644 155.956 222.311 154.863 225.835 153.28C230.918 150.957 235.868 148.147 239.684 144.121C240.127 143.652 240.601 143.053 240.89 142.685C241.099 142.334 241.411 142.041 241.797 141.885C242.181 141.729 242.604 141.722 242.98 141.868C243.356 142.014 243.662 142.305 243.84 142.68C244.019 143.056 244.05 143.483 243.967 143.883C243.967 143.883 243.967 143.883 243.967 143.883C243.68 144.867 243.399 145.542 243.048 146.305C240.139 152.349 235.08 156.896 229.616 160.302C225.579 162.795 221.029 164.488 216.335 165.274C213.118 165.813 209.732 165.421 206.624 164.04C205.837 163.691 205.122 163.295 204.312 162.787Z" fill="#312783"/>
<path d="M132.948 146.952C141.045 149.075 147.6 144.91 147.6 144.91L119.573 131.963C119.573 131.963 124.852 144.829 132.948 146.952Z" fill="#312783" stroke="#312783" stroke-width="6.35901" stroke-linecap="round"/>
<path d="M162.695 156.866C162.695 156.866 158.551 142.853 138.021 133.806C117.49 124.759 103.15 128.754 103.15 128.754" stroke="#312783" stroke-width="7.82648" stroke-linecap="round"/>
<path d="M148.47 162.787C148.775 162.555 149.058 162.284 149.244 161.956C149.429 161.628 149.501 161.271 149.438 160.929C149.375 160.587 149.179 160.279 148.889 160.04C148.599 159.8 148.237 159.648 147.869 159.54C147.869 159.54 147.869 159.54 147.869 159.54C147.241 159.274 146.484 159.017 145.804 158.768C143.033 157.77 140.481 157.018 137.904 156.589C134.137 155.956 130.47 154.863 126.946 153.28C121.864 150.957 116.913 148.147 113.097 144.121C112.654 143.652 112.18 143.053 111.891 142.685C111.682 142.334 111.37 142.041 110.985 141.885C110.6 141.729 110.178 141.722 109.802 141.868C109.425 142.014 109.119 142.305 108.941 142.68C108.762 143.056 108.731 143.483 108.814 143.883C108.814 143.883 108.814 143.883 108.814 143.883C109.101 144.867 109.382 145.542 109.733 146.305C112.642 152.349 117.701 156.896 123.165 160.302C127.202 162.795 131.752 164.488 136.446 165.274C139.663 165.813 143.05 165.421 146.157 164.04C146.944 163.691 147.659 163.295 148.47 162.787Z" fill="#312783"/>
</svg>
