<svg width="350" height="394" viewBox="0 0 350 394" fill="none" xmlns="http://www.w3.org/2000/svg">
<path d="M117.936 176.309C117.936 176.309 78.0367 259.783 61.4748 274.206C44.913 288.629 44.5542 283.003 33.8469 279.738C23.1397 276.473 13.943 284.703 14.2759 291.444C14.6088 298.185 23.4292 304.505 23.4292 304.505C23.4292 304.505 5.10279 312.291 15.5407 321.922C25.9786 331.553 38.7659 319.401 38.7659 319.401C39.5821 324.365 43.5616 335.934 54.6791 328.124C62.8224 322.404 57.6097 313.17 65.7405 300.985C73.866 288.807 138.924 206.444 138.97 206.402L149.024 211.025L152.135 205.667L117.936 176.309Z" fill="#0053FF"/>
<path d="M307.265 248.737C313.661 216.297 285.238 182.884 285.238 182.884L307.265 177.165C307.265 177.165 351.355 240.731 336.506 268.84C321.657 296.95 239.179 292.783 239.179 292.783C239.179 292.783 251.524 296.254 254.037 306.077C256.55 315.9 242.614 312.702 242.614 312.702C242.614 312.702 247.518 331.647 239.179 331.892C230.84 332.136 224.802 318.343 224.802 318.343L224.809 291.876C224.809 291.876 225.55 275.734 232.312 274.105C239.074 272.476 300.868 281.176 307.265 248.737Z" fill="#0053FF"/>
<path d="M224.011 227.322L224.647 232.998L224.387 232.974C224.387 232.974 224.159 354.846 231.241 361.361C235.492 365.272 246.41 366.71 255.645 367.927C261.795 368.737 267.2 369.449 269.391 370.728C274.874 373.926 285.383 383.292 278.529 388.547C271.676 393.801 227.357 393.116 220.275 391.06C213.193 389.004 208.396 386.034 206.797 376.896C205.198 367.758 200.629 234.801 200.629 234.801H181.439C181.439 234.801 179.383 369.357 175.728 379.18C172.073 389.004 166.362 390.831 159.28 392.202C152.198 393.573 108.793 395.35 105.138 391.06C101.482 386.769 101.482 377.865 110.849 371.413C115.423 368.262 122.721 367.753 130.19 367.232C138.014 366.686 146.024 366.127 151.284 362.504C161.564 355.422 158.366 232.974 158.366 232.974L150.776 233.648V225.311L224.011 227.322Z" fill="#0053FF"/>
<path d="M181.647 18.2661C225.967 4.48282 271.029 21.2194 282.295 55.6483C284.94 63.7315 285.486 72.0711 284.201 80.2798C305.99 85.1824 325.982 102.535 335.53 127.693C349.782 165.244 335.367 205.961 303.334 218.638C287.708 224.821 270.777 223.189 255.878 215.537C241.696 229.79 217.108 240.85 188.269 244.181C140.73 249.674 99.6455 232.09 96.505 204.907C95.9831 200.39 96.5424 195.891 98.0553 191.506C93.6559 189.167 89.3142 186.494 85.0811 183.484C47.0309 156.427 32.1036 112.497 51.7403 85.3649C65.9004 65.8002 94.1662 60.3133 123.099 68.919C131.477 46.8345 152.867 27.2163 181.647 18.2661Z" fill="white"/>
<path d="M238.833 146.952C230.736 149.075 224.181 144.91 224.181 144.91L252.208 131.963C252.208 131.963 246.93 144.829 238.833 146.952Z" fill="#312783" stroke="#312783" stroke-width="6.35901" stroke-linecap="round"/>
<path d="M209.086 156.866C209.086 156.866 213.23 142.853 233.761 133.806C254.291 124.759 268.631 128.754 268.631 128.754" stroke="#312783" stroke-width="7.82648" stroke-linecap="round"/>
<path d="M223.312 162.787C223.007 162.555 222.723 162.284 222.538 161.956C222.352 161.628 222.28 161.271 222.343 160.929C222.407 160.587 222.602 160.279 222.892 160.04C223.183 159.8 223.544 159.648 223.912 159.54C223.912 159.54 223.912 159.54 223.912 159.54C224.54 159.274 225.297 159.017 225.977 158.768C228.748 157.77 231.3 157.018 233.878 156.589C237.644 155.956 241.311 154.863 244.835 153.28C249.918 150.957 254.868 148.147 258.684 144.121C259.127 143.652 259.601 143.053 259.89 142.685C260.099 142.334 260.411 142.041 260.797 141.885C261.181 141.729 261.604 141.722 261.98 141.868C262.356 142.014 262.662 142.305 262.84 142.68C263.019 143.056 263.05 143.483 262.967 143.883C262.967 143.883 262.967 143.883 262.967 143.883C262.68 144.867 262.399 145.542 262.048 146.305C259.139 152.349 254.08 156.896 248.616 160.302C244.579 162.795 240.029 164.488 235.335 165.274C232.118 165.813 228.732 165.421 225.624 164.04C224.837 163.691 224.122 163.295 223.312 162.787Z" fill="#312783"/>
<path d="M151.948 146.952C160.045 149.075 166.6 144.91 166.6 144.91L138.573 131.963C138.573 131.963 143.852 144.829 151.948 146.952Z" fill="#312783" stroke="#312783" stroke-width="6.35901" stroke-linecap="round"/>
<path d="M181.695 156.866C181.695 156.866 177.551 142.853 157.021 133.806C136.49 124.759 122.15 128.754 122.15 128.754" stroke="#312783" stroke-width="7.82648" stroke-linecap="round"/>
<path d="M167.47 162.787C167.775 162.555 168.058 162.284 168.244 161.956C168.429 161.628 168.501 161.271 168.438 160.929C168.375 160.587 168.179 160.279 167.889 160.04C167.599 159.8 167.237 159.648 166.869 159.54C166.869 159.54 166.869 159.54 166.869 159.54C166.241 159.274 165.484 159.017 164.804 158.768C162.033 157.77 159.481 157.018 156.904 156.589C153.137 155.956 149.47 154.863 145.946 153.28C140.864 150.957 135.913 148.147 132.097 144.121C131.654 143.652 131.18 143.053 130.891 142.685C130.682 142.334 130.37 142.041 129.985 141.885C129.6 141.729 129.178 141.722 128.802 141.868C128.425 142.014 128.119 142.305 127.941 142.68C127.762 143.056 127.731 143.483 127.814 143.883C127.814 143.883 127.814 143.883 127.814 143.883C128.101 144.867 128.382 145.542 128.733 146.305C131.642 152.349 136.701 156.896 142.165 160.302C146.202 162.795 150.752 164.488 155.446 165.274C158.663 165.813 162.05 165.421 165.157 164.04C165.944 163.691 166.659 163.295 167.47 162.787Z" fill="#312783"/>
</svg>
