<svg width="360" height="448" viewBox="0 0 360 448" fill="none" xmlns="http://www.w3.org/2000/svg">
<path d="M55.1994 331.802C64.753 331.802 84.4063 319.519 93.687 295.498C102.968 271.477 110.338 245 110.338 245L279.301 249.64V255.1C279.301 255.1 290.766 305.052 299.227 329.891C307.689 354.731 318.062 357.46 329.799 365.649C341.537 373.838 341.264 386.121 334.44 391.035C327.616 395.948 319.973 391.035 319.973 391.035C325.978 397.768 329.253 402.499 329.799 410.961C330.345 419.423 319.154 431.433 303.049 421.879C286.944 412.326 291.312 400.861 291.312 400.861C287.49 405.502 275.186 411.234 268.383 396.494C261.58 381.754 274.388 347.361 273.296 329.891C272.204 312.422 255.554 257.283 255.554 257.283L232.625 255.1C232.625 255.1 232.352 400.719 240.814 408.504C249.275 416.289 279.847 415.874 286.398 419.696C292.949 423.517 305.506 434.709 297.317 440.987C289.128 447.265 236.173 446.446 227.711 443.989C219.25 441.533 213.517 437.984 211.607 427.066C209.696 416.147 204.237 257.283 204.237 257.283H181.308C181.308 257.283 178.851 418.058 174.484 429.795C170.116 441.533 163.292 443.716 154.831 445.354C146.369 446.992 94.5059 449.116 90.1385 443.989C85.7711 438.862 85.7711 428.224 96.9626 420.515C108.154 412.805 132.994 418.331 145.277 409.869C157.56 401.407 153.739 255.1 153.739 255.1L129.172 257.283C126.442 285.671 115.251 317.608 101.876 331.802C88.5008 345.996 63.1153 366.195 39.9135 370.563C16.7117 374.93 1.15287 369.744 0.0610253 356.641C-0.886339 345.273 9.46878 344.385 12.226 344.349C9.76647 344.229 1.39045 343.003 2.79065 331.802C4.42842 318.7 21.3521 324.432 19.4413 323.34C17.5306 322.248 18.8954 284.579 39.9135 284.307C60.9316 284.034 42.3701 310.784 42.3701 318.973C42.3701 327.162 45.6457 331.802 55.1994 331.802Z" fill="#0053FF"/>
<path d="M80.3181 85.9032C86.1269 55.031 125.778 36.2762 168.881 44.0134C188.117 47.4664 204.789 55.6127 216.839 66.3189C259.535 55.4168 303.738 73.096 322.172 111.36C340.947 150.333 326.789 197.784 290.766 225.324C290.716 242.947 282.786 259.136 268.204 267.564C249.828 278.185 226.429 273.278 209.983 257.161C203.093 260.356 195.606 263.093 187.662 265.225C144.311 276.862 103.774 266.201 97.1199 241.413C96.0142 237.294 95.914 233.044 96.714 228.767C92.3104 227.202 87.9147 225.318 83.5731 223.108C44.5474 203.24 24.6535 164.537 39.1392 136.662C47.037 121.465 63.5239 112.623 83.2111 110.945C79.8475 102.897 78.7225 94.384 80.3181 85.9032Z" fill="white"/>
<path d="M232.918 171.735C224.13 174.04 217.015 169.519 217.015 169.519L247.435 155.467C247.435 155.467 241.706 169.431 232.918 171.735Z" fill="#312783" stroke="#312783" stroke-width="6.90195" stroke-linecap="round"/>
<path d="M200.631 182.496C200.631 182.496 205.129 167.286 227.413 157.467C249.696 147.648 265.26 151.983 265.26 151.983" stroke="#312783" stroke-width="8.4947" stroke-linecap="round"/>
<path d="M216.071 188.922C215.74 188.67 215.432 188.376 215.231 188.02C215.029 187.664 214.951 187.276 215.02 186.905C215.088 186.534 215.3 186.2 215.615 185.94C215.93 185.679 216.323 185.515 216.722 185.398C216.722 185.398 216.722 185.398 216.722 185.398C217.404 185.108 218.225 184.83 218.963 184.56C221.971 183.476 224.741 182.66 227.538 182.195C231.627 181.508 235.607 180.322 239.431 178.602C244.948 176.081 250.321 173.031 254.463 168.662C254.944 168.153 255.458 167.503 255.772 167.104C255.999 166.723 256.338 166.404 256.756 166.235C257.174 166.066 257.632 166.058 258.04 166.217C258.448 166.375 258.78 166.691 258.974 167.098C259.168 167.506 259.202 167.969 259.112 168.404C259.112 168.404 259.112 168.404 259.112 168.404C258.8 169.471 258.495 170.204 258.114 171.033C254.957 177.592 249.466 182.528 243.536 186.225C239.154 188.93 234.215 190.768 229.12 191.621C225.629 192.206 221.953 191.781 218.581 190.282C217.726 189.902 216.95 189.473 216.071 188.922Z" fill="#312783"/>
<path d="M139.351 171.735C148.139 174.04 155.254 169.519 155.254 169.519L124.834 155.467C124.834 155.467 130.563 169.431 139.351 171.735Z" fill="#312783" stroke="#312783" stroke-width="6.90195" stroke-linecap="round"/>
<path d="M171.639 182.496C171.639 182.496 167.14 167.286 144.857 157.467C122.574 147.648 107.009 151.983 107.009 151.983" stroke="#312783" stroke-width="8.4947" stroke-linecap="round"/>
<path d="M156.195 188.922C156.526 188.67 156.834 188.376 157.035 188.02C157.236 187.664 157.315 187.276 157.246 186.905C157.177 186.534 156.966 186.2 156.65 185.94C156.335 185.679 155.943 185.515 155.543 185.398C155.543 185.398 155.543 185.398 155.543 185.398C154.861 185.108 154.04 184.83 153.302 184.56C150.295 183.476 147.524 182.66 144.727 182.195C140.639 181.508 136.658 180.322 132.834 178.602C127.318 176.081 121.944 173.031 117.803 168.662C117.322 168.153 116.807 167.503 116.493 167.104C116.266 166.723 115.928 166.404 115.51 166.235C115.092 166.066 114.634 166.058 114.226 166.217C113.817 166.375 113.485 166.691 113.292 167.098C113.098 167.506 113.064 167.969 113.154 168.404C113.154 168.404 113.154 168.404 113.154 168.404C113.465 169.471 113.771 170.204 114.151 171.033C117.309 177.592 122.8 182.528 128.73 186.225C133.112 188.93 138.05 190.768 143.145 191.621C146.636 192.206 150.312 191.781 153.685 190.282C154.539 189.902 155.315 189.473 156.195 188.922Z" fill="#312783"/>
</svg>
