<svg width="349" height="426" viewBox="0 0 349 426" fill="none" xmlns="http://www.w3.org/2000/svg">
<path d="M290.385 202C290.51 202.168 346.579 277.462 339.894 296.066C333.205 314.677 220.295 321.307 220.12 321.317C220.201 321.415 237.928 342.873 231.034 347.994C224.124 353.127 221.186 345.251 221.186 345.251C221.186 345.251 221.639 362.299 213.033 362.551C210.084 362.637 208.246 360.919 207.104 358.623C208.152 376.385 209.695 389.997 211.969 392.089C216.356 396.125 227.623 397.61 237.153 398.865C243.501 399.701 249.078 400.436 251.34 401.756C256.998 405.056 267.843 414.722 260.77 420.145C253.698 425.567 207.961 424.859 200.652 422.737C193.344 420.616 188.392 417.551 186.742 408.121C185.092 398.691 180.377 261.479 180.377 261.479H160.573C160.573 261.479 158.452 400.341 154.68 410.479C150.908 420.616 145.013 422.502 137.705 423.917C130.396 425.332 85.6031 427.165 81.831 422.737C78.059 418.309 78.0587 409.122 87.7246 402.463C92.4451 399.211 99.9773 398.685 107.685 398.147C115.759 397.584 124.026 397.008 129.454 393.269C132.681 391.046 134.617 377.81 135.755 360.466C134.608 362.037 132.976 363.09 130.652 363.021C122.067 362.769 122.498 345.802 122.5 345.723C122.479 345.777 119.537 353.581 112.651 348.466C105.742 343.333 123.566 321.788 123.566 321.788C123.566 321.788 10.4856 315.163 3.79195 296.538C-2.90134 277.913 53.3017 202.471 53.3017 202.471L76.0332 208.372C76.0332 208.372 27.283 270.135 32.8984 281.979C38.5145 293.823 123.672 300.832 130.652 302.513C134.217 303.371 136.159 308.138 137.207 312.596C137.406 284.359 136.762 259.594 136.762 259.594L128.93 260.29V251.686L204.508 253.761L205.163 259.619L204.895 259.594C204.895 259.594 204.844 287.367 205.547 317.509C206.12 312.666 207.887 303.281 213.033 302.041C220.011 300.36 305.171 293.352 310.787 281.508C316.396 269.677 267.765 208.042 267.653 207.901L290.385 202Z" fill="#0053FF"/>
<path d="M69.3181 85.9032C75.1269 55.031 114.778 36.2762 157.881 44.0134C177.117 47.4664 193.789 55.6127 205.839 66.3189C248.535 55.4168 292.738 73.096 311.172 111.36C329.947 150.333 315.789 197.784 279.766 225.324C279.716 242.947 271.786 259.136 257.204 267.564C238.828 278.185 215.429 273.278 198.983 257.161C192.093 260.356 184.606 263.093 176.662 265.225C133.311 276.862 92.7742 266.201 86.1199 241.413C85.0142 237.294 84.914 233.044 85.714 228.767C81.3104 227.202 76.9147 225.318 72.5731 223.108C33.5474 203.24 13.6535 164.537 28.1392 136.662C36.037 121.465 52.5239 112.623 72.2111 110.945C68.8475 102.897 67.7225 94.384 69.3181 85.9032Z" fill="white"/>
<path d="M223.922 171.735C215.134 174.04 208.019 169.519 208.019 169.519L238.439 155.467C238.439 155.467 232.71 169.431 223.922 171.735Z" fill="#312783" stroke="#312783" stroke-width="6.90195" stroke-linecap="round"/>
<path d="M191.635 182.496C191.635 182.496 196.133 167.286 218.416 157.467C240.7 147.648 256.264 151.983 256.264 151.983" stroke="#312783" stroke-width="8.4947" stroke-linecap="round"/>
<path d="M207.074 188.922C206.743 188.67 206.436 188.376 206.234 188.02C206.033 187.664 205.955 187.276 206.024 186.905C206.092 186.534 206.304 186.2 206.619 185.94C206.934 185.679 207.327 185.515 207.726 185.398C207.726 185.398 207.726 185.398 207.726 185.398C208.408 185.108 209.229 184.83 209.967 184.56C212.975 183.476 215.745 182.66 218.542 182.195C222.631 181.508 226.611 180.322 230.435 178.602C235.952 176.081 241.325 173.031 245.467 168.662C245.948 168.153 246.462 167.503 246.776 167.104C247.003 166.723 247.342 166.404 247.76 166.235C248.178 166.066 248.636 166.058 249.044 166.217C249.452 166.375 249.784 166.691 249.978 167.098C250.172 167.506 250.206 167.969 250.116 168.404C250.116 168.404 250.116 168.404 250.116 168.404C249.804 169.471 249.499 170.204 249.118 171.033C245.961 177.592 240.47 182.528 234.54 186.225C230.158 188.93 225.219 190.768 220.124 191.621C216.633 192.206 212.957 191.781 209.585 190.282C208.73 189.902 207.954 189.473 207.074 188.922Z" fill="#312783"/>
<path d="M130.351 171.735C139.139 174.04 146.254 169.519 146.254 169.519L115.834 155.467C115.834 155.467 121.563 169.431 130.351 171.735Z" fill="#312783" stroke="#312783" stroke-width="6.90195" stroke-linecap="round"/>
<path d="M162.639 182.496C162.639 182.496 158.14 167.286 135.857 157.467C113.574 147.648 98.0094 151.983 98.0094 151.983" stroke="#312783" stroke-width="8.4947" stroke-linecap="round"/>
<path d="M147.195 188.922C147.526 188.67 147.834 188.376 148.035 188.02C148.236 187.664 148.315 187.276 148.246 186.905C148.177 186.534 147.966 186.2 147.65 185.94C147.335 185.679 146.943 185.515 146.543 185.398C146.543 185.398 146.543 185.398 146.543 185.398C145.861 185.108 145.04 184.83 144.302 184.56C141.295 183.476 138.524 182.66 135.727 182.195C131.639 181.508 127.658 180.322 123.834 178.602C118.318 176.081 112.944 173.031 108.803 168.662C108.322 168.153 107.807 167.503 107.493 167.104C107.266 166.723 106.928 166.404 106.51 166.235C106.092 166.066 105.634 166.058 105.226 166.217C104.817 166.375 104.485 166.691 104.292 167.098C104.098 167.506 104.064 167.969 104.154 168.404C104.154 168.404 104.154 168.404 104.154 168.404C104.465 169.471 104.771 170.204 105.151 171.033C108.309 177.592 113.8 182.528 119.73 186.225C124.112 188.93 129.05 190.768 134.145 191.621C137.636 192.206 141.312 191.781 144.685 190.282C145.539 189.902 146.315 189.473 147.195 188.922Z" fill="#312783"/>
</svg>
