<svg width="375" height="426" viewBox="0 0 375 426" fill="none" xmlns="http://www.w3.org/2000/svg">
<path d="M117.936 207.667C117.936 207.667 78.0367 291.141 61.4748 305.564C44.913 319.987 44.5542 314.36 33.8469 311.095C23.1397 307.831 13.943 316.061 14.2759 322.801C14.6088 329.542 23.4292 335.862 23.4292 335.862C23.4292 335.862 5.10279 343.649 15.5407 353.28C25.9786 362.911 38.7659 350.758 38.7659 350.758C39.5821 355.723 43.5616 367.292 54.6791 359.482C62.8224 353.761 57.6097 344.528 65.7405 332.342C73.866 320.165 138.924 237.802 138.97 237.759L149.024 242.383L152.135 237.025L117.936 207.667Z" fill="#0053FF"/>
<path d="M307.265 280.092C313.661 247.653 285.238 214.239 285.238 214.239L307.265 208.521C307.265 208.521 351.355 272.086 336.506 300.196C321.657 328.305 239.179 324.138 239.179 324.138C239.179 324.138 251.524 327.609 254.037 337.432C256.55 347.256 242.614 344.057 242.614 344.057C242.614 344.057 247.518 363.003 239.179 363.247C230.84 363.491 224.802 349.698 224.802 349.698L224.809 323.231C224.809 323.231 225.55 307.089 232.312 305.46C239.074 303.832 300.868 312.532 307.265 280.092Z" fill="#0053FF"/>
<path d="M224.011 258.677L224.647 264.354L224.387 264.329C224.387 264.329 224.159 386.202 231.241 392.717C235.492 396.628 246.41 398.066 255.645 399.282C261.795 400.093 267.2 400.805 269.391 402.083C274.874 405.281 285.383 414.648 278.529 419.902C271.676 425.156 227.357 424.471 220.275 422.415C213.193 420.359 208.396 417.389 206.797 408.251C205.198 399.113 200.629 266.157 200.629 266.157H181.439C181.439 266.157 179.383 400.712 175.728 410.536C172.073 420.359 166.362 422.187 159.28 423.557C152.198 424.928 108.793 426.706 105.138 422.415C101.482 418.124 101.482 409.221 110.849 402.769C115.423 399.617 122.721 399.108 130.19 398.587C138.014 398.041 146.024 397.482 151.284 393.859C161.564 386.777 158.366 264.329 158.366 264.329L150.776 265.004V256.666L224.011 258.677Z" fill="#0053FF"/>
<path d="M95.076 85.9032C100.885 55.031 140.535 36.2762 183.638 44.0134C202.874 47.4664 219.547 55.6127 231.597 66.3189C274.293 55.4168 318.495 73.096 336.93 111.36C355.705 150.333 341.546 197.784 305.524 225.324C305.474 242.947 297.544 259.136 282.962 267.564C264.586 278.185 241.187 273.278 224.741 257.161C217.851 260.356 210.364 263.093 202.419 265.225C159.069 276.862 118.532 266.201 111.878 241.413C110.772 237.294 110.672 233.044 111.472 228.767C107.068 227.202 102.673 225.318 98.3309 223.108C59.3053 203.24 39.4113 164.537 53.897 136.662C61.7948 121.465 78.2817 112.623 97.9689 110.945C94.6053 102.897 93.4803 94.384 95.076 85.9032Z" fill="white"/>
<path d="M248.918 171.735C240.13 174.04 233.015 169.519 233.015 169.519L263.435 155.467C263.435 155.467 257.706 169.431 248.918 171.735Z" fill="#312783" stroke="#312783" stroke-width="6.90195" stroke-linecap="round"/>
<path d="M216.631 182.496C216.631 182.496 221.129 167.286 243.413 157.467C265.696 147.648 281.26 151.983 281.26 151.983" stroke="#312783" stroke-width="8.4947" stroke-linecap="round"/>
<path d="M232.071 188.922C231.74 188.67 231.432 188.376 231.231 188.02C231.029 187.664 230.951 187.276 231.02 186.905C231.088 186.534 231.3 186.2 231.615 185.94C231.93 185.679 232.323 185.515 232.722 185.398C232.722 185.398 232.722 185.398 232.722 185.398C233.404 185.108 234.225 184.83 234.963 184.56C237.971 183.476 240.741 182.66 243.538 182.195C247.627 181.508 251.607 180.322 255.431 178.602C260.948 176.081 266.321 173.031 270.463 168.662C270.944 168.153 271.458 167.503 271.772 167.104C271.999 166.723 272.338 166.404 272.756 166.235C273.174 166.066 273.632 166.058 274.04 166.217C274.448 166.375 274.78 166.691 274.974 167.098C275.168 167.506 275.202 167.969 275.112 168.404C275.112 168.404 275.112 168.404 275.112 168.404C274.8 169.471 274.495 170.204 274.114 171.033C270.957 177.592 265.466 182.528 259.536 186.225C255.154 188.93 250.215 190.768 245.12 191.621C241.629 192.206 237.953 191.781 234.581 190.282C233.726 189.902 232.95 189.473 232.071 188.922Z" fill="#312783"/>
<path d="M155.351 171.735C164.139 174.04 171.254 169.519 171.254 169.519L140.834 155.467C140.834 155.467 146.563 169.431 155.351 171.735Z" fill="#312783" stroke="#312783" stroke-width="6.90195" stroke-linecap="round"/>
<path d="M187.639 182.496C187.639 182.496 183.14 167.286 160.857 157.467C138.574 147.648 123.009 151.983 123.009 151.983" stroke="#312783" stroke-width="8.4947" stroke-linecap="round"/>
<path d="M172.195 188.922C172.526 188.67 172.834 188.376 173.035 188.02C173.236 187.664 173.315 187.276 173.246 186.905C173.177 186.534 172.966 186.2 172.65 185.94C172.335 185.679 171.943 185.515 171.543 185.398C171.543 185.398 171.543 185.398 171.543 185.398C170.861 185.108 170.04 184.83 169.302 184.56C166.295 183.476 163.524 182.66 160.727 182.195C156.639 181.508 152.658 180.322 148.834 178.602C143.318 176.081 137.944 173.031 133.803 168.662C133.322 168.153 132.807 167.503 132.493 167.104C132.266 166.723 131.928 166.404 131.51 166.235C131.092 166.066 130.634 166.058 130.226 166.217C129.817 166.375 129.485 166.691 129.292 167.098C129.098 167.506 129.064 167.969 129.154 168.404C129.154 168.404 129.154 168.404 129.154 168.404C129.465 169.471 129.771 170.204 130.151 171.033C133.309 177.592 138.8 182.528 144.73 186.225C149.112 188.93 154.05 190.768 159.145 191.621C162.636 192.206 166.312 191.781 169.685 190.282C170.539 189.902 171.315 189.473 172.195 188.922Z" fill="#312783"/>
</svg>
