<svg width="400" height="425" viewBox="0 0 400 425" fill="none" xmlns="http://www.w3.org/2000/svg">
<path d="M112.901 281.641C141.394 276.942 155.962 227.87 155.962 227.87L320.492 230.654C320.492 230.654 338.702 316.966 340.844 318.706C342.986 320.446 375.336 329.669 369.766 342.372C364.195 355.075 354.341 349.855 354.341 349.855C354.341 349.855 363.553 364.775 349.628 368.301C335.703 371.826 327.133 353.857 327.133 353.857C327.133 353.857 323.492 364.646 312.566 355.424C301.64 346.201 314.279 324.971 314.279 320.272C314.279 315.574 296.284 240.399 296.284 240.399H266.077C266.077 240.399 271.862 377.901 273.575 382.077C275.289 386.253 330.133 408.238 315.136 421.231C300.14 434.224 250.652 409.572 246.368 395.302C242.083 381.033 239.512 240.399 239.512 240.399H215.518C215.518 240.399 212.947 383.121 208.02 393.214C203.092 403.307 152.1 432.42 138.603 417.281C125.107 402.141 180.812 386.079 182.741 382.077C184.669 378.075 188.311 240.399 188.311 240.399H178.456C178.456 240.399 178.456 278.682 134.753 298.52C91.0491 318.358 57.2003 294.17 57.2003 294.17C57.2003 294.17 43.4892 305.133 31.2781 289.471C19.067 273.81 38.3478 265.631 38.3478 265.631C38.3478 265.631 0 266.153 0 251.71C0 237.266 34.9201 250.666 34.9201 250.666C34.9201 250.666 16.71 230.132 29.5641 223.519C42.4182 216.907 51.416 240.399 51.416 240.399C51.416 240.399 61.485 268.067 64.9127 270.504C68.3404 272.94 84.4079 286.339 112.901 281.641Z" fill="#0053FF"/>
<path d="M120.412 85.9032C126.221 55.031 165.871 36.2762 208.974 44.0134C228.21 47.4664 244.883 55.6127 256.933 66.3189C299.629 55.4168 343.831 73.096 362.266 111.36C381.041 150.333 366.882 197.784 330.86 225.324C330.81 242.947 322.88 259.136 308.298 267.564C289.922 278.185 266.523 273.278 250.077 257.161C243.187 260.356 235.7 263.093 227.755 265.225C184.405 276.862 143.868 266.201 137.214 241.413C136.108 237.294 136.008 233.044 136.808 228.767C132.404 227.202 128.008 225.318 123.667 223.108C84.6412 203.24 64.7473 164.537 79.2329 136.662C87.1307 121.465 103.618 112.623 123.305 110.945C119.941 102.897 118.816 94.384 120.412 85.9032Z" fill="white"/>
<path d="M274.918 171.735C266.13 174.04 259.015 169.519 259.015 169.519L289.435 155.467C289.435 155.467 283.706 169.431 274.918 171.735Z" fill="#312783" stroke="#312783" stroke-width="6.90195" stroke-linecap="round"/>
<path d="M242.631 182.496C242.631 182.496 247.129 167.286 269.413 157.467C291.696 147.648 307.26 151.983 307.26 151.983" stroke="#312783" stroke-width="8.4947" stroke-linecap="round"/>
<path d="M258.071 188.922C257.74 188.67 257.432 188.376 257.231 188.02C257.029 187.664 256.951 187.276 257.02 186.905C257.088 186.534 257.3 186.2 257.615 185.94C257.93 185.679 258.323 185.515 258.722 185.398C258.722 185.398 258.722 185.398 258.722 185.398C259.404 185.108 260.225 184.83 260.963 184.56C263.971 183.476 266.741 182.66 269.538 182.195C273.627 181.508 277.607 180.322 281.431 178.602C286.948 176.081 292.321 173.031 296.463 168.662C296.944 168.153 297.458 167.503 297.772 167.104C297.999 166.723 298.338 166.404 298.756 166.235C299.174 166.066 299.632 166.058 300.04 166.217C300.448 166.375 300.78 166.691 300.974 167.098C301.168 167.506 301.202 167.969 301.112 168.404C301.112 168.404 301.112 168.404 301.112 168.404C300.8 169.471 300.495 170.204 300.114 171.033C296.957 177.592 291.466 182.528 285.536 186.225C281.154 188.93 276.215 190.768 271.12 191.621C267.629 192.206 263.953 191.781 260.581 190.282C259.726 189.902 258.95 189.473 258.071 188.922Z" fill="#312783"/>
<path d="M181.351 171.735C190.139 174.04 197.254 169.519 197.254 169.519L166.834 155.467C166.834 155.467 172.563 169.431 181.351 171.735Z" fill="#312783" stroke="#312783" stroke-width="6.90195" stroke-linecap="round"/>
<path d="M213.639 182.496C213.639 182.496 209.14 167.286 186.857 157.467C164.574 147.648 149.009 151.983 149.009 151.983" stroke="#312783" stroke-width="8.4947" stroke-linecap="round"/>
<path d="M198.195 188.922C198.526 188.67 198.834 188.376 199.035 188.02C199.236 187.664 199.315 187.276 199.246 186.905C199.177 186.534 198.966 186.2 198.65 185.94C198.335 185.679 197.943 185.515 197.543 185.398C197.543 185.398 197.543 185.398 197.543 185.398C196.861 185.108 196.04 184.83 195.302 184.56C192.295 183.476 189.524 182.66 186.727 182.195C182.639 181.508 178.658 180.322 174.834 178.602C169.318 176.081 163.944 173.031 159.803 168.662C159.322 168.153 158.807 167.503 158.493 167.104C158.266 166.723 157.928 166.404 157.51 166.235C157.092 166.066 156.634 166.058 156.226 166.217C155.817 166.375 155.485 166.691 155.292 167.098C155.098 167.506 155.064 167.969 155.154 168.404C155.154 168.404 155.154 168.404 155.154 168.404C155.465 169.471 155.771 170.204 156.151 171.033C159.309 177.592 164.8 182.528 170.73 186.225C175.112 188.93 180.05 190.768 185.145 191.621C188.636 192.206 192.312 191.781 195.685 190.282C196.539 189.902 197.315 189.473 198.195 188.922Z" fill="#312783"/>
</svg>
