<svg width="350" height="394" viewBox="0 0 350 394" fill="none" xmlns="http://www.w3.org/2000/svg">
<path d="M117.936 176.309C117.936 176.309 78.0367 259.783 61.4748 274.206C44.913 288.629 44.5542 283.003 33.8469 279.738C23.1397 276.473 13.943 284.703 14.2759 291.444C14.6088 298.185 23.4292 304.505 23.4292 304.505C23.4292 304.505 5.10279 312.291 15.5407 321.922C25.9786 331.553 38.7659 319.401 38.7659 319.401C39.5821 324.365 43.5616 335.934 54.6791 328.124C62.8224 322.404 57.6097 313.17 65.7405 300.985C73.866 288.807 138.924 206.444 138.97 206.402L149.024 211.025L152.135 205.667L117.936 176.309Z" fill="#0053FF"/>
<path d="M307.265 248.737C313.661 216.297 285.238 182.884 285.238 182.884L307.265 177.165C307.265 177.165 351.355 240.731 336.506 268.84C321.657 296.95 239.179 292.783 239.179 292.783C239.179 292.783 251.524 296.254 254.037 306.077C256.55 315.9 242.614 312.702 242.614 312.702C242.614 312.702 247.518 331.647 239.179 331.892C230.84 332.136 224.802 318.343 224.802 318.343L224.809 291.876C224.809 291.876 225.55 275.734 232.312 274.105C239.074 272.476 300.868 281.176 307.265 248.737Z" fill="#0053FF"/>
<path d="M224.011 227.322L224.647 232.998L224.387 232.974C224.387 232.974 224.159 354.846 231.241 361.361C235.492 365.272 246.41 366.71 255.645 367.927C261.795 368.737 267.2 369.449 269.391 370.728C274.874 373.926 285.383 383.292 278.529 388.547C271.676 393.801 227.357 393.116 220.275 391.06C213.193 389.004 208.396 386.034 206.797 376.896C205.198 367.758 200.629 234.801 200.629 234.801H181.439C181.439 234.801 179.383 369.357 175.728 379.18C172.073 389.004 166.362 390.831 159.28 392.202C152.198 393.573 108.793 395.35 105.138 391.06C101.482 386.769 101.482 377.865 110.849 371.413C115.423 368.262 122.721 367.753 130.19 367.232C138.014 366.686 146.024 366.127 151.284 362.504C161.564 355.422 158.366 232.974 158.366 232.974L150.776 233.648V225.311L224.011 227.322Z" fill="#0053FF"/>
<path d="M181.646 18.2662C225.967 4.48276 271.029 21.2193 282.295 55.6483C284.94 63.7315 285.485 72.0712 284.2 80.2799C305.989 85.1824 325.982 102.535 335.531 127.693C349.782 165.244 335.367 205.962 303.335 218.639C287.709 224.822 270.778 223.189 255.878 215.537C241.696 229.79 217.108 240.85 188.27 244.181C140.73 249.674 99.6459 232.09 96.5053 204.907C95.9835 200.39 96.5421 195.892 98.0548 191.507C93.6553 189.168 89.3136 186.494 85.0805 183.484C47.0304 156.427 32.1038 112.497 51.7406 85.365C65.9007 65.8005 94.1659 60.3137 123.098 68.9191C131.476 46.8346 152.867 27.2165 181.646 18.2662Z" fill="white"/>
<path d="M244.914 148.735C236.126 151.04 229.011 146.519 229.011 146.519L259.431 132.467C259.431 132.467 253.702 146.431 244.914 148.735Z" fill="#312783" stroke="#312783" stroke-width="6.90195" stroke-linecap="round"/>
<path d="M212.627 159.496C212.627 159.496 217.125 144.286 239.409 134.467C261.692 124.648 277.256 128.983 277.256 128.983" stroke="#312783" stroke-width="8.4947" stroke-linecap="round"/>
<path d="M228.067 165.922C227.736 165.67 227.428 165.376 227.227 165.02C227.025 164.664 226.947 164.276 227.016 163.905C227.084 163.534 227.296 163.2 227.611 162.94C227.926 162.679 228.319 162.515 228.718 162.398C228.718 162.398 228.718 162.398 228.718 162.398C229.4 162.108 230.221 161.83 230.959 161.56C233.967 160.476 236.737 159.66 239.535 159.195C243.623 158.508 247.603 157.322 251.428 155.602C256.944 153.081 262.317 150.031 266.459 145.662C266.94 145.153 267.454 144.503 267.768 144.104C267.995 143.723 268.334 143.404 268.752 143.235C269.17 143.066 269.628 143.058 270.036 143.217C270.444 143.375 270.777 143.691 270.97 144.098C271.164 144.506 271.198 144.969 271.108 145.404C271.108 145.404 271.108 145.404 271.108 145.404C270.796 146.471 270.491 147.204 270.11 148.033C266.953 154.592 261.462 159.528 255.532 163.225C251.15 165.93 246.212 167.768 241.116 168.621C237.625 169.206 233.949 168.781 230.577 167.282C229.722 166.902 228.946 166.473 228.067 165.922Z" fill="#312783"/>
<path d="M151.344 148.735C160.132 151.04 167.247 146.519 167.247 146.519L136.827 132.467C136.827 132.467 142.556 146.431 151.344 148.735Z" fill="#312783" stroke="#312783" stroke-width="6.90195" stroke-linecap="round"/>
<path d="M183.631 159.496C183.631 159.496 179.133 144.286 156.849 134.467C134.566 124.648 119.002 128.983 119.002 128.983" stroke="#312783" stroke-width="8.4947" stroke-linecap="round"/>
<path d="M168.187 165.922C168.518 165.67 168.826 165.376 169.027 165.02C169.229 164.664 169.307 164.276 169.238 163.905C169.17 163.534 168.958 163.2 168.643 162.94C168.327 162.679 167.935 162.515 167.536 162.398C167.536 162.398 167.536 162.398 167.536 162.398C166.854 162.108 166.032 161.83 165.294 161.56C162.287 160.476 159.517 159.66 156.719 159.195C152.631 158.508 148.651 157.322 144.826 155.602C139.31 153.081 133.937 150.031 129.795 145.662C129.314 145.153 128.8 144.503 128.485 144.104C128.259 143.723 127.92 143.404 127.502 143.235C127.084 143.066 126.626 143.058 126.218 143.217C125.81 143.375 125.477 143.691 125.284 144.098C125.09 144.506 125.056 144.969 125.146 145.404C125.146 145.404 125.146 145.404 125.146 145.404C125.458 146.471 125.763 147.204 126.144 148.033C129.301 154.592 134.792 159.528 140.722 163.225C145.104 165.93 150.042 167.768 155.138 168.621C158.629 169.206 162.304 168.781 165.677 167.282C166.532 166.902 167.308 166.473 168.187 165.922Z" fill="#312783"/>
</svg>
