<svg width="382" height="420" viewBox="0 0 382 420" fill="none" xmlns="http://www.w3.org/2000/svg">
<path d="M112.901 275.987C141.394 271.289 155.962 222.216 155.962 222.216L320.492 200C320.492 200 338.702 311.312 340.844 313.053C342.986 314.793 375.336 324.016 369.766 336.719C364.195 349.422 354.341 344.201 354.341 344.201C354.341 344.201 363.553 359.122 349.628 362.647C335.703 366.173 327.133 348.204 327.133 348.204C327.133 348.204 323.492 358.993 312.566 349.77C301.64 340.547 314.279 319.317 314.279 314.619C314.279 309.92 296.284 209.745 296.284 209.745L266.077 234.745C266.077 234.745 271.862 372.247 273.575 376.424C275.289 380.6 330.133 402.584 315.136 415.577C300.14 428.57 250.652 403.918 246.368 389.649C242.083 375.379 239.512 234.745 239.512 234.745H215.518C215.518 234.745 212.947 377.468 208.02 387.561C203.092 397.654 152.1 426.767 138.603 411.627C125.107 396.488 180.812 380.426 182.741 376.424C184.669 372.421 188.311 234.745 188.311 234.745H178.456C178.456 234.745 178.456 273.029 134.753 292.867C91.0491 312.705 57.2003 288.516 57.2003 288.516C57.2003 288.516 43.4892 299.479 31.2781 283.818C19.067 268.156 38.3478 259.978 38.3478 259.978C38.3478 259.978 0 260.499 0 246.056C0 231.613 34.9201 245.012 34.9201 245.012C34.9201 245.012 16.71 224.478 29.5641 217.866C42.4182 211.253 51.416 234.745 51.416 234.745C51.416 234.745 61.485 262.414 64.9127 264.85C68.3404 267.286 84.4079 280.686 112.901 275.987Z" fill="#0053FF"/>
<path d="M213.646 18.2662C257.967 4.48287 303.028 21.2197 314.294 55.6483C316.939 63.7315 317.485 72.0712 316.2 80.2799C337.989 85.1823 357.983 102.536 367.531 127.694C381.782 165.245 367.367 205.962 335.335 218.639C319.709 224.822 302.778 223.189 287.878 215.537C273.696 229.79 249.107 240.85 220.269 244.182C172.73 249.674 131.646 232.09 128.505 204.908C127.984 200.391 128.542 195.892 130.055 191.507C125.655 189.168 121.314 186.494 117.08 183.484C79.0304 156.427 64.1039 112.498 83.7407 85.3659C97.9007 65.8012 126.166 60.3136 155.098 68.9191C163.476 46.8347 184.867 27.2164 213.646 18.2662Z" fill="white"/>
<path d="M271.918 148.735C263.13 151.04 256.015 146.519 256.015 146.519L286.435 132.467C286.435 132.467 280.706 146.431 271.918 148.735Z" fill="#312783" stroke="#312783" stroke-width="6.90195" stroke-linecap="round"/>
<path d="M239.631 159.496C239.631 159.496 244.129 144.286 266.413 134.467C288.696 124.648 304.26 128.983 304.26 128.983" stroke="#312783" stroke-width="8.4947" stroke-linecap="round"/>
<path d="M255.071 165.922C254.74 165.67 254.432 165.376 254.231 165.02C254.029 164.664 253.951 164.276 254.02 163.905C254.088 163.534 254.3 163.2 254.615 162.94C254.93 162.679 255.323 162.515 255.722 162.398C255.722 162.398 255.722 162.398 255.722 162.398C256.404 162.108 257.225 161.83 257.963 161.56C260.971 160.476 263.741 159.66 266.538 159.195C270.627 158.508 274.607 157.322 278.431 155.602C283.948 153.081 289.321 150.031 293.463 145.662C293.944 145.153 294.458 144.503 294.772 144.104C294.999 143.723 295.338 143.404 295.756 143.235C296.174 143.066 296.632 143.058 297.04 143.217C297.448 143.375 297.78 143.691 297.974 144.098C298.168 144.506 298.202 144.969 298.112 145.404C298.112 145.404 298.112 145.404 298.112 145.404C297.8 146.471 297.495 147.204 297.114 148.033C293.957 154.592 288.466 159.528 282.536 163.225C278.154 165.93 273.215 167.768 268.12 168.621C264.629 169.206 260.953 168.781 257.581 167.282C256.726 166.902 255.95 166.473 255.071 165.922Z" fill="#312783"/>
<path d="M178.348 148.735C187.136 151.04 194.25 146.519 194.25 146.519L163.831 132.467C163.831 132.467 169.559 146.431 178.348 148.735Z" fill="#312783" stroke="#312783" stroke-width="6.90195" stroke-linecap="round"/>
<path d="M210.635 159.496C210.635 159.496 206.136 144.286 183.853 134.467C161.57 124.648 146.006 128.983 146.006 128.983" stroke="#312783" stroke-width="8.4947" stroke-linecap="round"/>
<path d="M195.191 165.922C195.522 165.67 195.83 165.376 196.031 165.02C196.232 164.664 196.311 164.276 196.242 163.905C196.173 163.534 195.962 163.2 195.647 162.94C195.331 162.679 194.939 162.515 194.54 162.398C194.54 162.398 194.54 162.398 194.54 162.398C193.858 162.108 193.036 161.83 192.298 161.56C189.291 160.476 186.521 159.66 183.723 159.195C179.635 158.508 175.655 157.322 171.83 155.602C166.314 153.081 160.941 150.031 156.799 145.662C156.318 145.153 155.803 144.503 155.489 144.104C155.262 143.723 154.924 143.404 154.506 143.235C154.088 143.066 153.63 143.058 153.222 143.217C152.813 143.375 152.481 143.691 152.288 144.098C152.094 144.506 152.06 144.969 152.15 145.404C152.15 145.404 152.15 145.404 152.15 145.404C152.462 146.471 152.767 147.204 153.148 148.033C156.305 154.592 161.796 159.528 167.726 163.225C172.108 165.93 177.046 167.768 182.141 168.621C185.633 169.206 189.308 168.781 192.681 167.282C193.535 166.902 194.312 166.473 195.191 165.922Z" fill="#312783"/>
</svg>
