<svg width="382" height="420" viewBox="0 0 382 420" fill="none" xmlns="http://www.w3.org/2000/svg">
<path d="M112.901 275.987C141.394 271.289 155.962 222.216 155.962 222.216L320.492 200C320.492 200 338.702 311.312 340.844 313.053C342.986 314.793 375.336 324.016 369.766 336.719C364.195 349.422 354.341 344.201 354.341 344.201C354.341 344.201 363.553 359.122 349.628 362.647C335.703 366.173 327.133 348.204 327.133 348.204C327.133 348.204 323.492 358.993 312.566 349.77C301.64 340.547 314.279 319.317 314.279 314.619C314.279 309.92 296.284 209.745 296.284 209.745L266.077 234.745C266.077 234.745 271.862 372.247 273.575 376.424C275.289 380.6 330.133 402.584 315.136 415.577C300.14 428.57 250.652 403.918 246.368 389.649C242.083 375.379 239.512 234.745 239.512 234.745H215.518C215.518 234.745 212.947 377.468 208.02 387.561C203.092 397.654 152.1 426.767 138.603 411.627C125.107 396.488 180.812 380.426 182.741 376.424C184.669 372.421 188.311 234.745 188.311 234.745H178.456C178.456 234.745 178.456 273.029 134.753 292.867C91.0491 312.705 57.2003 288.516 57.2003 288.516C57.2003 288.516 43.4892 299.479 31.2781 283.818C19.067 268.156 38.3478 259.978 38.3478 259.978C38.3478 259.978 0 260.499 0 246.056C0 231.613 34.9201 245.012 34.9201 245.012C34.9201 245.012 16.71 224.478 29.5641 217.866C42.4182 211.253 51.416 234.745 51.416 234.745C51.416 234.745 61.485 262.414 64.9127 264.85C68.3404 267.286 84.4079 280.686 112.901 275.987Z" fill="#0053FF"/>
<path d="M213.646 18.2662C257.967 4.48276 303.029 21.2193 314.295 55.6483C316.94 63.7315 317.485 72.0712 316.2 80.2799C337.989 85.1824 357.982 102.535 367.531 127.693C381.782 165.244 367.367 205.962 335.335 218.639C319.709 224.822 302.778 223.189 287.878 215.537C273.696 229.79 249.108 240.85 220.27 244.181C172.73 249.674 131.646 232.09 128.505 204.907C127.983 200.39 128.542 195.892 130.055 191.507C125.655 189.168 121.314 186.494 117.08 183.484C79.0304 156.427 64.1038 112.497 83.7406 85.365C97.9007 65.8005 126.166 60.3137 155.098 68.9191C163.476 46.8346 184.867 27.2165 213.646 18.2662Z" fill="white"/>
<path d="M180.577 164.68L182.215 160.572" stroke="#312783" stroke-width="5.86521" stroke-linecap="round"/>
<path d="M161.508 152.785L168.578 150.58" stroke="#312783" stroke-width="5.86521" stroke-linecap="round"/>
<path d="M185.055 153.409C191.169 155.141 197.279 152.841 197.279 152.841L174.664 138.318C174.664 138.318 178.941 151.678 185.055 153.409Z" fill="#312783" stroke="#312783" stroke-width="6.35398" stroke-linecap="round"/>
<path d="M215.579 165.808C215.579 165.808 210.79 153.204 190.64 140.582C170.491 127.96 158.178 130.549 158.178 130.549" stroke="#312783" stroke-width="8.79782" stroke-linecap="round"/>
<path d="M277.681 164.283L276.043 160.176" stroke="#312783" stroke-width="5.86521" stroke-linecap="round"/>
<path d="M296.742 152.386L289.672 150.182" stroke="#312783" stroke-width="5.86521" stroke-linecap="round"/>
<path d="M273.195 153.009C267.081 154.74 260.971 152.44 260.971 152.44L283.586 137.917C283.586 137.917 279.309 151.278 273.195 153.009Z" fill="#312783" stroke="#312783" stroke-width="6.35398" stroke-linecap="round"/>
<path d="M242.679 165.409C242.679 165.409 247.468 152.805 267.617 140.184C287.767 127.562 300.08 130.151 300.08 130.151" stroke="#312783" stroke-width="8.79782" stroke-linecap="round"/>
</svg>
