<svg width="346" height="408" viewBox="0 0 346 408" fill="none" xmlns="http://www.w3.org/2000/svg">
<path d="M55.1994 291.802C64.753 291.802 84.4063 279.519 93.687 255.498C102.968 231.477 110.338 205 110.338 205L279.301 209.64V215.1C279.301 215.1 290.766 265.052 299.227 289.891C307.689 314.731 318.062 317.46 329.799 325.649C341.537 333.838 341.264 346.121 334.44 351.035C327.616 355.948 319.973 351.035 319.973 351.035C325.978 357.768 329.253 362.499 329.799 370.961C330.345 379.423 319.154 391.433 303.049 381.879C286.944 372.326 291.312 360.861 291.312 360.861C287.49 365.502 275.186 371.234 268.383 356.494C261.58 341.754 274.388 307.361 273.296 289.891C272.204 272.422 255.554 217.283 255.554 217.283L232.625 215.1C232.625 215.1 232.352 360.719 240.814 368.504C249.275 376.289 279.847 375.874 286.398 379.696C292.949 383.517 305.506 394.709 297.317 400.987C289.128 407.265 236.173 406.446 227.711 403.989C219.25 401.533 213.517 397.984 211.607 387.066C209.696 376.147 204.237 217.283 204.237 217.283H181.308C181.308 217.283 178.851 378.058 174.484 389.795C170.116 401.533 163.292 403.716 154.831 405.354C146.369 406.992 94.5059 409.116 90.1385 403.989C85.7711 398.862 85.7711 388.224 96.9626 380.515C108.154 372.805 132.994 378.331 145.277 369.869C157.56 361.407 153.739 215.1 153.739 215.1L129.172 217.283C126.442 245.671 115.251 277.608 101.876 291.802C88.5008 305.996 63.1153 326.195 39.9135 330.563C16.7117 334.93 1.15287 329.744 0.0610253 316.641C-0.886339 305.273 9.46878 304.385 12.226 304.349C9.76647 304.229 1.39045 303.003 2.79065 291.802C4.42842 278.7 21.3521 284.432 19.4413 283.34C17.5306 282.248 18.8954 244.579 39.9135 244.307C60.9316 244.034 42.3701 270.784 42.3701 278.973C42.3701 287.162 45.6457 291.802 55.1994 291.802Z" fill="#0053FF"/>
<path d="M177.646 18.2662C221.967 4.48287 267.028 21.2197 278.294 55.6483C280.939 63.7315 281.485 72.0712 280.2 80.2799C301.989 85.1823 321.983 102.536 331.531 127.694C345.782 165.245 331.367 205.962 299.335 218.639C283.709 224.822 266.778 223.189 251.878 215.537C237.696 229.79 213.107 240.85 184.269 244.182C136.73 249.674 95.6464 232.09 92.5054 204.908C91.9835 200.391 92.542 195.892 94.0547 191.507C89.6552 189.168 85.3136 186.494 81.0804 183.484C43.0304 156.427 28.1039 112.498 47.7407 85.3659C61.9007 65.8012 90.1657 60.3136 119.098 68.9191C127.476 46.8347 148.867 27.2164 177.646 18.2662Z" fill="white"/>
<path d="M234.833 146.952C226.736 149.075 220.181 144.91 220.181 144.91L248.208 131.963C248.208 131.963 242.93 144.829 234.833 146.952Z" fill="#312783" stroke="#312783" stroke-width="6.35901" stroke-linecap="round"/>
<path d="M205.086 156.866C205.086 156.866 209.23 142.853 229.761 133.806C250.291 124.759 264.631 128.754 264.631 128.754" stroke="#312783" stroke-width="7.82648" stroke-linecap="round"/>
<path d="M219.312 162.787C219.007 162.555 218.723 162.284 218.538 161.956C218.352 161.628 218.28 161.271 218.343 160.929C218.407 160.587 218.602 160.279 218.892 160.04C219.183 159.8 219.544 159.648 219.912 159.54C219.912 159.54 219.912 159.54 219.912 159.54C220.54 159.274 221.297 159.017 221.977 158.768C224.748 157.77 227.3 157.018 229.878 156.589C233.644 155.956 237.311 154.863 240.835 153.28C245.918 150.957 250.868 148.147 254.684 144.121C255.127 143.652 255.601 143.053 255.89 142.685C256.099 142.334 256.411 142.041 256.797 141.885C257.181 141.729 257.604 141.722 257.98 141.868C258.356 142.014 258.662 142.305 258.84 142.68C259.019 143.056 259.05 143.483 258.967 143.883C258.967 143.883 258.967 143.883 258.967 143.883C258.68 144.867 258.399 145.542 258.048 146.305C255.139 152.349 250.08 156.896 244.616 160.302C240.579 162.795 236.029 164.488 231.335 165.274C228.118 165.813 224.732 165.421 221.624 164.04C220.837 163.691 220.122 163.295 219.312 162.787Z" fill="#312783"/>
<path d="M147.948 146.952C156.045 149.075 162.6 144.91 162.6 144.91L134.573 131.963C134.573 131.963 139.852 144.829 147.948 146.952Z" fill="#312783" stroke="#312783" stroke-width="6.35901" stroke-linecap="round"/>
<path d="M177.695 156.866C177.695 156.866 173.551 142.853 153.021 133.806C132.49 124.759 118.15 128.754 118.15 128.754" stroke="#312783" stroke-width="7.82648" stroke-linecap="round"/>
<path d="M163.47 162.787C163.775 162.555 164.058 162.284 164.244 161.956C164.429 161.628 164.501 161.271 164.438 160.929C164.375 160.587 164.179 160.279 163.889 160.04C163.599 159.8 163.237 159.648 162.869 159.54C162.869 159.54 162.869 159.54 162.869 159.54C162.241 159.274 161.484 159.017 160.804 158.768C158.033 157.77 155.481 157.018 152.904 156.589C149.137 155.956 145.47 154.863 141.946 153.28C136.864 150.957 131.913 148.147 128.097 144.121C127.654 143.652 127.18 143.053 126.891 142.685C126.682 142.334 126.37 142.041 125.985 141.885C125.6 141.729 125.178 141.722 124.802 141.868C124.425 142.014 124.119 142.305 123.941 142.68C123.762 143.056 123.731 143.483 123.814 143.883C123.814 143.883 123.814 143.883 123.814 143.883C124.101 144.867 124.382 145.542 124.733 146.305C127.642 152.349 132.701 156.896 138.165 160.302C142.202 162.795 146.752 164.488 151.446 165.274C154.663 165.813 158.05 165.421 161.157 164.04C161.944 163.691 162.659 163.295 163.47 162.787Z" fill="#312783"/>
</svg>
