<svg width="346" height="408" viewBox="0 0 346 408" fill="none" xmlns="http://www.w3.org/2000/svg">
<path d="M55.1994 291.802C64.753 291.802 84.4063 279.519 93.687 255.498C102.968 231.477 110.338 205 110.338 205L279.301 209.64V215.1C279.301 215.1 290.766 265.052 299.227 289.891C307.689 314.731 318.062 317.46 329.799 325.649C341.537 333.838 341.264 346.121 334.44 351.035C327.616 355.948 319.973 351.035 319.973 351.035C325.978 357.768 329.253 362.499 329.799 370.961C330.345 379.423 319.154 391.433 303.049 381.879C286.944 372.326 291.312 360.861 291.312 360.861C287.49 365.502 275.186 371.234 268.383 356.494C261.58 341.754 274.388 307.361 273.296 289.891C272.204 272.422 255.554 217.283 255.554 217.283L232.625 215.1C232.625 215.1 232.352 360.719 240.814 368.504C249.275 376.289 279.847 375.874 286.398 379.696C292.949 383.517 305.506 394.709 297.317 400.987C289.128 407.265 236.173 406.446 227.711 403.989C219.25 401.533 213.517 397.984 211.607 387.066C209.696 376.147 204.237 217.283 204.237 217.283H181.308C181.308 217.283 178.851 378.058 174.484 389.795C170.116 401.533 163.292 403.716 154.831 405.354C146.369 406.992 94.5059 409.116 90.1385 403.989C85.7711 398.862 85.7711 388.224 96.9626 380.515C108.154 372.805 132.994 378.331 145.277 369.869C157.56 361.407 153.739 215.1 153.739 215.1L129.172 217.283C126.442 245.671 115.251 277.608 101.876 291.802C88.5008 305.996 63.1153 326.195 39.9135 330.563C16.7117 334.93 1.15287 329.744 0.0610253 316.641C-0.886339 305.273 9.46878 304.385 12.226 304.349C9.76647 304.229 1.39045 303.003 2.79065 291.802C4.42842 278.7 21.3521 284.432 19.4413 283.34C17.5306 282.248 18.8954 244.579 39.9135 244.307C60.9316 244.034 42.3701 270.784 42.3701 278.973C42.3701 287.162 45.6457 291.802 55.1994 291.802Z" fill="#0053FF"/>
<path d="M177.646 18.2662C221.967 4.48287 267.028 21.2197 278.294 55.6483C280.939 63.7315 281.485 72.0712 280.2 80.2799C301.989 85.1823 321.983 102.536 331.531 127.694C345.782 165.245 331.367 205.962 299.335 218.639C283.709 224.822 266.778 223.189 251.878 215.537C237.696 229.79 213.107 240.85 184.269 244.182C136.73 249.674 95.6464 232.09 92.5054 204.908C91.9835 200.391 92.542 195.892 94.0547 191.507C89.6552 189.168 85.3136 186.494 81.0804 183.484C43.0304 156.427 28.1039 112.498 47.7407 85.3659C61.9007 65.8012 90.1657 60.3136 119.098 68.9191C127.476 46.8347 148.867 27.2164 177.646 18.2662Z" fill="white"/>
<path d="M238.918 148.735C230.13 151.04 223.015 146.519 223.015 146.519L253.435 132.467C253.435 132.467 247.706 146.431 238.918 148.735Z" fill="#312783" stroke="#312783" stroke-width="6.90195" stroke-linecap="round"/>
<path d="M206.631 159.496C206.631 159.496 211.129 144.286 233.413 134.467C255.696 124.648 271.26 128.983 271.26 128.983" stroke="#312783" stroke-width="8.4947" stroke-linecap="round"/>
<path d="M222.071 165.922C221.74 165.67 221.432 165.376 221.231 165.02C221.029 164.664 220.951 164.276 221.02 163.905C221.088 163.534 221.3 163.2 221.615 162.94C221.93 162.679 222.323 162.515 222.722 162.398C222.722 162.398 222.722 162.398 222.722 162.398C223.404 162.108 224.225 161.83 224.963 161.56C227.971 160.476 230.741 159.66 233.538 159.195C237.627 158.508 241.607 157.322 245.431 155.602C250.948 153.081 256.321 150.031 260.463 145.662C260.944 145.153 261.458 144.503 261.772 144.104C261.999 143.723 262.338 143.404 262.756 143.235C263.174 143.066 263.632 143.058 264.04 143.217C264.448 143.375 264.78 143.691 264.974 144.098C265.168 144.506 265.202 144.969 265.112 145.404C265.112 145.404 265.112 145.404 265.112 145.404C264.8 146.471 264.495 147.204 264.114 148.033C260.957 154.592 255.466 159.528 249.536 163.225C245.154 165.93 240.215 167.768 235.12 168.621C231.629 169.206 227.953 168.781 224.581 167.282C223.726 166.902 222.95 166.473 222.071 165.922Z" fill="#312783"/>
<path d="M145.348 148.735C154.136 151.04 161.25 146.519 161.25 146.519L130.831 132.467C130.831 132.467 136.559 146.431 145.348 148.735Z" fill="#312783" stroke="#312783" stroke-width="6.90195" stroke-linecap="round"/>
<path d="M177.635 159.496C177.635 159.496 173.136 144.286 150.853 134.467C128.57 124.648 113.006 128.983 113.006 128.983" stroke="#312783" stroke-width="8.4947" stroke-linecap="round"/>
<path d="M162.191 165.922C162.522 165.67 162.83 165.376 163.031 165.02C163.232 164.664 163.311 164.276 163.242 163.905C163.173 163.534 162.962 163.2 162.647 162.94C162.331 162.679 161.939 162.515 161.54 162.398C161.54 162.398 161.54 162.398 161.54 162.398C160.858 162.108 160.036 161.83 159.298 161.56C156.291 160.476 153.521 159.66 150.723 159.195C146.635 158.508 142.655 157.322 138.83 155.602C133.314 153.081 127.941 150.031 123.799 145.662C123.318 145.153 122.803 144.503 122.489 144.104C122.262 143.723 121.924 143.404 121.506 143.235C121.088 143.066 120.63 143.058 120.222 143.217C119.813 143.375 119.481 143.691 119.288 144.098C119.094 144.506 119.06 144.969 119.15 145.404C119.15 145.404 119.15 145.404 119.15 145.404C119.462 146.471 119.767 147.204 120.148 148.033C123.305 154.592 128.796 159.528 134.726 163.225C139.108 165.93 144.046 167.768 149.141 168.621C152.633 169.206 156.308 168.781 159.681 167.282C160.535 166.902 161.312 166.473 162.191 165.922Z" fill="#312783"/>
</svg>
