<svg width="346" height="408" viewBox="0 0 346 408" fill="none" xmlns="http://www.w3.org/2000/svg">
<path d="M55.1994 291.802C64.753 291.802 84.4063 279.519 93.687 255.498C102.968 231.477 110.338 205 110.338 205L279.301 209.64V215.1C279.301 215.1 290.766 265.052 299.227 289.891C307.689 314.731 318.062 317.46 329.799 325.649C341.537 333.838 341.264 346.121 334.44 351.035C327.616 355.948 319.973 351.035 319.973 351.035C325.978 357.768 329.253 362.499 329.799 370.961C330.345 379.423 319.154 391.433 303.049 381.879C286.944 372.326 291.312 360.861 291.312 360.861C287.49 365.502 275.186 371.234 268.383 356.494C261.58 341.754 274.388 307.361 273.296 289.891C272.204 272.422 255.554 217.283 255.554 217.283L232.625 215.1C232.625 215.1 232.352 360.719 240.814 368.504C249.275 376.289 279.847 375.874 286.398 379.696C292.949 383.517 305.506 394.709 297.317 400.987C289.128 407.265 236.173 406.446 227.711 403.989C219.25 401.533 213.517 397.984 211.607 387.066C209.696 376.147 204.237 217.283 204.237 217.283H181.308C181.308 217.283 178.851 378.058 174.484 389.795C170.116 401.533 163.292 403.716 154.831 405.354C146.369 406.992 94.5059 409.116 90.1385 403.989C85.7711 398.862 85.7711 388.224 96.9626 380.515C108.154 372.805 132.994 378.331 145.277 369.869C157.56 361.407 153.739 215.1 153.739 215.1L129.172 217.283C126.442 245.671 115.251 277.608 101.876 291.802C88.5008 305.996 63.1153 326.195 39.9135 330.563C16.7117 334.93 1.15287 329.744 0.0610253 316.641C-0.886339 305.273 9.46878 304.385 12.226 304.349C9.76647 304.229 1.39045 303.003 2.79065 291.802C4.42842 278.7 21.3521 284.432 19.4413 283.34C17.5306 282.248 18.8954 244.579 39.9135 244.307C60.9316 244.034 42.3701 270.784 42.3701 278.973C42.3701 287.162 45.6457 291.802 55.1994 291.802Z" fill="#0053FF"/>
<path d="M177.646 18.2662C221.967 4.48287 267.028 21.2197 278.294 55.6483C280.939 63.7315 281.485 72.0712 280.2 80.2799C301.989 85.1823 321.983 102.536 331.531 127.694C345.782 165.245 331.367 205.962 299.335 218.639C283.709 224.822 266.778 223.189 251.878 215.537C237.696 229.79 213.107 240.85 184.269 244.182C136.73 249.674 95.6464 232.09 92.5054 204.908C91.9835 200.391 92.542 195.892 94.0547 191.507C89.6552 189.168 85.3136 186.494 81.0804 183.484C43.0304 156.427 28.1039 112.498 47.7407 85.3659C61.9007 65.8012 90.1657 60.3136 119.098 68.9191C127.476 46.8347 148.867 27.2164 177.646 18.2662Z" fill="white"/>
<path d="M138.581 158.68L140.219 154.572" stroke="#312783" stroke-width="5.86521" stroke-linecap="round"/>
<path d="M119.512 146.785L126.582 144.58" stroke="#312783" stroke-width="5.86521" stroke-linecap="round"/>
<path d="M143.059 147.409C149.173 149.141 155.283 146.841 155.283 146.841L132.668 132.318C132.668 132.318 136.944 145.678 143.059 147.409Z" fill="#312783" stroke="#312783" stroke-width="6.35398" stroke-linecap="round"/>
<path d="M173.583 159.808C173.583 159.808 168.794 147.204 148.644 134.582C128.495 121.96 116.182 124.549 116.182 124.549" stroke="#312783" stroke-width="8.79782" stroke-linecap="round"/>
<path d="M235.681 158.283L234.043 154.176" stroke="#312783" stroke-width="5.86521" stroke-linecap="round"/>
<path d="M254.742 146.386L247.672 144.182" stroke="#312783" stroke-width="5.86521" stroke-linecap="round"/>
<path d="M231.195 147.009C225.081 148.74 218.971 146.44 218.971 146.44L241.586 131.917C241.586 131.917 237.309 145.278 231.195 147.009Z" fill="#312783" stroke="#312783" stroke-width="6.35398" stroke-linecap="round"/>
<path d="M200.679 159.409C200.679 159.409 205.468 146.805 225.617 134.184C245.767 121.562 258.08 124.151 258.08 124.151" stroke="#312783" stroke-width="8.79782" stroke-linecap="round"/>
</svg>
