<svg width="382" height="420" viewBox="0 0 382 420" fill="none" xmlns="http://www.w3.org/2000/svg">
<path d="M112.901 275.987C141.394 271.289 155.962 222.216 155.962 222.216L320.492 200C320.492 200 338.702 311.312 340.844 313.053C342.986 314.793 375.336 324.016 369.766 336.719C364.195 349.422 354.341 344.201 354.341 344.201C354.341 344.201 363.553 359.122 349.628 362.647C335.703 366.173 327.133 348.204 327.133 348.204C327.133 348.204 323.492 358.993 312.566 349.77C301.64 340.547 314.279 319.317 314.279 314.619C314.279 309.92 296.284 209.745 296.284 209.745L266.077 234.745C266.077 234.745 271.862 372.247 273.575 376.424C275.289 380.6 330.133 402.584 315.136 415.577C300.14 428.57 250.652 403.918 246.368 389.649C242.083 375.379 239.512 234.745 239.512 234.745H215.518C215.518 234.745 212.947 377.468 208.02 387.561C203.092 397.654 152.1 426.767 138.603 411.627C125.107 396.488 180.812 380.426 182.741 376.424C184.669 372.421 188.311 234.745 188.311 234.745H178.456C178.456 234.745 178.456 273.029 134.753 292.867C91.0491 312.705 57.2003 288.516 57.2003 288.516C57.2003 288.516 43.4892 299.479 31.2781 283.818C19.067 268.156 38.3478 259.978 38.3478 259.978C38.3478 259.978 0 260.499 0 246.056C0 231.613 34.9201 245.012 34.9201 245.012C34.9201 245.012 16.71 224.478 29.5641 217.866C42.4182 211.253 51.416 234.745 51.416 234.745C51.416 234.745 61.485 262.414 64.9127 264.85C68.3404 267.286 84.4079 280.686 112.901 275.987Z" fill="#0053FF"/>
<path d="M213.647 18.2661C257.967 4.48282 303.029 21.2194 314.295 55.6483C316.94 63.7315 317.486 72.0711 316.201 80.2798C337.99 85.1824 357.982 102.535 367.53 127.693C381.782 165.244 367.367 205.961 335.334 218.638C319.708 224.821 302.777 223.189 287.878 215.537C273.696 229.79 249.108 240.85 220.269 244.181C172.73 249.674 131.646 232.09 128.505 204.907C127.983 200.39 128.542 195.891 130.055 191.506C125.656 189.167 121.314 186.494 117.081 183.484C79.031 156.427 64.1036 112.497 83.7403 85.3649C97.9004 65.8002 126.166 60.3133 155.099 68.919C163.477 46.8345 184.867 27.2163 213.647 18.2661Z" fill="white"/>
<path d="M270.833 146.952C262.736 149.075 256.181 144.91 256.181 144.91L284.208 131.963C284.208 131.963 278.93 144.829 270.833 146.952Z" fill="#312783" stroke="#312783" stroke-width="6.35901" stroke-linecap="round"/>
<path d="M241.086 156.866C241.086 156.866 245.23 142.853 265.761 133.806C286.291 124.759 300.631 128.754 300.631 128.754" stroke="#312783" stroke-width="7.82648" stroke-linecap="round"/>
<path d="M255.312 162.787C255.007 162.555 254.723 162.284 254.538 161.956C254.352 161.628 254.28 161.271 254.343 160.929C254.407 160.587 254.602 160.279 254.892 160.04C255.183 159.8 255.544 159.648 255.912 159.54C255.912 159.54 255.912 159.54 255.912 159.54C256.54 159.274 257.297 159.017 257.977 158.768C260.748 157.77 263.3 157.018 265.878 156.589C269.644 155.956 273.311 154.863 276.835 153.28C281.918 150.957 286.868 148.147 290.684 144.121C291.127 143.652 291.601 143.053 291.89 142.685C292.099 142.334 292.411 142.041 292.797 141.885C293.181 141.729 293.604 141.722 293.98 141.868C294.356 142.014 294.662 142.305 294.84 142.68C295.019 143.056 295.05 143.483 294.967 143.883C294.967 143.883 294.967 143.883 294.967 143.883C294.68 144.867 294.399 145.542 294.048 146.305C291.139 152.349 286.08 156.896 280.616 160.302C276.579 162.795 272.029 164.488 267.335 165.274C264.118 165.813 260.732 165.421 257.624 164.04C256.837 163.691 256.122 163.295 255.312 162.787Z" fill="#312783"/>
<path d="M183.948 146.952C192.045 149.075 198.6 144.91 198.6 144.91L170.573 131.963C170.573 131.963 175.852 144.829 183.948 146.952Z" fill="#312783" stroke="#312783" stroke-width="6.35901" stroke-linecap="round"/>
<path d="M213.695 156.866C213.695 156.866 209.551 142.853 189.021 133.806C168.49 124.759 154.15 128.754 154.15 128.754" stroke="#312783" stroke-width="7.82648" stroke-linecap="round"/>
<path d="M199.47 162.787C199.775 162.555 200.058 162.284 200.244 161.956C200.429 161.628 200.501 161.271 200.438 160.929C200.375 160.587 200.179 160.279 199.889 160.04C199.599 159.8 199.237 159.648 198.869 159.54C198.869 159.54 198.869 159.54 198.869 159.54C198.241 159.274 197.484 159.017 196.804 158.768C194.033 157.77 191.481 157.018 188.904 156.589C185.137 155.956 181.47 154.863 177.946 153.28C172.864 150.957 167.913 148.147 164.097 144.121C163.654 143.652 163.18 143.053 162.891 142.685C162.682 142.334 162.37 142.041 161.985 141.885C161.6 141.729 161.178 141.722 160.802 141.868C160.425 142.014 160.119 142.305 159.941 142.68C159.762 143.056 159.731 143.483 159.814 143.883C159.814 143.883 159.814 143.883 159.814 143.883C160.101 144.867 160.382 145.542 160.733 146.305C163.642 152.349 168.701 156.896 174.165 160.302C178.202 162.795 182.752 164.488 187.446 165.274C190.663 165.813 194.05 165.421 197.157 164.04C197.944 163.691 198.659 163.295 199.47 162.787Z" fill="#312783"/>
</svg>
