<svg width="338" height="397" viewBox="0 0 338 397" fill="none" xmlns="http://www.w3.org/2000/svg">
<path d="M287.146 173C287.272 173.168 343.341 248.462 336.655 267.066C329.967 285.677 217.057 292.307 216.882 292.317C216.963 292.415 234.69 313.873 227.796 318.994C220.886 324.127 217.947 316.251 217.947 316.251C217.947 316.251 218.401 333.299 209.795 333.551C206.845 333.637 205.008 331.919 203.866 329.623C204.914 347.385 206.457 360.997 208.73 363.089C213.117 367.125 224.384 368.61 233.915 369.865C240.262 370.701 245.84 371.436 248.102 372.756C253.76 376.056 264.605 385.722 257.532 391.145C250.459 396.567 204.723 395.859 197.414 393.737C190.106 391.616 185.154 388.551 183.504 379.121C181.854 369.691 177.139 232.479 177.139 232.479H157.335C157.335 232.479 155.213 371.341 151.441 381.479C147.669 391.616 141.775 393.502 134.467 394.917C127.158 396.332 82.3648 398.165 78.5927 393.737C74.8207 389.309 74.8205 380.122 84.4863 373.463C89.2068 370.211 96.739 369.685 104.446 369.147C112.521 368.584 120.788 368.008 126.216 364.269C129.442 362.046 131.379 348.81 132.517 331.466C131.369 333.037 129.737 334.09 127.414 334.021C118.829 333.769 119.26 316.802 119.262 316.723C119.241 316.777 116.299 324.581 109.413 319.466C102.504 314.333 120.328 292.788 120.328 292.788C120.328 292.788 7.24728 286.163 0.553666 267.538C-6.13962 248.913 50.0634 173.471 50.0634 173.471L72.7949 179.372C72.7949 179.372 24.0447 241.135 29.6601 252.979C35.2763 264.823 120.434 271.832 127.414 273.513C130.978 274.371 132.92 279.138 133.969 283.596C134.168 255.359 133.523 230.594 133.523 230.594L125.691 231.29V222.686L201.269 224.761L201.925 230.619L201.657 230.594C201.657 230.594 201.605 258.367 202.309 288.509C202.882 283.666 204.649 274.281 209.795 273.041C216.773 271.36 301.933 264.352 307.549 252.508C313.158 240.677 264.526 179.042 264.415 178.901L287.146 173Z" fill="#0053FF"/>
<path d="M162.646 18.2662C206.967 4.48287 252.028 21.2197 263.294 55.6483C265.939 63.7315 266.485 72.0712 265.2 80.2799C286.989 85.1823 306.983 102.536 316.531 127.694C330.782 165.245 316.367 205.962 284.335 218.639C268.709 224.822 251.778 223.189 236.878 215.537C222.696 229.79 198.107 240.85 169.269 244.182C121.73 249.674 80.6464 232.09 77.5054 204.908C76.9835 200.391 77.542 195.892 79.0547 191.507C74.6552 189.168 70.3136 186.494 66.0804 183.484C28.0304 156.427 13.1039 112.498 32.7407 85.3659C46.9007 65.8012 75.1657 60.3136 104.098 68.9191C112.476 46.8347 133.867 27.2164 162.646 18.2662Z" fill="white"/>
<path d="M125.581 158.68L127.219 154.572" stroke="#312783" stroke-width="5.86521" stroke-linecap="round"/>
<path d="M106.512 146.785L113.582 144.58" stroke="#312783" stroke-width="5.86521" stroke-linecap="round"/>
<path d="M130.059 147.409C136.173 149.141 142.283 146.841 142.283 146.841L119.668 132.318C119.668 132.318 123.944 145.678 130.059 147.409Z" fill="#312783" stroke="#312783" stroke-width="6.35398" stroke-linecap="round"/>
<path d="M160.583 159.808C160.583 159.808 155.794 147.204 135.644 134.582C115.495 121.96 103.182 124.549 103.182 124.549" stroke="#312783" stroke-width="8.79782" stroke-linecap="round"/>
<path d="M222.681 158.283L221.043 154.176" stroke="#312783" stroke-width="5.86521" stroke-linecap="round"/>
<path d="M241.742 146.386L234.672 144.182" stroke="#312783" stroke-width="5.86521" stroke-linecap="round"/>
<path d="M218.195 147.009C212.081 148.74 205.971 146.44 205.971 146.44L228.586 131.917C228.586 131.917 224.309 145.278 218.195 147.009Z" fill="#312783" stroke="#312783" stroke-width="6.35398" stroke-linecap="round"/>
<path d="M187.679 159.409C187.679 159.409 192.468 146.805 212.617 134.184C232.767 121.562 245.08 124.151 245.08 124.151" stroke="#312783" stroke-width="8.79782" stroke-linecap="round"/>
</svg>
