<svg width="338" height="397" viewBox="0 0 338 397" fill="none" xmlns="http://www.w3.org/2000/svg">
<path d="M287.146 173C287.272 173.168 343.341 248.462 336.655 267.066C329.967 285.677 217.057 292.307 216.882 292.317C216.963 292.415 234.69 313.873 227.796 318.994C220.886 324.127 217.947 316.251 217.947 316.251C217.947 316.251 218.401 333.299 209.795 333.551C206.845 333.637 205.008 331.919 203.866 329.623C204.914 347.385 206.457 360.997 208.73 363.089C213.117 367.125 224.384 368.61 233.915 369.865C240.262 370.701 245.84 371.436 248.102 372.756C253.76 376.056 264.605 385.722 257.532 391.145C250.459 396.567 204.723 395.859 197.414 393.737C190.106 391.616 185.154 388.551 183.504 379.121C181.854 369.691 177.139 232.479 177.139 232.479H157.335C157.335 232.479 155.213 371.341 151.441 381.479C147.669 391.616 141.775 393.502 134.467 394.917C127.158 396.332 82.3648 398.165 78.5927 393.737C74.8207 389.309 74.8205 380.122 84.4863 373.463C89.2068 370.211 96.739 369.685 104.446 369.147C112.521 368.584 120.788 368.008 126.216 364.269C129.442 362.046 131.379 348.81 132.517 331.466C131.369 333.037 129.737 334.09 127.414 334.021C118.829 333.769 119.26 316.802 119.262 316.723C119.241 316.777 116.299 324.581 109.413 319.466C102.504 314.333 120.328 292.788 120.328 292.788C120.328 292.788 7.24728 286.163 0.553666 267.538C-6.13962 248.913 50.0634 173.471 50.0634 173.471L72.7949 179.372C72.7949 179.372 24.0447 241.135 29.6601 252.979C35.2763 264.823 120.434 271.832 127.414 273.513C130.978 274.371 132.92 279.138 133.969 283.596C134.168 255.359 133.523 230.594 133.523 230.594L125.691 231.29V222.686L201.269 224.761L201.925 230.619L201.657 230.594C201.657 230.594 201.605 258.367 202.309 288.509C202.882 283.666 204.649 274.281 209.795 273.041C216.773 271.36 301.933 264.352 307.549 252.508C313.158 240.677 264.526 179.042 264.415 178.901L287.146 173Z" fill="#0053FF"/>
<path d="M162.646 18.2662C206.967 4.48287 252.028 21.2197 263.294 55.6483C265.939 63.7315 266.485 72.0712 265.2 80.2799C286.989 85.1823 306.983 102.536 316.531 127.694C330.782 165.245 316.367 205.962 284.335 218.639C268.709 224.822 251.778 223.189 236.878 215.537C222.696 229.79 198.107 240.85 169.269 244.182C121.73 249.674 80.6464 232.09 77.5054 204.908C76.9835 200.391 77.542 195.892 79.0547 191.507C74.6552 189.168 70.3136 186.494 66.0804 183.484C28.0304 156.427 13.1039 112.498 32.7407 85.3659C46.9007 65.8012 75.1657 60.3136 104.098 68.9191C112.476 46.8347 133.867 27.2164 162.646 18.2662Z" fill="white"/>
<path d="M227.914 148.735C219.126 151.04 212.011 146.519 212.011 146.519L242.431 132.467C242.431 132.467 236.702 146.431 227.914 148.735Z" fill="#312783" stroke="#312783" stroke-width="6.90195" stroke-linecap="round"/>
<path d="M195.627 159.496C195.627 159.496 200.125 144.286 222.409 134.467C244.692 124.648 260.256 128.983 260.256 128.983" stroke="#312783" stroke-width="8.4947" stroke-linecap="round"/>
<path d="M211.067 165.922C210.736 165.67 210.428 165.376 210.227 165.02C210.025 164.664 209.947 164.276 210.016 163.905C210.084 163.534 210.296 163.2 210.611 162.94C210.926 162.679 211.319 162.515 211.718 162.398C211.718 162.398 211.718 162.398 211.718 162.398C212.4 162.108 213.221 161.83 213.959 161.56C216.967 160.476 219.737 159.66 222.535 159.195C226.623 158.508 230.603 157.322 234.428 155.602C239.944 153.081 245.317 150.031 249.459 145.662C249.94 145.153 250.454 144.503 250.768 144.104C250.995 143.723 251.334 143.404 251.752 143.235C252.17 143.066 252.628 143.058 253.036 143.217C253.444 143.375 253.777 143.691 253.97 144.098C254.164 144.506 254.198 144.969 254.108 145.404C254.108 145.404 254.108 145.404 254.108 145.404C253.796 146.471 253.491 147.204 253.11 148.033C249.953 154.592 244.462 159.528 238.532 163.225C234.15 165.93 229.212 167.768 224.116 168.621C220.625 169.206 216.949 168.781 213.577 167.282C212.722 166.902 211.946 166.473 211.067 165.922Z" fill="#312783"/>
<path d="M134.348 148.735C143.136 151.04 150.25 146.519 150.25 146.519L119.831 132.467C119.831 132.467 125.559 146.431 134.348 148.735Z" fill="#312783" stroke="#312783" stroke-width="6.90195" stroke-linecap="round"/>
<path d="M166.635 159.496C166.635 159.496 162.136 144.286 139.853 134.467C117.57 124.648 102.006 128.983 102.006 128.983" stroke="#312783" stroke-width="8.4947" stroke-linecap="round"/>
<path d="M151.191 165.922C151.522 165.67 151.83 165.376 152.031 165.02C152.232 164.664 152.311 164.276 152.242 163.905C152.173 163.534 151.962 163.2 151.647 162.94C151.331 162.679 150.939 162.515 150.54 162.398C150.54 162.398 150.54 162.398 150.54 162.398C149.858 162.108 149.036 161.83 148.298 161.56C145.291 160.476 142.521 159.66 139.723 159.195C135.635 158.508 131.655 157.322 127.83 155.602C122.314 153.081 116.941 150.031 112.799 145.662C112.318 145.153 111.803 144.503 111.489 144.104C111.262 143.723 110.924 143.404 110.506 143.235C110.088 143.066 109.63 143.058 109.222 143.217C108.813 143.375 108.481 143.691 108.288 144.098C108.094 144.506 108.06 144.969 108.15 145.404C108.15 145.404 108.15 145.404 108.15 145.404C108.462 146.471 108.767 147.204 109.148 148.033C112.305 154.592 117.796 159.528 123.726 163.225C128.108 165.93 133.046 167.768 138.141 168.621C141.633 169.206 145.308 168.781 148.681 167.282C149.535 166.902 150.312 166.473 151.191 165.922Z" fill="#312783"/>
</svg>
