<svg width="383" height="388" viewBox="0 0 383 388" fill="none" xmlns="http://www.w3.org/2000/svg">
<path d="M126.443 154.871C126.443 154.871 83.6654 244.366 65.9088 259.829C48.1523 275.293 47.7676 269.26 36.288 265.76C24.8084 262.26 14.9483 271.083 15.3052 278.31C15.6622 285.537 25.1188 292.313 25.1188 292.313C25.1188 292.313 5.4704 300.661 16.6612 310.987C27.8521 321.313 41.5619 308.284 41.5619 308.284C42.4369 313.606 46.7034 326.01 58.6229 317.637C67.3536 311.503 61.7649 301.604 70.4822 288.539C79.1938 275.483 148.945 187.179 148.994 187.133L159.774 192.09L163.109 186.346L126.443 154.871Z" fill="#0053FF"/>
<path d="M333.35 237.502C340.208 202.722 305.812 161.917 305.812 161.917L329.429 176.002C329.429 176.002 376.698 223.937 360.778 254.074C344.858 284.211 256.43 279.744 256.43 279.744C256.43 279.744 269.666 283.465 272.36 293.997C275.054 304.529 260.114 301.1 260.114 301.1C260.114 301.1 265.371 321.411 256.43 321.673C247.49 321.935 241.017 307.147 241.017 307.147L241.023 278.771C241.023 278.771 241.819 261.465 249.068 259.718C256.317 257.972 326.492 272.281 333.35 237.502Z" fill="#0053FF"/>
<path d="M240.176 209.559L240.857 215.646L240.579 215.619C240.579 215.619 240.334 346.283 247.927 353.268C252.484 357.461 264.19 359.003 274.091 360.307C280.686 361.176 286.48 361.939 288.829 363.31C294.708 366.739 305.974 376.781 298.627 382.414C291.279 388.048 243.763 387.313 236.17 385.109C228.577 382.904 223.434 379.72 221.72 369.923C220.005 360.126 215.107 217.579 215.107 217.579H194.533C194.533 217.579 192.328 361.84 188.41 372.372C184.491 382.904 178.368 384.864 170.775 386.333C163.182 387.803 116.646 389.709 112.727 385.109C108.808 380.508 108.808 370.963 118.85 364.045C123.755 360.666 131.579 360.121 139.586 359.562C147.975 358.977 156.563 358.377 162.202 354.493C173.224 346.9 169.795 215.619 169.795 215.619L161.658 182.258V173.318L240.176 209.559Z" fill="#0053FF"/>
<path d="M153.887 26.3546C183.466 -4.38549 229.299 -8.88755 256.258 16.299C268.012 27.28 274.236 42.0916 275.069 57.8537C309.971 43.8506 348.701 51.3347 369.172 78.6652C394.089 111.932 382.518 162.006 343.328 190.507C313.077 212.506 275.214 215.222 248.054 200.019C236.103 209.738 220.181 215.67 202.7 215.67C187.303 215.67 173.116 211.069 161.786 203.332C152.525 213.026 134.71 216.547 116.801 211.064C103.042 206.851 92.3845 198.288 87.2523 188.579C43.0355 173.423 15.7634 136.139 25.9603 103.805C36.456 70.524 82.6728 55.0905 129.188 69.3332C129.899 69.5509 130.606 69.775 131.309 70.0041C133.962 54.5958 141.527 39.2005 153.887 26.3546Z" fill="white"/>
<path d="M220.012 148.421C220.012 148.421 219.778 122.055 240.159 113.074C260.54 104.093 279.123 120.513 279.123 120.513" stroke="#312783" stroke-width="7.3255" stroke-linecap="round"/>
<ellipse cx="245.501" cy="127.552" rx="19.9162" ry="17.8709" transform="rotate(-16.2061 245.501 127.552)" fill="#312783"/>
<path d="M261.556 151.15L260.021 147.303" stroke="#312783" stroke-width="5.49413" stroke-linecap="round"/>
<path d="M279.414 140.007L272.791 137.941" stroke="#312783" stroke-width="5.49413" stroke-linecap="round"/>
<path d="M183.654 148.421C183.654 148.421 183.888 122.055 163.507 113.074C143.126 104.093 124.543 120.513 124.543 120.513" stroke="#312783" stroke-width="7.3255" stroke-linecap="round"/>
<ellipse cx="19.9162" cy="17.8709" rx="19.9162" ry="17.8709" transform="matrix(-0.960264 -0.279093 -0.279093 0.960264 182.281 115.949)" fill="#312783"/>
<path d="M142.11 151.15L143.645 147.303" stroke="#312783" stroke-width="5.49413" stroke-linecap="round"/>
<path d="M124.252 140.007L130.875 137.941" stroke="#312783" stroke-width="5.49413" stroke-linecap="round"/>
</svg>
