<svg width="383" height="388" viewBox="0 0 383 388" fill="none" xmlns="http://www.w3.org/2000/svg">
<path d="M126.443 154.871C126.443 154.871 83.6654 244.366 65.9088 259.829C48.1523 275.293 47.7676 269.26 36.288 265.76C24.8084 262.26 14.9483 271.083 15.3052 278.31C15.6622 285.537 25.1188 292.313 25.1188 292.313C25.1188 292.313 5.4704 300.661 16.6612 310.987C27.8521 321.313 41.5619 308.284 41.5619 308.284C42.4369 313.606 46.7034 326.01 58.6229 317.637C67.3536 311.503 61.7649 301.604 70.4822 288.539C79.1938 275.483 148.945 187.179 148.994 187.133L159.774 192.09L163.109 186.346L126.443 154.871Z" fill="#0053FF"/>
<path d="M333.35 237.5C340.208 202.721 305.812 161.915 305.812 161.915L329.429 176C329.429 176 376.698 223.935 360.778 254.072C344.858 284.209 256.43 279.742 256.43 279.742C256.43 279.742 269.666 283.463 272.36 293.995C275.054 304.527 260.114 301.098 260.114 301.098C260.114 301.098 265.371 321.409 256.43 321.671C247.49 321.933 241.017 307.145 241.017 307.145L241.023 278.769C241.023 278.769 241.819 261.463 249.068 259.716C256.317 257.97 326.492 272.279 333.35 237.5Z" fill="#0053FF"/>
<path d="M240.178 209.557L240.859 215.644L240.581 215.617C240.581 215.617 240.336 346.281 247.929 353.266C252.486 357.459 264.192 359.001 274.093 360.305C280.688 361.174 286.482 361.937 288.831 363.308C294.71 366.737 305.976 376.779 298.629 382.412C291.281 388.046 243.765 387.311 236.172 385.107C228.579 382.902 223.436 379.718 221.722 369.921C220.007 360.124 215.109 217.577 215.109 217.577H194.535C194.535 217.577 192.33 361.839 188.411 372.37C184.493 382.902 178.369 384.862 170.777 386.331C163.184 387.801 116.648 389.707 112.729 385.107C108.81 380.506 108.81 370.961 118.852 364.043C123.756 360.665 131.581 360.119 139.588 359.56C147.977 358.975 156.565 358.375 162.204 354.491C173.226 346.898 169.797 215.617 169.797 215.617L161.66 182.256V173.316L240.178 209.557Z" fill="#0053FF"/>
<path d="M153.887 26.3543C183.465 -4.38543 229.298 -8.88742 256.257 16.2987C268.011 27.2797 274.236 42.0913 275.069 57.8534C309.971 43.8505 348.7 51.3345 369.171 78.6649C394.089 111.932 382.518 162.005 343.327 190.507C313.076 212.506 275.213 215.222 248.053 200.018C236.102 209.738 220.18 215.67 202.699 215.67C187.302 215.67 173.115 211.069 161.786 203.332C152.524 213.025 134.71 216.547 116.801 211.063C103.041 206.85 92.3835 198.288 87.2513 188.579C43.0349 173.422 15.7635 136.138 25.9603 103.805C36.4562 70.524 82.672 55.0903 129.187 69.3329C129.898 69.5506 130.605 69.7738 131.308 70.0028C133.961 54.5948 141.527 39.1999 153.887 26.3543Z" fill="white"/>
<path d="M220.012 148.423C220.012 148.423 219.778 122.057 240.159 113.076C260.54 104.095 279.123 120.515 279.123 120.515" stroke="#312783" stroke-width="7.3255" stroke-linecap="round"/>
<ellipse cx="245.501" cy="127.554" rx="19.9162" ry="17.8709" transform="rotate(-16.2061 245.501 127.554)" fill="#312783"/>
<path d="M261.556 151.152L260.021 147.305" stroke="#312783" stroke-width="5.49413" stroke-linecap="round"/>
<path d="M279.414 140.009L272.791 137.943" stroke="#312783" stroke-width="5.49413" stroke-linecap="round"/>
<path d="M183.656 148.423C183.656 148.423 183.89 122.057 163.509 113.076C143.128 104.095 124.545 120.515 124.545 120.515" stroke="#312783" stroke-width="7.3255" stroke-linecap="round"/>
<ellipse cx="19.9162" cy="17.8709" rx="19.9162" ry="17.8709" transform="matrix(-0.960264 -0.279093 -0.279093 0.960264 182.283 115.951)" fill="#312783"/>
<path d="M142.112 151.152L143.646 147.305" stroke="#312783" stroke-width="5.49413" stroke-linecap="round"/>
<path d="M124.254 140.009L130.877 137.943" stroke="#312783" stroke-width="5.49413" stroke-linecap="round"/>
</svg>
