<svg width="350" height="394" viewBox="0 0 350 394" fill="none" xmlns="http://www.w3.org/2000/svg">
<path d="M117.936 176.311C117.936 176.311 78.0367 259.785 61.4748 274.208C44.913 288.631 44.5542 283.005 33.8469 279.74C23.1397 276.475 13.943 284.705 14.2759 291.446C14.6088 298.187 23.4292 304.507 23.4292 304.507C23.4292 304.507 5.10279 312.293 15.5407 321.924C25.9786 331.555 38.7659 319.403 38.7659 319.403C39.5821 324.367 43.5616 335.936 54.6791 328.126C62.8224 322.406 57.6097 313.172 65.7405 300.987C73.866 288.809 138.924 206.446 138.97 206.404L149.024 211.027L152.135 205.669L117.936 176.311Z" fill="#0053FF"/>
<path d="M307.265 248.737C313.661 216.297 285.238 182.884 285.238 182.884L307.265 177.165C307.265 177.165 351.355 240.731 336.506 268.84C321.657 296.95 239.179 292.783 239.179 292.783C239.179 292.783 251.524 296.254 254.037 306.077C256.55 315.9 242.614 312.702 242.614 312.702C242.614 312.702 247.518 331.647 239.179 331.892C230.84 332.136 224.802 318.343 224.802 318.343L224.809 291.876C224.809 291.876 225.55 275.734 232.312 274.105C239.074 272.476 300.868 281.176 307.265 248.737Z" fill="#0053FF"/>
<path d="M224.015 227.322L224.65 232.998L224.391 232.974C224.391 232.974 224.163 354.846 231.245 361.361C235.495 365.272 246.413 366.71 255.649 367.927C261.799 368.737 267.204 369.449 269.395 370.728C274.878 373.926 285.387 383.292 278.533 388.547C271.68 393.801 227.361 393.116 220.279 391.06C213.197 389.004 208.4 386.034 206.801 376.896C205.202 367.758 200.633 234.801 200.633 234.801H181.443C181.443 234.801 179.387 369.357 175.732 379.18C172.077 389.004 166.365 390.831 159.284 392.202C152.202 393.573 108.797 395.35 105.142 391.06C101.486 386.769 101.486 377.865 110.853 371.413C115.427 368.262 122.725 367.753 130.194 367.232C138.018 366.686 146.028 366.127 151.288 362.504C161.568 355.422 158.37 232.974 158.37 232.974L150.78 233.648V225.311L224.015 227.322Z" fill="#0053FF"/>
<path d="M181.65 18.2662C225.971 4.48287 271.032 21.2197 282.298 55.6483C284.943 63.7315 285.489 72.0712 284.204 80.2799C305.993 85.1823 325.987 102.536 335.535 127.694C349.786 165.245 335.371 205.962 303.339 218.639C287.713 224.822 270.782 223.189 255.882 215.537C241.7 229.79 217.111 240.85 188.273 244.182C140.734 249.674 99.6503 232.09 96.5093 204.908C95.9874 200.391 96.5459 195.892 98.0586 191.507C93.6591 189.168 89.3175 186.494 85.0843 183.484C47.0343 156.427 32.1078 112.498 51.7446 85.3659C65.9046 65.8012 94.1696 60.3136 123.102 68.9191C131.48 46.8347 152.871 27.2164 181.65 18.2662Z" fill="white"/>
<path d="M210.108 162.587C210.108 162.587 209.874 136.221 230.255 127.24C250.636 118.259 269.219 134.679 269.219 134.679" stroke="#312783" stroke-width="7.3255" stroke-linecap="round"/>
<ellipse cx="235.597" cy="141.718" rx="19.9162" ry="17.8709" transform="rotate(-16.2061 235.597 141.718)" fill="#312783"/>
<path d="M251.652 165.316L250.117 161.469" stroke="#312783" stroke-width="5.49413" stroke-linecap="round"/>
<path d="M269.51 154.173L262.887 152.107" stroke="#312783" stroke-width="5.49413" stroke-linecap="round"/>
<path d="M179.169 162.587C179.169 162.587 179.403 136.221 159.023 127.24C138.642 118.259 120.058 134.679 120.058 134.679" stroke="#312783" stroke-width="7.3255" stroke-linecap="round"/>
<ellipse cx="19.9162" cy="17.8709" rx="19.9162" ry="17.8709" transform="matrix(-0.960264 -0.279093 -0.279093 0.960264 177.793 130.115)" fill="#312783"/>
<path d="M137.622 165.316L139.156 161.469" stroke="#312783" stroke-width="5.49413" stroke-linecap="round"/>
<path d="M119.768 154.173L126.391 152.107" stroke="#312783" stroke-width="5.49413" stroke-linecap="round"/>
</svg>
