<svg width="360" height="448" viewBox="0 0 360 448" fill="none" xmlns="http://www.w3.org/2000/svg">
<path d="M55.1994 331.802C64.753 331.802 84.4063 319.519 93.687 295.498C102.968 271.477 110.338 245 110.338 245L279.301 249.64V255.1C279.301 255.1 290.766 305.052 299.227 329.891C307.689 354.731 318.062 357.46 329.799 365.649C341.537 373.838 341.264 386.121 334.44 391.035C327.616 395.948 319.973 391.035 319.973 391.035C325.978 397.768 329.253 402.499 329.799 410.961C330.345 419.423 319.154 431.433 303.049 421.879C286.944 412.326 291.312 400.861 291.312 400.861C287.49 405.502 275.186 411.234 268.383 396.494C261.58 381.754 274.388 347.361 273.296 329.891C272.204 312.422 255.554 257.283 255.554 257.283L232.625 255.1C232.625 255.1 232.352 400.719 240.814 408.504C249.275 416.289 279.847 415.874 286.398 419.696C292.949 423.517 305.506 434.709 297.317 440.987C289.128 447.265 236.173 446.446 227.711 443.989C219.25 441.533 213.517 437.984 211.607 427.066C209.696 416.147 204.237 257.283 204.237 257.283H181.308C181.308 257.283 178.851 418.058 174.484 429.795C170.116 441.533 163.292 443.716 154.831 445.354C146.369 446.992 94.5059 449.116 90.1385 443.989C85.7711 438.862 85.7711 428.224 96.9626 420.515C108.154 412.805 132.994 418.331 145.277 409.869C157.56 401.407 153.739 255.1 153.739 255.1L129.172 257.283C126.442 285.671 115.251 317.608 101.876 331.802C88.5008 345.996 63.1153 366.195 39.9135 370.563C16.7117 374.93 1.15287 369.744 0.0610253 356.641C-0.886339 345.273 9.46878 344.385 12.226 344.349C9.76647 344.229 1.39045 343.003 2.79065 331.802C4.42842 318.7 21.3521 324.432 19.4413 323.34C17.5306 322.248 18.8954 284.579 39.9135 284.307C60.9316 284.034 42.3701 310.784 42.3701 318.973C42.3701 327.162 45.6457 331.802 55.1994 331.802Z" fill="#0053FF"/>
<path d="M80.3181 85.9032C86.1269 55.031 125.778 36.2762 168.881 44.0134C188.117 47.4664 204.789 55.6127 216.839 66.3189C259.535 55.4168 303.738 73.096 322.172 111.36C340.947 150.333 326.789 197.784 290.766 225.324C290.716 242.947 282.786 259.136 268.204 267.564C249.828 278.185 226.429 273.278 209.983 257.161C203.093 260.356 195.606 263.093 187.662 265.225C144.311 276.862 103.774 266.201 97.1199 241.413C96.0142 237.294 95.914 233.044 96.714 228.767C92.3104 227.202 87.9147 225.318 83.5731 223.108C44.5474 203.24 24.6535 164.537 39.1392 136.662C47.037 121.465 63.5239 112.623 83.2111 110.945C79.8475 102.897 78.7225 94.384 80.3181 85.9032Z" fill="white"/>
<path d="M199.448 186.022C199.448 186.022 199.214 159.656 219.595 150.675C239.975 141.694 258.559 158.115 258.559 158.115" stroke="#312783" stroke-width="7.3255" stroke-linecap="round"/>
<ellipse cx="224.937" cy="165.153" rx="19.9162" ry="17.8709" transform="rotate(-16.2061 224.937 165.153)" fill="#312783"/>
<path d="M240.991 188.752L239.457 184.904" stroke="#312783" stroke-width="5.49413" stroke-linecap="round"/>
<path d="M258.85 177.608L252.227 175.543" stroke="#312783" stroke-width="5.49413" stroke-linecap="round"/>
<path d="M168.505 186.022C168.505 186.022 168.739 159.656 148.359 150.675C127.978 141.694 109.394 158.115 109.394 158.115" stroke="#312783" stroke-width="7.3255" stroke-linecap="round"/>
<ellipse cx="19.9162" cy="17.8709" rx="19.9162" ry="17.8709" transform="matrix(-0.960264 -0.279093 -0.279093 0.960264 167.129 153.551)" fill="#312783"/>
<path d="M126.958 188.752L128.492 184.904" stroke="#312783" stroke-width="5.49413" stroke-linecap="round"/>
<path d="M109.104 177.608L115.727 175.543" stroke="#312783" stroke-width="5.49413" stroke-linecap="round"/>
</svg>
