<svg width="400" height="425" viewBox="0 0 400 425" fill="none" xmlns="http://www.w3.org/2000/svg">
<path d="M112.901 281.643C141.394 276.944 155.962 227.872 155.962 227.872L320.492 230.656C320.492 230.656 338.702 316.968 340.844 318.708C342.986 320.448 375.336 329.671 369.766 342.374C364.195 355.077 354.341 349.857 354.341 349.857C354.341 349.857 363.553 364.777 349.628 368.303C335.703 371.828 327.133 353.859 327.133 353.859C327.133 353.859 323.492 364.648 312.566 355.426C301.64 346.203 314.279 324.973 314.279 320.274C314.279 315.576 296.284 240.401 296.284 240.401H266.077C266.077 240.401 271.862 377.903 273.575 382.079C275.289 386.255 330.133 408.24 315.136 421.233C300.14 434.226 250.652 409.574 246.368 395.304C242.083 381.035 239.512 240.401 239.512 240.401H215.518C215.518 240.401 212.947 383.123 208.02 393.216C203.092 403.309 152.1 432.422 138.603 417.283C125.107 402.143 180.812 386.081 182.741 382.079C184.669 378.077 188.311 240.401 188.311 240.401H178.456C178.456 240.401 178.456 278.684 134.753 298.522C91.0491 318.36 57.2003 294.172 57.2003 294.172C57.2003 294.172 43.4892 305.135 31.2781 289.473C19.067 273.812 38.3478 265.633 38.3478 265.633C38.3478 265.633 0 266.155 0 251.712C0 237.268 34.9201 250.668 34.9201 250.668C34.9201 250.668 16.71 230.134 29.5641 223.521C42.4182 216.908 51.416 240.401 51.416 240.401C51.416 240.401 61.485 268.069 64.9127 270.506C68.3404 272.942 84.4079 286.341 112.901 281.643Z" fill="#0053FF"/>
<path d="M120.412 85.9032C126.221 55.031 165.871 36.2762 208.974 44.0134C228.21 47.4664 244.883 55.6127 256.933 66.3189C299.629 55.4168 343.831 73.096 362.266 111.36C381.041 150.333 366.882 197.784 330.86 225.324C330.81 242.947 322.88 259.136 308.298 267.564C289.922 278.185 266.523 273.278 250.077 257.161C243.187 260.356 235.7 263.093 227.755 265.225C184.405 276.862 143.868 266.201 137.214 241.413C136.108 237.294 136.008 233.044 136.808 228.767C132.404 227.202 128.008 225.318 123.667 223.108C84.6412 203.24 64.7473 164.537 79.2329 136.662C87.1307 121.465 103.618 112.623 123.305 110.945C119.941 102.897 118.816 94.384 120.412 85.9032Z" fill="white"/>
<path d="M238.53 186.024C238.53 186.024 238.296 159.658 258.677 150.677C279.057 141.696 297.641 158.117 297.641 158.117" stroke="#312783" stroke-width="7.3255" stroke-linecap="round"/>
<ellipse cx="264.019" cy="165.155" rx="19.9162" ry="17.8709" transform="rotate(-16.2061 264.019 165.155)" fill="#312783"/>
<path d="M280.074 188.754L278.539 184.906" stroke="#312783" stroke-width="5.49413" stroke-linecap="round"/>
<path d="M297.932 177.61L291.309 175.545" stroke="#312783" stroke-width="5.49413" stroke-linecap="round"/>
<path d="M207.587 186.024C207.587 186.024 207.821 159.658 187.441 150.677C167.06 141.696 148.476 158.117 148.476 158.117" stroke="#312783" stroke-width="7.3255" stroke-linecap="round"/>
<ellipse cx="19.9162" cy="17.8709" rx="19.9162" ry="17.8709" transform="matrix(-0.960264 -0.279093 -0.279093 0.960264 206.215 153.553)" fill="#312783"/>
<path d="M166.044 188.754L167.578 184.906" stroke="#312783" stroke-width="5.49413" stroke-linecap="round"/>
<path d="M148.186 177.61L154.809 175.545" stroke="#312783" stroke-width="5.49413" stroke-linecap="round"/>
</svg>
