<svg width="400" height="425" viewBox="0 0 400 425" fill="none" xmlns="http://www.w3.org/2000/svg">
<path d="M112.901 281.641C141.394 276.942 155.962 227.87 155.962 227.87L320.492 230.654C320.492 230.654 338.702 316.966 340.844 318.706C342.986 320.446 375.336 329.669 369.766 342.372C364.195 355.075 354.341 349.855 354.341 349.855C354.341 349.855 363.553 364.775 349.628 368.301C335.703 371.826 327.133 353.857 327.133 353.857C327.133 353.857 323.492 364.646 312.566 355.424C301.64 346.201 314.279 324.971 314.279 320.272C314.279 315.574 296.284 240.399 296.284 240.399H266.077C266.077 240.399 271.862 377.901 273.575 382.077C275.289 386.253 330.133 408.238 315.136 421.231C300.14 434.224 250.652 409.572 246.368 395.302C242.083 381.033 239.512 240.399 239.512 240.399H215.518C215.518 240.399 212.947 383.121 208.02 393.214C203.092 403.307 152.1 432.42 138.603 417.281C125.107 402.141 180.812 386.079 182.741 382.077C184.669 378.075 188.311 240.399 188.311 240.399H178.456C178.456 240.399 178.456 278.682 134.753 298.52C91.0491 318.358 57.2003 294.17 57.2003 294.17C57.2003 294.17 43.4892 305.133 31.2781 289.471C19.067 273.81 38.3478 265.631 38.3478 265.631C38.3478 265.631 0 266.153 0 251.71C0 237.266 34.9201 250.666 34.9201 250.666C34.9201 250.666 16.71 230.132 29.5641 223.519C42.4182 216.907 51.416 240.399 51.416 240.399C51.416 240.399 61.485 268.067 64.9127 270.504C68.3404 272.94 84.4079 286.339 112.901 281.641Z" fill="#0053FF"/>
<path d="M120.411 85.9053C126.22 55.033 165.871 36.2783 208.974 44.0155C228.21 47.4686 244.883 55.6147 256.932 66.3211C299.628 55.4188 343.831 73.097 362.266 111.361C381.041 150.334 366.882 197.787 330.859 225.326C330.809 242.949 322.879 259.137 308.297 267.565C289.921 278.186 266.524 273.279 250.078 257.162C243.188 260.358 235.701 263.094 227.755 265.226C184.405 276.863 143.867 266.203 137.213 241.414C136.107 237.295 136.007 233.046 136.807 228.769C132.404 227.204 128.008 225.321 123.666 223.11C84.6405 203.242 64.7475 164.539 79.2333 136.664C87.131 121.467 103.617 112.625 123.304 110.946C119.941 102.898 118.816 94.3859 120.411 85.9053Z" fill="white"/>
<path d="M274.918 171.735C266.13 174.04 259.015 169.519 259.015 169.519L289.435 155.467C289.435 155.467 283.706 169.431 274.918 171.735Z" fill="#312783" stroke="#312783" stroke-width="6.90195" stroke-linecap="round"/>
<path d="M242.631 182.496C242.631 182.496 247.129 167.286 269.413 157.467C291.696 147.648 307.26 151.983 307.26 151.983" stroke="#312783" stroke-width="8.4947" stroke-linecap="round"/>
<path d="M258.071 188.922C257.74 188.67 257.432 188.376 257.231 188.02C257.029 187.664 256.951 187.276 257.02 186.905C257.088 186.534 257.3 186.2 257.615 185.94C257.93 185.679 258.323 185.515 258.722 185.398C258.722 185.398 258.722 185.398 258.722 185.398C259.404 185.108 260.225 184.83 260.963 184.56C263.971 183.476 266.741 182.66 269.538 182.195C273.627 181.508 277.607 180.322 281.431 178.602C286.948 176.081 292.321 173.031 296.463 168.662C296.944 168.153 297.458 167.503 297.772 167.104C297.999 166.723 298.338 166.404 298.756 166.235C299.174 166.066 299.632 166.058 300.04 166.217C300.448 166.375 300.78 166.691 300.974 167.098C301.168 167.506 301.202 167.969 301.112 168.404C301.112 168.404 301.112 168.404 301.112 168.404C300.8 169.471 300.495 170.204 300.114 171.033C296.957 177.592 291.466 182.528 285.536 186.225C281.154 188.93 276.215 190.768 271.12 191.621C267.629 192.206 263.953 191.781 260.581 190.282C259.726 189.902 258.95 189.473 258.071 188.922Z" fill="#312783"/>
<path d="M181.348 171.735C190.136 174.04 197.25 169.519 197.25 169.519L166.831 155.467C166.831 155.467 172.559 169.431 181.348 171.735Z" fill="#312783" stroke="#312783" stroke-width="6.90195" stroke-linecap="round"/>
<path d="M213.635 182.496C213.635 182.496 209.136 167.286 186.853 157.467C164.57 147.648 149.006 151.983 149.006 151.983" stroke="#312783" stroke-width="8.4947" stroke-linecap="round"/>
<path d="M198.191 188.922C198.522 188.67 198.83 188.376 199.031 188.02C199.232 187.664 199.311 187.276 199.242 186.905C199.173 186.534 198.962 186.2 198.647 185.94C198.331 185.679 197.939 185.515 197.54 185.398C197.54 185.398 197.54 185.398 197.54 185.398C196.858 185.108 196.036 184.83 195.298 184.56C192.291 183.476 189.521 182.66 186.723 182.195C182.635 181.508 178.655 180.322 174.83 178.602C169.314 176.081 163.941 173.031 159.799 168.662C159.318 168.153 158.803 167.503 158.489 167.104C158.262 166.723 157.924 166.404 157.506 166.235C157.088 166.066 156.63 166.058 156.222 166.217C155.813 166.375 155.481 166.691 155.288 167.098C155.094 167.506 155.06 167.969 155.15 168.404C155.15 168.404 155.15 168.404 155.15 168.404C155.462 169.471 155.767 170.204 156.148 171.033C159.305 177.592 164.796 182.528 170.726 186.225C175.108 188.93 180.046 190.768 185.141 191.621C188.633 192.206 192.308 191.781 195.681 190.282C196.535 189.902 197.312 189.473 198.191 188.922Z" fill="#312783"/>
</svg>
