<svg width="349" height="426" viewBox="0 0 349 426" fill="none" xmlns="http://www.w3.org/2000/svg">
<path d="M290.385 202C290.51 202.168 346.579 277.462 339.894 296.066C333.205 314.677 220.295 321.307 220.12 321.317C220.201 321.415 237.928 342.873 231.034 347.994C224.124 353.127 221.186 345.251 221.186 345.251C221.186 345.251 221.639 362.299 213.033 362.551C210.084 362.637 208.246 360.919 207.104 358.623C208.152 376.385 209.695 389.997 211.969 392.089C216.356 396.125 227.623 397.61 237.153 398.865C243.501 399.701 249.078 400.436 251.34 401.756C256.998 405.056 267.843 414.722 260.77 420.145C253.698 425.567 207.961 424.859 200.652 422.737C193.344 420.616 188.392 417.551 186.742 408.121C185.092 398.691 180.377 261.479 180.377 261.479H160.573C160.573 261.479 158.452 400.341 154.68 410.479C150.908 420.616 145.013 422.502 137.705 423.917C130.396 425.332 85.6031 427.165 81.831 422.737C78.059 418.309 78.0587 409.122 87.7246 402.463C92.4451 399.211 99.9773 398.685 107.685 398.147C115.759 397.584 124.026 397.008 129.454 393.269C132.681 391.046 134.617 377.81 135.755 360.466C134.608 362.037 132.976 363.09 130.652 363.021C122.067 362.769 122.498 345.802 122.5 345.723C122.479 345.777 119.537 353.581 112.651 348.466C105.742 343.333 123.566 321.788 123.566 321.788C123.566 321.788 10.4856 315.163 3.79195 296.538C-2.90134 277.913 53.3017 202.471 53.3017 202.471L76.0332 208.372C76.0332 208.372 27.283 270.135 32.8984 281.979C38.5145 293.823 123.672 300.832 130.652 302.513C134.217 303.371 136.159 308.138 137.207 312.596C137.406 284.359 136.762 259.594 136.762 259.594L128.93 260.29V251.686L204.508 253.761L205.163 259.619L204.895 259.594C204.895 259.594 204.844 287.367 205.547 317.509C206.12 312.666 207.887 303.281 213.033 302.041C220.011 300.36 305.171 293.352 310.787 281.508C316.396 269.677 267.765 208.042 267.653 207.901L290.385 202Z" fill="#0053FF"/>
<path d="M69.3175 85.9053C75.1262 55.033 114.777 36.2783 157.88 44.0155C177.116 47.4686 193.789 55.6147 205.839 66.3211C248.535 55.4188 292.738 73.097 311.172 111.361C329.948 150.334 315.788 197.787 279.765 225.326C279.715 242.949 271.785 259.137 257.204 267.565C238.827 278.186 215.431 273.279 198.985 257.162C192.094 260.358 184.607 263.094 176.662 265.226C133.311 276.863 92.7731 266.203 86.1191 241.414C85.0134 237.295 84.9135 233.046 85.7134 228.769C81.3098 227.204 76.9141 225.321 72.5725 223.11C33.5468 203.242 13.6538 164.539 28.1395 136.664C36.0373 121.467 52.5232 112.625 72.2102 110.946C68.8468 102.898 67.722 94.3859 69.3175 85.9053Z" fill="white"/>
<path d="M223.918 171.735C215.13 174.04 208.015 169.519 208.015 169.519L238.435 155.467C238.435 155.467 232.706 169.431 223.918 171.735Z" fill="#312783" stroke="#312783" stroke-width="6.90195" stroke-linecap="round"/>
<path d="M191.631 182.496C191.631 182.496 196.129 167.286 218.413 157.467C240.696 147.648 256.26 151.983 256.26 151.983" stroke="#312783" stroke-width="8.4947" stroke-linecap="round"/>
<path d="M207.071 188.922C206.74 188.67 206.432 188.376 206.231 188.02C206.029 187.664 205.951 187.276 206.02 186.905C206.088 186.534 206.3 186.2 206.615 185.94C206.93 185.679 207.323 185.515 207.722 185.398C207.722 185.398 207.722 185.398 207.722 185.398C208.404 185.108 209.225 184.83 209.963 184.56C212.971 183.476 215.741 182.66 218.538 182.195C222.627 181.508 226.607 180.322 230.431 178.602C235.948 176.081 241.321 173.031 245.463 168.662C245.944 168.153 246.458 167.503 246.772 167.104C246.999 166.723 247.338 166.404 247.756 166.235C248.174 166.066 248.632 166.058 249.04 166.217C249.448 166.375 249.78 166.691 249.974 167.098C250.168 167.506 250.202 167.969 250.112 168.404C250.112 168.404 250.112 168.404 250.112 168.404C249.8 169.471 249.495 170.204 249.114 171.033C245.957 177.592 240.466 182.528 234.536 186.225C230.154 188.93 225.215 190.768 220.12 191.621C216.629 192.206 212.953 191.781 209.581 190.282C208.726 189.902 207.95 189.473 207.071 188.922Z" fill="#312783"/>
<path d="M130.351 171.735C139.139 174.04 146.254 169.519 146.254 169.519L115.834 155.467C115.834 155.467 121.563 169.431 130.351 171.735Z" fill="#312783" stroke="#312783" stroke-width="6.90195" stroke-linecap="round"/>
<path d="M162.639 182.496C162.639 182.496 158.14 167.286 135.857 157.467C113.574 147.648 98.0094 151.983 98.0094 151.983" stroke="#312783" stroke-width="8.4947" stroke-linecap="round"/>
<path d="M147.195 188.922C147.526 188.67 147.834 188.376 148.035 188.02C148.236 187.664 148.315 187.276 148.246 186.905C148.177 186.534 147.966 186.2 147.65 185.94C147.335 185.679 146.943 185.515 146.543 185.398C146.543 185.398 146.543 185.398 146.543 185.398C145.861 185.108 145.04 184.83 144.302 184.56C141.295 183.476 138.524 182.66 135.727 182.195C131.639 181.508 127.658 180.322 123.834 178.602C118.318 176.081 112.944 173.031 108.803 168.662C108.322 168.153 107.807 167.503 107.493 167.104C107.266 166.723 106.928 166.404 106.51 166.235C106.092 166.066 105.634 166.058 105.226 166.217C104.817 166.375 104.485 166.691 104.292 167.098C104.098 167.506 104.064 167.969 104.154 168.404C104.154 168.404 104.154 168.404 104.154 168.404C104.465 169.471 104.771 170.204 105.151 171.033C108.309 177.592 113.8 182.528 119.73 186.225C124.112 188.93 129.05 190.768 134.145 191.621C137.636 192.206 141.312 191.781 144.685 190.282C145.539 189.902 146.315 189.473 147.195 188.922Z" fill="#312783"/>
</svg>
