<svg width="360" height="448" viewBox="0 0 360 448" fill="none" xmlns="http://www.w3.org/2000/svg">
<path d="M55.1994 331.802C64.753 331.802 84.4063 319.519 93.687 295.498C102.968 271.477 110.338 245 110.338 245L279.301 249.64V255.1C279.301 255.1 290.766 305.052 299.227 329.891C307.689 354.731 318.062 357.46 329.799 365.649C341.537 373.838 341.264 386.121 334.44 391.035C327.616 395.948 319.973 391.035 319.973 391.035C325.978 397.768 329.253 402.499 329.799 410.961C330.345 419.423 319.154 431.433 303.049 421.879C286.944 412.326 291.312 400.861 291.312 400.861C287.49 405.502 275.186 411.234 268.383 396.494C261.58 381.754 274.388 347.361 273.296 329.891C272.204 312.422 255.554 257.283 255.554 257.283L232.625 255.1C232.625 255.1 232.352 400.719 240.814 408.504C249.275 416.289 279.847 415.874 286.398 419.696C292.949 423.517 305.506 434.709 297.317 440.987C289.128 447.265 236.173 446.446 227.711 443.989C219.25 441.533 213.517 437.984 211.607 427.066C209.696 416.147 204.237 257.283 204.237 257.283H181.308C181.308 257.283 178.851 418.058 174.484 429.795C170.116 441.533 163.292 443.716 154.831 445.354C146.369 446.992 94.5059 449.116 90.1385 443.989C85.7711 438.862 85.7711 428.224 96.9626 420.515C108.154 412.805 132.994 418.331 145.277 409.869C157.56 401.407 153.739 255.1 153.739 255.1L129.172 257.283C126.442 285.671 115.251 317.608 101.876 331.802C88.5008 345.996 63.1153 366.195 39.9135 370.563C16.7117 374.93 1.15287 369.744 0.0610253 356.641C-0.886339 345.273 9.46878 344.385 12.226 344.349C9.76647 344.229 1.39045 343.003 2.79065 331.802C4.42842 318.7 21.3521 324.432 19.4413 323.34C17.5306 322.248 18.8954 284.579 39.9135 284.307C60.9316 284.034 42.3701 310.784 42.3701 318.973C42.3701 327.162 45.6457 331.802 55.1994 331.802Z" fill="#0053FF"/>
<path d="M80.3175 85.9053C86.1262 55.033 125.777 36.2783 168.88 44.0155C188.116 47.4686 204.789 55.6147 216.839 66.3211C259.535 55.4188 303.738 73.097 322.172 111.361C340.948 150.334 326.788 197.787 290.765 225.326C290.715 242.949 282.785 259.137 268.204 267.565C249.827 278.186 226.431 273.279 209.985 257.162C203.094 260.358 195.607 263.094 187.662 265.226C144.311 276.863 103.773 266.203 97.1191 241.414C96.0134 237.295 95.9135 233.046 96.7134 228.769C92.3098 227.204 87.9141 225.321 83.5725 223.11C44.5468 203.242 24.6538 164.539 39.1395 136.664C47.0373 121.467 63.5232 112.625 83.2102 110.946C79.8468 102.898 78.722 94.3859 80.3175 85.9053Z" fill="white"/>
<path d="M135.851 191.281L137.668 186.727" stroke="#312783" stroke-width="6.50405" stroke-linecap="round"/>
<path d="M114.703 178.087L122.543 175.643" stroke="#312783" stroke-width="6.50405" stroke-linecap="round"/>
<path d="M140.817 178.779C147.597 180.699 154.373 178.149 154.373 178.149L129.295 162.044C129.295 162.044 134.037 176.86 140.817 178.779Z" fill="#312783" stroke="#312783" stroke-width="7.04605" stroke-linecap="round"/>
<path d="M174.661 192.53C174.661 192.53 169.35 178.553 147.006 164.556C124.662 150.56 111.008 153.431 111.008 153.431" stroke="#312783" stroke-width="9.75607" stroke-linecap="round"/>
<path d="M241.942 190.838L240.125 186.283" stroke="#312783" stroke-width="6.50405" stroke-linecap="round"/>
<path d="M263.079 177.648L255.238 175.203" stroke="#312783" stroke-width="6.50405" stroke-linecap="round"/>
<path d="M236.964 178.336C230.184 180.256 223.408 177.705 223.408 177.705L248.486 161.601C248.486 161.601 243.744 176.417 236.964 178.336Z" fill="#312783" stroke="#312783" stroke-width="7.04605" stroke-linecap="round"/>
<path d="M203.128 192.088C203.128 192.088 208.439 178.112 230.783 164.115C253.127 150.118 266.781 152.989 266.781 152.989" stroke="#312783" stroke-width="9.75607" stroke-linecap="round"/>
</svg>
