<svg width="375" height="426" viewBox="0 0 375 426" fill="none" xmlns="http://www.w3.org/2000/svg">
<path d="M117.936 207.665C117.936 207.665 78.0367 291.139 61.4748 305.562C44.913 319.985 44.5542 314.358 33.8469 311.093C23.1397 307.829 13.943 316.059 14.2759 322.799C14.6088 329.54 23.4292 335.86 23.4292 335.86C23.4292 335.86 5.10279 343.647 15.5407 353.278C25.9786 362.909 38.7659 350.756 38.7659 350.756C39.5821 355.721 43.5616 367.29 54.6791 359.48C62.8224 353.759 57.6097 344.526 65.7405 332.34C73.866 320.163 138.924 237.8 138.97 237.757L149.024 242.381L152.135 237.023L117.936 207.665Z" fill="#0053FF"/>
<path d="M307.265 280.09C313.661 247.651 285.238 214.237 285.238 214.237L307.265 208.519C307.265 208.519 351.355 272.084 336.506 300.194C321.657 328.303 239.179 324.136 239.179 324.136C239.179 324.136 251.524 327.607 254.037 337.431C256.55 347.254 242.614 344.056 242.614 344.056C242.614 344.056 247.518 363.001 239.179 363.245C230.84 363.489 224.802 349.696 224.802 349.696L224.809 323.229C224.809 323.229 225.55 307.087 232.312 305.459C239.074 303.83 300.868 312.53 307.265 280.09Z" fill="#0053FF"/>
<path d="M224.011 258.675L224.647 264.352L224.387 264.327C224.387 264.327 224.159 386.2 231.241 392.715C235.492 396.626 246.41 398.064 255.645 399.281C261.795 400.091 267.2 400.803 269.391 402.081C274.874 405.28 285.383 414.646 278.529 419.9C271.676 425.154 227.357 424.469 220.275 422.413C213.193 420.357 208.396 417.387 206.797 408.249C205.198 399.111 200.629 266.155 200.629 266.155H181.439C181.439 266.155 179.383 400.711 175.728 410.534C172.073 420.357 166.362 422.185 159.28 423.555C152.198 424.926 108.793 426.704 105.138 422.413C101.482 418.122 101.482 409.219 110.849 402.767C115.423 399.615 122.721 399.106 130.19 398.585C138.014 398.04 146.024 397.48 151.284 393.857C161.564 386.775 158.366 264.327 158.366 264.327L150.776 265.002V256.664L224.011 258.675Z" fill="#0053FF"/>
<path d="M95.0754 85.9053C100.884 55.033 140.535 36.2783 183.638 44.0155C202.874 47.4686 219.547 55.6147 231.597 66.3211C274.292 55.4188 318.495 73.097 336.93 111.361C355.705 150.334 341.546 197.787 305.523 225.326C305.473 242.949 297.543 259.137 282.961 267.565C264.585 278.186 241.189 273.279 224.743 257.162C217.852 260.358 210.365 263.094 202.42 265.226C159.069 276.863 118.531 266.203 111.877 241.414C110.771 237.295 110.671 233.046 111.471 228.769C107.068 227.204 102.672 225.321 98.3303 223.11C59.3046 203.242 39.4116 164.539 53.8973 136.664C61.7951 121.467 78.281 112.625 97.968 110.946C94.6046 102.898 93.4798 94.3859 95.0754 85.9053Z" fill="white"/>
<path d="M248.914 171.735C240.126 174.04 233.011 169.519 233.011 169.519L263.431 155.467C263.431 155.467 257.702 169.431 248.914 171.735Z" fill="#312783" stroke="#312783" stroke-width="6.90195" stroke-linecap="round"/>
<path d="M216.627 182.496C216.627 182.496 221.125 167.286 243.409 157.467C265.692 147.648 281.256 151.983 281.256 151.983" stroke="#312783" stroke-width="8.4947" stroke-linecap="round"/>
<path d="M232.067 188.922C231.736 188.67 231.428 188.376 231.227 188.02C231.025 187.664 230.947 187.276 231.016 186.905C231.084 186.534 231.296 186.2 231.611 185.94C231.926 185.679 232.319 185.515 232.718 185.398C232.718 185.398 232.718 185.398 232.718 185.398C233.4 185.108 234.221 184.83 234.959 184.56C237.967 183.476 240.737 182.66 243.535 182.195C247.623 181.508 251.603 180.322 255.428 178.602C260.944 176.081 266.317 173.031 270.459 168.662C270.94 168.153 271.454 167.503 271.768 167.104C271.995 166.723 272.334 166.404 272.752 166.235C273.17 166.066 273.628 166.058 274.036 166.217C274.444 166.375 274.777 166.691 274.97 167.098C275.164 167.506 275.198 167.969 275.108 168.404C275.108 168.404 275.108 168.404 275.108 168.404C274.796 169.471 274.491 170.204 274.11 171.033C270.953 177.592 265.462 182.528 259.532 186.225C255.15 188.93 250.212 190.768 245.116 191.621C241.625 192.206 237.949 191.781 234.577 190.282C233.722 189.902 232.946 189.473 232.067 188.922Z" fill="#312783"/>
<path d="M155.344 171.735C164.132 174.04 171.247 169.519 171.247 169.519L140.827 155.467C140.827 155.467 146.556 169.431 155.344 171.735Z" fill="#312783" stroke="#312783" stroke-width="6.90195" stroke-linecap="round"/>
<path d="M187.631 182.496C187.631 182.496 183.133 167.286 160.849 157.467C138.566 147.648 123.002 151.983 123.002 151.983" stroke="#312783" stroke-width="8.4947" stroke-linecap="round"/>
<path d="M172.187 188.922C172.518 188.67 172.826 188.376 173.027 188.02C173.229 187.664 173.307 187.276 173.238 186.905C173.17 186.534 172.958 186.2 172.643 185.94C172.327 185.679 171.935 185.515 171.536 185.398C171.536 185.398 171.536 185.398 171.536 185.398C170.854 185.108 170.032 184.83 169.294 184.56C166.287 183.476 163.517 182.66 160.719 182.195C156.631 181.508 152.651 180.322 148.826 178.602C143.31 176.081 137.937 173.031 133.795 168.662C133.314 168.153 132.8 167.503 132.485 167.104C132.259 166.723 131.92 166.404 131.502 166.235C131.084 166.066 130.626 166.058 130.218 166.217C129.81 166.375 129.477 166.691 129.284 167.098C129.09 167.506 129.056 167.969 129.146 168.404C129.146 168.404 129.146 168.404 129.146 168.404C129.458 169.471 129.763 170.204 130.144 171.033C133.301 177.592 138.792 182.528 144.722 186.225C149.104 188.93 154.042 190.768 159.138 191.621C162.629 192.206 166.304 191.781 169.677 190.282C170.532 189.902 171.308 189.473 172.187 188.922Z" fill="#312783"/>
</svg>
