<svg width="400" height="425" viewBox="0 0 400 425" fill="none" xmlns="http://www.w3.org/2000/svg">
<path d="M112.901 281.643C141.394 276.944 155.962 227.872 155.962 227.872L320.492 230.656C320.492 230.656 338.702 316.968 340.844 318.708C342.986 320.448 375.336 329.671 369.766 342.374C364.195 355.077 354.341 349.857 354.341 349.857C354.341 349.857 363.553 364.777 349.628 368.303C335.703 371.828 327.133 353.859 327.133 353.859C327.133 353.859 323.492 364.648 312.566 355.426C301.64 346.203 314.279 324.973 314.279 320.274C314.279 315.576 296.284 240.401 296.284 240.401H266.077C266.077 240.401 271.862 377.903 273.575 382.079C275.289 386.255 330.133 408.24 315.136 421.233C300.14 434.226 250.652 409.574 246.368 395.304C242.083 381.035 239.512 240.401 239.512 240.401H215.518C215.518 240.401 212.947 383.123 208.02 393.216C203.092 403.309 152.1 432.422 138.603 417.283C125.107 402.143 180.812 386.081 182.741 382.079C184.669 378.077 188.311 240.401 188.311 240.401H178.456C178.456 240.401 178.456 278.684 134.753 298.522C91.0491 318.36 57.2003 294.172 57.2003 294.172C57.2003 294.172 43.4892 305.135 31.2781 289.473C19.067 273.812 38.3478 265.633 38.3478 265.633C38.3478 265.633 0 266.155 0 251.712C0 237.268 34.9201 250.668 34.9201 250.668C34.9201 250.668 16.71 230.134 29.5641 223.521C42.4182 216.908 51.416 240.401 51.416 240.401C51.416 240.401 61.485 268.069 64.9127 270.506C68.3404 272.942 84.4079 286.341 112.901 281.643Z" fill="#0053FF"/>
<path d="M120.411 85.9028C126.22 55.0305 165.872 36.2763 208.975 44.0137C228.21 47.4668 244.883 55.6125 256.932 66.3185C299.628 55.4162 343.832 73.0952 362.266 111.36C381.041 150.332 366.882 197.784 330.859 225.324C330.809 242.946 322.879 259.136 308.297 267.563C289.921 278.184 266.525 273.277 250.079 257.161C243.188 260.356 235.701 263.092 227.756 265.225C184.405 276.862 143.867 266.201 137.213 241.413C136.107 237.294 136.007 233.043 136.807 228.766C132.404 227.202 128.008 225.319 123.666 223.109C84.6406 203.241 64.7474 164.537 79.2331 136.662C87.131 121.464 103.617 112.623 123.304 110.945C119.941 102.897 118.815 94.3836 120.411 85.9028Z" fill="white"/>
<path d="M238.534 186.024C238.534 186.024 238.3 159.658 258.681 150.677C279.061 141.696 297.645 158.117 297.645 158.117" stroke="#312783" stroke-width="7.3255" stroke-linecap="round"/>
<ellipse cx="264.023" cy="165.155" rx="19.9162" ry="17.8709" transform="rotate(-16.2061 264.023 165.155)" fill="#312783"/>
<path d="M280.077 188.754L278.543 184.906" stroke="#312783" stroke-width="5.49413" stroke-linecap="round"/>
<path d="M297.936 177.61L291.312 175.545" stroke="#312783" stroke-width="5.49413" stroke-linecap="round"/>
<path d="M207.591 186.024C207.591 186.024 207.825 159.658 187.444 150.677C167.064 141.696 148.48 158.117 148.48 158.117" stroke="#312783" stroke-width="7.3255" stroke-linecap="round"/>
<ellipse cx="19.9162" cy="17.8709" rx="19.9162" ry="17.8709" transform="matrix(-0.960264 -0.279093 -0.279093 0.960264 206.215 153.553)" fill="#312783"/>
<path d="M166.044 188.754L167.578 184.906" stroke="#312783" stroke-width="5.49413" stroke-linecap="round"/>
<path d="M148.189 177.61L154.812 175.545" stroke="#312783" stroke-width="5.49413" stroke-linecap="round"/>
</svg>
