<svg width="360" height="448" viewBox="0 0 360 448" fill="none" xmlns="http://www.w3.org/2000/svg">
<path d="M55.1994 331.802C64.753 331.802 84.4063 319.519 93.687 295.498C102.968 271.477 110.338 245 110.338 245L279.301 249.64V255.1C279.301 255.1 290.766 305.052 299.227 329.891C307.689 354.731 318.062 357.46 329.799 365.649C341.537 373.838 341.264 386.121 334.44 391.035C327.616 395.948 319.973 391.035 319.973 391.035C325.978 397.768 329.253 402.499 329.799 410.961C330.345 419.423 319.154 431.433 303.049 421.879C286.944 412.326 291.312 400.861 291.312 400.861C287.49 405.502 275.186 411.234 268.383 396.494C261.58 381.754 274.388 347.361 273.296 329.891C272.204 312.422 255.554 257.283 255.554 257.283L232.625 255.1C232.625 255.1 232.352 400.719 240.814 408.504C249.275 416.289 279.847 415.874 286.398 419.696C292.949 423.517 305.506 434.709 297.317 440.987C289.128 447.265 236.173 446.446 227.711 443.989C219.25 441.533 213.517 437.984 211.607 427.066C209.696 416.147 204.237 257.283 204.237 257.283H181.308C181.308 257.283 178.851 418.058 174.484 429.795C170.116 441.533 163.292 443.716 154.831 445.354C146.369 446.992 94.5059 449.116 90.1385 443.989C85.7711 438.862 85.7711 428.224 96.9626 420.515C108.154 412.805 132.994 418.331 145.277 409.869C157.56 401.407 153.739 255.1 153.739 255.1L129.172 257.283C126.442 285.671 115.251 317.608 101.876 331.802C88.5008 345.996 63.1153 366.195 39.9135 370.563C16.7117 374.93 1.15287 369.744 0.0610253 356.641C-0.886339 345.273 9.46878 344.385 12.226 344.349C9.76647 344.229 1.39045 343.003 2.79065 331.802C4.42842 318.7 21.3521 324.432 19.4413 323.34C17.5306 322.248 18.8954 284.579 39.9135 284.307C60.9316 284.034 42.3701 310.784 42.3701 318.973C42.3701 327.162 45.6457 331.802 55.1994 331.802Z" fill="#0053FF"/>
<path d="M80.3175 85.9053C86.1262 55.033 125.777 36.2783 168.88 44.0155C188.116 47.4686 204.789 55.6147 216.839 66.3211C259.535 55.4188 303.738 73.097 322.172 111.361C340.948 150.334 326.788 197.787 290.765 225.326C290.715 242.949 282.785 259.137 268.204 267.565C249.827 278.186 226.431 273.279 209.985 257.162C203.094 260.358 195.607 263.094 187.662 265.226C144.311 276.863 103.773 266.203 97.1191 241.414C96.0134 237.295 95.9135 233.046 96.7134 228.769C92.3098 227.204 87.9141 225.321 83.5725 223.11C44.5468 203.242 24.6538 164.539 39.1395 136.664C47.0373 121.467 63.5232 112.625 83.2102 110.946C79.8468 102.898 78.722 94.3859 80.3175 85.9053Z" fill="white"/>
<path d="M232.914 171.735C224.126 174.04 217.011 169.519 217.011 169.519L247.431 155.467C247.431 155.467 241.702 169.431 232.914 171.735Z" fill="#312783" stroke="#312783" stroke-width="6.90195" stroke-linecap="round"/>
<path d="M200.627 182.496C200.627 182.496 205.125 167.286 227.409 157.467C249.692 147.648 265.256 151.983 265.256 151.983" stroke="#312783" stroke-width="8.4947" stroke-linecap="round"/>
<path d="M216.067 188.922C215.736 188.67 215.428 188.376 215.227 188.02C215.025 187.664 214.947 187.276 215.016 186.905C215.084 186.534 215.296 186.2 215.611 185.94C215.926 185.679 216.319 185.515 216.718 185.398C216.718 185.398 216.718 185.398 216.718 185.398C217.4 185.108 218.221 184.83 218.959 184.56C221.967 183.476 224.737 182.66 227.535 182.195C231.623 181.508 235.603 180.322 239.428 178.602C244.944 176.081 250.317 173.031 254.459 168.662C254.94 168.153 255.454 167.503 255.768 167.104C255.995 166.723 256.334 166.404 256.752 166.235C257.17 166.066 257.628 166.058 258.036 166.217C258.444 166.375 258.777 166.691 258.97 167.098C259.164 167.506 259.198 167.969 259.108 168.404C259.108 168.404 259.108 168.404 259.108 168.404C258.796 169.471 258.491 170.204 258.11 171.033C254.953 177.592 249.462 182.528 243.532 186.225C239.15 188.93 234.212 190.768 229.116 191.621C225.625 192.206 221.949 191.781 218.577 190.282C217.722 189.902 216.946 189.473 216.067 188.922Z" fill="#312783"/>
<path d="M139.348 171.735C148.136 174.04 155.25 169.519 155.25 169.519L124.831 155.467C124.831 155.467 130.559 169.431 139.348 171.735Z" fill="#312783" stroke="#312783" stroke-width="6.90195" stroke-linecap="round"/>
<path d="M171.635 182.496C171.635 182.496 167.136 167.286 144.853 157.467C122.57 147.648 107.006 151.983 107.006 151.983" stroke="#312783" stroke-width="8.4947" stroke-linecap="round"/>
<path d="M156.191 188.922C156.522 188.67 156.83 188.376 157.031 188.02C157.232 187.664 157.311 187.276 157.242 186.905C157.173 186.534 156.962 186.2 156.647 185.94C156.331 185.679 155.939 185.515 155.54 185.398C155.54 185.398 155.54 185.398 155.54 185.398C154.858 185.108 154.036 184.83 153.298 184.56C150.291 183.476 147.521 182.66 144.723 182.195C140.635 181.508 136.655 180.322 132.83 178.602C127.314 176.081 121.941 173.031 117.799 168.662C117.318 168.153 116.803 167.503 116.489 167.104C116.262 166.723 115.924 166.404 115.506 166.235C115.088 166.066 114.63 166.058 114.222 166.217C113.813 166.375 113.481 166.691 113.288 167.098C113.094 167.506 113.06 167.969 113.15 168.404C113.15 168.404 113.15 168.404 113.15 168.404C113.462 169.471 113.767 170.204 114.148 171.033C117.305 177.592 122.796 182.528 128.726 186.225C133.108 188.93 138.046 190.768 143.141 191.621C146.633 192.206 150.308 191.781 153.681 190.282C154.535 189.902 155.312 189.473 156.191 188.922Z" fill="#312783"/>
</svg>
