<svg width="375" height="426" viewBox="0 0 375 426" fill="none" xmlns="http://www.w3.org/2000/svg">
<path d="M117.936 207.665C117.936 207.665 78.0367 291.139 61.4748 305.562C44.913 319.985 44.5542 314.358 33.8469 311.093C23.1397 307.829 13.943 316.059 14.2759 322.799C14.6088 329.54 23.4292 335.86 23.4292 335.86C23.4292 335.86 5.10279 343.647 15.5407 353.278C25.9786 362.909 38.7659 350.756 38.7659 350.756C39.5821 355.721 43.5616 367.29 54.6791 359.48C62.8224 353.759 57.6097 344.526 65.7405 332.34C73.866 320.163 138.924 237.8 138.97 237.757L149.024 242.381L152.135 237.023L117.936 207.665Z" fill="#0053FF"/>
<path d="M307.265 280.09C313.661 247.651 285.238 214.237 285.238 214.237L307.265 208.519C307.265 208.519 351.355 272.084 336.506 300.194C321.657 328.303 239.179 324.136 239.179 324.136C239.179 324.136 251.524 327.607 254.037 337.431C256.55 347.254 242.614 344.056 242.614 344.056C242.614 344.056 247.518 363.001 239.179 363.245C230.84 363.489 224.802 349.696 224.802 349.696L224.809 323.229C224.809 323.229 225.55 307.087 232.312 305.459C239.074 303.83 300.868 312.53 307.265 280.09Z" fill="#0053FF"/>
<path d="M224.011 258.675L224.647 264.352L224.387 264.327C224.387 264.327 224.159 386.2 231.241 392.715C235.492 396.626 246.41 398.064 255.645 399.281C261.795 400.091 267.2 400.803 269.391 402.081C274.874 405.28 285.383 414.646 278.529 419.9C271.676 425.154 227.357 424.469 220.275 422.413C213.193 420.357 208.396 417.387 206.797 408.249C205.198 399.111 200.629 266.155 200.629 266.155H181.439C181.439 266.155 179.383 400.711 175.728 410.534C172.073 420.357 166.362 422.185 159.28 423.555C152.198 424.926 108.793 426.704 105.138 422.413C101.482 418.122 101.482 409.219 110.849 402.767C115.423 399.615 122.721 399.106 130.19 398.585C138.014 398.04 146.024 397.48 151.284 393.857C161.564 386.775 158.366 264.327 158.366 264.327L150.776 265.002V256.664L224.011 258.675Z" fill="#0053FF"/>
<path d="M95.0754 85.9053C100.884 55.033 140.535 36.2783 183.638 44.0155C202.874 47.4686 219.547 55.6147 231.597 66.3211C274.292 55.4188 318.495 73.097 336.93 111.361C355.705 150.334 341.546 197.787 305.523 225.326C305.473 242.949 297.543 259.137 282.961 267.565C264.585 278.186 241.189 273.279 224.743 257.162C217.852 260.358 210.365 263.094 202.42 265.226C159.069 276.863 118.531 266.203 111.877 241.414C110.771 237.295 110.671 233.046 111.471 228.769C107.068 227.204 102.672 225.321 98.3303 223.11C59.3046 203.242 39.4116 164.539 53.8973 136.664C61.7951 121.467 78.281 112.625 97.968 110.946C94.6046 102.898 93.4798 94.3859 95.0754 85.9053Z" fill="white"/>
<path d="M242.806 175.145C234.807 175.145 231.833 167.519 231.833 167.519L254.276 167.519C254.276 167.519 250.805 175.145 242.806 175.145Z" fill="#312783" stroke="#312783" stroke-width="6.17946" stroke-linecap="round"/>
<path d="M273.003 162.579C273.003 162.579 267.498 186.118 242.809 186.118C218.12 186.118 212.748 162.806 212.748 162.806" stroke="#312783" stroke-width="7.16803" stroke-linecap="round"/>
<line x1="212.85" y1="161.635" x2="272.348" y2="161.635" stroke="#312783" stroke-width="7.60548" stroke-linecap="round"/>
<path d="M257.043 190.83L255.629 187.283" stroke="#312783" stroke-width="6.6548" stroke-linecap="round"/>
<path d="M275.078 179.293L267.707 177.256" stroke="#312783" stroke-width="6.6548" stroke-linecap="round"/>
<path d="M154.373 175.352C146.374 175.352 143.4 167.726 143.4 167.726L165.843 167.726C165.843 167.726 162.372 175.352 154.373 175.352Z" fill="#312783" stroke="#312783" stroke-width="6.17946" stroke-linecap="round"/>
<path d="M184.569 162.786C184.569 162.786 179.064 186.325 154.375 186.325C129.686 186.325 124.315 163.013 124.315 163.013" stroke="#312783" stroke-width="7.16803" stroke-linecap="round"/>
<line x1="124.412" y1="161.844" x2="183.91" y2="161.844" stroke="#312783" stroke-width="7.60548" stroke-linecap="round"/>
<path d="M168.61 191.037L167.195 187.49" stroke="#312783" stroke-width="6.6548" stroke-linecap="round"/>
<path d="M186.645 179.5L179.273 177.463" stroke="#312783" stroke-width="6.6548" stroke-linecap="round"/>
</svg>
