<svg width="349" height="426" viewBox="0 0 349 426" fill="none" xmlns="http://www.w3.org/2000/svg">
<path d="M290.385 202C290.51 202.168 346.579 277.462 339.894 296.066C333.205 314.677 220.295 321.307 220.12 321.317C220.201 321.415 237.928 342.873 231.034 347.994C224.124 353.127 221.186 345.251 221.186 345.251C221.186 345.251 221.639 362.299 213.033 362.551C210.084 362.637 208.246 360.919 207.104 358.623C208.152 376.385 209.695 389.997 211.969 392.089C216.356 396.125 227.623 397.61 237.153 398.865C243.501 399.701 249.078 400.436 251.34 401.756C256.998 405.056 267.843 414.722 260.77 420.145C253.698 425.567 207.961 424.859 200.652 422.737C193.344 420.616 188.392 417.551 186.742 408.121C185.092 398.691 180.377 261.479 180.377 261.479H160.573C160.573 261.479 158.452 400.341 154.68 410.479C150.908 420.616 145.013 422.502 137.705 423.917C130.396 425.332 85.6031 427.165 81.831 422.737C78.059 418.309 78.0587 409.122 87.7246 402.463C92.4451 399.211 99.9773 398.685 107.685 398.147C115.759 397.584 124.026 397.008 129.454 393.269C132.681 391.046 134.617 377.81 135.755 360.466C134.608 362.037 132.976 363.09 130.652 363.021C122.067 362.769 122.498 345.802 122.5 345.723C122.479 345.777 119.537 353.581 112.651 348.466C105.742 343.333 123.566 321.788 123.566 321.788C123.566 321.788 10.4856 315.163 3.79195 296.538C-2.90134 277.913 53.3017 202.471 53.3017 202.471L76.0332 208.372C76.0332 208.372 27.283 270.135 32.8984 281.979C38.5145 293.823 123.672 300.832 130.652 302.513C134.217 303.371 136.159 308.138 137.207 312.596C137.406 284.359 136.762 259.594 136.762 259.594L128.93 260.29V251.686L204.508 253.761L205.163 259.619L204.895 259.594C204.895 259.594 204.844 287.367 205.547 317.509C206.12 312.666 207.887 303.281 213.033 302.041C220.011 300.36 305.171 293.352 310.787 281.508C316.396 269.677 267.765 208.042 267.653 207.901L290.385 202Z" fill="#0053FF"/>
<path d="M69.3175 85.9053C75.1262 55.033 114.777 36.2783 157.88 44.0155C177.116 47.4686 193.789 55.6147 205.839 66.3211C248.535 55.4188 292.738 73.097 311.172 111.361C329.948 150.334 315.788 197.787 279.765 225.326C279.715 242.949 271.785 259.137 257.204 267.565C238.827 278.186 215.431 273.279 198.985 257.162C192.094 260.358 184.607 263.094 176.662 265.226C133.311 276.863 92.7731 266.203 86.1191 241.414C85.0134 237.295 84.9135 233.046 85.7134 228.769C81.3098 227.204 76.9141 225.321 72.5725 223.11C33.5468 203.242 13.6538 164.539 28.1395 136.664C36.0373 121.467 52.5232 112.625 72.2102 110.946C68.8468 102.898 67.722 94.3859 69.3175 85.9053Z" fill="white"/>
<path d="M187.456 186.024C187.456 186.024 187.222 159.658 207.602 150.677C227.983 141.696 246.567 158.117 246.567 158.117" stroke="#312783" stroke-width="7.3255" stroke-linecap="round"/>
<ellipse cx="212.945" cy="165.155" rx="19.9162" ry="17.8709" transform="rotate(-16.2061 212.945 165.155)" fill="#312783"/>
<path d="M228.995 188.754L227.461 184.906" stroke="#312783" stroke-width="5.49413" stroke-linecap="round"/>
<path d="M246.857 177.61L240.234 175.545" stroke="#312783" stroke-width="5.49413" stroke-linecap="round"/>
<path d="M156.509 186.024C156.509 186.024 156.743 159.658 136.362 150.677C115.982 141.696 97.398 158.117 97.398 158.117" stroke="#312783" stroke-width="7.3255" stroke-linecap="round"/>
<ellipse cx="19.9162" cy="17.8709" rx="19.9162" ry="17.8709" transform="matrix(-0.960264 -0.279093 -0.279093 0.960264 155.137 153.553)" fill="#312783"/>
<path d="M114.966 188.754L116.5 184.906" stroke="#312783" stroke-width="5.49413" stroke-linecap="round"/>
<path d="M97.1075 177.61L103.73 175.545" stroke="#312783" stroke-width="5.49413" stroke-linecap="round"/>
</svg>
