<svg width="130" height="220" viewBox="0 0 130 220" fill="none" xmlns="http://www.w3.org/2000/svg">
<ellipse cx="64.6091" cy="188.148" rx="64.6091" ry="31.4762" fill="#034FF5"/>
<ellipse cx="64.7138" cy="31.3741" rx="64.4911" ry="31.3741" fill="#034FF5"/>
<rect y="31.7134" width="129.218" height="156.671" fill="#034FF5"/>
<rect width="82.967" height="61.3537" rx="6.97202" transform="matrix(-1 0 0 1 105.975 87.8472)" fill="white"/>
<path d="M77.401 110.146C74.4796 110.667 72.3226 113.133 71.6701 116.261C69.764 114.671 67.5171 114.069 65.6229 114.881C63.6321 115.734 62.5123 117.944 62.4521 120.587C61.067 120.192 59.5254 120.097 57.9498 120.378C53.1676 121.231 49.8826 125.203 50.6128 129.249C51.2298 132.667 54.5147 135.045 58.4024 135.187C59.8436 139.274 64.6265 141.765 69.7066 140.86C73.8595 140.12 77.0338 137.319 78.0121 133.956C80.1524 136.599 83.9851 138.008 88.0034 137.292C93.559 136.301 97.3634 131.624 96.5011 126.846C95.7203 122.52 91.3835 119.594 86.4478 119.812C86.4839 119.058 86.4371 118.28 86.2951 117.492C85.4328 112.714 81.4507 109.425 77.401 110.146Z" fill="#312783"/>
<path d="M45.5125 95.2264C47.4071 95.5642 48.8061 97.1633 49.2297 99.1912C50.466 98.1608 51.9235 97.7708 53.152 98.2973C54.4434 98.8509 55.1698 100.285 55.209 101.999C56.1076 101.742 57.1078 101.681 58.1301 101.863C61.2325 102.416 63.3633 104.993 62.8899 107.618C62.4897 109.835 60.3588 111.378 57.8363 111.47C56.9012 114.121 53.7992 115.737 50.5039 115.15C47.8095 114.669 45.7494 112.853 45.115 110.671C43.7267 112.386 41.2406 113.301 38.6333 112.836C35.0291 112.194 32.5608 109.16 33.1202 106.06C33.6266 103.253 36.4404 101.355 39.6426 101.497C39.6192 101.007 39.6503 100.502 39.7425 99.9918C40.3019 96.8918 42.8853 94.7581 45.5125 95.2264Z" fill="#0053FF"/>
<ellipse cx="37.9982" cy="28.5844" rx="8.71502" ry="6.27481" fill="white"/>
<ellipse cx="65.1896" cy="16.0346" rx="8.71502" ry="6.27481" fill="white"/>
<ellipse cx="92.381" cy="28.5844" rx="8.71502" ry="6.27481" fill="white"/>
<mask id="path-10-outside-1_416_50740" maskUnits="userSpaceOnUse" x="3.97266" y="30.4741" width="121" height="29" fill="black">
<rect fill="white" x="3.97266" y="30.4741" width="121" height="29"/>
<path d="M64.8701 56.4741C93.2405 56.4741 116.955 46.6231 122.769 33.4663H122.001C119.57 38.708 114.145 43.4778 106.467 47.272C95.8576 52.5141 81.1512 55.7769 64.8701 55.7769C48.5892 55.7768 33.8836 52.5141 23.2744 47.272C15.5959 43.4778 10.1712 38.708 7.74023 33.4663H6.97266C12.7862 46.6231 36.4999 56.474 64.8701 56.4741Z"/>
</mask>
<path d="M64.8701 56.4741C93.2405 56.4741 116.955 46.6231 122.769 33.4663H122.001C119.57 38.708 114.145 43.4778 106.467 47.272C95.8576 52.5141 81.1512 55.7769 64.8701 55.7769C48.5892 55.7768 33.8836 52.5141 23.2744 47.272C15.5959 43.4778 10.1712 38.708 7.74023 33.4663H6.97266C12.7862 46.6231 36.4999 56.474 64.8701 56.4741Z" fill="white"/>
<path d="M64.8701 56.4741V58.5657H64.8701L64.8701 56.4741ZM122.769 33.4663V31.3747C123.476 31.3747 124.135 31.7321 124.521 32.3247C124.907 32.9173 124.968 33.6648 124.682 34.3117L122.769 33.4663ZM122.001 33.4663L120.104 32.5863C120.446 31.8475 121.187 31.3747 122.001 31.3747V33.4663ZM106.467 47.272L107.393 49.1471L107.393 49.1472L106.467 47.272ZM64.8701 55.7769V57.8685H64.8701L64.8701 55.7769ZM23.2744 47.272L22.3479 49.1472L22.3478 49.1471L23.2744 47.272ZM7.74023 33.4663V31.3747C8.55467 31.3747 9.29505 31.8475 9.63771 32.5863L7.74023 33.4663ZM6.97266 33.4663L5.0595 34.3117C4.77366 33.6648 4.83408 32.9173 5.22009 32.3247C5.6061 31.7321 6.26543 31.3747 6.97266 31.3747V33.4663ZM64.8701 56.4741V54.3825C78.8293 54.3825 91.5795 51.9567 101.497 47.9638C111.494 43.9389 118.272 38.4673 120.855 32.6209L122.769 33.4663L124.682 34.3117C121.451 41.6221 113.466 47.6544 103.059 51.8443C92.5735 56.066 79.2814 58.5657 64.8701 58.5657V56.4741ZM122.769 33.4663V35.5579H122.001V33.4663V31.3747H122.769V33.4663ZM122.001 33.4663L123.898 34.3463C121.186 40.1951 115.287 45.2464 107.393 49.1471L106.467 47.272L105.54 45.3968C113.003 41.7092 117.954 37.2208 120.104 32.5863L122.001 33.4663ZM106.467 47.272L107.393 49.1472C96.4389 54.5599 81.4021 57.8685 64.8701 57.8685V55.7769V53.6853C80.9003 53.6853 95.2763 50.4684 105.54 45.3968L106.467 47.272ZM64.8701 55.7769L64.8701 57.8685C48.3382 57.8684 33.3022 54.5599 22.3479 49.1472L23.2744 47.272L24.201 45.3968C34.4649 50.4683 48.8401 53.6852 64.8701 53.6853L64.8701 55.7769ZM23.2744 47.272L22.3478 49.1471C14.4537 45.2464 8.55533 40.1952 5.84276 34.3463L7.74023 33.4663L9.63771 32.5863C11.7871 37.2208 16.7382 41.7092 24.201 45.3968L23.2744 47.272ZM7.74023 33.4663V35.5579H6.97266V33.4663V31.3747H7.74023V33.4663ZM6.97266 33.4663L8.88581 32.6209C11.4691 38.4673 18.2474 43.9389 28.2438 47.9637C38.161 51.9566 50.9111 54.3825 64.8701 54.3825L64.8701 56.4741L64.8701 58.5657C50.459 58.5657 37.167 56.066 26.6814 51.8442C16.2751 47.6543 8.28972 41.622 5.0595 34.3117L6.97266 33.4663Z" fill="white" mask="url(#path-10-outside-1_416_50740)"/>
</svg>
