<svg width="130" height="220" viewBox="0 0 130 220" fill="none" xmlns="http://www.w3.org/2000/svg">
<ellipse cx="65.0817" cy="188.148" rx="64.6091" ry="31.4762" fill="#B7FE25"/>
<ellipse cx="64.6091" cy="31.4762" rx="64.6091" ry="31.4762" fill="#B7FE25"/>
<rect x="0.472656" y="31.7134" width="129.218" height="156.671" fill="#B7FE25"/>
<rect width="82.967" height="61.3537" rx="6.97202" transform="matrix(-1 0 0 1 105.975 87.8472)" fill="#312783"/>
<ellipse cx="37.9982" cy="28.5844" rx="8.71502" ry="6.27481" fill="#312783"/>
<ellipse cx="65.1896" cy="16.0346" rx="8.71502" ry="6.27481" fill="#312783"/>
<ellipse cx="92.381" cy="28.5844" rx="8.71502" ry="6.27481" fill="#312783"/>
<mask id="path-8-outside-1_416_50739" maskUnits="userSpaceOnUse" x="3.97266" y="30.4741" width="121" height="29" fill="black">
<rect fill="white" x="3.97266" y="30.4741" width="121" height="29"/>
<path d="M64.8701 56.4741C93.2405 56.474 116.955 46.6231 122.769 33.4663H122.001C119.57 38.708 114.145 43.4778 106.467 47.272C95.8576 52.5141 81.1511 55.7768 64.8701 55.7769C48.5894 55.7768 33.8835 52.514 23.2744 47.272C15.5958 43.4778 10.1702 38.7081 7.73926 33.4663H6.97266C12.7863 46.623 36.5 56.474 64.8701 56.4741Z"/>
</mask>
<path d="M64.8701 56.4741C93.2405 56.474 116.955 46.6231 122.769 33.4663H122.001C119.57 38.708 114.145 43.4778 106.467 47.272C95.8576 52.5141 81.1511 55.7768 64.8701 55.7769C48.5894 55.7768 33.8835 52.514 23.2744 47.272C15.5958 43.4778 10.1702 38.7081 7.73926 33.4663H6.97266C12.7863 46.623 36.5 56.474 64.8701 56.4741Z" fill="#312783"/>
<path d="M64.8701 56.4741L64.8701 58.5657H64.8701L64.8701 56.4741ZM122.769 33.4663V31.3747C123.476 31.3747 124.135 31.7321 124.521 32.3247C124.907 32.9173 124.968 33.6648 124.682 34.3117L122.769 33.4663ZM122.001 33.4663L120.104 32.5863C120.446 31.8475 121.187 31.3747 122.001 31.3747V33.4663ZM106.467 47.272L107.393 49.1471L107.393 49.1472L106.467 47.272ZM64.8701 55.7769L64.8701 57.8685H64.8701L64.8701 55.7769ZM23.2744 47.272L22.3479 49.1472L22.3478 49.1471L23.2744 47.272ZM7.73926 33.4663V31.3747C8.5537 31.3747 9.29409 31.8475 9.63674 32.5863L7.73926 33.4663ZM6.97266 33.4663L5.05951 34.3117C4.77366 33.6648 4.83407 32.9173 5.22008 32.3247C5.6061 31.7321 6.26543 31.3747 6.97266 31.3747V33.4663ZM64.8701 56.4741L64.8701 54.3825C78.8292 54.3825 91.5796 51.9566 101.497 47.9637C111.494 43.9389 118.272 38.4673 120.855 32.6209L122.769 33.4663L124.682 34.3117C121.451 41.6221 113.466 47.6544 103.059 51.8442C92.5735 56.066 79.2813 58.5657 64.8701 58.5657L64.8701 56.4741ZM122.769 33.4663V35.5579H122.001V33.4663V31.3747H122.769V33.4663ZM122.001 33.4663L123.898 34.3463C121.186 40.1952 115.287 45.2464 107.393 49.1471L106.467 47.272L105.54 45.3968C113.003 41.7092 117.954 37.2208 120.104 32.5863L122.001 33.4663ZM106.467 47.272L107.393 49.1472C96.4389 54.5599 81.402 57.8684 64.8701 57.8685L64.8701 55.7769L64.8701 53.6853C80.9002 53.6852 95.2763 50.4684 105.54 45.3968L106.467 47.272ZM64.8701 55.7769L64.8701 57.8685C48.3384 57.8684 33.3022 54.5598 22.3479 49.1472L23.2744 47.272L24.201 45.3968C34.4649 50.4682 48.8403 53.6852 64.8701 53.6853L64.8701 55.7769ZM23.2744 47.272L22.3478 49.1471C14.4537 45.2464 8.55434 40.1953 5.84177 34.3463L7.73926 33.4663L9.63674 32.5863C11.786 37.2208 16.7379 41.7091 24.201 45.3968L23.2744 47.272ZM7.73926 33.4663V35.5579H6.97266V33.4663V31.3747H7.73926V33.4663ZM6.97266 33.4663L8.8858 32.6209C11.4692 38.4673 18.2475 43.9389 28.2439 47.9637C38.1611 51.9566 50.9111 54.3825 64.8701 54.3825L64.8701 56.4741L64.8701 58.5657C50.459 58.5657 37.1671 56.066 26.6815 51.8442C16.2752 47.6543 8.28979 41.622 5.05951 34.3117L6.97266 33.4663Z" fill="#312783" mask="url(#path-8-outside-1_416_50739)"/>
<path d="M49.9978 97.9636L48.6413 101.247L40.8232 98.0173L35.5186 110.857L31.8325 109.335L38.4936 93.211L49.9978 97.9636Z" fill="#C3FB4F" stroke="#C3FB4F" stroke-width="0.348601"/>
<path d="M92.3381 93.0243L93.7949 96.2646L85.7298 99.8907L86.827 102.331L90.7122 100.584C92.41 99.821 94.0062 99.8012 95.3376 100.329C96.6673 100.857 97.7175 101.924 98.3382 103.305C98.9586 104.685 99.0657 106.176 98.5809 107.519C98.0952 108.865 97.021 110.046 95.3117 110.815L87.789 114.197L80.6354 98.2858L92.3381 93.0243ZM89.9697 109.321L93.4113 107.774C94.0217 107.499 94.4528 107.08 94.668 106.594C94.8823 106.111 94.8897 105.549 94.6303 104.972C94.3653 104.383 93.9394 104.016 93.4382 103.859C92.9344 103.701 92.337 103.749 91.7254 104.024L88.2838 105.571L89.9697 109.321Z" fill="#C3FB4F" stroke="#C3FB4F" stroke-width="0.348601"/>
<path d="M92.1631 123.938L92.2061 124.05L98.7939 141.147L98.8848 141.384H94.3564L94.3145 141.27L93.3047 138.487H86.2178L85.1836 141.271L85.1406 141.384H80.6133L80.7051 141.146L87.3184 124.05L87.3613 123.938H92.1631ZM87.3447 134.935H92.1787L89.7617 128.264L87.3447 134.935Z" fill="#C3FB4F" stroke="#C3FB4F" stroke-width="0.348601"/>
<path d="M67.2304 103.726L74.2106 115.737L75.5396 114.965L78.909 120.763L75.4607 122.767L73.8763 120.041L64.9584 125.223L66.5427 127.95L63.0944 129.953L59.8776 124.418L59.9982 124.324C60.676 123.8 61.1035 123.299 61.1704 122.442C61.2389 121.561 60.9282 120.281 60.0288 118.198L56.502 110.139L56.4397 109.996L67.2304 103.726ZM63.6027 116.465C64.4635 118.415 64.6792 120.071 64.379 121.451L70.7395 117.755L65.5443 108.815L61.3302 111.263L63.6027 116.465Z" fill="#C3FB4F" stroke="#C3FB4F" stroke-width="0.348601"/>
<path d="M52.0733 126.397C53.4178 127.381 54.1348 128.563 54.3332 129.75C54.5314 130.936 54.2094 132.108 53.5108 133.063C52.3574 134.64 50.6738 135.142 49.2138 134.761C50.1805 136.162 50.1501 138.223 48.9829 139.819C48.2031 140.885 47.1365 141.592 45.9172 141.778C44.697 141.965 43.3455 141.627 42.0014 140.644L34.3717 135.063L44.6713 120.983L52.0733 126.397ZM39.6576 134.592L43.303 137.259C43.8374 137.649 44.3505 137.804 44.8019 137.758C45.25 137.713 45.6651 137.468 46.0043 137.005C46.2973 136.604 46.4225 136.133 46.3466 135.67C46.2707 135.207 45.9913 134.734 45.4432 134.333L41.7978 131.666L39.6576 134.592ZM43.8498 128.861L47.3919 131.452C47.8588 131.793 48.3319 131.916 48.7526 131.863C49.1726 131.81 49.559 131.579 49.8514 131.18C50.1436 130.78 50.25 130.337 50.1765 129.915C50.1028 129.492 49.846 129.074 49.3805 128.734L45.8383 126.143L43.8498 128.861Z" fill="#C3FB4F" stroke="#C3FB4F" stroke-width="0.348601"/>
</svg>
