<svg width="152" height="386" viewBox="0 0 152 386" fill="none" xmlns="http://www.w3.org/2000/svg">
<path fill-rule="evenodd" clip-rule="evenodd" d="M67.9053 5.97836C70.2251 -1.99279 81.5181 -1.99279 83.8379 5.97836L96.374 49.0555C128.068 54.0789 151.279 70.3321 151.279 89.6053C151.279 96.242 148.525 102.519 143.622 108.104C148.526 113.69 151.279 119.967 151.279 126.604C151.279 136.048 145.706 144.766 136.293 151.794V354.695H136.29C136.043 371.788 108.985 385.604 75.6416 385.604C42.2977 385.604 15.2393 371.788 14.9922 354.695H14.9893V151.796C5.57457 144.768 0 136.049 0 126.604C0.000117067 119.968 2.75294 113.689 7.65625 108.104C2.75324 102.519 0.000131844 96.2418 0 89.6053C0 70.2343 23.4476 53.9164 55.3887 48.9823L67.9053 5.97836Z" fill="#0053FF"/>
<rect x="41.4824" y="202.891" width="69.3906" height="69.3906" rx="7.54246" fill="white"/>
<rect x="41.4824" y="202.891" width="34.6953" height="34.6953" fill="#312783"/>
<rect x="76.1777" y="237.586" width="34.6953" height="34.6953" fill="#312783"/>
<mask id="path-5-outside-1_414_50685" maskUnits="userSpaceOnUse" x="9.14844" y="125.943" width="131" height="31" fill="black">
<rect fill="white" x="9.14844" y="125.943" width="131" height="31"/>
<path d="M76.4375 153.933C106.393 153.558 131.242 143.029 137.418 129.053H136.589C133.959 134.724 128.089 139.884 119.782 143.989C108.305 149.66 92.3961 153.189 74.7832 153.189C57.1701 153.189 41.2604 149.66 29.7832 143.989C21.4762 139.885 15.6073 134.724 12.9775 129.053H12.1484C18.4377 143.286 44.0917 153.943 74.7832 153.943L76.4375 153.933Z"/>
</mask>
<path d="M76.4375 153.933C106.393 153.558 131.242 143.029 137.418 129.053H136.589C133.959 134.724 128.089 139.884 119.782 143.989C108.305 149.66 92.3961 153.189 74.7832 153.189C57.1701 153.189 41.2604 149.66 29.7832 143.989C21.4762 139.885 15.6073 134.724 12.9775 129.053H12.1484C18.4377 143.286 44.0917 153.943 74.7832 153.943L76.4375 153.933Z" fill="#312783"/>
<path d="M76.4375 153.933L76.4658 156.195L76.4522 156.195L76.4375 153.933ZM137.418 129.053V126.79C138.183 126.79 138.896 127.177 139.314 127.818C139.732 128.459 139.797 129.267 139.488 129.967L137.418 129.053ZM136.589 129.053L134.536 128.101C134.907 127.301 135.708 126.79 136.589 126.79V129.053ZM119.782 143.989L120.785 146.018L120.785 146.018L119.782 143.989ZM74.7832 153.189L74.7832 155.452H74.7832L74.7832 153.189ZM29.7832 143.989L28.7808 146.018L28.7808 146.018L29.7832 143.989ZM12.9775 129.053V126.79C13.8587 126.79 14.6596 127.301 15.0303 128.101L12.9775 129.053ZM12.1484 129.053L10.0787 129.967C9.76952 129.267 9.83488 128.459 10.2525 127.818C10.6701 127.177 11.3833 126.79 12.1484 126.79V129.053ZM74.7832 153.943L74.7979 156.206C74.793 156.206 74.7881 156.206 74.7832 156.206L74.7832 153.943ZM76.4375 153.933L76.4092 151.67C91.147 151.486 104.558 148.802 114.982 144.502C125.487 140.168 132.605 134.347 135.348 128.138L137.418 129.053L139.488 129.967C136.055 137.735 127.66 144.167 116.708 148.685C105.675 153.237 91.6836 156.005 76.4658 156.195L76.4375 153.933ZM137.418 129.053V131.315H136.589V129.053V126.79H137.418V129.053ZM136.589 129.053L138.642 130.005C135.707 136.333 129.325 141.798 120.785 146.018L119.782 143.989L118.78 141.961C126.854 137.971 132.211 133.115 134.536 128.101L136.589 129.053ZM119.782 143.989L120.785 146.018C108.934 151.873 92.6675 155.452 74.7832 155.452L74.7832 153.189L74.7832 150.927C92.1247 150.927 107.676 147.447 118.78 141.961L119.782 143.989ZM74.7832 153.189L74.7832 155.452C56.8987 155.452 40.6316 151.874 28.7808 146.018L29.7832 143.989L30.7856 141.961C41.8892 147.447 57.4415 150.927 74.7832 150.927L74.7832 153.189ZM29.7832 143.989L28.7808 146.018C20.2404 141.798 13.8591 136.333 10.9248 130.005L12.9775 129.053L15.0303 128.101C17.3555 133.115 22.7119 137.971 30.7856 141.961L29.7832 143.989ZM12.9775 129.053V131.315H12.1484V129.053V126.79H12.9775V129.053ZM12.1484 129.053L14.2181 128.138C17.0129 134.463 24.3458 140.382 35.1601 144.737C45.8887 149.056 59.682 151.681 74.7832 151.681L74.7832 153.943L74.7832 156.206C59.1929 156.206 44.8134 153.502 33.4699 148.934C22.212 144.402 13.5733 137.876 10.0787 129.967L12.1484 129.053ZM74.7832 153.943L74.7685 151.681L76.4228 151.67L76.4375 153.933L76.4522 156.195L74.7979 156.206L74.7832 153.943Z" fill="#312783" mask="url(#path-5-outside-1_414_50685)"/>
<path d="M66.0742 112.461L90.208 153.19L40.8818 147.911L21.9521 142.563C15.825 138.313 11.6829 133.322 10.1855 127.918L32.1328 107.559L66.0742 112.461Z" fill="#312783"/>
<path d="M37.4113 117.739L69.8447 120.002L78.8954 129.43L51.0993 128.057C49.3225 127.97 47.6338 127.257 46.3318 126.044L37.4113 117.739Z" fill="#0053FF"/>
<mask id="path-9-outside-2_414_50685" maskUnits="userSpaceOnUse" x="8.39258" y="89.7422" width="131" height="31" fill="black">
<rect fill="white" x="8.39258" y="89.7422" width="131" height="31"/>
<path d="M75.6816 117.731C105.637 117.356 130.485 106.828 136.661 92.8516H135.832C133.202 98.5227 127.333 103.683 119.026 107.788C107.549 113.459 91.6404 116.988 74.0273 116.988C56.4141 116.988 40.5046 113.459 29.0273 107.788C20.7203 103.683 14.8515 98.5226 12.2217 92.8516H11.3926C17.682 107.085 43.3358 117.742 74.0273 117.742L75.6816 117.731Z"/>
</mask>
<path d="M75.6816 117.731C105.637 117.356 130.485 106.828 136.661 92.8516H135.832C133.202 98.5227 127.333 103.683 119.026 107.788C107.549 113.459 91.6404 116.988 74.0273 116.988C56.4141 116.988 40.5046 113.459 29.0273 107.788C20.7203 103.683 14.8515 98.5226 12.2217 92.8516H11.3926C17.682 107.085 43.3358 117.742 74.0273 117.742L75.6816 117.731Z" fill="#312783"/>
<path d="M75.6816 117.731L75.71 119.994L75.6963 119.994L75.6816 117.731ZM136.661 92.8516V90.5888C137.426 90.5888 138.14 90.9755 138.557 91.6165C138.975 92.2576 139.04 93.0663 138.731 93.7661L136.661 92.8516ZM135.832 92.8516L133.779 91.8996C134.15 91.1003 134.951 90.5888 135.832 90.5888V92.8516ZM119.026 107.788L120.029 109.817L120.029 109.817L119.026 107.788ZM74.0273 116.988L74.0274 119.251H74.0273V116.988ZM29.0273 107.788L28.025 109.817L28.025 109.817L29.0273 107.788ZM12.2217 92.8516V90.5888C13.1028 90.5888 13.9038 91.1003 14.2744 91.8996L12.2217 92.8516ZM11.3926 92.8516L9.3229 93.7661C9.01366 93.0663 9.07901 92.2576 9.49661 91.6165C9.91421 90.9755 10.6275 90.5888 11.3926 90.5888V92.8516ZM74.0273 117.742L74.042 120.005C74.0371 120.005 74.0322 120.005 74.0273 120.005V117.742ZM75.6816 117.731L75.6533 115.469C90.391 115.284 103.802 112.601 114.226 108.3C124.731 103.967 131.848 98.1457 134.591 91.937L136.661 92.8516L138.731 93.7661C135.298 101.534 126.904 107.966 115.952 112.484C104.918 117.036 90.9276 119.804 75.71 119.994L75.6816 117.731ZM136.661 92.8516V95.1143H135.832V92.8516V90.5888H136.661V92.8516ZM135.832 92.8516L137.885 93.8035C134.95 100.131 128.569 105.597 120.029 109.817L119.026 107.788L118.024 105.759C126.098 101.77 131.454 96.9139 133.779 91.8996L135.832 92.8516ZM119.026 107.788L120.029 109.817C108.178 115.672 91.9118 119.251 74.0274 119.251L74.0273 116.988L74.0273 114.726C91.369 114.725 106.92 111.246 118.024 105.759L119.026 107.788ZM74.0273 116.988V119.251C56.1427 119.251 39.8758 115.672 28.025 109.817L29.0273 107.788L30.0297 105.759C41.1334 111.246 56.6855 114.726 74.0273 114.726V116.988ZM29.0273 107.788L28.025 109.817C19.4845 105.597 13.1034 100.131 10.1689 93.8035L12.2217 92.8516L14.2744 91.8996C16.5997 96.9139 21.9561 101.77 30.0297 105.759L29.0273 107.788ZM12.2217 92.8516V95.1143H11.3926V92.8516V90.5888H12.2217V92.8516ZM11.3926 92.8516L13.4623 91.937C16.2571 98.2618 23.59 104.181 34.4043 108.535C45.1329 112.855 58.9261 115.479 74.0273 115.479V117.742V120.005C58.437 120.005 44.0576 117.301 32.7141 112.733C21.4562 108.201 12.8175 101.675 9.3229 93.7661L11.3926 92.8516ZM74.0273 117.742L74.0126 115.479L75.6669 115.469L75.6816 117.731L75.6963 119.994L74.042 120.005L74.0273 117.742Z" fill="#312783" mask="url(#path-9-outside-2_414_50685)"/>
<path d="M84.9277 81.5366L98.5039 115.477L50.0918 118.705C27.337 114.16 10.7651 103.693 8.29688 91.1938L52.4951 67.2056L84.9277 81.5366Z" fill="#312783"/>
<path d="M54.6864 81.9474L86.4386 82.2903L96.5414 92.2318L68.7148 91.7979C66.936 91.7701 65.2243 91.1145 63.8821 89.9469L54.6864 81.9474Z" fill="#0053FF"/>
<mask id="path-13-outside-3_414_50685" maskUnits="userSpaceOnUse" x="51.3809" y="66.7817" width="53" height="17" fill="black">
<rect fill="white" x="51.3809" y="66.7817" width="53" height="17"/>
<path d="M77.9785 80.7817C89.5646 80.7817 99.242 75.9337 101.576 69.4683H100.77C99.805 71.9022 97.6902 74.1369 94.6602 75.936C90.4278 78.4489 84.5315 80.0278 77.9785 80.0278C71.4255 80.0278 65.5292 78.449 61.2969 75.936C58.2669 74.1369 56.152 71.9022 55.1875 69.4683H54.3809C56.7149 75.9337 66.3925 80.7816 77.9785 80.7817Z"/>
</mask>
<path d="M77.9785 80.7817C89.5646 80.7817 99.242 75.9337 101.576 69.4683H100.77C99.805 71.9022 97.6902 74.1369 94.6602 75.936C90.4278 78.4489 84.5315 80.0278 77.9785 80.0278C71.4255 80.0278 65.5292 78.449 61.2969 75.936C58.2669 74.1369 56.152 71.9022 55.1875 69.4683H54.3809C56.7149 75.9337 66.3925 80.7816 77.9785 80.7817Z" fill="#312783"/>
<path d="M77.9785 80.7817V83.0445H77.9785L77.9785 80.7817ZM101.576 69.4683V67.2055C102.313 67.2055 103.004 67.5647 103.428 68.168C103.852 68.7713 103.955 69.5432 103.704 70.2366L101.576 69.4683ZM100.77 69.4683L98.666 68.6346C99.0078 67.772 99.8416 67.2055 100.77 67.2055V69.4683ZM94.6602 75.936L95.8154 77.8817L95.8153 77.8817L94.6602 75.936ZM77.9785 80.0278V82.2906H77.9785L77.9785 80.0278ZM61.2969 75.936L60.1417 77.8817L60.1416 77.8816L61.2969 75.936ZM55.1875 69.4683V67.2055C56.1154 67.2055 56.9493 67.772 57.2911 68.6347L55.1875 69.4683ZM54.3809 69.4683L52.2526 70.2366C52.0022 69.5432 52.1054 68.7713 52.529 68.168C52.9527 67.5647 53.6437 67.2055 54.3809 67.2055V69.4683ZM77.9785 80.7817V78.519C83.4719 78.519 88.4433 77.3671 92.2583 75.5142C96.116 73.6405 98.5534 71.1775 99.4479 68.6999L101.576 69.4683L103.704 70.2366C102.265 74.2245 98.6964 77.4182 94.2354 79.5849C89.7317 81.7723 84.0713 83.0445 77.9785 83.0445V80.7817ZM101.576 69.4683V71.731H100.77V69.4683V67.2055H101.576V69.4683ZM100.77 69.4683L102.873 70.3019C101.669 73.341 99.1257 75.9162 95.8154 77.8817L94.6602 75.936L93.5049 73.9904C96.2548 72.3577 97.9412 70.4634 98.666 68.6346L100.77 69.4683ZM94.6602 75.936L95.8153 77.8817C91.177 80.6356 84.8671 82.2906 77.9785 82.2906V80.0278V77.7651C84.196 77.7651 89.6786 76.2623 93.505 73.9904L94.6602 75.936ZM77.9785 80.0278L77.9785 82.2906C71.09 82.2905 64.78 80.6357 60.1417 77.8817L61.2969 75.936L62.4521 73.9904C66.2784 76.2623 71.7611 77.765 77.9785 77.7651L77.9785 80.0278ZM61.2969 75.936L60.1416 77.8816C56.8315 75.9162 54.2882 73.341 53.0839 70.3019L55.1875 69.4683L57.2911 68.6347C58.0158 70.4634 59.7023 72.3577 62.4521 73.9904L61.2969 75.936ZM55.1875 69.4683V71.731H54.3809V69.4683V67.2055H55.1875V69.4683ZM54.3809 69.4683L56.5092 68.6999C57.4035 71.1775 59.841 73.6405 63.6987 75.5141C67.5138 77.367 72.4852 78.519 77.9785 78.519L77.9785 80.7817L77.9785 83.0445C71.8858 83.0444 66.2254 81.7723 61.7216 79.5849C57.2606 77.4182 53.6922 74.2245 52.2526 70.2366L54.3809 69.4683Z" fill="#312783" mask="url(#path-13-outside-3_414_50685)"/>
<path fill-rule="evenodd" clip-rule="evenodd" d="M77.3381 77.8376L60.1124 76.9683C54.7498 76.6976 51.0529 71.4813 52.5739 66.3318L69.9751 7.41772C70.7154 4.9111 72.3639 3.18602 74.3427 2.26316L77.3381 77.8376Z" fill="#312783"/>
</svg>
