<svg width="152" height="386" viewBox="0 0 152 386" fill="none" xmlns="http://www.w3.org/2000/svg">
<path fill-rule="evenodd" clip-rule="evenodd" d="M67.9082 5.97836C70.228 -1.99279 81.521 -1.99279 83.8408 5.97836L96.3779 49.0565C128.07 54.0807 151.279 70.333 151.279 89.6053C151.279 96.2419 148.525 102.519 143.622 108.104C148.526 113.69 151.279 119.968 151.279 126.604C151.279 136.048 145.706 144.766 136.293 151.794V354.695H136.29C136.045 371.789 108.986 385.607 75.6406 385.607C42.2955 385.607 15.2362 371.789 14.9912 354.695H14.9883V151.796C5.57379 144.768 0 136.049 0 126.604C0.000117071 119.968 2.75281 113.689 7.65625 108.104C2.75311 102.519 0.000131849 96.2419 0 89.6053C0 70.2334 23.4492 53.9146 55.3926 48.9813L67.9082 5.97836Z" fill="#B8FE25"/>
<rect x="41.4844" y="202.891" width="67.8821" height="66.3736" rx="7.54246" fill="#312783"/>
<mask id="mask0_414_50686" style="mask-type:alpha" maskUnits="userSpaceOnUse" x="41" y="202" width="69" height="68">
<rect x="41.4863" y="202.891" width="67.8821" height="66.3736" rx="7.54246" fill="#312783"/>
</mask>
<g mask="url(#mask0_414_50686)">
<path d="M98.0521 161.408L98.0521 292.956L112.383 307.731" stroke="white" stroke-width="7.0358" stroke-dasharray="23.45 14.66"/>
<path d="M54.0148 139.535L54.0147 270.865L68.7656 285.616" stroke="white" stroke-width="7.0358" stroke-dasharray="23.45 14.66"/>
<path d="M76.1808 212.696L76.1808 344.027L90.9316 358.777" stroke="white" stroke-width="7.0358" stroke-dasharray="23.45 14.66"/>
</g>
<ellipse cx="69.7664" cy="95.7893" rx="49.4031" ry="21.1189" fill="#B7FE25"/>
<mask id="path-8-outside-1_414_50686" maskUnits="userSpaceOnUse" x="9.82227" y="125.865" width="131" height="31" fill="black">
<rect fill="white" x="9.82227" y="125.865" width="131" height="31"/>
<path d="M77.1133 153.854C107.069 153.479 131.917 142.951 138.093 128.974H137.264C134.634 134.645 128.765 139.806 120.458 143.911C108.981 149.582 93.072 153.111 75.459 153.111C57.8458 153.111 41.9363 149.582 30.459 143.911C22.1516 139.806 16.282 134.645 13.6523 128.974H12.8223C19.1109 143.208 44.7667 153.865 75.459 153.865L77.1133 153.854Z"/>
</mask>
<path d="M77.1133 153.854C107.069 153.479 131.917 142.951 138.093 128.974H137.264C134.634 134.645 128.765 139.806 120.458 143.911C108.981 149.582 93.072 153.111 75.459 153.111C57.8458 153.111 41.9363 149.582 30.459 143.911C22.1516 139.806 16.282 134.645 13.6523 128.974H12.8223C19.1109 143.208 44.7667 153.865 75.459 153.865L77.1133 153.854Z" fill="#312783"/>
<path d="M77.1133 153.854L77.1416 156.117L77.128 156.117L77.1133 153.854ZM138.093 128.974V126.711C138.858 126.711 139.571 127.098 139.989 127.739C140.406 128.38 140.472 129.189 140.162 129.889L138.093 128.974ZM137.264 128.974L135.211 128.022C135.582 127.223 136.383 126.711 137.264 126.711V128.974ZM120.458 143.911L121.46 145.939L121.46 145.939L120.458 143.911ZM75.459 153.111L75.459 155.374H75.459V153.111ZM30.459 143.911L29.4566 145.939L29.4566 145.939L30.459 143.911ZM13.6523 128.974V126.711C14.5335 126.711 15.3345 127.223 15.7051 128.022L13.6523 128.974ZM12.8223 128.974L10.7525 129.889C10.4433 129.189 10.5087 128.38 10.9263 127.739C11.3439 127.098 12.0572 126.711 12.8223 126.711L12.8223 128.974ZM75.459 153.865L75.4737 156.127C75.4688 156.127 75.4639 156.127 75.459 156.127V153.865ZM77.1133 153.854L77.085 151.591C91.8228 151.407 105.234 148.723 115.658 144.423C126.162 140.089 133.28 134.268 136.023 128.06L138.093 128.974L140.162 129.889C136.73 137.657 128.336 144.088 117.383 148.606C106.35 153.158 92.3594 155.926 77.1416 156.117L77.1133 153.854ZM138.093 128.974V131.237H137.264V128.974V126.711H138.093V128.974ZM137.264 128.974L139.316 129.926C136.382 136.254 130.001 141.719 121.46 145.939L120.458 143.911L119.456 141.882C127.529 137.893 132.886 133.037 135.211 128.022L137.264 128.974ZM120.458 143.911L121.46 145.939C109.61 151.795 93.3434 155.373 75.459 155.374L75.459 153.111L75.459 150.848C92.8006 150.848 108.352 147.369 119.456 141.882L120.458 143.911ZM75.459 153.111V155.374C57.5744 155.374 41.3074 151.795 29.4566 145.939L30.459 143.911L31.4614 141.882C42.5651 147.369 58.1172 150.848 75.459 150.848V153.111ZM30.459 143.911L29.4566 145.939C20.916 141.719 14.5339 136.254 11.5995 129.926L13.6523 128.974L15.7051 128.022C18.0302 133.037 23.3872 137.892 31.4614 141.882L30.459 143.911ZM13.6523 128.974V131.237H12.8223V128.974V126.711H13.6523V128.974ZM12.8223 128.974L14.892 128.06C17.6864 134.385 25.0195 140.304 35.8344 144.658C46.5634 148.978 60.3574 151.602 75.459 151.602V153.865V156.127C59.8683 156.127 45.4882 153.423 34.1442 148.856C22.8859 144.323 14.2468 137.797 10.7525 129.889L12.8223 128.974ZM75.459 153.865L75.4443 151.602L77.0986 151.591L77.1133 153.854L77.128 156.117L75.4737 156.127L75.459 153.865Z" fill="#312783" mask="url(#path-8-outside-1_414_50686)"/>
<path d="M66.75 112.383L90.8848 153.112L41.5576 147.833L22.6299 142.486C16.5022 138.235 12.3589 133.245 10.8613 127.84L32.8086 107.48L66.75 112.383Z" fill="#312783"/>
<path d="M38.0871 117.661L70.5204 119.924L79.5712 129.352L51.7751 127.98C49.9983 127.892 48.3096 127.179 47.0076 125.967L38.0871 117.661Z" fill="#B7FE25"/>
<mask id="path-12-outside-2_414_50686" maskUnits="userSpaceOnUse" x="9.06641" y="89.6636" width="131" height="31" fill="black">
<rect fill="white" x="9.06641" y="89.6636" width="131" height="31"/>
<path d="M76.3564 117.653C106.312 117.278 131.161 106.75 137.337 92.7729H136.508C133.878 98.4443 128.009 103.605 119.701 107.709C108.224 113.38 92.3151 116.91 74.7021 116.91C57.089 116.91 41.1794 113.381 29.7021 107.709C21.3951 103.605 15.5262 98.4441 12.8965 92.7729H12.0664C18.3552 107.007 44.0102 117.663 74.7021 117.664L76.3564 117.653Z"/>
</mask>
<path d="M76.3564 117.653C106.312 117.278 131.161 106.75 137.337 92.7729H136.508C133.878 98.4443 128.009 103.605 119.701 107.709C108.224 113.38 92.3151 116.91 74.7021 116.91C57.089 116.91 41.1794 113.381 29.7021 107.709C21.3951 103.605 15.5262 98.4441 12.8965 92.7729H12.0664C18.3552 107.007 44.0102 117.663 74.7021 117.664L76.3564 117.653Z" fill="#312783"/>
<path d="M76.3564 117.653L76.3848 119.915L76.3711 119.916L76.3564 117.653ZM137.337 92.7729V90.5102C138.102 90.5102 138.815 90.8968 139.233 91.5379C139.65 92.1789 139.716 92.9876 139.407 93.6874L137.337 92.7729ZM136.508 92.7729L134.455 91.8211C134.826 91.0217 135.627 90.5102 136.508 90.5102V92.7729ZM119.701 107.709L120.704 109.738L120.704 109.738L119.701 107.709ZM74.7021 116.91L74.7022 119.172H74.7021L74.7021 116.91ZM29.7021 107.709L28.6998 109.738L28.6998 109.738L29.7021 107.709ZM12.8965 92.7729V90.5102C13.7776 90.5102 14.5786 91.0217 14.9493 91.8211L12.8965 92.7729ZM12.0664 92.7729L9.99668 93.6874C9.68749 92.9876 9.75287 92.1789 10.1705 91.5379C10.5881 90.8968 11.3013 90.5102 12.0664 90.5102V92.7729ZM74.7021 117.664L74.7168 119.926C74.7119 119.926 74.707 119.926 74.7021 119.926L74.7021 117.664ZM76.3564 117.653L76.3281 115.39C91.0661 115.206 104.477 112.522 114.901 108.222C125.406 103.888 132.524 98.0672 135.267 91.8585L137.337 92.7729L139.407 93.6874C135.974 101.456 127.579 107.887 116.627 112.405C105.594 116.957 91.6026 119.725 76.3848 119.915L76.3564 117.653ZM137.337 92.7729V95.0357H136.508V92.7729V90.5102H137.337V92.7729ZM136.508 92.7729L138.561 93.7248C135.626 100.053 129.244 105.518 120.704 109.738L119.701 107.709L118.699 105.681C126.773 101.691 132.13 96.8354 134.455 91.8211L136.508 92.7729ZM119.701 107.709L120.704 109.738C108.853 115.594 92.5866 119.172 74.7022 119.172L74.7021 116.91L74.7021 114.647C92.0437 114.647 107.595 111.167 118.699 105.681L119.701 107.709ZM74.7021 116.91L74.7021 119.172C56.8176 119.172 40.5505 115.594 28.6998 109.738L29.7021 107.709L30.7045 105.681C41.8082 111.167 57.3604 114.647 74.7022 114.647L74.7021 116.91ZM29.7021 107.709L28.6998 109.738C20.1593 105.518 13.778 100.053 10.8437 93.7248L12.8965 92.7729L14.9493 91.8211C17.2744 96.8353 22.6308 101.691 30.7045 105.681L29.7021 107.709ZM12.8965 92.7729V95.0357H12.0664V92.7729V90.5102H12.8965V92.7729ZM12.0664 92.7729L14.1361 91.8585C16.9306 98.1834 24.2636 104.103 35.0782 108.457C45.8071 112.776 59.6007 115.401 74.7022 115.401L74.7021 117.664L74.7021 119.926C59.1116 119.926 44.7318 117.222 33.388 112.655C22.1299 108.122 13.491 101.596 9.99668 93.6874L12.0664 92.7729ZM74.7021 117.664L74.6875 115.401L76.3418 115.39L76.3564 117.653L76.3711 119.916L74.7168 119.926L74.7021 117.664Z" fill="#312783" mask="url(#path-12-outside-2_414_50686)"/>
<path d="M85.6035 81.46L99.1797 115.401L50.7734 118.627C28.0168 114.084 11.4421 103.617 8.97266 91.1172L53.1709 67.1289L85.6035 81.46Z" fill="#312783"/>
<path d="M55.3622 81.8698L87.1144 82.2126L97.2172 92.1541L69.3906 91.7202C67.6118 91.6925 65.9001 91.0369 64.5579 89.8693L55.3622 81.8698Z" fill="#B7FE25"/>
<mask id="path-16-outside-3_414_50686" maskUnits="userSpaceOnUse" x="52.0566" y="66.7041" width="53" height="17" fill="black">
<rect fill="white" x="52.0566" y="66.7041" width="53" height="17"/>
<path d="M78.6553 80.7041C90.241 80.704 99.9186 75.8558 102.253 69.3906H101.446C100.482 71.8244 98.3668 74.0594 95.3369 75.8584C91.1046 78.3713 85.2082 79.9501 78.6553 79.9502C72.1024 79.9502 66.206 78.3712 61.9736 75.8584C58.9437 74.0593 56.8279 71.8245 55.8633 69.3906H55.0566C57.3909 75.8559 67.0693 80.7041 78.6553 80.7041Z"/>
</mask>
<path d="M78.6553 80.7041C90.241 80.704 99.9186 75.8558 102.253 69.3906H101.446C100.482 71.8244 98.3668 74.0594 95.3369 75.8584C91.1046 78.3713 85.2082 79.9501 78.6553 79.9502C72.1024 79.9502 66.206 78.3712 61.9736 75.8584C58.9437 74.0593 56.8279 71.8245 55.8633 69.3906H55.0566C57.3909 75.8559 67.0693 80.7041 78.6553 80.7041Z" fill="#312783"/>
<path d="M78.6553 80.7041L78.6553 82.9668H78.6553L78.6553 80.7041ZM102.253 69.3906V67.1279C102.99 67.1279 103.681 67.487 104.105 68.0904C104.528 68.6937 104.632 69.4656 104.381 70.159L102.253 69.3906ZM101.446 69.3906L99.3427 68.5569C99.6846 67.6943 100.518 67.1279 101.446 67.1279V69.3906ZM95.3369 75.8584L96.4921 77.804L96.4921 77.804L95.3369 75.8584ZM78.6553 79.9502L78.6553 82.2129H78.6553L78.6553 79.9502ZM61.9736 75.8584L60.8185 77.8041L60.8184 77.804L61.9736 75.8584ZM55.8633 69.3906V67.1279C56.7911 67.1279 57.625 67.6943 57.9668 68.5569L55.8633 69.3906ZM55.0566 69.3906L52.9284 70.159C52.678 69.4656 52.7812 68.6937 53.2048 68.0904C53.6284 67.487 54.3194 67.1279 55.0566 67.1279V69.3906ZM78.6553 80.7041L78.6553 78.4414C84.1484 78.4413 89.1198 77.2894 92.9348 75.4364C96.7926 73.5627 99.2302 71.0997 100.125 68.6222L102.253 69.3906L104.381 70.159C102.941 74.1468 99.373 77.3404 94.912 79.5071C90.4082 81.6946 84.7479 82.9668 78.6553 82.9668L78.6553 80.7041ZM102.253 69.3906V71.6534H101.446V69.3906V67.1279H102.253V69.3906ZM101.446 69.3906L103.55 70.2243C102.345 73.2632 99.8023 75.8386 96.4921 77.804L95.3369 75.8584L94.1817 73.9128C96.9313 72.2802 98.618 70.3856 99.3427 68.5569L101.446 69.3906ZM95.3369 75.8584L96.4921 77.804C91.8538 80.558 85.5437 82.2129 78.6553 82.2129L78.6553 79.9502L78.6553 77.6875C84.8726 77.6874 90.3554 76.1846 94.1817 73.9128L95.3369 75.8584ZM78.6553 79.9502L78.6553 82.2129C71.7669 82.2129 65.4567 80.5579 60.8185 77.8041L61.9736 75.8584L63.1288 73.9127C66.9552 76.1845 72.438 77.6874 78.6553 77.6875L78.6553 79.9502ZM61.9736 75.8584L60.8184 77.804C57.5085 75.8388 54.9642 73.2635 53.7597 70.2243L55.8633 69.3906L57.9668 68.5569C58.6915 70.3854 60.3788 72.2799 63.1289 73.9128L61.9736 75.8584ZM55.8633 69.3906V71.6534H55.0566V69.3906V67.1279H55.8633V69.3906ZM55.0566 69.3906L57.1849 68.6222C58.0794 71.0997 60.5171 73.5627 64.3751 75.4364C68.1904 77.2894 73.162 78.4413 78.6553 78.4414L78.6553 80.7041L78.6553 82.9668C72.5626 82.9668 66.902 81.6947 62.3981 79.5072C57.9368 77.3405 54.3682 74.1469 52.9284 70.159L55.0566 69.3906Z" fill="#312783" mask="url(#path-16-outside-3_414_50686)"/>
<path fill-rule="evenodd" clip-rule="evenodd" d="M78.009 77.761L60.7843 76.8917C55.4216 76.6209 51.7248 71.4046 53.2458 66.2551L70.6469 7.34106C71.3873 4.83467 73.035 3.10943 75.0136 2.18654L78.009 77.761Z" fill="#312783"/>
</svg>
