<svg width="214" height="110" viewBox="0 0 214 110" fill="none" xmlns="http://www.w3.org/2000/svg">
<rect width="213.423" height="109.083" rx="14.821" fill="white"/>
<path d="M108.599 0C108.502 6.09315 107.375 74.3645 105.44 79.5645C103.415 85.0073 100.251 86.0198 96.3271 86.7793C92.4031 87.5388 68.3524 88.524 66.3271 86.1465C64.3021 83.7688 64.3026 78.8357 69.4921 75.2607C74.682 71.6858 86.2003 74.248 91.8964 70.3242C97.0982 66.7408 96.0698 9.84736 95.8525 0H108.599ZM132.403 0C132.412 9.81908 132.618 66.3954 136.2 69.6914C140.124 73.3012 154.301 73.1088 157.339 74.8809C160.377 76.653 166.2 81.8435 162.402 84.7549C158.605 87.6662 134.048 87.2857 130.124 86.1465C126.2 85.0073 123.541 83.362 122.655 78.2988C121.809 73.4626 119.463 6.05375 119.254 0H132.403ZM154.38 0C156.507 8.87169 160.521 25.1139 163.288 33.2363C167.212 44.755 172.022 46.021 177.465 49.8184C182.907 53.6156 182.781 59.3112 179.617 61.5898C176.453 63.8683 172.908 61.5898 172.908 61.5898C175.693 64.7122 177.212 66.9071 177.465 70.8311C177.718 74.755 172.528 80.3235 165.06 75.8936C157.623 71.4818 159.6 66.1916 159.617 66.1475C157.845 68.2993 152.139 70.957 148.984 64.1221C145.83 57.2868 151.769 41.3375 151.263 33.2363C150.795 25.7581 144.18 3.39503 143.165 0H154.38ZM84.3827 0C83.046 13.0542 77.9047 27.6121 71.7704 34.1221C65.5681 40.7042 53.7963 50.0713 43.037 52.0967C32.2777 54.122 25.0619 51.7165 24.5556 45.6406C24.1166 40.3693 28.9187 39.9571 30.1972 39.9404C29.0566 39.8848 25.1729 39.3165 25.8222 34.1221C26.5819 28.0466 34.429 30.7046 33.5429 30.1982C32.6572 29.689 33.2912 12.2242 43.037 12.0977C52.783 11.9714 44.176 24.3753 44.1757 28.1729C44.1757 31.9702 45.6948 34.122 50.1249 34.1221C54.5552 34.1221 63.6688 28.4261 67.9726 17.2871C70.358 11.1131 72.4718 4.58928 73.8818 0H84.3827Z" fill="#0053FF"/>
</svg>
