<svg width="214" height="110" viewBox="0 0 214 110" fill="none" xmlns="http://www.w3.org/2000/svg">
<rect y="0.681641" width="213.423" height="109.083" rx="14.821" fill="white"/>
<mask id="path-2-outside-1_320_36962" maskUnits="userSpaceOnUse" x="18.168" y="-0.318359" width="179" height="90" fill="black">
<rect fill="white" x="18.168" y="-0.318359" width="179" height="90"/>
<path d="M124.945 0.681641C124.945 7.72893 125.047 67.3323 128.597 70.709C130.863 72.8628 136.681 73.6552 141.603 74.3252C144.881 74.7714 147.761 75.1631 148.929 75.8672C151.851 77.6286 157.451 82.787 153.799 85.6807C150.146 88.5742 126.529 88.1976 122.754 87.0654C118.98 85.9331 116.422 84.2971 115.57 79.2646C114.718 74.2321 112.283 1.00879 112.283 1.00879H102.056C102.056 1.00879 100.96 75.1109 99.0125 80.5225C97.0645 85.9324 94.021 86.9395 90.2469 87.6943C86.4727 88.4492 63.3409 89.4284 61.3924 87.0654C59.4444 84.7024 59.4447 79.7986 64.4363 76.2451C66.8741 74.5097 70.7639 74.2293 74.7439 73.9424C78.9136 73.6418 83.1831 73.3343 85.9861 71.3389C91.141 67.6685 89.9345 7.74786 89.7742 0.681641H124.945ZM38.0154 0.681641C35.2713 5.76139 33.6147 10.0525 34.4842 11.9482C37.384 18.2688 81.3613 22.0092 84.9656 22.9062C88.5692 23.8033 88.9646 32.6934 88.9646 32.6934L88.9676 47.2695C88.9712 47.3365 89.3911 55.3313 84.9656 55.1973C80.5216 55.0625 80.7557 45.9648 80.7557 45.9648C80.7557 45.9648 79.2379 50.1678 75.6697 47.4287C72.1022 44.6893 81.3064 33.1924 81.3064 33.1924C81.3064 33.1924 22.9106 29.657 19.4539 19.7178C18.2194 16.168 21.1282 8.75108 25.3777 0.681641H38.0154ZM190.103 0.681641C194.281 8.65331 197.117 15.9529 195.895 19.4658C192.439 29.405 134.043 32.9414 134.043 32.9414C134.065 32.9689 143.243 44.4419 139.679 47.1777C136.13 49.9021 134.609 45.7574 134.594 45.7139C134.595 45.7865 134.81 54.8112 130.384 54.9453C125.952 55.0795 126.379 47.0633 126.382 47.0176L126.385 32.4414C126.385 32.4414 126.78 23.5514 130.384 22.6543C133.987 21.7573 177.965 18.0169 180.865 11.6963C181.72 9.83197 180.133 5.65084 177.47 0.681641H190.103Z"/>
</mask>
<path d="M124.945 0.681641C124.945 7.72893 125.047 67.3323 128.597 70.709C130.863 72.8628 136.681 73.6552 141.603 74.3252C144.881 74.7714 147.761 75.1631 148.929 75.8672C151.851 77.6286 157.451 82.787 153.799 85.6807C150.146 88.5742 126.529 88.1976 122.754 87.0654C118.98 85.9331 116.422 84.2971 115.57 79.2646C114.718 74.2321 112.283 1.00879 112.283 1.00879H102.056C102.056 1.00879 100.96 75.1109 99.0125 80.5225C97.0645 85.9324 94.021 86.9395 90.2469 87.6943C86.4727 88.4492 63.3409 89.4284 61.3924 87.0654C59.4444 84.7024 59.4447 79.7986 64.4363 76.2451C66.8741 74.5097 70.7639 74.2293 74.7439 73.9424C78.9136 73.6418 83.1831 73.3343 85.9861 71.3389C91.141 67.6685 89.9345 7.74786 89.7742 0.681641H124.945ZM38.0154 0.681641C35.2713 5.76139 33.6147 10.0525 34.4842 11.9482C37.384 18.2688 81.3613 22.0092 84.9656 22.9062C88.5692 23.8033 88.9646 32.6934 88.9646 32.6934L88.9676 47.2695C88.9712 47.3365 89.3911 55.3313 84.9656 55.1973C80.5216 55.0625 80.7557 45.9648 80.7557 45.9648C80.7557 45.9648 79.2379 50.1678 75.6697 47.4287C72.1022 44.6893 81.3064 33.1924 81.3064 33.1924C81.3064 33.1924 22.9106 29.657 19.4539 19.7178C18.2194 16.168 21.1282 8.75108 25.3777 0.681641H38.0154ZM190.103 0.681641C194.281 8.65331 197.117 15.9529 195.895 19.4658C192.439 29.405 134.043 32.9414 134.043 32.9414C134.065 32.9689 143.243 44.4419 139.679 47.1777C136.13 49.9021 134.609 45.7574 134.594 45.7139C134.595 45.7865 134.81 54.8112 130.384 54.9453C125.952 55.0795 126.379 47.0633 126.382 47.0176L126.385 32.4414C126.385 32.4414 126.78 23.5514 130.384 22.6543C133.987 21.7573 177.965 18.0169 180.865 11.6963C181.72 9.83197 180.133 5.65084 177.47 0.681641H190.103Z" fill="#0053FF"/>
<path d="M124.945 0.681641L125.626 0.681671L125.626 0.000471056H124.945V0.681641ZM128.597 70.709L128.128 71.2026L128.128 71.2027L128.597 70.709ZM141.603 74.3252L141.511 75.0001H141.511L141.603 74.3252ZM148.929 75.8672L149.281 75.2838V75.2838L148.929 75.8672ZM153.799 85.6807L154.222 86.2146L154.222 86.2146L153.799 85.6807ZM122.754 87.0654L122.558 87.7179L122.558 87.7179L122.754 87.0654ZM115.57 79.2646L114.898 79.3784V79.3784L115.57 79.2646ZM112.283 1.00879L112.964 0.986151L112.942 0.327619H112.283V1.00879ZM102.056 1.00879V0.327619H101.385L101.375 0.998715L102.056 1.00879ZM99.0125 80.5225L99.6534 80.7532L99.6534 80.7532L99.0125 80.5225ZM90.2469 87.6943L90.3805 88.3623V88.3623L90.2469 87.6943ZM61.3924 87.0654L60.8668 87.4987L60.8668 87.4988L61.3924 87.0654ZM64.4363 76.2451L64.0413 75.6902H64.0413L64.4363 76.2451ZM74.7439 73.9424L74.7929 74.6218V74.6218L74.7439 73.9424ZM85.9861 71.3389L86.3812 71.8938L86.3812 71.8938L85.9861 71.3389ZM89.7742 0.681641V0.000471056H89.0774L89.0932 0.697088L89.7742 0.681641ZM38.0154 0.681641L38.6147 1.00539L39.1576 0.000471056H38.0154V0.681641ZM34.4842 11.9482L33.865 12.2322L33.865 12.2323L34.4842 11.9482ZM84.9656 22.9062L85.1302 22.2453L85.1301 22.2452L84.9656 22.9062ZM88.9646 32.6934L89.6458 32.6932V32.6781L89.6451 32.6631L88.9646 32.6934ZM88.9676 47.2695L88.2864 47.2697L88.2864 47.2879L88.2874 47.306L88.9676 47.2695ZM84.9656 55.1973L84.945 55.8781L84.945 55.8781L84.9656 55.1973ZM80.7556 45.9648L81.4366 45.9824L80.115 45.7335L80.7556 45.9648ZM75.6697 47.4287L75.2549 47.969L75.2549 47.969L75.6697 47.4287ZM81.3064 33.1924L81.8382 33.6181L82.6597 32.5919L81.3476 32.5125L81.3064 33.1924ZM19.4539 19.7178L18.8105 19.9415L18.8105 19.9415L19.4539 19.7178ZM25.3777 0.681641V0.000471056H24.9666L24.775 0.364243L25.3777 0.681641ZM190.103 0.681641L190.707 0.365467L190.515 0.000471056H190.103V0.681641ZM195.895 19.4658L196.539 19.6896L196.539 19.6895L195.895 19.4658ZM134.043 32.9414L134.002 32.2615L132.69 32.3409L133.511 33.367L134.043 32.9414ZM139.679 47.1777L140.094 47.7181L140.094 47.7181L139.679 47.1777ZM134.594 45.7139L135.234 45.4809L133.913 45.7307L134.594 45.7139ZM130.384 54.9453L130.404 55.6262H130.404L130.384 54.9453ZM126.382 47.0176L127.062 47.0543L127.063 47.036L127.063 47.0177L126.382 47.0176ZM126.385 32.4414L125.704 32.4111L125.703 32.4262L125.703 32.4413L126.385 32.4414ZM130.384 22.6543L130.219 21.9933H130.219L130.384 22.6543ZM180.865 11.6963L181.484 11.9803L181.484 11.9802L180.865 11.6963ZM177.47 0.681641V0.000471056H176.333L176.87 1.00335L177.47 0.681641ZM124.945 0.681641L124.264 0.681611C124.264 4.20693 124.289 20.8775 124.759 37.0915C124.994 45.1969 125.34 53.1986 125.85 59.3897C126.105 62.4833 126.402 65.1398 126.75 67.1365C126.924 68.1335 127.113 68.9832 127.321 69.6475C127.518 70.2748 127.768 70.8598 128.128 71.2026L128.597 70.709L129.067 70.2154C128.983 70.1361 128.816 69.8597 128.621 69.2395C128.438 68.6564 128.261 67.8724 128.092 66.9027C127.755 64.966 127.462 62.3569 127.208 59.2777C126.7 53.1233 126.355 45.1505 126.121 37.0521C125.652 20.8584 125.626 4.20363 125.626 0.681671L124.945 0.681641ZM128.597 70.709L128.128 71.2027C129.406 72.4175 131.592 73.1847 133.949 73.7367C136.339 74.2965 139.058 74.6661 141.511 75.0001L141.603 74.3252L141.695 73.6503C139.227 73.3142 136.575 72.9526 134.26 72.4103C131.911 71.8602 130.054 71.1542 129.067 70.2153L128.597 70.709ZM141.603 74.3252L141.511 75.0001C143.156 75.224 144.676 75.431 145.931 75.6687C147.214 75.9119 148.112 76.1696 148.578 76.4506L148.929 75.8672L149.281 75.2838C148.579 74.8607 147.452 74.5704 146.184 74.3302C144.887 74.0845 143.329 73.8726 141.695 73.6503L141.603 74.3252ZM148.929 75.8672L148.578 76.4506C149.981 77.2963 152.031 78.9661 153.271 80.7397C153.893 81.6286 154.264 82.4774 154.31 83.2165C154.353 83.9063 154.118 84.5582 153.376 85.1468L153.799 85.6807L154.222 86.2146C155.305 85.3563 155.741 84.2783 155.669 83.132C155.601 82.035 155.075 80.9416 154.388 79.959C153.011 77.9896 150.8 76.1995 149.281 75.2838L148.929 75.8672ZM153.799 85.6807L153.376 85.1467C153.035 85.4168 152.382 85.6991 151.397 85.9587C150.434 86.2127 149.23 86.4263 147.852 86.6012C145.099 86.9509 141.713 87.1389 138.31 87.2017C134.909 87.2644 131.505 87.2018 128.72 87.0534C125.901 86.9032 123.801 86.6685 122.949 86.413L122.754 87.0654L122.558 87.7179C123.594 88.0285 125.862 88.2654 128.647 88.4138C131.467 88.5641 134.903 88.6271 138.335 88.5638C141.764 88.5005 145.203 88.3109 148.024 87.9527C149.433 87.7737 150.702 87.5509 151.745 87.276C152.765 87.0068 153.649 86.6679 154.222 86.2146L153.799 85.6807ZM122.754 87.0654L122.949 86.413C121.098 85.8575 119.64 85.2043 118.54 84.1384C117.452 83.0847 116.65 81.5641 116.242 79.1509L115.57 79.2646L114.898 79.3784C115.342 81.9977 116.245 83.8113 117.592 85.1168C118.927 86.4101 120.635 87.141 122.558 87.7179L122.754 87.0654ZM115.57 79.2646L116.242 79.1509C116.143 78.5671 116.013 76.9169 115.864 74.4167C115.716 71.9374 115.551 68.6679 115.377 64.8828C115.029 57.3132 114.645 47.6907 114.288 38.2238C113.93 28.7573 113.599 19.4478 113.358 12.5049C113.237 9.03345 113.138 6.15371 113.07 4.14184C113.036 3.13591 113.009 2.34696 112.991 1.8095C112.982 1.54077 112.975 1.33492 112.971 1.19625C112.968 1.12692 112.967 1.07439 112.966 1.03919C112.965 1.02159 112.965 1.00833 112.964 0.999466C112.964 0.995035 112.964 0.991704 112.964 0.989482C112.964 0.988371 112.964 0.987538 112.964 0.986982C112.964 0.986427 112.964 0.986151 112.283 1.00879C111.602 1.03143 111.602 1.03171 111.602 1.03227C111.602 1.03283 111.602 1.03367 111.602 1.03478C111.602 1.03701 111.603 1.04035 111.603 1.04479C111.603 1.05367 111.603 1.06695 111.604 1.08457C111.605 1.1198 111.607 1.17237 111.609 1.24174C111.614 1.38047 111.621 1.5864 111.63 1.8552C111.648 2.39281 111.674 3.18192 111.709 4.18802C111.777 6.20022 111.875 9.08037 111.996 12.5523C112.238 19.496 112.569 28.8069 112.926 38.2752C113.284 47.7432 113.668 57.3702 114.017 64.9454C114.191 68.7327 114.356 72.0094 114.504 74.4978C114.651 76.9651 114.784 78.7041 114.898 79.3784L115.57 79.2646ZM112.283 1.00879V0.327619H102.056V1.00879V1.68996H112.283V1.00879ZM102.056 1.00879C101.375 0.998715 101.375 0.998989 101.375 0.999545C101.375 1.00011 101.375 1.00094 101.375 1.00206C101.375 1.00431 101.375 1.00767 101.375 1.01215C101.375 1.0211 101.375 1.03451 101.375 1.05231C101.374 1.0879 101.373 1.14104 101.372 1.21118C101.37 1.35145 101.367 1.55974 101.363 1.83167C101.354 2.37553 101.341 3.17397 101.324 4.19214C101.291 6.22849 101.24 9.1437 101.174 12.6589C101.041 19.6895 100.843 29.1194 100.584 38.7179C100.325 48.3174 100.006 58.0816 99.6295 65.7822C99.4413 69.6332 99.2392 72.9623 99.0238 75.4944C98.9161 76.761 98.8056 77.8216 98.6928 78.6453C98.5774 79.4879 98.4662 80.0288 98.3716 80.2918L99.0125 80.5225L99.6534 80.7532C99.8022 80.3396 99.9279 79.6675 100.043 78.8301C100.16 77.9738 100.273 76.8875 100.381 75.6099C100.599 73.0537 100.802 69.7058 100.99 65.8487C101.367 58.1331 101.687 48.3571 101.946 38.7547C102.205 29.1512 102.403 19.7174 102.536 12.6847C102.602 9.16828 102.653 6.25198 102.687 4.21473C102.703 3.1961 102.716 2.39722 102.725 1.85296C102.729 1.58082 102.732 1.37235 102.734 1.23188C102.735 1.16164 102.736 1.10841 102.737 1.07273C102.737 1.05489 102.737 1.04143 102.737 1.03243C102.737 1.02793 102.737 1.02454 102.737 1.02228C102.737 1.02115 102.738 1.02029 102.738 1.01973C102.738 1.01915 102.738 1.01886 102.056 1.00879ZM99.0125 80.5225L98.3716 80.2917C97.4334 82.8973 96.2597 84.3708 94.9267 85.2941C93.5746 86.2305 91.9917 86.6507 90.1133 87.0264L90.2469 87.6943L90.3805 88.3623C92.2761 87.9831 94.1021 87.5223 95.7023 86.414C97.3216 85.2925 98.6436 83.5576 99.6534 80.7532L99.0125 80.5225ZM90.2469 87.6943L90.1133 87.0264C88.2985 87.3894 81.6336 87.8241 75.1304 87.8679C71.8904 87.8897 68.7236 87.8141 66.2542 87.5884C65.0173 87.4753 63.9759 87.3263 63.1955 87.1394C62.8049 87.0459 62.4976 86.947 62.2711 86.847C62.0332 86.742 61.941 86.6601 61.9179 86.6321L61.3924 87.0654L60.8668 87.4988C61.0873 87.7661 61.4041 87.9535 61.721 88.0933C62.0493 88.2383 62.4424 88.3599 62.8782 88.4643C63.7505 88.6732 64.8655 88.8294 66.1302 88.9451C68.6639 89.1767 71.8813 89.2522 75.1396 89.2302C81.6329 89.1865 88.421 88.7542 90.3805 88.3623L90.2469 87.6943ZM61.3924 87.0654L61.918 86.6322C60.2707 84.6338 60.0949 80.1719 64.8314 76.8L64.4363 76.2451L64.0413 75.6902C58.7945 79.4253 58.6182 84.7709 60.8668 87.4987L61.3924 87.0654ZM64.4363 76.2451L64.8314 76.8C65.9314 76.0169 67.3993 75.5363 69.1337 75.2207C70.8653 74.9057 72.7942 74.7659 74.7929 74.6218L74.7439 73.9424L74.695 73.263C72.7136 73.4058 70.7076 73.5497 68.8898 73.8804C67.0748 74.2106 65.3789 74.7379 64.0413 75.6902L64.4363 76.2451ZM74.7439 73.9424L74.7929 74.6218C76.8693 74.4721 79.0192 74.318 81.0032 73.9457C82.9864 73.5735 84.8647 72.9734 86.3812 71.8938L85.9861 71.3389L85.5911 70.784C84.3046 71.6998 82.6466 72.2511 80.7519 72.6067C78.8579 72.9621 76.7882 73.1121 74.6949 73.263L74.7439 73.9424ZM85.9861 71.3389L86.3812 71.8938C86.8611 71.5521 87.2193 70.9578 87.5064 70.2857C87.8028 69.5915 88.0648 68.7129 88.2994 67.6913C88.7691 65.6458 89.1475 62.9429 89.4532 59.8101C90.0651 53.5394 90.393 45.4635 90.5544 37.2972C90.8774 20.9601 90.5354 4.20176 90.4552 0.666193L89.7742 0.681641L89.0932 0.697088C89.1733 4.22773 89.5147 20.9628 89.1923 37.2702C89.0311 45.4262 88.704 53.4603 88.0973 59.6778C87.7937 62.7891 87.422 65.4249 86.9716 67.3864C86.7461 68.3683 86.5056 69.1603 86.2535 69.7506C85.992 70.3629 85.7555 70.6669 85.591 70.784L85.9861 71.3389ZM89.7742 0.681641V1.36281H124.945V0.681641V0.000471056H89.7742V0.681641ZM38.0154 0.681641L37.4161 0.357891C36.0365 2.91175 34.9152 5.29425 34.2485 7.29348C33.9153 8.29292 33.6883 9.2178 33.6056 10.0337C33.5236 10.841 33.5763 11.6028 33.865 12.2322L34.4842 11.9482L35.1033 11.6643C34.9573 11.3458 34.891 10.8604 34.9609 10.1712C35.03 9.49055 35.2257 8.66971 35.5409 7.72443C36.1712 5.83422 37.2502 3.53128 38.6147 1.00539L38.0154 0.681641ZM34.4842 11.9482L33.865 12.2323C34.109 12.764 34.542 13.2295 35.0714 13.6409C35.6052 14.0558 36.2747 14.4447 37.0449 14.8119C38.5848 15.546 40.5987 16.2265 42.9088 16.8578C47.5335 18.1216 53.4454 19.2144 59.356 20.1341C65.2711 21.0545 71.2058 21.8048 75.8819 22.3805C78.2222 22.6686 80.2429 22.9125 81.7934 23.1126C83.3646 23.3155 84.3983 23.467 84.8011 23.5673L84.9656 22.9062L85.1301 22.2452C84.6319 22.1212 83.5028 21.9596 81.9678 21.7615C80.412 21.5607 78.3831 21.3158 76.0483 21.0284C71.3743 20.4529 65.4577 19.7049 59.5654 18.788C53.6687 17.8704 47.8173 16.7869 43.268 15.5437C40.9911 14.9215 39.0654 14.2659 37.6312 13.5821C36.9143 13.2404 36.3381 12.8999 35.9074 12.5652C35.4722 12.227 35.2218 11.9225 35.1033 11.6642L34.4842 11.9482ZM84.9656 22.9062L84.8011 23.5672C85.4385 23.7259 86.014 24.2602 86.5181 25.1498C87.0163 26.029 87.3855 27.1535 87.6534 28.2922C87.9197 29.4241 88.078 30.5344 88.1695 31.3649C88.2151 31.7791 88.2439 32.1215 88.2612 32.3591C88.2699 32.4779 88.2757 32.5705 88.2793 32.6326C88.2811 32.6637 88.2823 32.6871 88.2831 32.7025C88.2835 32.7102 88.2838 32.7158 88.2839 32.7193C88.284 32.7211 88.2841 32.7224 88.2841 32.7231C88.2841 32.7234 88.2841 32.7237 88.2841 32.7238C88.2841 32.7238 88.2841 32.7238 88.2841 32.7238C88.2841 32.7237 88.2841 32.7236 88.9646 32.6934C89.6451 32.6631 89.6451 32.6629 89.6451 32.6627C89.6451 32.6626 89.6451 32.6624 89.6451 32.6621C89.6451 32.6617 89.645 32.6611 89.645 32.6604C89.6449 32.659 89.6449 32.657 89.6447 32.6545C89.6445 32.6495 89.6441 32.6424 89.6437 32.6332C89.6427 32.6148 89.6413 32.5883 89.6394 32.554C89.6354 32.4855 89.6292 32.3861 89.62 32.2601C89.6016 32.0081 89.5713 31.6489 89.5236 31.2157C89.4284 30.3512 89.2625 29.1829 88.9795 27.9802C88.6981 26.7842 88.2927 25.5181 87.7033 24.4781C87.1198 23.4484 86.2945 22.5351 85.1302 22.2453L84.9656 22.9062ZM88.9646 32.6934L88.2835 32.6935L88.2864 47.2697L88.9676 47.2695L89.6487 47.2694L89.6458 32.6932L88.9646 32.6934ZM88.9676 47.2695L88.2874 47.306C88.2884 47.3252 88.3894 49.2638 87.963 51.1593C87.7491 52.11 87.4163 52.9842 86.9257 53.6001C86.4573 54.188 85.849 54.5425 84.9862 54.5164L84.9656 55.1973L84.945 55.8781C86.295 55.919 87.2938 55.3244 87.9912 54.449C88.6664 53.6015 89.0582 52.4979 89.2921 51.4583C89.7611 49.3732 89.6503 47.2809 89.6478 47.233L88.9676 47.2695ZM84.9656 55.1973L84.9863 54.5164C84.1491 54.491 83.5101 54.0578 82.9932 53.3104C82.4636 52.5446 82.1002 51.4945 81.8598 50.3861C81.6215 49.2876 81.515 48.1846 81.4686 47.3507C81.4456 46.9352 81.4376 46.5899 81.4354 46.3498C81.4343 46.2298 81.4347 46.1362 81.4352 46.0735C81.4355 46.0421 81.4359 46.0185 81.4362 46.0031C81.4363 45.9954 81.4364 45.9898 81.4365 45.9863C81.4365 45.9846 81.4366 45.9834 81.4366 45.9827C81.4366 45.9824 81.4366 45.9822 81.4366 45.9821C81.4366 45.9821 81.4366 45.9822 81.4366 45.9821C81.4366 45.9822 81.4366 45.9824 80.7556 45.9648C80.0747 45.9473 80.0747 45.9475 80.0747 45.9478C80.0747 45.9479 80.0747 45.9481 80.0747 45.9484C80.0747 45.9489 80.0747 45.9495 80.0746 45.9503C80.0746 45.9518 80.0745 45.9539 80.0745 45.9566C80.0744 45.9618 80.0742 45.9693 80.0741 45.9788C80.0737 45.9979 80.0733 46.0253 80.073 46.0606C80.0723 46.1312 80.0719 46.2332 80.0731 46.3623C80.0755 46.6202 80.084 46.9867 80.1084 47.4262C80.1571 48.3023 80.2697 49.4822 80.5284 50.6749C80.785 51.8578 81.1964 53.1074 81.8727 54.0853C82.5618 55.0816 83.5601 55.8361 84.945 55.8781L84.9656 55.1973ZM80.7556 45.9648C80.115 45.7335 80.1151 45.7332 80.1152 45.7329C80.1152 45.7329 80.1153 45.7326 80.1153 45.7325C80.1154 45.7322 80.1155 45.732 80.1156 45.7318C80.1157 45.7315 80.1157 45.7315 80.1156 45.7316C80.1155 45.732 80.115 45.7333 80.1142 45.7355C80.1125 45.74 80.1094 45.7481 80.1049 45.7595C80.0958 45.7823 80.081 45.8182 80.0605 45.8645C80.0194 45.9576 79.9558 46.0909 79.8694 46.2442C79.6933 46.5565 79.4382 46.923 79.1072 47.207C78.7825 47.4857 78.4062 47.6683 77.9604 47.6744C77.5112 47.6806 76.8928 47.5089 76.0845 46.8884L75.6697 47.4287L75.2549 47.969C76.2307 48.7181 77.1402 49.0482 77.9791 49.0366C78.8214 49.0251 79.4936 48.6706 79.9944 48.2409C80.4888 47.8165 80.8361 47.3035 81.0561 46.9133C81.1677 46.7154 81.2506 46.5417 81.3064 46.4156C81.3344 46.3524 81.3557 46.3007 81.3706 46.2633C81.3781 46.2446 81.3839 46.2294 81.3882 46.2181C81.3903 46.2125 81.3921 46.2078 81.3934 46.2041C81.3941 46.2023 81.3947 46.2007 81.3952 46.1994C81.3954 46.1987 81.3956 46.1981 81.3958 46.1976C81.3959 46.1973 81.396 46.197 81.3961 46.1968C81.3962 46.1965 81.3963 46.1962 80.7556 45.9648ZM75.6697 47.4287L76.0846 46.8885C75.5416 46.4715 75.3565 45.6303 75.7067 44.2119C76.0447 42.8428 76.8226 41.2149 77.7403 39.6236C78.6524 38.0422 79.6772 36.5397 80.4767 35.4297C80.8759 34.8755 81.2175 34.4211 81.4588 34.1058C81.5795 33.9481 81.675 33.8254 81.74 33.7424C81.7725 33.701 81.7974 33.6695 81.814 33.6485C81.8223 33.6381 81.8285 33.6302 81.8326 33.6251C81.8346 33.6226 81.8361 33.6207 81.837 33.6196C81.8375 33.619 81.8378 33.6185 81.838 33.6183C81.8381 33.6182 81.8382 33.6181 81.8382 33.6181C81.8382 33.6181 81.8382 33.6181 81.3064 33.1924C80.7747 32.7667 80.7746 32.7668 80.7744 32.767C80.7744 32.7671 80.7742 32.7673 80.774 32.7675C80.7736 32.768 80.7731 32.7686 80.7725 32.7694C80.7712 32.771 80.7694 32.7733 80.767 32.7763C80.7622 32.7823 80.7553 32.791 80.7463 32.8024C80.7283 32.8251 80.7019 32.8585 80.6679 32.9019C80.5998 32.9887 80.5011 33.1156 80.377 33.2777C80.1289 33.6019 79.7793 34.067 79.3713 34.6335C78.5565 35.7647 77.5033 37.3077 76.5602 38.9429C75.6229 40.5682 74.7685 42.3283 74.3841 43.8853C74.0119 45.393 74.0141 47.0162 75.2549 47.969L75.6697 47.4287ZM81.3064 33.1924C81.3476 32.5125 81.3474 32.5124 81.347 32.5124C81.3466 32.5124 81.346 32.5124 81.3451 32.5123C81.3434 32.5122 81.3409 32.512 81.3374 32.5118C81.3305 32.5114 81.32 32.5108 81.3062 32.5099C81.2784 32.5082 81.2368 32.5056 81.1818 32.5021C81.0718 32.4952 80.9083 32.4847 80.6947 32.4706C80.2675 32.4423 79.6399 32.3996 78.8397 32.3417C77.2391 32.2258 74.9481 32.0491 72.1878 31.8061C66.6662 31.32 59.2715 30.5687 51.7718 29.5078C44.2666 28.4461 36.6806 27.0777 30.7664 25.3621C27.807 24.5036 25.2953 23.5663 23.4294 22.5519C21.5324 21.5207 20.4413 20.4833 20.0973 19.494L19.4539 19.7178L18.8105 19.9415C19.3307 21.4371 20.8206 22.6843 22.7787 23.7488C24.7681 24.8303 27.3856 25.7998 30.3869 26.6705C36.3941 28.4131 44.0552 29.7921 51.581 30.8567C59.1124 31.9221 66.5327 32.6759 72.0683 33.1632C74.8367 33.4069 77.1348 33.5841 78.7413 33.7005C79.5446 33.7586 80.175 33.8015 80.6049 33.8299C80.8198 33.8441 80.9846 33.8547 81.0958 33.8618C81.1514 33.8653 81.1936 33.8679 81.222 33.8697C81.2362 33.8705 81.247 33.8712 81.2542 33.8716C81.2578 33.8719 81.2605 33.872 81.2624 33.8721C81.2633 33.8722 81.264 33.8722 81.2645 33.8723C81.265 33.8723 81.2653 33.8723 81.3064 33.1924ZM19.4539 19.7178L20.0973 19.494C19.8369 18.7454 19.778 17.734 19.937 16.4653C20.095 15.2043 20.4618 13.7383 21.0054 12.1103C22.0926 8.85417 23.8631 5.01968 25.9804 0.999039L25.3777 0.681641L24.775 0.364243C22.6428 4.41305 20.8341 8.32175 19.7132 11.6789C19.1527 13.3575 18.7582 14.9157 18.5852 16.2959C18.4132 17.6684 18.4536 18.9153 18.8105 19.9415L19.4539 19.7178ZM25.3777 0.681641V1.36281H38.0154V0.681641V0.000471056H25.3777V0.681641ZM190.103 0.681641L189.5 0.997815C191.581 4.96943 193.315 8.74994 194.377 11.9597C194.908 13.5645 195.265 15.0092 195.417 16.2525C195.57 17.5033 195.509 18.5014 195.252 19.2421L195.895 19.4658L196.539 19.6895C196.892 18.6738 196.935 17.4421 196.769 16.0871C196.603 14.7247 196.218 13.1876 195.671 11.5319C194.575 8.22066 192.803 4.36553 190.707 0.365467L190.103 0.681641ZM195.895 19.4658L195.252 19.2421C194.908 20.2313 193.817 21.2687 191.92 22.3C190.054 23.3144 187.542 24.2517 184.583 25.1103C178.669 26.826 171.083 28.1946 163.577 29.2564C156.078 30.3174 148.683 31.0688 143.161 31.555C140.401 31.7981 138.11 31.9748 136.51 32.0906C135.709 32.1486 135.082 32.1913 134.654 32.2196C134.441 32.2337 134.277 32.2442 134.167 32.2511C134.112 32.2546 134.071 32.2572 134.043 32.2589C134.029 32.2598 134.019 32.2604 134.012 32.2609C134.008 32.2611 134.006 32.2612 134.004 32.2613C134.003 32.2614 134.003 32.2614 134.002 32.2614C134.002 32.2615 134.002 32.2615 134.043 32.9414C134.084 33.6213 134.084 33.6213 134.085 33.6213C134.085 33.6213 134.086 33.6212 134.087 33.6212C134.089 33.621 134.091 33.6209 134.095 33.6207C134.102 33.6202 134.113 33.6196 134.127 33.6187C134.156 33.6169 134.198 33.6143 134.253 33.6108C134.365 33.6037 134.529 33.5932 134.744 33.5789C135.174 33.5505 135.805 33.5076 136.608 33.4494C138.214 33.3331 140.513 33.1559 143.281 32.9121C148.817 32.4246 156.237 31.6708 163.768 30.6053C171.294 29.5406 178.955 28.1614 184.962 26.4187C187.964 25.548 190.581 24.5784 192.57 23.4969C194.529 22.4324 196.019 21.1851 196.539 19.6896L195.895 19.4658ZM134.043 32.9414L133.511 33.367C133.517 33.3746 135.791 36.2169 137.616 39.3841C138.532 40.9739 139.307 42.5992 139.644 43.9659C139.993 45.3815 139.807 46.2211 139.265 46.6374L139.679 47.1777L140.094 47.7181C141.334 46.7665 141.338 45.146 140.967 43.6402C140.584 42.0854 139.732 40.3277 138.796 38.7039C136.917 35.4437 134.591 32.5357 134.575 32.5158L134.043 32.9414ZM139.679 47.1777L139.265 46.6374C138.461 47.2546 137.845 47.4276 137.396 47.4233C136.951 47.4191 136.576 47.2396 136.252 46.9645C135.922 46.6839 135.666 46.3203 135.488 46.0073C135.312 45.6983 135.229 45.4685 135.234 45.4809L134.594 45.7139L133.953 45.9468C133.968 45.9858 134.401 47.1797 135.371 48.0031C135.872 48.4291 136.544 48.7776 137.383 48.7856C138.219 48.7936 139.124 48.4631 140.094 47.7181L139.679 47.1777ZM134.594 45.7139L133.913 45.7307C133.913 45.7534 133.965 47.9612 133.484 50.1609C133.242 51.2645 132.878 52.3076 132.35 53.0676C131.834 53.8092 131.197 54.2392 130.363 54.2645L130.384 54.9453L130.404 55.6262C131.783 55.5844 132.779 54.836 133.468 53.8455C134.144 52.8734 134.557 51.6306 134.815 50.4522C135.332 48.0879 135.276 45.747 135.275 45.697L134.594 45.7139ZM130.384 54.9453L130.363 54.2645C129.499 54.2906 128.89 53.9352 128.422 53.3457C127.931 52.7282 127.598 51.852 127.385 50.8999C127.173 49.9579 127.091 49.0003 127.063 48.2684C127.036 47.5391 127.062 47.0514 127.062 47.0543L126.382 47.0176L125.701 46.9808C125.699 47.018 125.587 49.1102 126.055 51.1979C126.289 52.2388 126.68 53.3444 127.355 54.1936C128.053 55.0708 129.052 55.6671 130.404 55.6262L130.384 54.9453ZM126.382 47.0176L127.063 47.0177L127.066 32.4415L126.385 32.4414L125.703 32.4413L125.7 47.0174L126.382 47.0176ZM126.385 32.4414C127.065 32.4717 127.065 32.4718 127.065 32.4718C127.065 32.4718 127.065 32.4719 127.065 32.4718C127.065 32.4717 127.065 32.4715 127.065 32.4711C127.065 32.4704 127.065 32.4692 127.065 32.4674C127.065 32.4638 127.066 32.4582 127.066 32.4505C127.067 32.4352 127.068 32.4117 127.07 32.3807C127.074 32.3185 127.079 32.226 127.088 32.1072C127.105 31.8695 127.134 31.5272 127.18 31.1129C127.271 30.2825 127.429 29.1722 127.696 28.0403C127.964 26.9016 128.333 25.777 128.831 24.8978C129.335 24.0083 129.911 23.474 130.548 23.3153L130.384 22.6543L130.219 21.9933C129.055 22.2831 128.229 23.1965 127.646 24.2261C127.056 25.2661 126.651 26.5323 126.37 27.7282C126.087 28.9309 125.921 30.0993 125.826 30.9637C125.778 31.3969 125.748 31.7561 125.729 32.0081C125.72 32.1342 125.714 32.2335 125.71 32.302C125.708 32.3363 125.706 32.3629 125.706 32.3812C125.705 32.3904 125.705 32.3975 125.704 32.4025C125.704 32.405 125.704 32.407 125.704 32.4084C125.704 32.4092 125.704 32.4097 125.704 32.4102C125.704 32.4104 125.704 32.4107 125.704 32.4108C125.704 32.411 125.704 32.4111 126.385 32.4414ZM130.384 22.6543L130.548 23.3153C130.951 23.215 131.984 23.0635 133.556 22.8607C135.106 22.6606 137.127 22.4167 139.467 22.1286C144.143 21.5529 150.078 20.8026 155.993 19.8822C161.904 18.9625 167.816 17.8697 172.44 16.6059C174.75 15.9746 176.764 15.294 178.304 14.5599C179.074 14.1928 179.744 13.8038 180.278 13.3889C180.807 12.9775 181.24 12.5121 181.484 11.9803L180.865 11.6963L180.246 11.4122C180.127 11.6706 179.877 11.975 179.442 12.3133C179.011 12.648 178.435 12.9884 177.718 13.3302C176.284 14.0139 174.358 14.6695 172.081 15.2918C167.532 16.535 161.68 17.6185 155.783 18.5361C149.891 19.4529 143.975 20.201 139.301 20.7764C136.966 21.0639 134.937 21.3088 133.381 21.5096C131.846 21.7077 130.717 21.8693 130.219 21.9933L130.384 22.6543ZM180.865 11.6963L181.484 11.9802C181.768 11.361 181.824 10.6139 181.748 9.82253C181.671 9.02311 181.454 8.11826 181.134 7.14111C180.493 5.18659 179.41 2.85882 178.071 0.35993L177.47 0.681641L176.87 1.00335C178.194 3.47366 179.235 5.72105 179.84 7.56548C180.142 8.4878 180.328 9.28837 180.392 9.95253C180.456 10.6247 180.389 11.0994 180.246 11.4124L180.865 11.6963ZM177.47 0.681641V1.36281H190.103V0.681641V0.000471056H177.47V0.681641Z" fill="#0053FF" mask="url(#path-2-outside-1_320_36962)"/>
</svg>
