<svg width="214" height="110" viewBox="0 0 214 110" fill="none" xmlns="http://www.w3.org/2000/svg">
<rect width="213.423" height="109.083" rx="14.821" fill="white"/>
<path d="M191.631 0C193.919 7.30656 194.727 14.4402 192.063 19.4844C183.954 34.8331 138.945 32.5718 138.877 32.5684C138.892 32.5725 145.624 34.471 146.996 39.833C148.369 45.2006 140.754 43.4541 140.754 43.4541C140.779 43.5508 143.413 53.8074 138.877 53.9404C135.576 54.0369 132.937 50.1075 131.732 47.9346C132.282 59.4173 133.154 68.7695 134.539 70.0439C136.862 72.1809 142.829 72.967 147.875 73.6318C151.236 74.0746 154.19 74.4635 155.388 75.1621C158.384 76.91 164.126 82.0282 160.381 84.8994C156.634 87.7703 132.417 87.396 128.547 86.2725C124.677 85.1489 122.056 83.5253 121.182 78.5322C120.309 73.5425 117.818 1.09368 117.811 0.882812H107.324C107.321 1.09875 106.198 74.421 104.203 79.7812C102.206 85.1486 99.0848 86.1475 95.215 86.8965C91.3432 87.6455 67.6261 88.617 65.6281 86.2725C63.631 83.9276 63.6315 79.062 68.7492 75.5361C71.2488 73.8142 75.2376 73.5367 79.3186 73.252C83.5939 72.9537 87.9717 72.6476 90.8459 70.668C96.3271 66.892 94.7966 3.09817 94.7189 0H130.794C130.793 1.41608 130.786 15.5105 131.143 30.7012C131.427 28.1862 132.346 23.0313 135.124 22.3613C138.819 21.4712 172.588 26.2254 176.084 8.49902C176.645 5.65395 176.715 2.79482 176.439 0H191.631ZM72.5979 0C61.7876 13.7746 46.8764 32.894 44.1027 37.0508C39.66 43.7096 42.5077 48.7558 38.0578 51.8818C31.9832 56.1487 29.8077 49.8273 29.3615 47.1143C29.2991 47.1734 22.3484 53.7315 16.6701 48.4922C10.9962 43.2564 20.8783 39.0183 20.9807 38.9746C20.9508 38.9532 16.1605 35.5089 15.9787 31.8369C15.7971 28.1534 20.8231 23.6565 26.674 25.4404C32.525 27.2245 32.7217 30.2982 41.7717 22.417C45.4139 19.2449 51.1211 9.96143 56.6418 0H72.5979ZM90.5686 0.25293V0H93.4104L90.5686 0.25293Z" fill="#0053FF"/>
</svg>
