<svg width="214" height="110" viewBox="0 0 214 110" fill="none" xmlns="http://www.w3.org/2000/svg">
<rect y="0.681641" width="213.423" height="109.083" rx="14.821" fill="white"/>
<path d="M133.601 0.681641C133.802 6.06553 136.183 72.2719 136.91 73.8954C137.672 75.5914 161.975 84.5153 155.329 89.7898C148.683 95.0643 126.751 85.057 124.852 79.2643C123.033 73.7149 121.911 6.12312 121.819 0.681641H133.601Z" fill="#0053FF"/>
<path d="M111.173 0.681641C111.082 6.15614 109.949 74.4906 107.857 78.4168C105.673 82.5142 83.0733 94.3324 77.0917 88.1867C71.1104 82.0409 95.7967 75.5205 96.6527 73.8954C97.471 72.3395 98.9857 6.06831 99.1127 0.681641H111.173Z" fill="#0053FF"/>
<path d="M158.488 0.681641C160.538 11.9393 165.955 44.0767 166.723 44.649C167.672 45.3554 182.009 49.0996 179.541 54.2566C177.072 59.4133 172.704 57.2939 172.704 57.2939C172.704 57.2939 176.787 63.3509 170.616 64.7821C164.444 66.213 160.646 58.919 160.646 58.919C160.633 58.9535 159.013 63.2838 154.19 59.5549C149.348 55.811 154.949 47.1929 154.95 45.2849C154.95 43.484 147.839 4.69932 147.045 0.681641H158.488Z" fill="#0053FF"/>
<path d="M94.7469 0.681641C94.6575 3.80745 93.3885 28.9687 75.3848 36.4544C56.016 44.5075 41.0143 34.6882 41.0143 34.6882C40.9699 34.7206 34.9182 39.1154 29.5263 32.7811C24.1144 26.4232 32.6594 23.1024 32.6594 23.1024C32.6217 23.1028 15.6641 23.3077 15.6641 17.4508C15.6646 11.6031 31.0604 16.9991 31.1401 17.027C31.0883 16.9736 23.0882 8.68239 28.7666 6.0066C34.4633 3.32234 38.4513 12.8595 38.4513 12.8595C38.475 12.9191 42.9178 24.0943 44.4328 25.0807C45.9521 26.0698 53.0732 31.5094 65.7008 29.6021C74.891 28.2138 80.8111 9.35988 83.354 0.681641H94.7469Z" fill="#0053FF"/>
<path d="M133.601 0.681641C133.802 6.06553 136.183 72.2719 136.91 73.8954C137.672 75.5914 161.975 84.5153 155.329 89.7898C148.683 95.0643 126.751 85.057 124.852 79.2643C123.033 73.7149 121.911 6.12312 121.819 0.681641H133.601Z" stroke="#0053FF" stroke-width="1.36234"/>
<path d="M111.173 0.681641C111.082 6.15614 109.949 74.4906 107.857 78.4168C105.673 82.5142 83.0733 94.3324 77.0917 88.1867C71.1104 82.0409 95.7967 75.5205 96.6527 73.8954C97.471 72.3395 98.9857 6.06831 99.1127 0.681641H111.173Z" stroke="#0053FF" stroke-width="1.36234"/>
<path d="M158.488 0.681641C160.538 11.9393 165.955 44.0767 166.723 44.649C167.672 45.3554 182.009 49.0996 179.541 54.2566C177.072 59.4133 172.704 57.2939 172.704 57.2939C172.704 57.2939 176.787 63.3509 170.616 64.7821C164.444 66.213 160.646 58.919 160.646 58.919C160.633 58.9535 159.013 63.2838 154.19 59.5549C149.348 55.811 154.949 47.1929 154.95 45.2849C154.95 43.484 147.839 4.69932 147.045 0.681641H158.488Z" stroke="#0053FF" stroke-width="1.36234"/>
<path d="M94.7469 0.681641C94.6575 3.80745 93.3885 28.9687 75.3848 36.4544C56.016 44.5075 41.0143 34.6882 41.0143 34.6882C40.9699 34.7206 34.9182 39.1154 29.5263 32.7811C24.1144 26.4232 32.6594 23.1024 32.6594 23.1024C32.6217 23.1028 15.6641 23.3077 15.6641 17.4508C15.6646 11.6031 31.0604 16.9991 31.1401 17.027C31.0883 16.9736 23.0882 8.68239 28.7666 6.0066C34.4633 3.32234 38.4513 12.8595 38.4513 12.8595C38.475 12.9191 42.9178 24.0943 44.4328 25.0807C45.9521 26.0698 53.0732 31.5094 65.7008 29.6021C74.891 28.2138 80.8111 9.35988 83.354 0.681641H94.7469Z" stroke="#0053FF" stroke-width="1.36234"/>
</svg>
