<svg width="118" height="122" viewBox="0 0 118 122" fill="none" xmlns="http://www.w3.org/2000/svg">
<rect y="26.666" width="95.2334" height="95.2334" rx="14.285" fill="#0053FF"/>
<path d="M63.302 20.8125C79.6909 20.9533 95.1985 30.7374 101.872 46.859C110.771 68.3592 100.589 92.991 79.1288 101.874C57.6685 110.757 33.0561 100.528 24.1566 79.0275C18.8165 66.1262 20.3501 52.0993 27.0654 41.0224L33.2621 55.993C31.865 61.9984 32.2636 68.485 34.8032 74.6206C41.2644 90.2303 59.1325 97.6559 74.7133 91.2067C90.294 84.7574 97.6866 66.8756 91.2253 51.2659C86.4658 39.7679 75.5176 32.7134 63.8531 32.3711L54.2818 26.6657L63.302 20.8125Z" fill="#C3FB4F" stroke="#C3FB4F" stroke-width="3.67717" stroke-miterlimit="1" stroke-linejoin="round"/>
<path d="M60.7829 26.2544L79.5022 11.0421L72.5998 2.54801L45.406 24.6451L45.4252 24.6677L45.4028 24.685L67.501 51.878L75.9952 44.9746L60.7829 26.2544Z" fill="#C3FB4F"/>
</svg>
