<svg width="54" height="53" viewBox="0 0 54 53" fill="none" xmlns="http://www.w3.org/2000/svg">
<mask id="path-1-inside-1_324_39745" fill="white">
<path d="M52.9336 8.16992L34.8926 26.2109L53.4453 44.7637L45.2754 52.9336L26.7227 34.3809L8.16992 52.9336L0 44.7637L18.5527 26.2109L0.511719 8.16992L8.68164 0L26.7227 18.041L44.7637 0L52.9336 8.16992Z"/>
</mask>
<path d="M52.9336 8.16992L34.8926 26.2109L53.4453 44.7637L45.2754 52.9336L26.7227 34.3809L8.16992 52.9336L0 44.7637L18.5527 26.2109L0.511719 8.16992L8.68164 0L26.7227 18.041L44.7637 0L52.9336 8.16992Z" fill="#C3FB4F"/>
<path d="M52.9336 8.16992L53.5472 8.78352L54.1608 8.16992L53.5472 7.55632L52.9336 8.16992ZM34.8926 26.2109L34.279 25.5973L33.6654 26.2109L34.279 26.8245L34.8926 26.2109ZM53.4453 44.7637L54.0589 45.3773L54.6725 44.7637L54.0589 44.1501L53.4453 44.7637ZM45.2754 52.9336L44.6618 53.5472L45.2754 54.1608L45.889 53.5472L45.2754 52.9336ZM26.7227 34.3809L27.3363 33.7673L26.7227 33.1537L26.1091 33.7673L26.7227 34.3809ZM8.16992 52.9336L7.55632 53.5472L8.16992 54.1608L8.78352 53.5472L8.16992 52.9336ZM0 44.7637L-0.613597 44.1501L-1.22719 44.7637L-0.613597 45.3773L0 44.7637ZM18.5527 26.2109L19.1663 26.8245L19.7799 26.2109L19.1663 25.5973L18.5527 26.2109ZM0.511719 8.16992L-0.101878 7.55632L-0.715475 8.16992L-0.101878 8.78352L0.511719 8.16992ZM8.68164 0L9.29524 -0.613597L8.68164 -1.22719L8.06804 -0.613597L8.68164 0ZM26.7227 18.041L26.1091 18.6546L26.7227 19.2682L27.3363 18.6546L26.7227 18.041ZM44.7637 0L45.3773 -0.613597L44.7637 -1.22719L44.1501 -0.613597L44.7637 0ZM52.9336 8.16992L52.32 7.55632L34.279 25.5973L34.8926 26.2109L35.5062 26.8245L53.5472 8.78352L52.9336 8.16992ZM34.8926 26.2109L34.279 26.8245L52.8317 45.3773L53.4453 44.7637L54.0589 44.1501L35.5062 25.5973L34.8926 26.2109ZM53.4453 44.7637L52.8317 44.1501L44.6618 52.32L45.2754 52.9336L45.889 53.5472L54.0589 45.3773L53.4453 44.7637ZM45.2754 52.9336L45.889 52.32L27.3363 33.7673L26.7227 34.3809L26.1091 34.9945L44.6618 53.5472L45.2754 52.9336ZM26.7227 34.3809L26.1091 33.7673L7.55632 52.32L8.16992 52.9336L8.78352 53.5472L27.3363 34.9945L26.7227 34.3809ZM8.16992 52.9336L8.78352 52.32L0.613597 44.1501L0 44.7637L-0.613597 45.3773L7.55632 53.5472L8.16992 52.9336ZM0 44.7637L0.613597 45.3773L19.1663 26.8245L18.5527 26.2109L17.9391 25.5973L-0.613597 44.1501L0 44.7637ZM18.5527 26.2109L19.1663 25.5973L1.12532 7.55632L0.511719 8.16992L-0.101878 8.78352L17.9391 26.8245L18.5527 26.2109ZM0.511719 8.16992L1.12532 8.78352L9.29524 0.613597L8.68164 0L8.06804 -0.613597L-0.101878 7.55632L0.511719 8.16992ZM8.68164 0L8.06804 0.613597L26.1091 18.6546L26.7227 18.041L27.3363 17.4274L9.29524 -0.613597L8.68164 0ZM26.7227 18.041L27.3363 18.6546L45.3773 0.613597L44.7637 0L44.1501 -0.613597L26.1091 17.4274L26.7227 18.041ZM44.7637 0L44.1501 0.613597L52.32 8.78352L52.9336 8.16992L53.5472 7.55632L45.3773 -0.613597L44.7637 0Z" fill="#0053FF" mask="url(#path-1-inside-1_324_39745)"/>
</svg>
