<svg width="570" height="362" viewBox="0 0 570 362" fill="none" xmlns="http://www.w3.org/2000/svg">
<path d="M197.907 0C234.961 0.000111686 266.924 25.6361 281.833 62.7324C301.752 38.986 328.03 26.6373 353.09 32.4775C379.423 38.6146 398.076 63.3597 404.651 95.7587C420.8 87.8494 439.538 83.3232 459.518 83.3232C520.171 83.3232 569.295 125.033 569.24 176.485C569.193 219.952 534.063 256.464 486.591 266.752C477.86 320.232 424.555 361.39 360.146 361.39C307.507 361.39 262.344 333.899 242.892 294.659C222.404 331.89 178.407 357.642 127.461 357.642C57.0006 357.642 -0.0657797 308.386 -0.000484318 247.626C0.0587854 192.642 46.8833 147.08 108.001 138.914C105.897 129.705 104.78 120.016 104.791 110.016C104.856 49.2556 146.546 0 197.907 0Z" fill="#C3FB4F"/>
</svg>
