<svg width="343" height="330" viewBox="0 0 343 330" fill="none" xmlns="http://www.w3.org/2000/svg">
<ellipse cx="73.4166" cy="84.804" rx="73.4166" ry="84.804" transform="matrix(-0.465639 0.884975 -0.932997 -0.359885 301.293 61.0393)" fill="white"/>
<ellipse cx="51.4397" cy="58.9366" rx="51.4397" ry="58.9366" transform="matrix(-0.29402 0.955799 -0.983444 -0.181211 342.713 206.676)" fill="white"/>
<ellipse cx="48.2149" cy="46.1535" rx="48.2149" ry="46.1535" transform="matrix(-0.623202 0.782061 -0.849047 -0.528318 144.375 108.071)" fill="white"/>
<ellipse cx="112.297" cy="107.496" rx="112.297" ry="107.496" transform="matrix(-0.763758 0.645502 -0.729707 -0.68376 341.074 184.369)" fill="white"/>
<ellipse cx="20.9685" cy="22.4863" rx="20.9685" ry="22.4863" transform="matrix(-0.309699 0.950835 -0.980331 -0.19736 57.0762 214.992)" fill="white"/>
<path d="M160.925 197.825C157.268 193.375 154.958 187.377 154.958 180.025C154.958 158.161 179.979 154.871 179.979 145.197C179.979 140.94 176.9 137.651 168.624 137.651C161.31 137.651 153.804 141.521 148.414 147.712L129.938 126.429C140.523 114.433 156.498 108.241 172.281 108.241C197.686 108.241 213.469 120.624 213.469 139.199C213.469 166.868 183.636 168.996 183.636 183.507C183.636 186.797 184.983 189.699 186.523 191.247L160.925 197.825ZM172.665 241.553C162.85 241.553 154.573 233.234 154.573 223.366C154.573 213.498 162.85 205.178 172.665 205.178C182.481 205.178 190.757 213.498 190.757 223.366C190.757 233.234 182.481 241.553 172.665 241.553Z" fill="#312783"/>
</svg>
