<svg width="524" height="399" viewBox="0 0 524 399" fill="none" xmlns="http://www.w3.org/2000/svg">
<rect x="189.016" y="212.667" width="133.362" height="79.2965" transform="rotate(-6.59036 189.016 212.667)" fill="white"/>
<ellipse cx="130.704" cy="111.377" rx="130.704" ry="111.377" transform="matrix(0.981016 -0.193927 0.179459 0.983765 79.4414 50.6938)" fill="white"/>
<ellipse cx="106.145" cy="117.761" rx="106.145" ry="117.761" transform="matrix(0.929838 -0.367968 0.354828 0.934932 242.637 156.348)" fill="white"/>
<ellipse cx="72.3258" cy="100.824" rx="72.3258" ry="100.824" transform="matrix(-0.42487 0.905254 -0.908774 -0.417288 244.711 212.464)" fill="white"/>
<ellipse cx="227.178" cy="302.578" rx="148.606" ry="95.6665" transform="rotate(179.982 227.178 302.578)" fill="white"/>
<path d="M334.107 246.038C320.914 246.038 316.01 233.46 316.01 233.46L353.025 233.46C353.025 233.46 347.301 246.038 334.107 246.038Z" fill="#312783" stroke="#312783" stroke-width="9.04897" stroke-linecap="round"/>
<path d="M379.115 225.228C379.115 225.228 370.036 264.052 329.315 264.052C288.595 264.052 279.735 225.603 279.735 225.603" stroke="#312783" stroke-width="11.1372" stroke-linecap="round"/>
<line x1="281.838" y1="224.11" x2="376.27" y2="224.11" stroke="#312783" stroke-width="11.1372" stroke-linecap="round"/>
<path d="M352.796 271.823L350.463 265.974" stroke="#312783" stroke-width="9.74505" stroke-linecap="round"/>
<path d="M382.542 252.794L370.385 249.434" stroke="#312783" stroke-width="9.74505" stroke-linecap="round"/>
<path d="M188.256 246.382C175.063 246.382 170.158 233.804 170.158 233.804L207.174 233.804C207.174 233.804 201.449 246.382 188.256 246.382Z" fill="#312783" stroke="#312783" stroke-width="9.04897" stroke-linecap="round"/>
<path d="M233.264 225.573C233.264 225.573 224.184 264.396 183.464 264.397C142.743 264.397 133.884 225.947 133.884 225.947" stroke="#312783" stroke-width="11.1372" stroke-linecap="round"/>
<line x1="136.1" y1="224.11" x2="230.532" y2="224.11" stroke="#312783" stroke-width="11.1372" stroke-linecap="round"/>
<path d="M206.944 272.168L204.611 266.318" stroke="#312783" stroke-width="9.74505" stroke-linecap="round"/>
<path d="M236.689 253.139L224.531 249.779" stroke="#312783" stroke-width="9.74505" stroke-linecap="round"/>
</svg>
