<svg width="402" height="317" viewBox="0 0 402 317" fill="none" xmlns="http://www.w3.org/2000/svg">
<ellipse cx="73.4166" cy="70.2778" rx="73.4166" ry="70.2778" transform="matrix(-0.763758 0.645502 -0.729707 -0.68376 214.709 135.763)" fill="white"/>
<ellipse cx="63.0821" cy="72.2757" rx="63.0821" ry="72.2757" transform="matrix(-0.579107 0.815252 -0.876901 -0.480671 274.225 213.52)" fill="white"/>
<ellipse cx="48.2149" cy="46.1535" rx="48.2149" ry="46.1535" transform="matrix(-0.623202 0.782061 -0.849047 -0.528318 401.715 102.765)" fill="white"/>
<ellipse cx="112.297" cy="107.496" rx="112.297" ry="107.496" transform="matrix(-0.763758 0.645502 -0.729707 -0.68376 385.789 147.003)" fill="white"/>
<ellipse cx="20.9685" cy="22.4863" rx="20.9685" ry="22.4863" transform="matrix(-0.309699 0.950835 -0.980331 -0.19736 332.137 249.345)" fill="white"/>
<path d="M186.237 186.614C182.581 182.164 180.271 176.165 180.271 168.813C180.271 146.949 205.292 143.66 205.292 133.985C205.292 129.729 202.212 126.439 193.936 126.439C186.622 126.439 179.116 130.309 173.727 136.501L155.25 115.217C165.836 103.221 181.811 97.0293 197.593 97.0293C222.999 97.0293 238.781 109.412 238.781 127.987C238.781 155.656 208.949 157.784 208.949 172.296C208.949 175.585 210.296 178.487 211.836 180.035L186.237 186.614ZM197.978 230.342C188.162 230.342 179.886 222.022 179.886 212.154C179.886 202.286 188.162 193.966 197.978 193.966C207.794 193.966 216.07 202.286 216.07 212.154C216.07 222.022 207.794 230.342 197.978 230.342Z" fill="#312783"/>
</svg>
