<svg width="349" height="294" viewBox="0 0 349 294" fill="none" xmlns="http://www.w3.org/2000/svg">
<path d="M74.6191 0C113.901 9.8908e-05 145.705 37.6714 145.656 84.1416C145.654 86.036 145.597 87.916 145.49 89.7792C177.258 60.0009 219.345 52.905 241.752 74.4062C253.112 85.3071 257.333 101.562 255.026 119.236C307.052 121.052 348.545 157.998 348.496 203.308C348.446 249.779 304.72 287.45 250.831 287.45C221.186 287.45 194.642 276.05 176.766 258.056C159.028 279.277 130.121 293.095 97.4848 293.095C43.5953 293.094 -0.0498666 255.423 6.21855e-05 208.953C0.0252735 185.493 11.1823 164.275 29.1592 149.015C13.4006 133.581 3.37371 110.25 3.40177 84.1416C3.45187 37.6714 35.3371 0 74.6191 0Z" fill="white"/>
</svg>
