<svg width="778" height="285" viewBox="0 0 778 285" fill="none" xmlns="http://www.w3.org/2000/svg">
<path d="M605.317 65.1475C624.684 65.1475 641.574 77.6201 650.569 96.1455C659.373 83.3459 672.145 76.2809 684.256 79.1035C695.572 81.7407 703.586 92.3744 706.411 106.297C713.35 102.898 721.403 100.952 729.989 100.952C756.052 100.952 777.161 118.875 777.137 140.984C777.117 159.662 762.021 175.352 741.622 179.772C737.87 202.754 714.964 220.439 687.287 220.439C664.668 220.439 645.262 208.626 636.903 191.765C628.099 207.763 609.194 218.829 587.302 218.829C557.024 218.829 532.502 197.664 532.53 171.555C532.546 156.514 540.707 143.114 553.411 134.456C553.16 131.986 553.031 129.471 553.034 126.92C553.071 92.804 576.479 65.1475 605.317 65.1475Z" fill="white"/>
<path d="M183.001 224.986C167.078 224.986 153.344 213.968 146.938 198.027C138.378 208.232 127.087 213.54 116.318 211.03C105.655 208.545 97.9245 198.959 94.7038 186.212C87.1775 188.133 79.0546 189.181 70.5844 189.181C31.6223 189.181 0.0615373 167.011 0.0907143 139.664C0.120104 112.316 31.7286 90.1461 70.6908 90.1461C71.5526 90.1461 72.4107 90.1578 73.265 90.1793C81.3489 69.7833 103.772 55.1129 130.153 55.1129C151.921 55.113 170.973 65.1011 181.487 80.0523C190.457 74.5449 201.427 71.3034 213.272 71.3033C243.549 71.3033 268.072 92.4696 268.044 118.579C268.019 142.206 247.896 161.785 221.632 165.293C222.536 169.25 223.018 173.414 223.014 177.711C222.986 203.82 205.071 224.986 183.001 224.986Z" fill="white"/>
<path d="M315.63 108.327C299.707 108.327 285.973 119.344 279.567 135.286C271.007 125.081 259.716 119.773 248.947 122.283C237.631 124.92 229.617 135.554 226.792 149.476C219.853 146.077 211.799 144.131 203.213 144.131C177.15 144.131 156.041 162.055 156.065 184.165C156.085 203.079 171.567 218.927 192.359 223.113C199.376 257.817 234.495 284.208 276.736 284.208C300.966 284.208 322.835 275.524 338.389 261.568C340.845 261.858 343.353 262.008 345.901 262.008C376.179 262.008 400.701 240.843 400.673 214.734C400.648 191.106 380.525 171.527 354.26 168.019C355.165 164.062 355.648 159.899 355.644 155.601C355.615 129.492 337.7 108.327 315.63 108.327Z" fill="white"/>
<path d="M330.295 50.0565C315.176 45.0641 298.68 51.2193 287.599 64.3478C282.67 51.9739 273.611 43.3939 262.599 42.4006C251.027 41.357 240.083 48.9422 233.035 61.2772C227.511 55.8732 220.475 51.5002 212.321 48.808C187.572 40.636 161.908 51.0373 154.998 72.0392C149.161 89.7817 158.576 109.413 176.561 120.007C172.918 143.005 189.123 166.982 215.405 175.66C236.883 182.752 259.015 177.618 272.239 164.228C275.583 182.18 290.066 198.616 310.854 205.48C339.605 214.973 369.527 202.564 377.687 177.763C385.071 155.318 372.102 130.417 348.262 118.851C350.361 115.377 352.125 111.575 353.468 107.493C361.627 82.6917 351.253 56.9766 330.295 50.0565Z" fill="white"/>
<ellipse cx="54.8225" cy="47.2748" rx="54.8225" ry="47.2748" transform="matrix(-1 0 0.00107464 -0.999999 607.426 203.729)" fill="white"/>
<ellipse cx="54.8225" cy="47.2748" rx="54.8225" ry="47.2748" transform="matrix(-1 0 0.00107464 -0.999999 507.441 202.119)" fill="white"/>
<path d="M482.521 215.588C482.549 189.478 500.464 168.313 522.534 168.313C544.604 168.313 562.473 189.478 562.445 215.588C562.417 241.697 544.503 262.862 522.432 262.862C500.362 262.862 482.493 241.697 482.521 215.588Z" fill="white"/>
<path d="M441.209 147.619C475.504 147.619 503.28 171.203 503.248 200.295C503.217 229.387 475.39 252.971 441.096 252.971C406.801 252.971 379.025 229.387 379.057 200.295C379.088 171.203 406.914 147.619 441.209 147.619Z" fill="white"/>
<path d="M387.209 89.6191C421.504 89.6191 449.28 113.203 449.248 142.295C449.217 171.387 421.39 194.971 387.096 194.971C352.801 194.971 325.025 171.387 325.057 142.295C325.088 113.203 352.914 89.6191 387.209 89.6191Z" fill="white"/>
<path d="M516.861 202.26C500.939 202.26 487.205 191.243 480.799 175.301C472.239 185.506 460.947 190.814 450.178 188.304C438.863 185.667 430.849 175.033 428.024 161.111C421.084 164.51 413.031 166.456 404.445 166.456C378.382 166.456 357.273 148.532 357.296 126.422C357.317 107.745 372.413 92.0558 392.812 87.6353C396.563 64.6541 419.468 46.9675 447.145 46.9674C469.765 46.9674 489.172 58.7804 497.531 75.6422C506.335 59.6439 525.24 48.5778 547.132 48.5777C577.41 48.5777 601.931 69.744 601.903 95.8531C601.878 119.481 581.756 139.059 555.492 142.567C556.396 146.524 556.879 150.688 556.874 154.986C556.846 181.095 538.932 202.26 516.861 202.26Z" fill="white"/>
</svg>
