<svg width="353" height="320" viewBox="0 0 353 320" fill="none" xmlns="http://www.w3.org/2000/svg">
<ellipse cx="73.4166" cy="70.2778" rx="73.4166" ry="70.2778" transform="matrix(-0.763758 0.645502 -0.729707 -0.68376 326.928 96.1062)" fill="white"/>
<ellipse cx="63.0821" cy="72.2757" rx="63.0821" ry="72.2757" transform="matrix(-0.579107 0.815252 -0.876901 -0.480671 352.537 216.294)" fill="white"/>
<ellipse cx="48.2149" cy="46.1535" rx="48.2149" ry="46.1535" transform="matrix(-0.839296 0.543674 -0.637324 -0.770595 139.764 147.069)" fill="white"/>
<ellipse cx="112.297" cy="107.496" rx="112.297" ry="107.496" transform="matrix(-0.763758 0.645502 -0.729707 -0.68376 346.979 174.003)" fill="white"/>
<ellipse cx="20.9685" cy="22.4863" rx="20.9685" ry="22.4863" transform="matrix(-0.309699 0.950835 -0.980331 -0.19736 139.764 11.4067)" fill="white"/>
<path d="M172.737 195.897C169.081 191.447 166.771 185.449 166.771 178.096C166.771 156.232 191.792 152.943 191.792 143.269C191.792 139.012 188.712 135.723 180.436 135.723C173.122 135.723 165.616 139.592 160.227 145.784L141.75 124.5C152.336 112.504 168.311 106.312 184.093 106.312C209.499 106.312 225.281 118.696 225.281 137.27C225.281 164.939 195.449 167.067 195.449 181.579C195.449 184.868 196.796 187.771 198.336 189.318L172.737 195.897ZM184.478 239.625C174.662 239.625 166.386 231.305 166.386 221.437C166.386 211.569 174.662 203.249 184.478 203.249C194.294 203.249 202.57 211.569 202.57 221.437C202.57 231.305 194.294 239.625 184.478 239.625Z" fill="#312783"/>
</svg>
