<svg width="983" height="543" viewBox="0 0 983 543" fill="none" xmlns="http://www.w3.org/2000/svg">
<path d="M640.953 0.0821035C689.027 -1.77458 727.623 28.0352 740.348 71.6026C763.058 61.8404 788.571 55.4934 815.35 53.7335C905.078 47.8365 975.038 95.6557 971.609 160.54C970.757 176.658 965.454 192.312 956.593 206.83C974.637 227.207 984.519 255.574 982.047 287.361C977.005 352.193 922.494 406.697 860.294 409.1C842.136 409.801 825.33 405.982 810.76 398.613C807.611 405.11 803.052 411.01 797.172 415.731C777.172 431.786 749.48 428.145 735.321 407.6C731.489 402.039 729.043 395.809 727.907 389.361C717.115 396.14 705.394 401.297 693.111 404.465C693.41 409.78 693.356 415.222 692.925 420.77C687.883 485.601 633.372 540.105 571.172 542.508C520.801 544.453 480.835 511.634 470.132 464.65C436.781 484.228 393.925 496.988 347.926 498.765C272.701 501.67 210.518 474.376 186.52 433.047C151.075 459.641 103.437 468.529 62.7762 452.327C4.95037 429.286 -16.8671 364.23 14.0448 307.02C30.7823 276.043 59.5469 253.718 91.5868 243.415C66.7799 199.613 64.5618 149.992 90.5057 113.498C124.405 65.814 195.269 56.1772 259.094 86.7344C260.929 74.5897 267.137 62.9851 277.253 54.8643C297.252 38.8091 324.944 42.4496 339.103 62.9952C339.949 64.2224 340.726 65.4831 341.437 66.7706C362.899 47.0957 390.332 34.5536 419.45 33.4288C469.797 31.4841 509.748 64.2709 520.474 111.219C530.264 51.1484 582.175 2.35244 640.953 0.0821035Z" fill="#0053FF"/>
</svg>
