<svg width="376" height="337" viewBox="0 0 376 337" fill="none" xmlns="http://www.w3.org/2000/svg">
<ellipse cx="73.4166" cy="70.2778" rx="73.4166" ry="70.2778" transform="matrix(-0.763758 0.645502 -0.729707 -0.68376 375.867 241.231)" fill="white"/>
<ellipse cx="63.0821" cy="60.3851" rx="63.0821" ry="60.3851" transform="matrix(-0.965196 0.261527 -0.371678 -0.928361 218.975 280.866)" fill="white"/>
<ellipse cx="48.2149" cy="46.1535" rx="48.2149" ry="46.1535" transform="matrix(-0.623202 0.782061 -0.849047 -0.528318 363.75 131.455)" fill="white"/>
<ellipse cx="112.297" cy="107.496" rx="112.297" ry="107.496" transform="matrix(-0.763758 0.645502 -0.729707 -0.68376 340.23 147.003)" fill="white"/>
<ellipse cx="20.9685" cy="22.4863" rx="20.9685" ry="22.4863" transform="matrix(-0.309699 0.950835 -0.980331 -0.19736 57.0762 183.532)" fill="white"/>
<path d="M172.737 197.583C169.081 193.133 166.771 187.135 166.771 179.782C166.771 157.918 191.792 154.629 191.792 144.955C191.792 140.698 188.712 137.409 180.436 137.409C173.122 137.409 165.616 141.279 160.227 147.47L141.75 126.187C152.336 114.19 168.311 107.999 184.093 107.999C209.499 107.999 225.281 120.382 225.281 138.957C225.281 166.625 195.449 168.754 195.449 183.265C195.449 186.554 196.796 189.457 198.336 191.005L172.737 197.583ZM184.478 241.311C174.662 241.311 166.386 232.991 166.386 223.124C166.386 213.256 174.662 204.936 184.478 204.936C194.294 204.936 202.57 213.256 202.57 223.124C202.57 232.991 194.294 241.311 184.478 241.311Z" fill="#312783"/>
</svg>
