<svg width="1334" height="566" viewBox="0 0 1334 566" fill="none" xmlns="http://www.w3.org/2000/svg">
<path d="M21.9251 209.325C54.5358 203.196 73.485 232.241 77.8918 246.783C81.8552 259.862 78.6894 277.576 85.7065 316.758C87.1707 324.934 94.3993 330.738 102.705 330.738H803.489C813.224 330.738 821.116 338.63 821.116 348.366V371.281C821.116 381.016 813.224 388.908 803.489 388.908H59.7956C52.5163 388.908 45.8688 384.505 43.1095 377.769C36.2504 361.025 23.094 328.235 13.112 299.224C-0.989226 258.241 -10.6857 215.454 21.9251 209.325Z" fill="#0053FF"/>
<path d="M351.307 125.049C355.165 119.136 362.802 116.987 369.178 120.021L819.271 334.228C826.304 337.575 829.291 345.988 825.945 353.02L813.421 379.341C810.074 386.374 801.661 389.362 794.628 386.016L377.969 187.75C373.984 185.854 369.212 187.197 366.801 190.893L244.565 378.258C240.31 384.781 231.572 386.619 225.049 382.364L207.671 371.027C201.148 366.771 199.31 358.034 203.565 351.511L351.307 125.049Z" fill="#0053FF" stroke="#0053FF" stroke-width="5.28819"/>
<path d="M1331.74 385.157C1325.69 409.699 944.775 397.426 874.367 394.946C868.154 394.727 863.308 389.583 863.391 383.366L863.779 354.469C863.867 347.939 869.204 342.788 875.725 343.147C935.192 346.424 1199.49 360.046 1199.1 343.292C1198.78 329.574 1072.06 236.389 1002.83 186.481C992.782 179.242 999.786 163.251 1011.93 165.68L1054.86 174.272C1056.29 174.558 1057.47 174.992 1058.69 175.79C1081.79 190.91 1338.12 359.333 1331.74 385.157Z" fill="#0053FF"/>
<path d="M313.641 95.7529C386.245 61.6653 513.153 49.0628 624.608 106.569C710.732 151.005 768.218 187.402 789.736 201.538C795.638 205.415 797.075 213.313 793.109 219.108L772.84 248.728C768.566 254.973 759.867 256.213 753.993 251.457C729.693 231.78 663.735 180.309 598.549 146.375C516.801 103.819 417.93 107.55 351.672 131.684C324.37 141.628 294.647 164.923 269.119 188.931C243.623 212.908 222.446 237.467 212.235 249.788C208.015 254.88 200.654 256.038 195.104 252.417L177.402 240.869C171.298 236.886 169.76 228.608 174.248 222.807C184.411 209.668 204.48 184.854 229.376 159.863C254.253 134.891 284.038 109.651 313.641 95.7529Z" fill="#0053FF" stroke="#0053FF" stroke-width="2.6441"/>
<rect x="768.748" y="246.761" width="154.743" height="92.0093" transform="rotate(-6.59036 768.748 246.761)" fill="white"/>
<ellipse cx="151.659" cy="129.233" rx="151.659" ry="129.233" transform="matrix(0.981016 -0.193927 0.179459 0.983765 641.611 58.8213)" fill="white"/>
<ellipse cx="123.162" cy="136.641" rx="123.162" ry="136.641" transform="matrix(0.929838 -0.367968 0.354828 0.934932 830.967 181.414)" fill="white"/>
<ellipse cx="83.9211" cy="116.988" rx="83.9211" ry="116.988" transform="matrix(-0.42487 0.905254 -0.908774 -0.417288 833.371 246.526)" fill="white"/>
<ellipse cx="813.038" cy="351.087" rx="172.431" ry="111.004" transform="rotate(179.982 813.038 351.087)" fill="white"/>
<path d="M937.108 285.483C921.799 285.483 916.108 270.888 916.108 270.888L959.058 270.888C959.058 270.888 952.416 285.483 937.108 285.483Z" fill="#312783" stroke="#312783" stroke-width="10.4997" stroke-linecap="round"/>
<path d="M989.33 261.337C989.33 261.337 978.795 306.385 931.547 306.385C884.298 306.385 874.018 261.772 874.018 261.772" stroke="#312783" stroke-width="12.9227" stroke-linecap="round"/>
<line x1="876.459" y1="260.039" x2="986.031" y2="260.039" stroke="#312783" stroke-width="12.9227" stroke-linecap="round"/>
<path d="M958.795 315.401L956.088 308.614" stroke="#312783" stroke-width="11.3074" stroke-linecap="round"/>
<path d="M993.308 293.322L979.201 289.424" stroke="#312783" stroke-width="11.3074" stroke-linecap="round"/>
<path d="M767.867 285.881C752.559 285.881 746.868 271.286 746.868 271.286L789.818 271.286C789.818 271.286 783.176 285.881 767.867 285.881Z" fill="#312783" stroke="#312783" stroke-width="10.4997" stroke-linecap="round"/>
<path d="M820.09 261.737C820.09 261.737 809.555 306.785 762.306 306.785C715.058 306.785 704.777 262.172 704.777 262.172" stroke="#312783" stroke-width="12.9227" stroke-linecap="round"/>
<line x1="707.352" y1="260.039" x2="816.924" y2="260.039" stroke="#312783" stroke-width="12.9227" stroke-linecap="round"/>
<path d="M789.553 315.8L786.846 309.013" stroke="#312783" stroke-width="11.3074" stroke-linecap="round"/>
<path d="M824.065 293.722L809.959 289.823" stroke="#312783" stroke-width="11.3074" stroke-linecap="round"/>
<path d="M153.8 201.834C168.783 193.02 193.902 196.546 193.902 196.546L220.784 241.936C220.784 241.936 218.581 289.97 196.105 288.648C173.63 287.326 183.326 257.801 183.326 257.801C183.326 257.801 156.885 281.157 140.139 267.496C123.394 253.834 158.647 229.597 158.647 229.597C144.546 227.393 138.817 210.648 153.8 201.834Z" fill="#0053FF"/>
</svg>
