<svg width="1920" height="934" viewBox="0 0 1920 934" fill="none" xmlns="http://www.w3.org/2000/svg">
<path d="M1920 4.59202e-05H1479C1479 4.59202e-05 1748.5 10.4321 1827 53.5995C1905.5 96.767 1920 159 1920 159V4.59202e-05Z" fill="#302886"/>
<path d="M0 4.59202e-05H441C441 4.59202e-05 171.5 10.4321 93 53.5995C14.5 96.767 0 159 0 159V4.59202e-05Z" fill="#302886"/>
<path d="M1920 934H1479C1479 934 1748.5 925.405 1827 889.839C1905.5 854.274 1920 803 1920 803V934Z" fill="#302886"/>
<path d="M0 934H441C441 934 171.5 925.405 93 889.839C14.5 854.274 0 803 0 803V934Z" fill="#302886"/>
</svg>
