<svg width="2009" height="608" viewBox="0 0 2009 608" fill="none" xmlns="http://www.w3.org/2000/svg">
<path d="M158.435 296.398C183.949 311.129 190.48 347.524 173.021 377.688C172.309 378.918 171.567 380.117 170.8 381.287C202.6 373.859 232.597 385.033 239.088 407.401C242.379 418.741 239.024 430.882 230.898 441.497C264.01 462.186 277.106 501.743 260.083 531.155C242.624 561.319 200.096 569.39 165.094 549.182C145.839 538.065 132.873 520.706 128.01 502.315C108.531 509.446 84.5741 507.582 63.3761 495.343C28.3738 475.135 14.1512 434.299 31.6101 404.134C40.4243 388.906 55.6284 379.309 73.0276 376.138C68.5796 360.204 70.8161 341.291 80.625 324.343C98.0838 294.179 132.92 281.667 158.435 296.398Z" fill="white"/>
<path d="M507.024 336.75C534.814 336.75 558.787 355.977 569.969 383.799C584.909 365.989 604.618 356.728 623.412 361.108C643.162 365.711 657.151 384.27 662.082 408.569C674.194 402.637 688.248 399.242 703.233 399.242C748.722 399.242 785.565 430.525 785.524 469.114C785.489 501.714 759.142 529.098 723.538 536.813C716.99 576.924 677.011 607.794 628.704 607.794C589.224 607.794 555.352 587.175 540.763 557.744C525.397 585.667 492.4 604.981 454.19 604.981C401.345 604.981 358.544 568.04 358.593 522.47C358.638 481.232 393.757 447.059 439.595 440.935C438.017 434.028 437.18 426.762 437.188 419.262C437.237 373.692 468.504 336.75 507.024 336.75Z" fill="#C3FB4F"/>
<path d="M1751.97 0.0615751C1788.03 -1.3309 1816.97 21.0262 1826.52 53.7012C1843.55 46.3795 1862.69 41.6198 1882.77 40.2999C1950.07 35.8771 2002.54 71.7418 1999.96 120.405C1999.33 132.494 1995.35 144.234 1988.7 155.122C2002.24 170.405 2009.65 191.68 2007.79 215.521C2004.01 264.144 1963.13 305.022 1916.48 306.824C1902.86 307.35 1890.26 304.486 1879.33 298.959C1876.97 303.832 1873.55 308.257 1869.14 311.798C1854.14 323.839 1833.37 321.109 1822.75 305.7C1819.87 301.53 1818.04 296.857 1817.19 292.022C1809.09 297.106 1800.3 300.973 1791.09 303.35C1791.31 307.335 1791.27 311.417 1790.95 315.577C1787.17 364.201 1746.29 405.079 1699.64 406.881C1661.86 408.34 1631.88 383.726 1623.86 348.487C1598.84 363.171 1566.7 372.741 1532.2 374.073C1475.78 376.252 1429.15 355.783 1411.15 324.786C1384.56 344.731 1348.84 351.396 1318.34 339.245C1274.97 321.965 1258.61 273.172 1281.79 230.265C1294.34 207.032 1315.92 190.289 1339.95 182.562C1321.34 149.71 1319.68 112.494 1339.14 85.1231C1364.56 49.3603 1417.71 42.1331 1465.58 65.0508C1466.95 55.9424 1471.61 47.239 1479.2 41.1485C1494.2 29.1072 1514.97 31.8372 1525.58 47.2461C1526.22 48.1666 1526.8 49.1125 1527.34 50.0782C1543.43 35.3218 1564.01 25.9149 1585.85 25.0713C1623.61 23.6128 1653.57 48.2032 1661.61 83.4141C1668.96 38.3613 1707.89 1.76432 1751.97 0.0615751Z" fill="#0053FF"/>
</svg>
