<svg width="123" height="123" viewBox="0 0 123 123" fill="none" xmlns="http://www.w3.org/2000/svg">
<rect x="55.9805" y="12.981" width="10.6104" height="96.7141" fill="#C3FB4F" stroke="#C3FB4F" stroke-width="2"/>
<path d="M41.3809 21.3618L61.3242 1.41846L61.3398 1.43506L61.3506 1.42334L81.2891 21.3618L74.0879 28.563L61.335 15.8101L48.582 28.563L41.3809 21.3618Z" fill="#C3FB4F" stroke="#C3FB4F" stroke-width="2"/>
<path d="M41.3809 101.312L61.3242 121.255L61.3398 121.239L61.3506 121.25L81.2891 101.312L74.0879 94.1108L61.335 106.864L48.582 94.1108L41.3809 101.312Z" fill="#C3FB4F" stroke="#C3FB4F" stroke-width="2"/>
<rect x="109.691" y="55.9795" width="10.6104" height="96.7141" transform="rotate(90 109.691 55.9795)" fill="#C3FB4F" stroke="#C3FB4F" stroke-width="2"/>
<path d="M101.311 41.3828L121.254 61.3262L121.237 61.3418L121.249 61.3525L101.311 81.291L94.1094 74.0898L106.862 61.3369L94.1094 48.584L101.311 41.3828Z" fill="#C3FB4F" stroke="#C3FB4F" stroke-width="2"/>
<path d="M21.3613 41.3828L1.41797 61.3262L1.43457 61.3418L1.42285 61.3525L21.3613 81.291L28.5625 74.0898L15.8096 61.3369L28.5625 48.584L21.3613 41.3828Z" fill="#C3FB4F" stroke="#C3FB4F" stroke-width="2"/>
</svg>
