<svg width="344" height="616" viewBox="0 0 344 616" fill="none" xmlns="http://www.w3.org/2000/svg">
<path d="M171.579 59.5029C266.34 59.5029 343.159 87.7848 343.159 122.673C343.159 123.023 343.147 123.372 343.132 123.721C343.459 126.6 343.44 129.572 343.034 132.592L287.484 545.979C286.921 550.172 285.646 554.114 283.794 557.691C282.822 589.464 233.046 615.064 171.781 615.064C109.909 615.064 59.752 588.953 59.752 556.744C59.752 556.521 59.7549 556.297 59.7598 556.074C58.3394 552.956 57.3471 549.587 56.8643 546.039L0.608398 132.651C0.322317 130.549 0.22554 128.469 0.300781 126.428C0.102966 125.185 0 123.933 0 122.673C0.000446281 87.7849 76.8189 59.503 171.579 59.5029Z" fill="white"/>
<path d="M172.18 260.834C244.882 260.834 303.819 285.467 303.819 315.854C303.819 317.156 303.708 318.448 303.494 319.728C303.481 321.376 303.354 323.047 303.107 324.73L273.13 528.507C272.479 532.937 271.034 537.077 268.953 540.794C268.959 541.013 268.962 541.232 268.962 541.451C268.962 569.502 225.281 592.242 171.397 592.242C117.513 592.242 73.8324 569.502 73.8324 541.451C73.8324 540.861 73.8525 540.272 73.891 539.687C72.1427 536.287 70.9147 532.559 70.3216 528.598L39.8109 324.821C37.3772 308.566 46.2073 293.54 60.0189 287.037C83.1913 271.315 124.757 260.834 172.18 260.834Z" fill="#312783"/>
<path d="M237.808 341.692H171.581V407.879H237.808V341.692H300.612L290.876 407.879H237.808V474.065H171.581V540.252H237.808V474.065H281.141L273.132 528.507C272.512 532.723 271.17 536.676 269.249 540.252H237.808V578.659C220.433 587.067 197.162 592.217 171.581 592.241V540.252H105.354V474.065H171.581V407.879H105.354V341.692H171.581V283.646H237.808V341.692ZM105.354 578.835C85.9755 569.553 73.8324 556.241 73.832 541.452C73.832 541.051 73.8442 540.651 73.8623 540.252H105.354V578.835ZM105.354 474.065H62.1562L52.2461 407.879H105.354V474.065Z" fill="white"/>
<ellipse cx="172.802" cy="320.744" rx="133.677" ry="62.3555" fill="#312783"/>
<mask id="path-5-outside-1_414_50420" maskUnits="userSpaceOnUse" x="47.3516" y="316.809" width="248" height="57" fill="black">
<rect fill="white" x="47.3516" y="316.809" width="248" height="57"/>
<path d="M171.58 369.809C230.493 369.809 279.737 348.628 291.809 320.337H289.734C284.704 331.444 273.561 341.583 257.734 349.68C235.783 360.912 205.326 367.915 171.58 367.915C137.834 367.915 107.377 360.912 85.4258 349.68C69.5998 341.583 58.4574 331.444 53.4268 320.337H51.3516C63.4233 348.628 112.667 369.809 171.58 369.809Z"/>
</mask>
<path d="M171.58 369.809C230.493 369.809 279.737 348.628 291.809 320.337H289.734C284.704 331.444 273.561 341.583 257.734 349.68C235.783 360.912 205.326 367.915 171.58 367.915C137.834 367.915 107.377 360.912 85.4258 349.68C69.5998 341.583 58.4574 331.444 53.4268 320.337H51.3516C63.4233 348.628 112.667 369.809 171.58 369.809Z" fill="white"/>
<path d="M171.58 369.809V373.07V373.07V369.809ZM291.809 320.337V317.076C292.904 317.076 293.926 317.626 294.529 318.54C295.133 319.453 295.237 320.609 294.807 321.616L291.809 320.337ZM289.734 320.337L286.764 318.991C287.293 317.825 288.454 317.076 289.734 317.076V320.337ZM257.734 349.68L259.219 352.583V352.583L257.734 349.68ZM171.58 367.915V371.175V371.175V367.915ZM85.4258 349.68L83.9407 352.583L83.9407 352.583L85.4258 349.68ZM53.4268 320.337V317.076C54.7069 317.076 55.8686 317.825 56.3967 318.991L53.4268 320.337ZM51.3516 320.337L48.3527 321.616C47.923 320.609 48.0275 319.453 48.6311 318.54C49.2346 317.626 50.2565 317.076 51.3516 317.076V320.337ZM171.58 369.809V366.549C200.671 366.549 227.274 361.316 248.005 352.673C268.847 343.984 283.257 332.07 288.81 319.057L291.809 320.337L294.807 321.616C288.288 336.895 272.041 349.717 250.514 358.691C228.877 367.712 201.402 373.07 171.58 373.07V369.809ZM291.809 320.337V323.597H289.734V320.337V317.076H291.809V320.337ZM289.734 320.337L292.704 321.682C287.252 333.719 275.396 344.306 259.219 352.583L257.734 349.68L256.249 346.778C271.725 338.86 282.155 329.169 286.764 318.991L289.734 320.337ZM257.734 349.68L259.219 352.583C236.72 364.095 205.733 371.175 171.58 371.175V367.915V364.654C204.919 364.654 234.846 357.729 256.249 346.778L257.734 349.68ZM171.58 367.915V371.175C137.427 371.175 106.44 364.095 83.9407 352.583L85.4258 349.68L86.9109 346.778C108.314 357.729 138.241 364.654 171.58 364.654V367.915ZM85.4258 349.68L83.9407 352.583C67.7638 344.306 55.9085 333.718 50.4568 321.682L53.4268 320.337L56.3967 318.991C61.0062 329.169 71.4358 338.86 86.9109 346.778L85.4258 349.68ZM53.4268 320.337V323.597H51.3516V320.337V317.076H53.4268V320.337ZM51.3516 320.337L54.3504 319.057C59.9028 332.07 74.3137 343.984 95.155 352.673C115.886 361.316 142.49 366.549 171.58 366.549V369.809V373.07C141.758 373.07 114.283 367.712 92.6458 358.691C71.119 349.717 54.8721 336.895 48.3527 321.616L51.3516 320.337Z" fill="white" mask="url(#path-5-outside-1_414_50420)"/>
<path d="M227.184 238.833C232.319 233.727 233.219 225.781 230.178 218.602C236.212 219.14 241.559 217.224 244.229 212.961C247.034 208.483 246.211 202.493 242.66 197.111C245.985 195.977 249.204 194.02 251.971 191.268C260.377 182.909 261.443 170.376 254.352 163.276C248.362 157.279 238.469 157.077 230.474 162.196C221.902 156.004 208.844 157.661 199.914 166.54C192.616 173.798 190.143 183.825 192.855 191.929C184.889 189.607 175.245 192.111 168.183 199.134C158.418 208.845 157.29 223.514 165.664 231.899C173.242 239.487 186.005 239.327 195.599 232.03C196.576 233.593 197.755 235.088 199.134 236.469C207.508 244.853 220.066 245.912 227.184 238.833Z" fill="#B7FE25"/>
<path d="M148.361 310.543C144.946 311.152 142.424 314.034 141.661 317.69C139.433 315.833 136.807 315.128 134.593 316.077C132.266 317.074 130.956 319.659 130.886 322.749C129.267 322.286 127.465 322.175 125.622 322.504C120.031 323.5 116.19 328.144 117.043 332.875C117.765 336.871 121.605 339.651 126.15 339.817C127.834 344.596 133.428 347.508 139.367 346.449C144.222 345.584 147.933 342.31 149.077 338.379C151.579 341.468 156.06 343.116 160.758 342.278C167.253 341.12 171.701 335.653 170.693 330.066C169.781 325.009 164.71 321.587 158.94 321.843C158.982 320.961 158.927 320.051 158.761 319.131C157.753 313.544 153.096 309.699 148.361 310.543Z" fill="#B7FE25"/>
<path d="M303.079 76.7234C300.247 78.7291 299.193 82.412 300.06 86.0451C297.252 85.3131 294.575 85.7936 292.976 87.5957C291.295 89.4894 291.212 92.3847 292.464 95.2098C290.801 95.4811 289.123 96.1486 287.596 97.2306C282.962 100.514 281.465 106.351 284.252 110.268C286.607 113.576 291.264 114.456 295.447 112.671C299.007 116.277 305.308 116.529 310.231 113.041C314.256 110.19 316.219 105.647 315.579 101.603C319.158 103.333 323.914 102.917 327.808 100.158C333.192 96.3441 334.887 89.5024 331.596 84.877C328.617 80.6907 322.573 79.7541 317.461 82.4419C317.124 81.626 316.686 80.8262 316.144 80.0645C312.853 75.4391 307.003 73.9434 303.079 76.7234Z" fill="#B7FE25"/>
<path d="M254.899 327.68C260.034 322.573 260.933 314.627 257.893 307.447C263.927 307.986 269.273 306.071 271.944 301.808C274.749 297.33 273.926 291.339 270.374 285.956C273.7 284.823 276.918 282.866 279.686 280.114C288.091 271.754 289.157 259.223 282.066 252.123C276.076 246.125 266.183 245.922 258.188 251.042C249.616 244.851 236.558 246.508 227.628 255.387C220.33 262.645 217.858 272.672 220.57 280.775C212.604 278.453 202.96 280.958 195.898 287.98C186.133 297.691 185.005 312.36 193.378 320.745C200.957 328.333 213.72 328.173 223.314 320.876C224.291 322.439 225.469 323.934 226.848 325.314C235.222 333.699 247.781 334.758 254.899 327.68Z" fill="#0053FF"/>
<path d="M52.1744 149.024C55.843 155.268 63.3152 158.116 71.0251 156.957C69.0023 162.667 69.5277 168.323 72.9925 171.97C76.6316 175.801 82.6381 176.494 88.7345 174.394C89.005 177.897 90.0994 181.5 92.0765 184.865C98.0818 195.086 109.955 199.237 118.596 194.135C125.895 189.826 128.552 180.294 125.582 171.276C133.713 164.514 135.356 151.454 128.977 140.596C123.763 131.722 114.667 126.833 106.143 127.444C110.375 120.306 110.349 110.341 105.303 101.753C98.3271 89.8795 84.3997 85.1378 74.1955 91.1623C64.9607 96.6146 61.9406 109.016 66.6211 120.124C64.864 120.681 63.1234 121.451 61.4427 122.443C51.2385 128.468 47.0891 140.369 52.1744 149.024Z" fill="#312783"/>
<path d="M193.013 34.6736C186.364 41.1744 185.122 51.3678 188.948 60.6189C181.206 59.8616 174.321 62.2621 170.845 67.7064C167.195 73.4253 168.187 81.1255 172.688 88.0754C168.406 89.4941 164.253 91.9711 160.669 95.4747C149.786 106.116 148.28 122.194 157.307 131.388C164.932 139.154 177.634 139.521 187.954 133.034C198.893 141.078 215.676 139.093 227.238 127.789C236.687 118.551 239.972 105.704 236.579 95.2709C246.781 98.3373 259.189 95.227 268.332 86.2883C280.975 73.9267 282.583 55.1049 271.924 44.2484C262.277 34.4237 245.89 34.4893 233.492 43.7522C232.255 41.7347 230.757 39.8039 229.002 38.016C218.342 27.1596 202.229 25.6628 193.013 34.6736Z" fill="#0053FF"/>
<path d="M86.5334 211.397C95.4021 212.978 101.954 220.462 103.936 229.956C109.723 225.132 116.544 223.303 122.295 225.768C128.336 228.357 131.741 235.063 131.927 243.082C136.128 241.886 140.802 241.606 145.58 242.458C160.1 245.046 170.074 257.105 167.857 269.391C165.985 279.766 156.017 286.985 144.218 287.421C139.842 299.829 125.317 307.392 109.892 304.642C97.2869 302.395 87.6507 293.897 84.6781 283.691C78.179 291.711 66.543 295.985 54.3452 293.811C37.4773 290.804 25.9256 276.605 28.5437 262.097C30.9134 248.965 44.0783 240.081 59.0622 240.742C58.9526 238.452 59.0983 236.088 59.5295 233.698C62.1479 219.19 74.2379 209.205 86.5334 211.397Z" fill="#0053FF"/>
<mask id="path-14-outside-2_414_50420" maskUnits="userSpaceOnUse" x="10.6719" y="121.226" width="322" height="70" fill="black">
<rect fill="white" x="10.6719" y="121.226" width="322" height="70"/>
<path d="M171.987 187.226C249.073 187.226 313.508 160.46 329.304 124.711H327.218C320.612 138.954 305.872 151.915 285.008 162.224C256.181 176.468 216.225 185.332 171.987 185.332C127.75 185.332 87.7932 176.468 58.9668 162.224C38.1027 151.915 23.3629 138.954 16.7578 124.711H14.6719C30.4675 160.46 94.9013 187.226 171.987 187.226Z"/>
</mask>
<path d="M171.987 187.226C249.073 187.226 313.508 160.46 329.304 124.711H327.218C320.612 138.954 305.872 151.915 285.008 162.224C256.181 176.468 216.225 185.332 171.987 185.332C127.75 185.332 87.7932 176.468 58.9668 162.224C38.1027 151.915 23.3629 138.954 16.7578 124.711H14.6719C30.4675 160.46 94.9013 187.226 171.987 187.226Z" fill="#312783"/>
<path d="M171.987 187.226V190.486V190.486V187.226ZM329.304 124.711V121.451C330.406 121.451 331.434 122.008 332.036 122.932C332.637 123.856 332.732 125.021 332.286 126.029L329.304 124.711ZM327.218 124.711L324.26 123.34C324.794 122.188 325.948 121.451 327.218 121.451V124.711ZM285.008 162.224L286.452 165.147V165.147L285.008 162.224ZM171.987 185.332V188.592V188.592V185.332ZM58.9668 162.224L57.5225 165.147L57.5225 165.147L58.9668 162.224ZM16.7578 124.711V121.451C18.0274 121.451 19.1815 122.188 19.7157 123.34L16.7578 124.711ZM14.6719 124.711L11.6896 126.029C11.2441 125.021 11.3382 123.856 11.94 122.932C12.5417 122.008 13.5695 121.451 14.6719 121.451V124.711ZM171.987 187.226V183.966C210.178 183.966 245.136 177.332 272.412 166.35C299.811 155.319 318.928 140.127 326.321 123.394L329.304 124.711L332.286 126.029C323.884 145.045 302.885 161.11 274.847 172.399C246.685 183.737 210.883 190.486 171.987 190.486V187.226ZM329.304 124.711V127.972H327.218V124.711V121.451H329.304V124.711ZM327.218 124.711L330.176 126.083C323.131 141.273 307.653 154.672 286.452 165.147L285.008 162.224L283.563 159.301C304.092 149.158 318.094 136.636 324.26 123.34L327.218 124.711ZM285.008 162.224L286.452 165.147C257.087 179.657 216.616 188.592 171.987 188.592V185.332V182.071C215.834 182.071 255.275 173.279 283.563 159.301L285.008 162.224ZM171.987 185.332V188.592C127.359 188.592 86.8871 179.657 57.5225 165.147L58.9668 162.224L60.4111 159.301C88.6993 173.279 128.141 182.071 171.987 182.071V185.332ZM58.9668 162.224L57.5225 165.147C36.3221 154.672 20.844 141.273 13.8 126.083L16.7578 124.711L19.7157 123.34C25.8818 136.636 39.8832 149.158 60.4111 159.301L58.9668 162.224ZM16.7578 124.711V127.972H14.6719V124.711V121.451H16.7578V124.711ZM14.6719 124.711L17.6541 123.394C25.0477 140.127 44.1643 155.319 71.5634 166.35C98.839 177.332 133.797 183.966 171.987 183.966V187.226V190.486C133.092 190.486 97.2897 183.737 69.128 172.399C41.0898 161.11 20.0916 145.045 11.6896 126.029L14.6719 124.711Z" fill="#312783" mask="url(#path-14-outside-2_414_50420)"/>
</svg>
