<svg width="344" height="557" viewBox="0 0 344 557" fill="none" xmlns="http://www.w3.org/2000/svg">
<path d="M171.84 0C266.745 0 343.681 28.3254 343.681 63.2666C343.681 63.6257 343.67 63.9841 343.653 64.3418C343.978 67.2171 343.958 70.1855 343.553 73.2002L287.918 487.217C287.354 491.415 286.078 495.362 284.224 498.944C283.253 530.766 233.4 556.407 172.041 556.407C110.075 556.407 59.8418 530.256 59.8418 497.998C59.8418 497.775 59.8438 497.552 59.8486 497.329C58.4255 494.205 57.431 490.831 56.9473 487.276L0.606445 73.2598C0.319234 71.1492 0.222444 69.0611 0.298828 67.0117C0.10231 65.7725 0 64.524 0 63.2666C0.000139993 28.3255 76.9352 5.93669e-05 171.84 0Z" fill="white"/>
<mask id="path-2-outside-1_418_50838" maskUnits="userSpaceOnUse" x="10.6953" y="61.9199" width="323" height="70" fill="black">
<rect fill="white" x="10.6953" y="61.9199" width="323" height="70"/>
<path d="M172.251 127.92C249.454 127.92 313.986 101.114 329.806 65.3105H327.717C321.102 79.5751 306.339 92.5548 285.443 102.88C256.573 117.145 216.556 126.022 172.251 126.022C127.946 126.022 87.9289 117.145 59.0586 102.88C38.1626 92.5548 23.3993 79.5752 16.7842 65.3105H14.6953C30.515 101.114 95.0477 127.92 172.251 127.92Z"/>
</mask>
<path d="M172.251 127.92C249.454 127.92 313.986 101.114 329.806 65.3105H327.717C321.102 79.5751 306.339 92.5548 285.443 102.88C256.573 117.145 216.556 126.022 172.251 126.022C127.946 126.022 87.9289 117.145 59.0586 102.88C38.1626 92.5548 23.3993 79.5752 16.7842 65.3105H14.6953C30.515 101.114 95.0477 127.92 172.251 127.92Z" fill="#312783"/>
<path d="M172.251 127.92V131.185V131.185V127.92ZM329.806 65.3105V62.0452C330.91 62.0452 331.939 62.6031 332.542 63.5282C333.144 64.4534 333.239 65.6204 332.792 66.6303L329.806 65.3105ZM327.717 65.3105L324.754 63.9368C325.289 62.7833 326.445 62.0452 327.717 62.0452V65.3105ZM285.443 102.88L286.89 105.807V105.807L285.443 102.88ZM172.251 126.022V129.288V129.288V126.022ZM59.0586 102.88L57.6121 105.807L57.6121 105.807L59.0586 102.88ZM16.7842 65.3105V62.0452C18.0557 62.0452 19.2116 62.7833 19.7465 63.9368L16.7842 65.3105ZM14.6953 65.3105L11.7085 66.6303C11.2623 65.6204 11.3566 64.4534 11.9592 63.5282C12.5619 62.6031 13.5912 62.0452 14.6953 62.0452V65.3105ZM172.251 127.92V124.655C210.5 124.654 245.51 118.011 272.828 107.012C300.268 95.9642 319.414 80.7495 326.819 63.9908L329.806 65.3105L332.792 66.6303C324.378 85.6747 303.347 101.765 275.267 113.07C247.062 124.426 211.205 131.185 172.251 131.185V127.92ZM329.806 65.3105V68.5759H327.717V65.3105V62.0452H329.806V65.3105ZM327.717 65.3105L330.679 66.6843C323.624 81.8969 308.122 95.316 286.89 105.807L285.443 102.88L283.997 99.9524C304.556 89.7937 318.579 77.2533 324.754 63.9368L327.717 65.3105ZM285.443 102.88L286.89 105.807C257.481 120.339 216.947 129.288 172.251 129.288V126.022V122.757C216.164 122.757 255.666 113.951 283.997 99.9524L285.443 102.88ZM172.251 126.022V129.288C127.555 129.288 87.0214 120.339 57.6121 105.807L59.0586 102.88L60.5051 99.9524C88.8364 113.951 128.338 122.757 172.251 122.757V126.022ZM59.0586 102.88L57.6121 105.807C36.3795 95.316 20.8766 81.897 13.8218 66.6843L16.7842 65.3105L19.7465 63.9368C25.922 77.2534 39.9457 89.7936 60.5051 99.9524L59.0586 102.88ZM16.7842 65.3105V68.5759H14.6953V65.3105V62.0452H16.7842V65.3105ZM14.6953 65.3105L17.6821 63.9908C25.087 80.7496 44.2328 95.9642 71.6738 107.012C98.9912 118.011 134.002 124.655 172.251 124.655V127.92V131.185C133.296 131.185 97.4395 124.426 69.2347 113.071C41.1537 101.765 20.1233 85.6747 11.7085 66.6303L14.6953 65.3105Z" fill="#312783" mask="url(#path-2-outside-1_418_50838)"/>
<path d="M237.701 414.72C242.447 410.001 243.278 402.658 240.469 396.023C246.045 396.52 250.985 394.75 253.453 390.81C256.045 386.672 255.285 381.136 252.003 376.162C255.076 375.115 258.051 373.305 260.609 370.762C268.377 363.037 269.362 351.455 262.809 344.894C257.273 339.351 248.13 339.164 240.741 343.896C232.819 338.174 220.751 339.705 212.499 347.911C205.755 354.618 203.469 363.885 205.975 371.373C198.613 369.228 189.7 371.542 183.174 378.032C174.15 387.006 173.107 400.563 180.846 408.312C187.85 415.325 199.645 415.177 208.512 408.433C209.415 409.878 210.505 411.259 211.779 412.535C219.518 420.283 231.123 421.261 237.701 414.72Z" fill="#B7FE25"/>
<path d="M164.858 480.991C161.702 481.554 159.371 484.218 158.666 487.597C156.607 485.88 154.18 485.228 152.133 486.105C149.983 487.027 148.772 489.415 148.707 492.27C147.211 491.843 145.546 491.742 143.844 492.045C138.677 492.966 135.127 497.257 135.916 501.629C136.582 505.323 140.131 507.891 144.332 508.045C145.889 512.46 151.057 515.153 156.546 514.174C161.032 513.374 164.462 510.349 165.519 506.716C167.832 509.57 171.972 511.093 176.313 510.319C182.315 509.249 186.426 504.197 185.495 499.034C184.651 494.361 179.966 491.199 174.634 491.434C174.673 490.619 174.622 489.778 174.468 488.927C173.536 483.764 169.234 480.211 164.858 480.991Z" fill="#B7FE25"/>
<path d="M282.235 293.888C279.618 295.742 278.644 299.146 279.446 302.503C276.851 301.827 274.377 302.27 272.898 303.936C271.345 305.686 271.268 308.362 272.425 310.973C270.889 311.224 269.338 311.84 267.926 312.84C263.644 315.874 262.26 321.269 264.836 324.889C267.012 327.947 271.319 328.759 275.186 327.108C278.475 330.44 284.296 330.674 288.846 327.451C292.565 324.817 294.379 320.619 293.788 316.882C297.096 318.48 301.492 318.094 305.09 315.544C310.065 312.02 311.632 305.697 308.59 301.422C305.837 297.554 300.251 296.689 295.527 299.173C295.215 298.419 294.811 297.68 294.31 296.976C291.268 292.701 285.861 291.319 282.235 293.888Z" fill="#B7FE25"/>
<path d="M263.313 496.828C268.059 492.108 268.891 484.765 266.081 478.13C271.657 478.628 276.599 476.857 279.067 472.917C281.659 468.779 280.898 463.243 277.617 458.269C280.69 457.222 283.663 455.413 286.221 452.87C293.989 445.144 294.974 433.563 288.421 427.001C282.886 421.458 273.743 421.272 266.355 426.003C258.433 420.281 246.365 421.812 238.113 430.018C231.368 436.725 229.083 445.992 231.589 453.481C224.228 451.335 215.314 453.649 208.788 460.139C199.763 469.114 198.721 482.67 206.46 490.419C213.463 497.431 225.258 497.285 234.125 490.542C235.027 491.986 236.117 493.367 237.391 494.643C245.13 502.391 256.735 503.369 263.313 496.828Z" fill="#0053FF"/>
<path d="M75.9657 331.723C79.3558 337.493 86.2611 340.125 93.3859 339.054C91.5167 344.332 92.0021 349.558 95.204 352.929C98.5676 356.469 104.119 357.109 109.754 355.168C110.004 358.405 111.016 361.736 112.844 364.846C118.394 374.292 129.366 378.128 137.352 373.413C144.097 369.43 146.553 360.621 143.808 352.287C151.321 346.038 152.84 333.968 146.945 323.934C142.126 315.733 133.718 311.215 125.841 311.779C129.752 305.183 129.728 295.974 125.065 288.038C118.618 277.065 105.747 272.682 96.3166 278.249C87.782 283.288 84.9906 294.75 89.3165 305.016C87.6929 305.531 86.0845 306.242 84.5315 307.158C75.1013 312.726 71.2663 323.724 75.9657 331.723Z" fill="#312783"/>
<path d="M206.117 226.045C199.972 232.053 198.825 241.473 202.361 250.023C195.207 249.323 188.844 251.541 185.632 256.572C182.259 261.857 183.175 268.974 187.334 275.396C183.378 276.707 179.539 278.997 176.228 282.234C166.17 292.068 164.779 306.928 173.121 315.424C180.168 322.6 191.905 322.94 201.442 316.946C211.552 324.38 227.063 322.544 237.747 312.098C246.479 303.56 249.515 291.688 246.379 282.046C255.808 284.881 267.277 282.006 275.727 273.745C287.411 262.321 288.897 244.926 279.045 234.893C270.13 225.813 254.984 225.874 243.526 234.436C242.383 232.571 240.998 230.786 239.375 229.133C229.524 219.101 214.634 217.718 206.117 226.045Z" fill="#0053FF"/>
<path d="M107.716 389.365C115.912 390.826 121.966 397.743 123.798 406.516C129.146 402.058 135.45 400.367 140.765 402.645C146.348 405.039 149.494 411.236 149.666 418.646C153.548 417.541 157.868 417.283 162.282 418.07C175.701 420.462 184.918 431.606 182.869 442.96C181.139 452.548 171.929 459.22 161.026 459.623C156.982 471.09 143.559 478.079 129.304 475.538C117.654 473.461 108.749 465.608 106.002 456.175C99.9959 463.587 89.2423 467.538 77.9695 465.529C62.381 462.75 51.7052 449.628 54.1246 436.22C56.3145 424.084 68.4804 415.873 82.3276 416.484C82.2264 414.367 82.3614 412.183 82.7598 409.975C85.1794 396.567 96.3528 387.34 107.716 389.365Z" fill="#0053FF"/>
</svg>
