<svg width="344" height="556" viewBox="0 0 344 556" fill="none" xmlns="http://www.w3.org/2000/svg">
<path d="M171.579 0C266.34 0 343.159 28.2819 343.159 63.1699C343.159 63.5198 343.147 63.8692 343.132 64.2178C343.459 67.097 343.44 70.0695 343.034 73.0889L287.484 486.477C286.921 490.669 285.646 494.611 283.794 498.188C282.822 529.961 233.046 555.562 171.781 555.562C109.909 555.561 59.752 529.451 59.752 497.241C59.752 497.018 59.7549 496.794 59.7598 496.571C58.3394 493.453 57.3471 490.084 56.8643 486.536L0.608398 73.1484C0.322317 71.0462 0.22554 68.9664 0.300781 66.9248C0.102966 65.6824 0 64.4306 0 63.1699C0.000446281 28.282 76.8189 9.06914e-05 171.579 0Z" fill="white"/>
<path d="M172.18 201.331C244.882 201.331 303.82 225.964 303.82 256.351C303.82 257.654 303.708 258.947 303.494 260.228C303.481 261.875 303.355 263.545 303.108 265.228L273.131 469.004C272.48 473.434 271.034 477.574 268.953 481.291C268.959 481.51 268.962 481.729 268.962 481.948C268.962 509.999 225.281 532.739 171.398 532.739C117.514 532.739 73.8324 509.999 73.8324 481.948C73.8324 481.357 73.8525 480.769 73.8909 480.183C72.143 476.783 70.9147 473.056 70.3216 469.095L39.8109 265.318C37.3771 249.062 46.2083 234.035 60.0208 227.533C83.1935 211.812 124.758 201.331 172.18 201.331Z" fill="#312783"/>
<path d="M237.808 282.189H171.581V348.376H237.808V282.189H300.612L290.876 348.376H237.808V414.562H171.581V480.749H237.808V414.562H281.141L273.132 469.004C272.512 473.22 271.17 477.173 269.249 480.749H237.808V519.156C220.433 527.564 197.162 532.714 171.581 532.738V480.749H105.354V414.562H171.581V348.376H105.354V282.189H171.581V224.144H237.808V282.189ZM105.354 519.332C85.9755 510.05 73.8324 496.738 73.832 481.949C73.832 481.548 73.8442 481.148 73.8623 480.749H105.354V519.332ZM105.354 414.562H62.1562L52.2461 348.376H105.354V414.562Z" fill="white"/>
<ellipse cx="172.802" cy="261.241" rx="133.677" ry="62.3555" fill="#312783"/>
<mask id="path-5-outside-1_414_50623" maskUnits="userSpaceOnUse" x="47.3516" y="257.307" width="248" height="57" fill="black">
<rect fill="white" x="47.3516" y="257.307" width="248" height="57"/>
<path d="M171.58 310.307C230.493 310.307 279.737 289.125 291.809 260.834H289.734C284.704 271.941 273.561 282.08 257.734 290.178C235.783 301.409 205.326 308.412 171.58 308.412C137.834 308.412 107.377 301.409 85.4258 290.178C69.5998 282.08 58.4574 271.941 53.4268 260.834H51.3516C63.4233 289.125 112.667 310.307 171.58 310.307Z"/>
</mask>
<path d="M171.58 310.307C230.493 310.307 279.737 289.125 291.809 260.834H289.734C284.704 271.941 273.561 282.08 257.734 290.178C235.783 301.409 205.326 308.412 171.58 308.412C137.834 308.412 107.377 301.409 85.4258 290.178C69.5998 282.08 58.4574 271.941 53.4268 260.834H51.3516C63.4233 289.125 112.667 310.307 171.58 310.307Z" fill="white"/>
<path d="M171.58 310.307V313.567V313.567V310.307ZM291.809 260.834V257.574C292.904 257.574 293.926 258.123 294.529 259.037C295.133 259.951 295.237 261.106 294.807 262.114L291.809 260.834ZM289.734 260.834L286.764 259.489C287.293 258.323 288.454 257.574 289.734 257.574V260.834ZM257.734 290.178L259.219 293.08V293.08L257.734 290.178ZM171.58 308.412V311.673V311.673V308.412ZM85.4258 290.178L83.9407 293.08L83.9407 293.08L85.4258 290.178ZM53.4268 260.834V257.574C54.7069 257.574 55.8686 258.323 56.3967 259.489L53.4268 260.834ZM51.3516 260.834L48.3527 262.114C47.923 261.106 48.0275 259.951 48.6311 259.037C49.2346 258.123 50.2565 257.574 51.3516 257.574V260.834ZM171.58 310.307V307.046C200.671 307.046 227.274 301.813 248.005 293.17C268.847 284.481 283.257 272.567 288.81 259.554L291.809 260.834L294.807 262.114C288.288 277.392 272.041 290.214 250.514 299.189C228.877 308.21 201.402 313.567 171.58 313.567V310.307ZM291.809 260.834V264.094H289.734V260.834V257.574H291.809V260.834ZM289.734 260.834L292.704 262.179C287.252 274.216 275.396 284.803 259.219 293.08L257.734 290.178L256.249 287.275C271.725 279.357 282.155 269.666 286.764 259.489L289.734 260.834ZM257.734 290.178L259.219 293.08C236.72 304.592 205.733 311.673 171.58 311.673V308.412V305.152C204.919 305.152 234.846 298.226 256.249 287.275L257.734 290.178ZM171.58 308.412V311.673C137.427 311.672 106.44 304.592 83.9407 293.08L85.4258 290.178L86.9109 287.275C108.314 298.226 138.241 305.152 171.58 305.152V308.412ZM85.4258 290.178L83.9407 293.08C67.7638 284.803 55.9085 274.216 50.4568 262.179L53.4268 260.834L56.3967 259.489C61.0062 269.666 71.4358 279.357 86.9109 287.275L85.4258 290.178ZM53.4268 260.834V264.094H51.3516V260.834V257.574H53.4268V260.834ZM51.3516 260.834L54.3504 259.554C59.9028 272.567 74.3137 284.481 95.155 293.17C115.886 301.813 142.49 307.046 171.58 307.046V310.307V313.567C141.758 313.567 114.283 308.21 92.6458 299.189C71.119 290.214 54.8721 277.392 48.3527 262.114L51.3516 260.834Z" fill="white" mask="url(#path-5-outside-1_414_50623)"/>
<mask id="path-7-outside-2_414_50623" maskUnits="userSpaceOnUse" x="10.6719" y="61.7231" width="322" height="70" fill="black">
<rect fill="white" x="10.6719" y="61.7231" width="322" height="70"/>
<path d="M171.987 127.723C249.073 127.723 313.508 100.957 329.304 65.2085H327.218C320.612 79.4515 305.872 92.4118 285.008 102.721C256.181 116.965 216.225 125.829 171.987 125.829C127.75 125.829 87.7932 116.965 58.9668 102.721C38.1027 92.4118 23.3629 79.4515 16.7578 65.2085H14.6719C30.4675 100.957 94.9013 127.723 171.987 127.723Z"/>
</mask>
<path d="M171.987 127.723C249.073 127.723 313.508 100.957 329.304 65.2085H327.218C320.612 79.4515 305.872 92.4118 285.008 102.721C256.181 116.965 216.225 125.829 171.987 125.829C127.75 125.829 87.7932 116.965 58.9668 102.721C38.1027 92.4118 23.3629 79.4515 16.7578 65.2085H14.6719C30.4675 100.957 94.9013 127.723 171.987 127.723Z" fill="#312783"/>
<path d="M171.987 127.723V130.984V130.984V127.723ZM329.304 65.2085V61.9481C330.406 61.9481 331.434 62.5052 332.036 63.4289C332.637 64.3526 332.732 65.5178 332.286 66.5262L329.304 65.2085ZM327.218 65.2085L324.26 63.8368C324.794 62.685 325.948 61.9481 327.218 61.9481V65.2085ZM285.008 102.721L286.452 105.644V105.644L285.008 102.721ZM171.987 125.829V129.089V129.089V125.829ZM58.9668 102.721L57.5225 105.644L57.5225 105.644L58.9668 102.721ZM16.7578 65.2085V61.9481C18.0274 61.9481 19.1815 62.6851 19.7157 63.8368L16.7578 65.2085ZM14.6719 65.2085L11.6896 66.5262C11.2441 65.5178 11.3382 64.3526 11.94 63.4289C12.5417 62.5052 13.5695 61.9481 14.6719 61.9481V65.2085ZM171.987 127.723V124.463C210.178 124.463 245.136 117.829 272.412 106.847C299.811 95.8157 318.928 80.6241 326.321 63.8908L329.304 65.2085L332.286 66.5262C323.884 85.5418 302.885 101.607 274.847 112.896C246.685 124.235 210.883 130.984 171.987 130.984V127.723ZM329.304 65.2085V68.4689H327.218V65.2085V61.9481H329.304V65.2085ZM327.218 65.2085L330.176 66.5802C323.131 81.7697 307.653 95.1687 286.452 105.644L285.008 102.721L283.563 99.7981C304.092 89.6548 318.094 77.1333 324.26 63.8368L327.218 65.2085ZM285.008 102.721L286.452 105.644C257.087 120.154 216.616 129.089 171.987 129.089V125.829V122.568C215.834 122.568 255.275 113.776 283.563 99.7981L285.008 102.721ZM171.987 125.829V129.089C127.359 129.089 86.8871 120.154 57.5225 105.644L58.9668 102.721L60.4111 99.7981C88.6993 113.776 128.141 122.568 171.987 122.568V125.829ZM58.9668 102.721L57.5225 105.644C36.3221 95.1687 20.844 81.7696 13.8 66.5802L16.7578 65.2085L19.7157 63.8368C25.8818 77.1333 39.8832 89.6549 60.4111 99.7981L58.9668 102.721ZM16.7578 65.2085V68.4689H14.6719V65.2085V61.9481H16.7578V65.2085ZM14.6719 65.2085L17.6541 63.8908C25.0477 80.6241 44.1643 95.8157 71.5634 106.847C98.839 117.829 133.797 124.463 171.987 124.463V127.723V130.984C133.092 130.984 97.2897 124.235 69.128 112.896C41.0898 101.607 20.0916 85.5417 11.6896 66.5262L14.6719 65.2085Z" fill="#312783" mask="url(#path-7-outside-2_414_50623)"/>
</svg>
