<svg width="344" height="556" viewBox="0 0 344 556" fill="none" xmlns="http://www.w3.org/2000/svg">
<path d="M171.579 0C266.34 0 343.159 28.2819 343.159 63.1699C343.159 63.5199 343.147 63.8692 343.132 64.2178C343.459 67.0969 343.44 70.0695 343.034 73.0889L287.484 486.477C286.921 490.669 285.646 494.611 283.794 498.188C282.822 529.961 233.046 555.562 171.781 555.562C109.909 555.561 59.752 529.451 59.752 497.241C59.752 497.017 59.7549 496.793 59.7598 496.569C58.3398 493.451 57.347 490.084 56.8643 486.536L0.608398 73.1484C0.322408 71.0469 0.225674 68.9677 0.300781 66.9268C0.102753 65.6837 0 64.4312 0 63.1699C0.000295267 28.2819 76.8187 7.28866e-05 171.579 0Z" fill="white"/>
<path d="M172.182 201.331C244.884 201.331 303.822 225.964 303.822 256.351C303.822 257.653 303.709 258.945 303.496 260.225C303.483 261.873 303.356 263.544 303.109 265.228L273.133 469.004C272.481 473.435 271.035 477.576 268.954 481.294C268.96 481.512 268.962 481.73 268.962 481.948C268.962 509.999 225.281 532.739 171.398 532.739C117.514 532.739 73.8324 509.999 73.8324 481.948C73.8324 481.356 73.8523 480.766 73.891 480.179C72.144 476.78 70.9164 473.054 70.3236 469.095L39.8128 265.318C37.3791 249.063 46.2093 234.037 60.0208 227.534C83.1932 211.812 124.759 201.331 172.182 201.331Z" fill="#312783"/>
<path d="M144.278 525.319L142.535 530.479C139.971 530.067 137.452 529.599 134.982 529.082L137.074 522.888L144.278 525.319ZM222.291 508.299L215.925 527.151C213.096 527.908 210.187 528.595 207.206 529.208L215.087 505.866L222.291 508.299ZM189.855 497.348L181.769 521.3L174.564 518.868L182.651 494.915L189.855 497.348ZM111.843 514.369L109.528 521.223C107.121 520.194 104.809 519.106 102.603 517.964L104.639 511.937L111.843 514.369ZM157.42 486.396L149.333 510.35L142.129 507.917L150.216 483.965L157.42 486.396ZM267.867 480.327L260.213 502.995C259.891 503.363 259.562 503.728 259.224 504.091L252.577 501.847L260.663 477.896L267.867 480.327ZM124.984 475.445L116.897 499.398L109.693 496.966L117.78 473.014L124.984 475.445ZM235.432 469.376L227.345 493.328L220.142 490.896L228.228 466.944L235.432 469.376ZM92.5479 464.495L84.4609 488.447L77.2578 486.015L85.3447 462.062L92.5479 464.495ZM202.996 458.426L194.909 482.377L187.706 479.945L195.792 455.993L202.996 458.426ZM170.561 447.475L162.474 471.426L155.27 468.994L163.356 445.042L170.561 447.475ZM277.37 440.175L274.241 461.448L272.922 465.356L265.718 462.925L273.805 438.972L277.37 440.175ZM138.125 436.523L130.038 460.476L122.834 458.043L130.921 434.091L138.125 436.523ZM248.573 430.453L240.486 454.406L233.282 451.974L241.369 428.021L248.573 430.453ZM105.689 425.572L97.6025 449.524L90.3984 447.092L98.4854 423.141L105.689 425.572ZM216.138 419.502L208.051 443.455L200.847 441.022L208.934 417.07L216.138 419.502ZM73.2539 414.621L65.5703 437.378L63.1045 420.911L66.0498 412.189L73.2539 414.621ZM183.702 408.552L175.615 432.504L168.411 430.071L176.498 406.119L183.702 408.552ZM279.707 424.288L278.859 424.002L280.437 419.328L279.707 424.288ZM151.267 397.601L143.18 421.553L135.976 419.121L144.062 395.168L151.267 397.601ZM261.714 391.531L253.627 415.482L246.424 413.051L254.51 389.099L261.714 391.531ZM118.831 386.649L110.744 410.602L103.54 408.17L111.627 384.217L118.831 386.649ZM229.278 380.58L221.191 404.532L213.988 402.1L222.074 378.147L229.278 380.58ZM86.3945 375.698L78.3076 399.651L71.1045 397.219L79.1914 373.267L86.3945 375.698ZM196.843 369.629L188.756 393.581L181.553 391.148L189.639 367.197L196.843 369.629ZM164.407 358.678L156.32 382.63L149.116 380.197L157.203 356.246L164.407 358.678ZM274.855 352.608L266.769 376.561L259.564 374.128L267.651 350.176L274.855 352.608ZM131.972 347.728L123.885 371.679L116.681 369.247L124.768 345.295L131.972 347.728ZM242.42 341.657L234.333 365.609L227.129 363.178L235.216 339.225L242.42 341.657ZM99.5361 336.776L91.4492 360.728L84.2451 358.296L92.332 334.344L99.5361 336.776ZM209.984 330.706L201.897 354.658L194.693 352.227L202.78 328.273L209.984 330.706ZM67.1006 325.825L59.0137 349.777L52.1045 347.444L52.0029 346.769L59.8965 323.393L67.1006 325.825ZM177.549 319.755L169.462 343.708L162.258 341.275L170.345 317.323L177.549 319.755ZM287.997 313.685L279.91 337.638L272.706 335.205L280.793 311.253L287.997 313.685ZM145.113 308.804L137.026 332.757L129.822 330.324L137.909 306.372L145.113 308.804ZM255.561 302.734L247.474 326.687L240.271 324.254L248.357 300.302L255.561 302.734ZM112.678 297.854L104.591 321.806L97.3867 319.373L105.474 295.421L112.678 297.854ZM223.125 291.783L215.038 315.735L207.835 313.304L215.922 289.351L223.125 291.783ZM80.2412 286.902L72.1543 310.854L64.9512 308.423L73.0381 284.47L80.2412 286.902ZM190.689 280.832L182.603 304.784L175.399 302.353L183.486 278.399L190.689 280.832ZM301.138 274.763L293.051 298.715L285.847 296.282L293.934 272.33L301.138 274.763ZM158.254 269.881L150.167 293.834L142.963 291.401L151.05 267.449L158.254 269.881ZM47.8057 275.951L43.3682 289.094L41.0586 273.672L47.8057 275.951ZM268.702 263.812L260.615 287.764L253.411 285.331L261.498 261.38L268.702 263.812ZM125.818 258.93L117.731 282.883L110.527 280.45L118.614 256.498L125.818 258.93ZM236.267 252.86L228.18 276.812L220.976 274.38L229.062 250.429L236.267 252.86ZM93.3828 247.979L85.2959 271.932L78.0918 269.499L86.1787 245.547L93.3828 247.979ZM203.831 241.91L195.744 265.861L188.54 263.43L196.627 239.478L203.831 241.91ZM60.9473 237.028L52.8604 260.98L45.6562 258.549L53.7432 234.596L60.9473 237.028ZM301.789 249.062C302.792 252.183 303.375 255.477 303.476 258.875L298.988 257.36L301.789 249.062ZM171.396 230.959L163.309 254.91L156.104 252.479L164.191 228.526L171.396 230.959ZM277.8 236.865L273.757 248.841L266.553 246.409L270.596 234.433L277.8 236.865ZM130.873 243.96L123.669 241.527L129.538 224.144H137.563L130.873 243.96ZM245.364 225.914L241.32 237.891L234.117 235.458L237.937 224.144H240.121L245.364 225.914ZM98.4375 233.009L91.2334 230.576L93.4053 224.144H101.431L98.4375 233.009ZM208.885 226.939L201.682 224.507L201.805 224.144H209.829L208.885 226.939Z" fill="white"/>
<ellipse cx="172.802" cy="261.241" rx="133.677" ry="62.3555" fill="#312783"/>
<mask id="path-5-outside-1_414_50597" maskUnits="userSpaceOnUse" x="47.3516" y="257.307" width="248" height="57" fill="black">
<rect fill="white" x="47.3516" y="257.307" width="248" height="57"/>
<path d="M171.58 310.307C230.493 310.307 279.736 289.125 291.808 260.834H289.733C284.703 271.941 273.56 282.08 257.734 290.178C235.783 301.409 205.326 308.412 171.58 308.412C137.834 308.412 107.377 301.409 85.4258 290.178C69.5998 282.08 58.4574 271.941 53.4268 260.834H51.3516C63.4234 289.125 112.667 310.307 171.58 310.307Z"/>
</mask>
<path d="M171.58 310.307C230.493 310.307 279.736 289.125 291.808 260.834H289.733C284.703 271.941 273.56 282.08 257.734 290.178C235.783 301.409 205.326 308.412 171.58 308.412C137.834 308.412 107.377 301.409 85.4258 290.178C69.5998 282.08 58.4574 271.941 53.4268 260.834H51.3516C63.4234 289.125 112.667 310.307 171.58 310.307Z" fill="white"/>
<path d="M171.58 310.307V313.567V313.567V310.307ZM291.808 260.834V257.574C292.903 257.574 293.925 258.123 294.528 259.037C295.132 259.951 295.236 261.106 294.806 262.114L291.808 260.834ZM289.733 260.834L286.763 259.489C287.292 258.323 288.453 257.574 289.733 257.574V260.834ZM257.734 290.178L259.219 293.08V293.08L257.734 290.178ZM171.58 308.412V311.673V311.673V308.412ZM85.4258 290.178L83.9407 293.08L83.9407 293.08L85.4258 290.178ZM53.4268 260.834V257.574C54.7069 257.574 55.8686 258.323 56.3967 259.489L53.4268 260.834ZM51.3516 260.834L48.3527 262.114C47.923 261.106 48.0275 259.951 48.6311 259.037C49.2346 258.123 50.2565 257.574 51.3516 257.574V260.834ZM171.58 310.307V307.046C200.67 307.046 227.274 301.813 248.005 293.17C268.846 284.481 283.256 272.567 288.809 259.554L291.808 260.834L294.806 262.114C288.287 277.392 272.04 290.214 250.514 299.189C228.877 308.209 201.402 313.567 171.58 313.567V310.307ZM291.808 260.834V264.094H289.733V260.834V257.574H291.808V260.834ZM289.733 260.834L292.703 262.179C287.251 274.216 275.396 284.803 259.219 293.08L257.734 290.178L256.249 287.275C271.724 279.357 282.154 269.666 286.763 259.489L289.733 260.834ZM257.734 290.178L259.219 293.08C236.72 304.592 205.733 311.673 171.58 311.673V308.412V305.152C204.919 305.152 234.846 298.226 256.249 287.275L257.734 290.178ZM171.58 308.412V311.673C137.427 311.672 106.44 304.592 83.9407 293.08L85.4258 290.178L86.9109 287.275C108.314 298.226 138.241 305.152 171.58 305.152V308.412ZM85.4258 290.178L83.9407 293.08C67.7638 284.803 55.9085 274.216 50.4568 262.179L53.4268 260.834L56.3967 259.489C61.0062 269.666 71.4358 279.357 86.9109 287.275L85.4258 290.178ZM53.4268 260.834V264.094H51.3516V260.834V257.574H53.4268V260.834ZM51.3516 260.834L54.3504 259.554C59.9029 272.567 74.3137 284.481 95.155 293.17C115.886 301.813 142.49 307.046 171.58 307.046V310.307V313.567C141.758 313.567 114.283 308.21 92.6458 299.189C71.119 290.214 54.8721 277.392 48.3527 262.114L51.3516 260.834Z" fill="white" mask="url(#path-5-outside-1_414_50597)"/>
<mask id="path-7-outside-2_414_50597" maskUnits="userSpaceOnUse" x="10.6738" y="61.7231" width="322" height="70" fill="black">
<rect fill="white" x="10.6738" y="61.7231" width="322" height="70"/>
<path d="M171.989 127.723C249.075 127.723 313.51 100.957 329.306 65.2085H327.22C320.614 79.4515 305.874 92.4118 285.01 102.721C256.183 116.965 216.227 125.829 171.989 125.829C127.752 125.829 87.7952 116.965 58.9688 102.721C38.1045 92.4117 23.3638 79.4516 16.7588 65.2085H14.6738C30.4695 100.957 94.9033 127.723 171.989 127.723Z"/>
</mask>
<path d="M171.989 127.723C249.075 127.723 313.51 100.957 329.306 65.2085H327.22C320.614 79.4515 305.874 92.4118 285.01 102.721C256.183 116.965 216.227 125.829 171.989 125.829C127.752 125.829 87.7952 116.965 58.9688 102.721C38.1045 92.4117 23.3638 79.4516 16.7588 65.2085H14.6738C30.4695 100.957 94.9033 127.723 171.989 127.723Z" fill="#312783"/>
<path d="M171.989 127.723V130.984V130.984V127.723ZM329.306 65.2085V61.9481C330.408 61.9481 331.436 62.5052 332.038 63.4289C332.639 64.3526 332.733 65.5178 332.288 66.5262L329.306 65.2085ZM327.22 65.2085L324.262 63.8368C324.796 62.685 325.95 61.9481 327.22 61.9481V65.2085ZM285.01 102.721L286.454 105.644V105.644L285.01 102.721ZM171.989 125.829V129.089V129.089V125.829ZM58.9688 102.721L57.5244 105.644L57.5244 105.644L58.9688 102.721ZM16.7588 65.2085V61.9481C18.0284 61.9481 19.1825 62.6851 19.7166 63.8368L16.7588 65.2085ZM14.6738 65.2085L11.6916 66.5262C11.246 65.5178 11.3402 64.3526 11.9419 63.4289C12.5436 62.5052 13.5714 61.9481 14.6738 61.9481V65.2085ZM171.989 127.723V124.463C210.18 124.463 245.138 117.829 272.414 106.847C299.813 95.8157 318.93 80.6241 326.323 63.8908L329.306 65.2085L332.288 66.5262C323.886 85.5418 302.887 101.607 274.849 112.896C246.687 124.235 210.885 130.984 171.989 130.984V127.723ZM329.306 65.2085V68.4689H327.22V65.2085V61.9481H329.306V65.2085ZM327.22 65.2085L330.178 66.5802C323.133 81.7697 307.655 95.1687 286.454 105.644L285.01 102.721L283.565 99.7981C304.094 89.6548 318.096 77.1333 324.262 63.8368L327.22 65.2085ZM285.01 102.721L286.454 105.644C257.089 120.154 216.618 129.089 171.989 129.089V125.829V122.568C215.836 122.568 255.277 113.776 283.565 99.7981L285.01 102.721ZM171.989 125.829V129.089C127.361 129.089 86.8891 120.154 57.5244 105.644L58.9688 102.721L60.4131 99.7981C88.7013 113.776 128.143 122.568 171.989 122.568V125.829ZM58.9688 102.721L57.5244 105.644C36.324 95.1687 20.8449 81.7698 13.8009 66.5802L16.7588 65.2085L19.7166 63.8368C25.8827 77.1333 39.8849 89.6547 60.4131 99.7981L58.9688 102.721ZM16.7588 65.2085V68.4689H14.6738V65.2085V61.9481H16.7588V65.2085ZM14.6738 65.2085L17.6561 63.8908C25.0497 80.6241 44.1663 95.8157 71.5654 106.847C98.841 117.829 133.799 124.463 171.989 124.463V127.723V130.984C133.094 130.984 97.2917 124.235 69.13 112.896C41.0918 101.607 20.0936 85.5417 11.6916 66.5262L14.6738 65.2085Z" fill="#312783" mask="url(#path-7-outside-2_414_50597)"/>
</svg>
