<svg width="344" height="616" viewBox="0 0 344 616" fill="none" xmlns="http://www.w3.org/2000/svg">
<path d="M171.58 59.5024C266.341 59.5025 343.159 87.7852 343.159 122.673C343.159 123.025 343.148 123.376 343.133 123.727C343.459 126.604 343.441 129.574 343.035 132.591L287.484 545.98C286.921 550.173 285.646 554.114 283.794 557.691C282.822 589.463 233.046 615.064 171.781 615.064C109.909 615.064 59.752 588.953 59.752 556.744C59.752 556.519 59.7549 556.295 59.7598 556.072C58.3399 552.954 57.348 549.587 56.8652 546.04L0.609375 132.651C0.323294 130.549 0.225511 128.469 0.300781 126.427C0.103027 125.185 1.39528e-05 123.934 0 122.673C0 87.7852 76.8194 59.5024 171.58 59.5024Z" fill="white"/>
<path d="M172.182 260.833C244.884 260.833 303.822 285.466 303.822 315.853C303.822 317.155 303.709 318.447 303.496 319.727C303.483 321.375 303.356 323.046 303.109 324.729L273.133 528.506C272.481 532.937 271.035 537.078 268.954 540.796C268.96 541.014 268.962 541.233 268.962 541.451C268.962 569.502 225.281 592.241 171.398 592.241C117.514 592.241 73.8329 569.502 73.8324 541.451C73.8324 540.859 73.8533 540.269 73.8919 539.682C72.1447 536.283 70.9165 532.556 70.3236 528.597L39.8128 324.82C37.3791 308.565 46.2093 293.539 60.0208 287.036C83.1932 271.314 124.759 260.833 172.182 260.833Z" fill="#312783"/>
<path d="M144.276 584.821L142.533 589.981C139.968 589.569 137.449 589.102 134.979 588.584L137.072 582.389L144.276 584.821ZM222.289 567.8L215.923 586.653C213.094 587.41 210.184 588.097 207.203 588.71L215.085 565.368L222.289 567.8ZM189.854 556.85L181.767 580.802L174.562 578.369L182.649 554.417L189.854 556.85ZM111.841 573.87L109.525 580.725C107.118 579.696 104.807 578.608 102.601 577.466L104.637 571.438L111.841 573.87ZM157.418 545.898L149.331 569.851L142.127 567.419L150.214 543.466L157.418 545.898ZM267.866 539.829L260.212 562.496C259.89 562.864 259.56 563.229 259.222 563.592L252.575 561.349L260.662 537.396L267.866 539.829ZM124.982 534.947L116.896 558.899L109.691 556.468L117.778 532.515L124.982 534.947ZM235.43 528.878L227.344 552.83L220.14 550.397L228.227 526.445L235.43 528.878ZM92.5469 523.996L84.46 547.949L77.2559 545.517L85.3428 521.564L92.5469 523.996ZM202.994 517.927L194.908 541.879L187.704 539.446L195.791 515.495L202.994 517.927ZM170.559 506.976L162.473 530.928L155.269 528.495L163.355 504.544L170.559 506.976ZM277.368 499.677L274.239 520.95L272.92 524.858L265.716 522.426L273.803 498.474L277.368 499.677ZM138.123 496.024L130.036 519.977L122.833 517.545L130.919 493.593L138.123 496.024ZM248.571 489.955L240.484 513.907L233.28 511.476L241.367 487.522L248.571 489.955ZM105.688 485.074L97.6006 509.025L90.3975 506.594L98.4834 482.642L105.688 485.074ZM216.136 479.004L208.049 502.956L200.845 500.524L208.932 476.571L216.136 479.004ZM73.252 474.123L65.5684 496.878L63.1035 480.411L66.0479 471.69L73.252 474.123ZM183.7 468.053L175.613 492.006L168.409 489.573L176.496 465.621L183.7 468.053ZM279.705 483.789L278.857 483.503L280.435 478.829L279.705 483.789ZM151.265 457.102L143.178 481.055L135.974 478.622L144.061 454.67L151.265 457.102ZM261.713 451.032L253.626 474.984L246.422 472.552L254.509 448.601L261.713 451.032ZM118.829 446.151L110.742 470.104L103.538 467.671L111.625 443.719L118.829 446.151ZM229.276 440.081L221.19 464.033L213.986 461.602L222.073 437.649L229.276 440.081ZM86.3936 435.2L78.3066 459.152L71.1025 456.721L79.1895 432.768L86.3936 435.2ZM196.841 429.131L188.755 453.082L181.551 450.65L189.638 426.698L196.841 429.131ZM164.405 418.18L156.319 442.132L149.115 439.699L157.202 415.747L164.405 418.18ZM274.854 412.109L266.767 436.062L259.562 433.63L267.649 409.678L274.854 412.109ZM131.97 407.229L123.883 431.181L116.68 428.748L124.766 404.797L131.97 407.229ZM242.418 401.158L234.331 425.111L227.127 422.679L235.214 398.727L242.418 401.158ZM99.5342 396.277L91.4473 420.229L84.2441 417.797L92.3301 393.846L99.5342 396.277ZM209.982 390.207L201.896 414.16L194.691 411.728L202.778 387.775L209.982 390.207ZM67.0986 385.326L59.0117 409.278L52.1035 406.946L52.002 406.271L59.8945 382.895L67.0986 385.326ZM177.547 379.257L169.46 403.209L162.256 400.777L170.343 376.824L177.547 379.257ZM287.995 373.187L279.908 397.139L272.704 394.707L280.791 370.754L287.995 373.187ZM145.111 368.306L137.024 392.258L129.82 389.826L137.907 365.873L145.111 368.306ZM255.56 362.235L247.473 386.188L240.269 383.756L248.355 359.804L255.56 362.235ZM112.676 357.354L104.589 381.308L97.3848 378.875L105.472 354.923L112.676 357.354ZM223.124 351.284L215.037 375.237L207.833 372.805L215.92 348.853L223.124 351.284ZM80.2402 346.403L72.1533 370.356L64.9492 367.924L73.0361 343.972L80.2402 346.403ZM190.688 340.334L182.602 364.286L175.397 361.854L183.484 337.901L190.688 340.334ZM301.136 334.264L293.05 358.216L285.846 355.784L293.932 331.832L301.136 334.264ZM158.253 329.383L150.166 353.335L142.962 350.903L151.049 326.95L158.253 329.383ZM47.8047 335.452L43.3672 348.595L41.0586 333.175L47.8047 335.452ZM268.7 323.313L260.613 347.265L253.41 344.833L261.496 320.881L268.7 323.313ZM125.817 318.432L117.729 342.384L110.526 339.952L118.613 315.999L125.817 318.432ZM236.265 312.362L228.178 336.314L220.975 333.882L229.061 309.93L236.265 312.362ZM93.3809 307.48L85.2939 331.434L78.0908 329.001L86.1777 305.049L93.3809 307.48ZM203.829 301.411L195.742 325.363L188.539 322.931L196.625 298.979L203.829 301.411ZM60.9453 296.529L52.8584 320.482L45.6553 318.05L53.7422 294.098L60.9453 296.529ZM301.787 308.563C302.79 311.684 303.373 314.978 303.474 318.376L298.986 316.861L301.787 308.563ZM171.394 290.46L163.307 314.412L156.103 311.979L164.189 288.028L171.394 290.46ZM277.798 296.366L273.755 308.343L266.551 305.91L270.595 293.935L277.798 296.366ZM130.871 303.461L123.667 301.029L129.536 283.646H137.562L130.871 303.461ZM245.362 285.415L241.319 297.392L234.115 294.96L237.936 283.646H240.12L245.362 285.415ZM98.4355 292.51L91.2314 290.078L93.4033 283.646H101.429L98.4355 292.51ZM208.884 286.44L201.68 284.009L201.803 283.646H209.827L208.884 286.44Z" fill="white"/>
<ellipse cx="172.802" cy="320.743" rx="133.677" ry="62.3555" fill="#312783"/>
<mask id="path-5-outside-1_414_50534" maskUnits="userSpaceOnUse" x="47.3516" y="316.809" width="248" height="57" fill="black">
<rect fill="white" x="47.3516" y="316.809" width="248" height="57"/>
<path d="M171.579 369.809C230.492 369.809 279.736 348.627 291.808 320.336H289.733C284.703 331.443 273.56 341.582 257.733 349.68C235.782 360.911 205.325 367.914 171.579 367.914C137.833 367.914 107.376 360.911 85.4248 349.68C69.5989 341.582 58.4563 331.443 53.4258 320.336H51.3516C63.4235 348.627 112.666 369.808 171.579 369.809Z"/>
</mask>
<path d="M171.579 369.809C230.492 369.809 279.736 348.627 291.808 320.336H289.733C284.703 331.443 273.56 341.582 257.733 349.68C235.782 360.911 205.325 367.914 171.579 367.914C137.833 367.914 107.376 360.911 85.4248 349.68C69.5989 341.582 58.4563 331.443 53.4258 320.336H51.3516C63.4235 348.627 112.666 369.808 171.579 369.809Z" fill="white"/>
<path d="M171.579 369.809V373.069H171.579L171.579 369.809ZM291.808 320.336V317.076C292.903 317.076 293.925 317.625 294.528 318.539C295.132 319.453 295.236 320.608 294.806 321.616L291.808 320.336ZM289.733 320.336L286.763 318.991C287.292 317.825 288.453 317.076 289.733 317.076V320.336ZM257.733 349.68L259.219 352.582L259.219 352.582L257.733 349.68ZM171.579 367.914V371.174H171.579L171.579 367.914ZM85.4248 349.68L83.9397 352.582L83.9397 352.582L85.4248 349.68ZM53.4258 320.336V317.076C54.7059 317.076 55.8676 317.825 56.3958 318.991L53.4258 320.336ZM51.3516 320.336L48.3527 321.616C47.923 320.608 48.0275 319.453 48.631 318.539C49.2346 317.625 50.2565 317.076 51.3516 317.076V320.336ZM171.579 369.809V366.548C200.67 366.548 227.273 361.315 248.004 352.672C268.845 343.983 283.256 332.069 288.809 319.056L291.808 320.336L294.806 321.616C288.287 336.894 272.04 349.716 250.513 358.691C228.876 367.711 201.402 373.069 171.579 373.069V369.809ZM291.808 320.336V323.596H289.733V320.336V317.076H291.808V320.336ZM289.733 320.336L292.703 321.681C287.251 333.718 275.396 344.305 259.219 352.582L257.733 349.68L256.248 346.777C271.724 338.859 282.154 329.168 286.763 318.991L289.733 320.336ZM257.733 349.68L259.219 352.582C236.719 364.094 205.732 371.174 171.579 371.174V367.914V364.654C204.918 364.654 234.845 357.728 256.248 346.777L257.733 349.68ZM171.579 367.914L171.579 371.174C137.426 371.174 106.439 364.094 83.9397 352.582L85.4248 349.68L86.9099 346.777C108.313 357.728 138.24 364.654 171.579 364.654L171.579 367.914ZM85.4248 349.68L83.9397 352.582C67.7629 344.305 55.9074 333.718 50.4558 321.681L53.4258 320.336L56.3958 318.991C61.0052 329.168 71.4349 338.859 86.9099 346.777L85.4248 349.68ZM53.4258 320.336V323.596H51.3516V320.336V317.076H53.4258V320.336ZM51.3516 320.336L54.3504 319.056C59.9029 332.069 74.3136 343.983 95.1547 352.672C115.885 361.315 142.489 366.548 171.579 366.548L171.579 369.809L171.579 373.069C141.757 373.069 114.282 367.711 92.6454 358.691C71.1189 349.716 54.8721 336.894 48.3527 321.616L51.3516 320.336Z" fill="white" mask="url(#path-5-outside-1_414_50534)"/>
<path d="M227.184 238.832C232.319 233.726 233.219 225.78 230.178 218.601C236.212 219.139 241.559 217.223 244.229 212.96C247.034 208.482 246.211 202.492 242.66 197.11C245.986 195.976 249.205 194.02 251.973 191.267C260.378 182.908 261.445 170.376 254.354 163.276C248.364 157.278 238.471 157.075 230.476 162.195C221.903 156.004 208.846 157.661 199.916 166.54C192.618 173.798 190.144 183.826 192.856 191.929C184.89 189.607 175.245 192.11 168.183 199.133C158.418 208.844 157.291 223.514 165.664 231.898C173.242 239.486 186.005 239.327 195.599 232.031C196.576 233.594 197.755 235.087 199.134 236.468C207.508 244.853 220.066 245.911 227.184 238.832Z" fill="#B7FE25"/>
<path d="M148.364 310.542C144.949 311.151 142.426 314.034 141.663 317.69C139.435 315.833 136.809 315.128 134.595 316.077C132.268 317.074 130.959 319.659 130.888 322.749C129.269 322.286 127.467 322.175 125.624 322.504C120.033 323.5 116.193 328.144 117.047 332.875C117.768 336.871 121.607 339.651 126.153 339.817C127.837 344.595 133.43 347.507 139.369 346.448C144.224 345.583 147.935 342.309 149.079 338.378C151.581 341.467 156.062 343.116 160.76 342.278C167.255 341.12 171.703 335.653 170.695 330.066C169.783 325.009 164.712 321.587 158.942 321.843C158.984 320.961 158.929 320.05 158.763 319.13C157.754 313.543 153.099 309.698 148.364 310.542Z" fill="#B7FE25"/>
<path d="M303.08 76.7224C300.249 78.7281 299.195 82.411 300.062 86.0441C297.254 85.3122 294.577 85.7926 292.978 87.5947C291.297 89.4884 291.214 92.3837 292.466 95.2088C290.803 95.4802 289.126 96.1485 287.598 97.2305C282.964 100.514 281.467 106.35 284.254 110.267C286.609 113.575 291.267 114.455 295.45 112.669C299.009 116.275 305.31 116.528 310.233 113.041C314.257 110.189 316.221 105.646 315.581 101.602C319.16 103.332 323.916 102.916 327.81 100.157C333.194 96.3431 334.889 89.5014 331.598 84.876C328.619 80.6897 322.575 79.7531 317.463 82.441C317.125 81.625 316.688 80.8252 316.146 80.0635C312.854 75.4381 307.005 73.9423 303.08 76.7224Z" fill="#B7FE25"/>
<path d="M254.901 327.679C260.036 322.572 260.935 314.626 257.895 307.447C263.929 307.985 269.275 306.07 271.946 301.807C274.751 297.329 273.928 291.338 270.376 285.955C273.702 284.822 276.92 282.865 279.687 280.113C288.093 271.754 289.159 259.222 282.069 252.121C276.079 246.124 266.185 245.921 258.19 251.042C249.617 244.85 236.56 246.508 227.631 255.387C220.333 262.645 217.86 272.671 220.572 280.774C212.606 278.452 202.962 280.957 195.9 287.979C186.135 297.69 185.007 312.359 193.38 320.744C200.959 328.332 213.722 328.172 223.316 320.876C224.293 322.439 225.472 323.933 226.851 325.314C235.224 333.699 247.783 334.757 254.901 327.679Z" fill="#0053FF"/>
<path d="M52.1763 149.023C55.8448 155.267 63.317 158.116 71.0267 156.958C69.0045 162.668 69.5299 168.323 72.9945 171.97C76.6337 175.801 82.6406 176.494 88.7373 174.393C89.0076 177.896 90.1029 181.501 92.0803 184.866C98.0856 195.087 109.959 199.237 118.6 194.135C125.899 189.826 128.556 180.293 125.586 171.276C133.716 164.514 135.361 151.454 128.981 140.596C123.767 131.721 114.67 126.832 106.146 127.443C110.377 120.305 110.351 110.341 105.306 101.754C98.3296 89.8798 84.4016 85.1374 74.1975 91.1618C64.9626 96.6141 61.9428 109.016 66.6236 120.125C64.8664 120.682 63.1259 121.451 61.4451 122.444C51.2411 128.468 47.0913 140.368 52.1763 149.023Z" fill="#312783"/>
<path d="M193.011 34.6736C186.362 41.1745 185.12 51.3677 188.946 60.6189C181.204 59.8615 174.319 62.262 170.843 67.7064C167.193 73.425 168.184 81.1244 172.685 88.074C168.403 89.4928 164.25 91.9706 160.667 95.474C149.783 106.115 148.279 122.194 157.306 131.387C164.931 139.153 177.631 139.52 187.952 133.033C198.89 141.077 215.674 139.093 227.236 127.789C236.685 118.551 239.969 105.705 236.577 95.2716C246.778 98.338 259.188 95.227 268.33 86.2883C280.973 73.9266 282.581 55.1042 271.921 44.2477C262.274 34.4232 245.887 34.4886 233.489 43.7515C232.252 41.734 230.755 39.8031 228.999 38.0153C218.34 27.1589 202.227 25.6628 193.011 34.6736Z" fill="#0053FF"/>
<path d="M86.5343 211.397C95.4029 212.978 101.955 220.462 103.936 229.956C109.723 225.131 116.544 223.302 122.295 225.767C128.337 228.356 131.741 235.063 131.927 243.082C136.128 241.886 140.803 241.606 145.581 242.458C160.101 245.046 170.074 257.105 167.857 269.391C165.985 279.766 156.018 286.985 144.219 287.421C139.843 299.829 125.317 307.391 109.893 304.641C97.2868 302.394 87.6517 293.896 84.6794 283.689C78.1805 291.71 66.5436 295.986 54.3452 293.811C37.4775 290.804 25.9258 276.604 28.5439 262.096C30.9138 248.965 44.0787 240.08 59.0624 240.741C58.9529 238.451 59.0993 236.088 59.5305 233.698C62.1487 219.19 74.2387 209.205 86.5343 211.397Z" fill="#0053FF"/>
<mask id="path-14-outside-2_414_50534" maskUnits="userSpaceOnUse" x="10.6719" y="121.226" width="322" height="70" fill="black">
<rect fill="white" x="10.6719" y="121.226" width="322" height="70"/>
<path d="M171.987 187.226C249.073 187.226 313.508 160.46 329.304 124.711H327.218C320.612 138.954 305.872 151.914 285.008 162.224C256.181 176.467 216.225 185.331 171.987 185.331C127.75 185.331 87.7932 176.467 58.9668 162.224C38.1027 151.914 23.3628 138.954 16.7578 124.711H14.6719C30.4674 160.46 94.9014 187.225 171.987 187.226Z"/>
</mask>
<path d="M171.987 187.226C249.073 187.226 313.508 160.46 329.304 124.711H327.218C320.612 138.954 305.872 151.914 285.008 162.224C256.181 176.467 216.225 185.331 171.987 185.331C127.75 185.331 87.7932 176.467 58.9668 162.224C38.1027 151.914 23.3628 138.954 16.7578 124.711H14.6719C30.4674 160.46 94.9014 187.225 171.987 187.226Z" fill="#312783"/>
<path d="M171.987 187.226V190.486V190.486V187.226ZM329.304 124.711V121.451C330.406 121.451 331.434 122.008 332.036 122.931C332.637 123.855 332.732 125.02 332.286 126.029L329.304 124.711ZM327.218 124.711L324.26 123.339C324.794 122.187 325.948 121.451 327.218 121.451V124.711ZM285.008 162.224L286.452 165.147V165.147L285.008 162.224ZM171.987 185.331V188.591V188.591V185.331ZM58.9668 162.224L57.5225 165.147L57.5225 165.147L58.9668 162.224ZM16.7578 124.711V121.451C18.0274 121.451 19.1815 122.188 19.7157 123.339L16.7578 124.711ZM14.6719 124.711L11.6896 126.029C11.2441 125.02 11.3382 123.855 11.94 122.931C12.5417 122.008 13.5695 121.451 14.6719 121.451V124.711ZM171.987 187.226V183.965C210.178 183.965 245.136 177.331 272.412 166.35C299.811 155.318 318.928 140.127 326.321 123.393L329.304 124.711L332.286 126.029C323.884 145.044 302.885 161.11 274.847 172.399C246.685 183.737 210.883 190.486 171.987 190.486V187.226ZM329.304 124.711V127.971H327.218V124.711V121.451H329.304V124.711ZM327.218 124.711L330.176 126.083C323.131 141.272 307.653 154.671 286.452 165.147L285.008 162.224L283.563 159.301C304.092 149.157 318.094 136.636 324.26 123.339L327.218 124.711ZM285.008 162.224L286.452 165.147C257.087 179.656 216.616 188.591 171.987 188.591V185.331V182.071C215.834 182.071 255.275 173.278 283.563 159.301L285.008 162.224ZM171.987 185.331V188.591C127.359 188.591 86.8871 179.656 57.5225 165.147L58.9668 162.224L60.4111 159.301C88.6993 173.278 128.141 182.071 171.987 182.071V185.331ZM58.9668 162.224L57.5225 165.147C36.3221 154.671 20.8439 141.272 13.8 126.083L16.7578 124.711L19.7157 123.339C25.8817 136.636 39.8832 149.157 60.4111 159.301L58.9668 162.224ZM16.7578 124.711V127.971H14.6719V124.711V121.451H16.7578V124.711ZM14.6719 124.711L17.6542 123.393C25.0477 140.127 44.1642 155.318 71.5634 166.35C98.839 177.331 133.797 183.965 171.987 183.965V187.226V190.486C133.092 190.486 97.2897 183.737 69.128 172.399C41.0898 161.11 20.0915 145.044 11.6896 126.029L14.6719 124.711Z" fill="#312783" mask="url(#path-14-outside-2_414_50534)"/>
</svg>
