<svg width="344" height="557" viewBox="0 0 344 557" fill="none" xmlns="http://www.w3.org/2000/svg">
<path d="M171.84 0C266.745 0 343.681 28.3254 343.681 63.2666C343.681 63.6257 343.67 63.9841 343.653 64.3418C343.978 67.2171 343.958 70.1855 343.553 73.2002L287.918 487.217C287.354 491.415 286.078 495.362 284.224 498.944C283.253 530.766 233.4 556.407 172.041 556.407C110.075 556.407 59.8418 530.256 59.8418 497.998C59.8418 497.775 59.8438 497.552 59.8486 497.329C58.4255 494.205 57.431 490.831 56.9473 487.276L0.606445 73.2598C0.319234 71.1492 0.222444 69.0611 0.298828 67.0117C0.10231 65.7725 0 64.524 0 63.2666C0.000139993 28.3255 76.9352 5.93669e-05 171.84 0Z" fill="white"/>
<mask id="path-2-outside-1_414_50412" maskUnits="userSpaceOnUse" x="10.6953" y="61.9199" width="323" height="70" fill="black">
<rect fill="white" x="10.6953" y="61.9199" width="323" height="70"/>
<path d="M172.251 127.92C249.454 127.92 313.986 101.114 329.806 65.3105H327.717C321.102 79.5751 306.339 92.5548 285.443 102.88C256.573 117.145 216.556 126.022 172.251 126.022C127.946 126.022 87.9289 117.145 59.0586 102.88C38.1626 92.5548 23.3993 79.5752 16.7842 65.3105H14.6953C30.515 101.114 95.0477 127.92 172.251 127.92Z"/>
</mask>
<path d="M172.251 127.92C249.454 127.92 313.986 101.114 329.806 65.3105H327.717C321.102 79.5751 306.339 92.5548 285.443 102.88C256.573 117.145 216.556 126.022 172.251 126.022C127.946 126.022 87.9289 117.145 59.0586 102.88C38.1626 92.5548 23.3993 79.5752 16.7842 65.3105H14.6953C30.515 101.114 95.0477 127.92 172.251 127.92Z" fill="#312783"/>
<path d="M172.251 127.92V131.185V131.185V127.92ZM329.806 65.3105V62.0452C330.91 62.0452 331.939 62.6031 332.542 63.5282C333.144 64.4534 333.239 65.6204 332.792 66.6303L329.806 65.3105ZM327.717 65.3105L324.754 63.9368C325.289 62.7833 326.445 62.0452 327.717 62.0452V65.3105ZM285.443 102.88L286.89 105.807V105.807L285.443 102.88ZM172.251 126.022V129.288V129.288V126.022ZM59.0586 102.88L57.6121 105.807L57.6121 105.807L59.0586 102.88ZM16.7842 65.3105V62.0452C18.0557 62.0452 19.2116 62.7833 19.7465 63.9368L16.7842 65.3105ZM14.6953 65.3105L11.7085 66.6303C11.2623 65.6204 11.3566 64.4534 11.9592 63.5282C12.5619 62.6031 13.5912 62.0452 14.6953 62.0452V65.3105ZM172.251 127.92V124.655C210.5 124.654 245.51 118.011 272.828 107.012C300.268 95.9642 319.414 80.7495 326.819 63.9908L329.806 65.3105L332.792 66.6303C324.378 85.6747 303.347 101.765 275.267 113.07C247.062 124.426 211.205 131.185 172.251 131.185V127.92ZM329.806 65.3105V68.5759H327.717V65.3105V62.0452H329.806V65.3105ZM327.717 65.3105L330.679 66.6843C323.624 81.8969 308.122 95.316 286.89 105.807L285.443 102.88L283.997 99.9524C304.556 89.7937 318.579 77.2533 324.754 63.9368L327.717 65.3105ZM285.443 102.88L286.89 105.807C257.481 120.339 216.947 129.288 172.251 129.288V126.022V122.757C216.164 122.757 255.666 113.951 283.997 99.9524L285.443 102.88ZM172.251 126.022V129.288C127.555 129.288 87.0214 120.339 57.6121 105.807L59.0586 102.88L60.5051 99.9524C88.8364 113.951 128.338 122.757 172.251 122.757V126.022ZM59.0586 102.88L57.6121 105.807C36.3795 95.316 20.8766 81.897 13.8218 66.6843L16.7842 65.3105L19.7465 63.9368C25.922 77.2534 39.9457 89.7936 60.5051 99.9524L59.0586 102.88ZM16.7842 65.3105V68.5759H14.6953V65.3105V62.0452H16.7842V65.3105ZM14.6953 65.3105L17.6821 63.9908C25.087 80.7496 44.2328 95.9642 71.6738 107.012C98.9912 118.011 134.002 124.655 172.251 124.655V127.92V131.185C133.296 131.185 97.4395 124.426 69.2347 113.071C41.1537 101.765 20.1233 85.6747 11.7085 66.6303L14.6953 65.3105Z" fill="#312783" mask="url(#path-2-outside-1_414_50412)"/>
</svg>
