<svg width="214" height="110" viewBox="0 0 214 110" fill="none" xmlns="http://www.w3.org/2000/svg">
<rect width="213.423" height="109.083" rx="14.821" fill="white"/>
<path d="M147.684 62.2149C140.372 62.2149 137.654 55.2437 137.654 55.2437L158.169 55.2437C158.169 55.2437 154.997 62.2149 147.684 62.2149Z" fill="#312783" stroke="#312783" stroke-width="5.64885" stroke-linecap="round"/>
<path d="M175.285 50.7288C175.285 50.7288 170.253 72.2464 147.684 72.2465C125.115 72.2466 120.205 50.9365 120.205 50.9365" stroke="#312783" stroke-width="6.55255" stroke-linecap="round"/>
<line x1="120.297" y1="49.8656" x2="174.686" y2="49.8656" stroke="#312783" stroke-width="6.95244" stroke-linecap="round"/>
<path d="M160.695 76.5536L159.402 73.3115" stroke="#312783" stroke-width="6.08338" stroke-linecap="round"/>
<path d="M177.187 66.0067L170.449 64.1445" stroke="#312783" stroke-width="6.08338" stroke-linecap="round"/>
<path d="M66.8446 62.4053C59.5324 62.4053 56.814 55.4341 56.814 55.4341L77.3296 55.4341C77.3296 55.4341 74.1568 62.4053 66.8446 62.4053Z" fill="#312783" stroke="#312783" stroke-width="5.64885" stroke-linecap="round"/>
<path d="M94.4415 50.9192C94.4415 50.9192 89.4093 72.4368 66.8404 72.4369C44.2716 72.4371 39.3611 51.1269 39.3611 51.1269" stroke="#312783" stroke-width="6.55255" stroke-linecap="round"/>
<line x1="39.4528" y1="50.057" x2="93.842" y2="50.057" stroke="#312783" stroke-width="6.95244" stroke-linecap="round"/>
<path d="M79.8555 76.744L78.5625 73.502" stroke="#312783" stroke-width="6.08338" stroke-linecap="round"/>
<path d="M96.3436 66.1971L89.6055 64.335" stroke="#312783" stroke-width="6.08338" stroke-linecap="round"/>
</svg>
