<svg width="214" height="110" viewBox="0 0 214 110" fill="none" xmlns="http://www.w3.org/2000/svg">
<rect width="213.423" height="109.083" rx="14.821" fill="white"/>
<path d="M122.912 73.1777C122.912 73.1777 122.696 48.8398 141.509 40.5496C160.322 32.2593 177.476 47.4169 177.476 47.4169" stroke="#312783" stroke-width="6.76204" stroke-linecap="round"/>
<ellipse cx="146.437" cy="53.914" rx="18.3843" ry="16.4963" transform="rotate(-16.2061 146.437 53.914)" fill="#312783"/>
<path d="M161.26 75.6972L159.844 72.1455" stroke="#312783" stroke-width="5.07153" stroke-linecap="round"/>
<path d="M177.742 65.4113L171.629 63.5049" stroke="#312783" stroke-width="5.07153" stroke-linecap="round"/>
<path d="M94.354 73.1777C94.354 73.1777 94.5701 48.8398 75.757 40.5496C56.9439 32.2593 39.7896 47.4169 39.7896 47.4169" stroke="#312783" stroke-width="6.76204" stroke-linecap="round"/>
<ellipse cx="18.3843" cy="16.4963" rx="18.3843" ry="16.4963" transform="matrix(-0.960264 -0.279093 -0.279093 0.960264 93.0859 43.2041)" fill="#312783"/>
<path d="M56.0055 75.6972L57.4219 72.1455" stroke="#312783" stroke-width="5.07153" stroke-linecap="round"/>
<path d="M39.5192 65.4113L45.6328 63.5049" stroke="#312783" stroke-width="5.07153" stroke-linecap="round"/>
</svg>
