<svg width="214" height="110" viewBox="0 0 214 110" fill="none" xmlns="http://www.w3.org/2000/svg">
<rect width="213.423" height="109.083" rx="14.821" fill="white"/>
<path d="M60.4467 70.6618L62.0273 66.6982" stroke="#312783" stroke-width="5.65964" stroke-linecap="round"/>
<path d="M42.0446 59.1822L48.8672 57.0547" stroke="#312783" stroke-width="5.65964" stroke-linecap="round"/>
<path d="M64.7703 59.7823C70.6701 61.4527 76.5661 59.2333 76.5661 59.2333L54.7444 45.2196C54.7444 45.2196 58.8705 58.1119 64.7703 59.7823Z" fill="#312783" stroke="#312783" stroke-width="6.13128" stroke-linecap="round"/>
<path d="M94.2207 71.748C94.2207 71.748 89.599 59.5859 70.156 47.4065C50.7129 35.2271 38.831 37.7252 38.831 37.7252" stroke="#312783" stroke-width="8.48946" stroke-linecap="round"/>
<path d="M153.651 70.277L152.07 66.3135" stroke="#312783" stroke-width="5.65964" stroke-linecap="round"/>
<path d="M172.041 58.7984L165.219 56.6709" stroke="#312783" stroke-width="5.65964" stroke-linecap="round"/>
<path d="M149.323 59.3975C143.424 61.0679 137.528 58.8485 137.528 58.8485L159.349 44.8349C159.349 44.8349 155.223 57.7272 149.323 59.3975Z" fill="#312783" stroke="#312783" stroke-width="6.13128" stroke-linecap="round"/>
<path d="M119.873 71.3632C119.873 71.3632 124.495 59.2011 143.938 47.0217C163.381 34.8423 175.263 37.3404 175.263 37.3404" stroke="#312783" stroke-width="8.48946" stroke-linecap="round"/>
</svg>
