<svg width="214" height="110" viewBox="0 0 214 110" fill="none" xmlns="http://www.w3.org/2000/svg">
<rect width="213.423" height="109.083" rx="14.821" fill="white"/>
<path d="M147.353 58.5128C139.823 60.487 133.727 56.6134 133.727 56.6134L159.791 44.5732C159.791 44.5732 154.883 56.5385 147.353 58.5128Z" fill="#312783" stroke="#312783" stroke-width="5.91371" stroke-linecap="round"/>
<path d="M119.693 67.7329C119.693 67.7329 123.547 54.7014 142.64 46.2879C161.733 37.8744 175.068 41.5891 175.068 41.5891" stroke="#312783" stroke-width="7.27842" stroke-linecap="round"/>
<path d="M132.922 73.2411C132.639 73.025 132.375 72.7729 132.203 72.4681C132.03 72.1633 131.963 71.8311 132.022 71.513C132.081 71.1949 132.262 70.9086 132.532 70.6857C132.802 70.4628 133.139 70.3217 133.481 70.2214C133.481 70.2214 133.481 70.2214 133.481 70.2214C134.065 69.9735 134.769 69.7349 135.401 69.5036C137.978 68.5749 140.352 67.8755 142.748 67.477C146.251 66.8884 149.662 65.872 152.939 64.399C157.665 62.2388 162.269 59.6257 165.818 55.8822C166.23 55.4461 166.671 54.8887 166.94 54.5467C167.134 54.2201 167.424 53.9473 167.782 53.8024C168.14 53.6574 168.533 53.6504 168.883 53.7865C169.232 53.9227 169.517 54.1933 169.683 54.5422C169.849 54.8912 169.878 55.2884 169.801 55.6604C169.801 55.6604 169.801 55.6604 169.801 55.6604C169.534 56.5752 169.272 57.2033 168.946 57.9134C166.241 63.5334 161.536 67.7626 156.455 70.9302C152.701 73.2482 148.469 74.8231 144.104 75.5531C141.112 76.0551 137.963 75.6903 135.073 74.4061C134.341 74.0811 133.676 73.7134 132.922 73.2411Z" fill="#312783"/>
<path d="M66.5533 58.5128C74.0831 60.487 80.1793 56.6134 80.1793 56.6134L54.115 44.5732C54.115 44.5732 59.0236 56.5385 66.5533 58.5128Z" fill="#312783" stroke="#312783" stroke-width="5.91371" stroke-linecap="round"/>
<path d="M94.2173 67.7329C94.2173 67.7329 90.363 54.7014 71.2702 46.2879C52.1775 37.8744 38.8418 41.5891 38.8418 41.5891" stroke="#312783" stroke-width="7.27842" stroke-linecap="round"/>
<path d="M80.9877 73.2411C81.2713 73.025 81.535 72.7729 81.7074 72.4681C81.8799 72.1633 81.947 71.8311 81.8881 71.513C81.8293 71.1949 81.6479 70.9086 81.3778 70.6857C81.1078 70.4628 80.7714 70.3217 80.4293 70.2214C80.4293 70.2214 80.4293 70.2214 80.4293 70.2214C79.845 69.9735 79.1414 69.7349 78.5091 69.5036C75.9321 68.5749 73.5585 67.8755 71.1617 67.477C67.659 66.8884 64.2484 65.872 60.9716 64.399C56.2449 62.2388 51.6412 59.6257 48.0926 55.8822C47.6805 55.4461 47.2396 54.8887 46.9705 54.5467C46.7761 54.2201 46.4861 53.9473 46.1278 53.8024C45.7698 53.6574 45.3772 53.6504 45.0274 53.7865C44.6777 53.9227 44.3931 54.1933 44.2272 54.5422C44.0611 54.8912 44.0318 55.2884 44.1092 55.6604C44.1092 55.6604 44.1092 55.6604 44.1092 55.6604C44.3762 56.5752 44.6377 57.2033 44.964 57.9134C47.6692 63.5334 52.3742 67.7626 57.455 70.9302C61.2096 73.2482 65.4408 74.8231 69.8065 75.5531C72.7977 76.0551 75.9472 75.6903 78.837 74.4061C79.569 74.0811 80.234 73.7134 80.9877 73.2411Z" fill="#312783"/>
</svg>
