<svg width="212" height="136" viewBox="0 0 212 136" fill="none" xmlns="http://www.w3.org/2000/svg">
<path d="M76.564 16.5598C93.9758 -2.75567 120.956 -5.58442 136.826 10.2414C143.746 17.1422 147.41 26.4502 147.899 36.3557C168.445 27.5558 191.244 32.2554 203.295 49.4289C217.962 70.3321 211.151 101.796 188.081 119.704C170.273 133.528 147.983 135.234 131.995 125.68C124.959 131.787 115.587 135.515 105.296 135.515C96.2333 135.515 87.8838 132.622 81.2144 127.761C75.7632 133.853 65.2752 136.067 54.732 132.621C46.6315 129.974 40.3573 124.593 37.3365 118.491C11.3088 108.967 -4.74499 85.5423 1.2574 65.2258C7.43578 44.3139 34.6423 34.6163 62.024 43.5657C62.4431 43.7026 62.8597 43.8435 63.274 43.9875C64.8354 34.3055 69.2878 24.6317 76.564 16.5598Z" fill="white"/>
</svg>
