<svg width="223" height="177" viewBox="0 0 223 177" fill="none" xmlns="http://www.w3.org/2000/svg">
<path d="M104.499 12.8325C135.788 3.34693 167.504 14.5523 175.338 37.8609C177.177 43.3338 177.534 48.9872 176.602 54.5576C191.948 57.8125 205.989 69.5153 212.641 86.5439C222.57 111.96 212.279 139.613 189.656 148.31C178.619 152.552 166.688 151.497 156.207 146.354C146.164 156.063 128.795 163.642 108.452 165.992C74.9198 169.867 46.0112 158.073 43.8829 139.652C43.5291 136.59 43.9384 133.537 45.0195 130.558C41.9266 128.986 38.8751 127.188 35.9015 125.162C9.16196 106.936 -1.22255 77.1968 12.7068 58.7382C22.7509 45.4285 42.6939 41.6194 63.063 47.3622C69.0389 32.3614 84.1812 18.9921 104.499 12.8325Z" fill="white"/>
</svg>
