<svg width="244" height="218" viewBox="0 0 244 218" fill="none" xmlns="http://www.w3.org/2000/svg">
<path d="M48.567 59.6312C52.8879 38.7618 80.8645 25.7981 111.054 30.6763C124.527 32.8533 136.162 38.2186 144.534 45.3446C174.588 37.6494 205.476 49.2243 218.112 74.8905C230.982 101.03 220.668 133.15 195.166 152.01C194.991 163.897 189.297 174.878 178.998 180.678C166.017 187.986 149.635 184.862 138.22 174.122C133.36 176.331 128.085 178.236 122.493 179.737C91.9759 187.929 63.6103 181.058 59.136 164.391C58.3926 161.621 58.3551 158.756 58.9503 155.864C55.8714 154.844 52.8006 153.608 49.7703 152.151C22.5379 139.058 8.88222 113.11 19.2691 94.1938C24.9317 83.8812 36.5705 77.7879 50.3994 76.4995C48.1023 71.0977 47.3801 65.3642 48.567 59.6312Z" fill="white"/>
</svg>
