<svg width="218" height="174" viewBox="0 0 218 174" fill="none" xmlns="http://www.w3.org/2000/svg">
<path d="M87.5135 12.2902C118.214 6.56787 146.982 21.9818 151.768 46.718C151.851 47.146 151.925 47.5742 151.992 48.002C173.917 43.5233 197.273 56.3222 206.367 78.915C216.371 103.771 205.324 131.069 181.693 139.887C172.959 143.146 163.729 143.42 155.057 141.222C145.127 155.046 122.418 164.713 95.9883 164.721C60.4068 164.731 31.5566 147.231 31.5495 125.634C31.5491 124.555 31.6211 123.487 31.7619 122.43C13.3724 112.248 4.08162 94.6526 10.8046 81.1463C15.5281 71.6569 27.0076 66.4952 40.4264 66.5283C36.3235 42.1001 57.1902 17.9423 87.5135 12.2902Z" fill="white"/>
</svg>
