<svg width="585" height="455" viewBox="0 0 585 455" fill="none" xmlns="http://www.w3.org/2000/svg">
<path d="M243.324 50.2493C301.848 29.0685 362.754 41.8762 393.457 78.2339C401.105 72.7824 409.817 68.1673 419.403 64.6982C464.401 48.4129 511.602 63.5267 524.828 98.4556C533.476 121.295 525.456 146.95 506.29 166.527C512.148 170.492 517.807 174.999 523.187 180.049C570.372 224.338 578.293 293.482 540.879 334.484C513.586 364.396 469.708 371.066 429.648 355.295C408.926 381.547 368.031 403.411 318.665 411.416C242.552 423.758 175.129 398.482 168.071 354.961C167.975 354.364 167.892 353.767 167.818 353.17C125.953 380.441 82.7061 386.517 58.8139 364.716C33.7063 341.806 37.3034 294.799 64.0805 248.368C34.298 210.426 26.1667 165.297 47.4658 132.841C70.1287 98.3063 119.542 88.1298 169.836 103.529C186.498 80.8561 211.91 61.6182 243.324 50.2493Z" fill="white"/>
<path d="M317.308 249.091C317.308 249.091 333.051 215.785 373.708 195.601C414.365 175.417 442.523 209.266 442.523 209.266" stroke="#312783" stroke-width="14.93" stroke-linecap="round"/>
<path d="M436.013 255.254C434.628 256.505 433.243 257.756 431.859 259.008C430.78 258.802 429.15 258.311 427.744 258.064C421.955 256.99 416.291 256.567 410.507 255.769C404.976 255.033 399.226 254.864 393.363 255.043C377.27 255.583 361.041 257.073 344.808 259.702C343.231 259.964 341.601 260.254 340.121 260.54C339.505 258.778 338.888 257.016 338.272 255.255C339.841 254.5 341.343 253.833 342.894 253.175C358.634 246.579 375.323 242.425 392.43 240.743C399.006 240.118 405.697 240.069 412.485 240.97C419.552 241.921 426.842 244.834 432.319 250.362C433.712 251.796 434.817 253.165 436.013 255.254Z" fill="#312783"/>
<path d="M407.864 200.88C411.604 211.851 404.031 232.852 387.569 238.465C371.106 244.077 353.929 235.201 350.189 224.23C346.449 213.26 357.561 204.35 374.024 198.738C390.487 193.125 404.123 189.91 407.864 200.88Z" fill="#312783"/>
<path d="M275.865 250.987C275.865 250.987 257.145 219.259 214.814 202.873C172.483 186.487 147.535 222.766 147.535 222.766" stroke="#312783" stroke-width="14.93" stroke-linecap="round"/>
<path d="M158.218 267.968C159.711 269.088 161.205 270.207 162.698 271.326C163.753 271.023 165.332 270.385 166.709 270.011C172.376 268.413 177.978 267.474 183.665 266.151C189.105 264.913 194.815 264.219 200.671 263.862C216.745 262.929 233.043 262.931 249.448 264.066C251.042 264.183 252.692 264.323 254.192 264.472C254.645 262.662 255.098 260.851 255.551 259.04C253.919 258.432 252.362 257.905 250.758 257.391C234.482 252.261 217.482 249.649 200.294 249.537C193.688 249.515 187.021 250.077 180.343 251.594C173.393 253.187 166.399 256.754 161.449 262.759C160.193 264.314 159.218 265.778 158.218 267.968Z" fill="#312783"/>
<path d="M181.286 211.251C178.563 222.517 188.022 242.738 204.929 246.824C221.835 250.91 238.129 240.501 240.852 229.235C243.574 217.969 231.694 210.111 214.788 206.026C197.881 201.94 184.008 199.985 181.286 211.251Z" fill="#312783"/>
</svg>
