<svg width="562" height="397" viewBox="0 0 562 397" fill="none" xmlns="http://www.w3.org/2000/svg">
<path d="M99.8438 54.5332C135.045 35.317 183.842 46.0811 221.037 77.864C238.219 59.5176 263.321 44.2479 293.571 35.5812C361.933 15.995 430.772 37.5266 447.637 83.6767C487.779 76.0234 525.854 89.9694 535.617 117.261C542.844 137.465 532.693 159.78 511.661 175.944C534.1 213.3 527.23 261.108 491.396 292.707C460.81 319.678 417.266 327.659 379.333 316.666C364.713 342.461 326.287 363.796 279.278 369.227C216.409 376.49 161.998 352.56 157.748 315.777C157.556 314.108 157.47 312.442 157.487 310.78C117.445 333.923 70.5569 335.494 43.7453 311.941C11.4392 283.562 20.5165 229.458 64.0196 191.096C68.4044 187.229 72.9719 183.67 77.6733 180.425C50.8349 130.722 59.3733 76.626 99.8438 54.5332Z" fill="white"/>
<path d="M309.527 230.039C309.527 230.039 323.08 203.388 357.583 188.183C392.087 172.979 418.816 178.494 418.816 178.494" stroke="#312783" stroke-width="12.4017" stroke-linecap="round"/>
<path d="M336.134 236.235C336.996 234.947 337.858 233.658 338.719 232.369C339.619 232.313 340.991 232.379 342.129 232.303C346.882 232.051 351.32 231.404 355.986 231.068C360.669 230.708 365.46 229.822 370.264 228.619C382.165 225.606 393.873 221.148 404.786 214.8C405.863 214.165 406.988 213.461 407.919 212.842C408.981 213.971 410.044 215.1 411.106 216.229C410.145 217.342 409.237 218.288 408.256 219.26C398.557 228.724 386.565 235.7 373.576 239.987C368.261 241.727 362.708 242.989 356.931 243.435C351.201 243.865 345.091 242.771 339.859 239.39C338.543 238.517 337.436 237.632 336.134 236.235Z" fill="#312783"/>
<path d="M396.335 187.408C399.668 198.875 390.885 220.133 373.678 225.134C356.47 230.135 339.209 220.19 335.877 208.723C332.544 197.256 344.401 188.61 361.609 183.609C378.816 178.607 393.003 175.941 396.335 187.408Z" fill="#312783"/>
<path d="M400.002 251.668L397.404 245.154" stroke="#312783" stroke-width="9.30129" stroke-linecap="round"/>
<path d="M433.902 227.967L422.689 224.47" stroke="#312783" stroke-width="9.30129" stroke-linecap="round"/>
<path d="M270.35 229.958C270.35 229.958 256.797 203.307 222.294 188.102C187.79 172.898 161.061 178.412 161.061 178.412" stroke="#312783" stroke-width="12.4017" stroke-linecap="round"/>
<path d="M243.743 236.155C242.881 234.866 242.019 233.577 241.158 232.289C240.258 232.232 238.886 232.299 237.748 232.223C232.995 231.971 228.557 231.324 223.891 230.988C219.208 230.628 214.417 229.742 209.613 228.538C197.712 225.526 186.004 221.068 175.091 214.72C174.014 214.085 172.889 213.38 171.958 212.761C170.895 213.891 169.833 215.02 168.771 216.149C169.732 217.261 170.64 218.207 171.621 219.179C181.32 228.644 193.312 235.619 206.301 239.906C211.616 241.647 217.169 242.908 222.946 243.354C228.676 243.785 234.785 242.691 240.018 239.31C241.334 238.436 242.441 237.552 243.743 236.155Z" fill="#312783"/>
<path d="M183.544 187.327C180.211 198.794 188.994 220.052 206.201 225.053C223.409 230.054 240.669 220.109 244.002 208.642C247.335 197.175 235.478 188.529 218.27 183.528C201.062 178.526 186.876 175.86 183.544 187.327Z" fill="#312783"/>
<path d="M179.875 251.586L182.473 245.072" stroke="#312783" stroke-width="9.30129" stroke-linecap="round"/>
<path d="M145.975 227.886L157.188 224.389" stroke="#312783" stroke-width="9.30129" stroke-linecap="round"/>
</svg>
