<svg width="558" height="389" viewBox="0 0 558 389" fill="none" xmlns="http://www.w3.org/2000/svg">
<path d="M310.242 2.38726C244.027 -8.81048 181.425 20.377 160.46 69.1461C136.068 50.038 101.117 49.0152 80.3245 67.4869C66.4032 79.8543 62.1851 97.9793 67.2571 115.214C14.7383 141.694 -12.4431 193.097 5.53738 238.174C20.4364 275.526 62.2137 298.177 109.668 299.037C109.622 300.06 109.596 301.088 109.596 302.12C109.596 349.828 159.402 388.504 220.841 388.504C266.343 388.504 305.463 367.29 322.698 336.905C342.133 348.615 368.38 355.799 397.267 355.799C457.159 355.799 505.711 324.923 505.711 286.835C505.711 277.797 502.976 269.166 498.006 261.256C543.414 236.703 567.719 195.046 554.338 157.353C547.402 137.813 531.431 122.421 510.231 112.446C508.907 99.4709 502.341 86.3358 490.705 75.8248C467.903 55.2262 433.688 51.9855 411.443 67.4361C392.737 35.3058 355.97 10.1202 310.242 2.38726Z" fill="white"/>
<path d="M204.304 207.17C192.473 206.754 187.678 195.854 187.678 195.854L220.872 197.021C220.872 197.021 216.135 207.586 204.304 207.17Z" fill="#312783" stroke="#312783" stroke-width="11.2662" stroke-linecap="round"/>
<path d="M266.092 186.914C266.092 186.914 254.788 235.25 204.09 235.25C153.392 235.25 142.362 187.38 142.362 187.38" stroke="#312783" stroke-width="13.866" stroke-linecap="round"/>
<line x1="141.697" y1="185.852" x2="265.624" y2="185.852" stroke="#312783" stroke-width="13.866" stroke-linecap="round"/>
<path d="M171.5 244.711L174.404 237.428" stroke="#312783" stroke-width="12.1328" stroke-linecap="round"/>
<path d="M250.121 171.368L247.025 178.571" stroke="#312783" stroke-width="12.1328" stroke-linecap="round"/>
<path d="M134.469 221.019L149.605 216.836" stroke="#312783" stroke-width="12.1328" stroke-linecap="round"/>
<path d="M158.208 166.527L165.953 180.188" stroke="#312783" stroke-width="12.1328" stroke-linecap="round"/>
<path d="M199.974 165.55L201.635 181.165" stroke="#312783" stroke-width="12.1328" stroke-linecap="round"/>
<path d="M379.907 206.741C391.738 206.325 396.533 195.424 396.533 195.424L363.339 196.591C363.339 196.591 368.076 207.157 379.907 206.741Z" fill="#312783" stroke="#312783" stroke-width="11.2662" stroke-linecap="round"/>
<path d="M318.115 186.484C318.115 186.484 329.419 234.82 380.117 234.82C430.815 234.821 441.845 186.95 441.845 186.95" stroke="#312783" stroke-width="13.866" stroke-linecap="round"/>
<line x1="6.93302" y1="-6.93302" x2="130.861" y2="-6.93302" transform="matrix(-1 0 0 1 449.447 192.356)" stroke="#312783" stroke-width="13.866" stroke-linecap="round"/>
<path d="M412.709 244.281L409.805 236.998" stroke="#312783" stroke-width="12.1328" stroke-linecap="round"/>
<path d="M334.088 170.939L337.184 178.142" stroke="#312783" stroke-width="12.1328" stroke-linecap="round"/>
<path d="M449.742 220.589L434.605 216.406" stroke="#312783" stroke-width="12.1328" stroke-linecap="round"/>
<path d="M426.003 166.097L418.258 179.758" stroke="#312783" stroke-width="12.1328" stroke-linecap="round"/>
<path d="M384.233 165.12L382.572 180.735" stroke="#312783" stroke-width="12.1328" stroke-linecap="round"/>
</svg>
