<svg width="535" height="375" viewBox="0 0 535 375" fill="none" xmlns="http://www.w3.org/2000/svg">
<path d="M162.7 30.3711C205.657 -14.2728 284.759 -9.09698 339.38 41.9316C356.433 57.8635 369.083 76.382 377.111 95.6767C428.349 74.1599 485.769 84.7696 515.919 125.021C552.106 173.335 535.302 246.057 478.385 287.45C463.854 298.018 448.112 305.519 432.125 310.031C420.967 346.977 383.003 374.179 337.884 374.179C299.038 374.179 265.495 354.015 249.798 324.83C246.768 330.424 242.877 335.739 238.137 340.559C213.931 365.173 176.743 367.561 155.074 345.893C140.679 331.497 136.754 310.106 142.839 290.15C128.247 289.67 113.044 287.199 97.8201 282.537C30.2662 261.852 -12.1403 205.901 3.10229 157.567C17.0481 113.346 74.4185 90.8212 135.816 103.149C135.09 75.9001 143.846 49.9653 162.7 30.3711Z" fill="white"/>
<path d="M208.583 137.554C218.628 137.554 228.319 143.222 235.749 153.584C243.171 163.935 247.962 178.563 247.962 195.015C247.962 211.466 243.171 226.094 235.749 236.445C228.319 246.808 218.628 252.476 208.583 252.476C198.538 252.476 188.847 246.808 181.417 236.445C173.995 226.094 169.204 211.466 169.204 195.015C169.204 178.563 173.995 163.935 181.417 153.584C188.847 143.222 198.538 137.554 208.583 137.554Z" stroke="#312783" stroke-width="12.8583"/>
<path d="M208.583 180.148C220.791 180.149 231.085 190.717 231.085 204.258C231.085 217.799 220.791 228.367 208.583 228.367C196.375 228.367 186.081 217.799 186.081 204.258C186.081 190.717 196.375 180.148 208.583 180.148Z" fill="#312783" stroke="#312783" stroke-width="8.03645"/>
<line x1="171.194" y1="180.823" x2="244.068" y2="180.823" stroke="#312783" stroke-width="11.509" stroke-linecap="round"/>
<path d="M337.501 137.554C347.546 137.554 357.237 143.222 364.667 153.584C372.089 163.935 376.88 178.563 376.88 195.015C376.88 211.466 372.089 226.094 364.667 236.445C357.237 246.808 347.546 252.476 337.501 252.476C327.456 252.476 317.765 246.808 310.335 236.445C302.913 226.094 298.122 211.466 298.122 195.015C298.122 178.563 302.913 163.935 310.335 153.584C317.765 143.222 327.456 137.554 337.501 137.554Z" stroke="#312783" stroke-width="12.8583"/>
<path d="M337.503 180.148C349.711 180.149 360.005 190.717 360.005 204.258C360.005 217.799 349.711 228.367 337.503 228.367C325.295 228.367 315.001 217.799 315.001 204.258C315.001 190.717 325.295 180.148 337.503 180.148Z" fill="#312783" stroke="#312783" stroke-width="8.03645"/>
<line x1="300.112" y1="180.823" x2="372.182" y2="180.823" stroke="#312783" stroke-width="11.509" stroke-linecap="round"/>
</svg>
