<svg width="166" height="50" viewBox="0 0 166 50" fill="none" xmlns="http://www.w3.org/2000/svg">
<path d="M29.7226 43.4123L31.5391 38.8574" stroke="#312783" stroke-width="6.50405" stroke-linecap="round"/>
<path d="M8.57361 30.2183L16.4141 27.7734" stroke="#312783" stroke-width="6.50405" stroke-linecap="round"/>
<path d="M34.6883 30.9103C41.4684 32.8299 48.244 30.2794 48.244 30.2794L23.1665 14.1749C23.1665 14.1749 27.9083 28.9907 34.6883 30.9103Z" fill="#312783" stroke="#312783" stroke-width="7.04605" stroke-linecap="round"/>
<path d="M68.5325 44.6604C68.5325 44.6604 63.2213 30.6838 40.8774 16.6872C18.5335 2.69068 4.87883 5.56149 4.87883 5.56149" stroke="#312783" stroke-width="9.75607" stroke-linecap="round"/>
<path d="M135.813 42.9689L133.996 38.4141" stroke="#312783" stroke-width="6.50405" stroke-linecap="round"/>
<path d="M156.95 29.7789L149.109 27.334" stroke="#312783" stroke-width="6.50405" stroke-linecap="round"/>
<path d="M130.835 30.467C124.055 32.3866 117.279 29.836 117.279 29.836L142.357 13.7316C142.357 13.7316 137.615 28.5474 130.835 30.467Z" fill="#312783" stroke="#312783" stroke-width="7.04605" stroke-linecap="round"/>
<path d="M96.9987 44.219C96.9987 44.219 102.31 30.2424 124.654 16.2458C146.998 2.24928 160.652 5.12008 160.652 5.12008" stroke="#312783" stroke-width="9.75607" stroke-linecap="round"/>
</svg>
