<svg width="647" height="717" viewBox="0 0 647 717" fill="none" xmlns="http://www.w3.org/2000/svg">
<path d="M582.674 452.655C592.943 430.996 503.796 318.053 503.796 318.053L545.364 307.261C545.364 307.261 648.14 445.22 635.9 479.278C623.659 513.337 416.874 525.452 416.874 525.452C416.874 525.452 449.468 564.85 436.833 574.236C424.197 583.622 418.823 569.22 418.823 569.22C418.823 569.22 419.652 600.393 403.915 600.854C388.178 601.315 389.743 573.688 389.743 573.688L389.755 523.74C389.755 523.74 391.155 493.278 403.915 490.204C416.676 487.13 572.405 474.313 582.674 452.655Z" fill="#0053FF" stroke="#0053FF" stroke-width="7.76016"/>
<path d="M64.326 453.517C54.0574 431.858 143.204 318.915 143.204 318.915L101.636 308.123C101.636 308.123 -1.14004 446.082 11.1003 480.14C23.3407 514.199 230.126 526.314 230.126 526.314C230.126 526.314 197.532 565.712 210.167 575.098C222.803 584.484 228.177 570.081 228.177 570.081C228.177 570.081 227.348 601.255 243.085 601.716C258.822 602.177 257.257 574.55 257.257 574.55L257.245 524.602C257.245 524.602 255.845 494.139 243.085 491.066C230.324 487.992 74.5947 475.175 64.326 453.517Z" fill="#0053FF" stroke="#0053FF" stroke-width="7.76016"/>
<path d="M383.946 401.916L385.145 412.629L384.655 412.583C384.655 412.583 384.224 642.577 397.589 654.872C405.611 662.253 426.215 664.967 443.644 667.263C455.251 668.792 465.45 670.135 469.586 672.548C479.933 678.584 499.764 696.26 486.831 706.176C473.897 716.091 390.26 714.798 376.895 710.918C363.531 707.038 354.477 701.433 351.459 684.188C348.441 666.944 339.819 416.032 339.819 416.032H303.605C303.605 416.032 299.725 669.961 292.827 688.5C285.929 707.038 275.151 710.487 261.786 713.073C248.422 715.66 166.509 719.015 159.611 710.918C152.713 702.82 152.713 686.018 170.389 673.842C179.021 667.895 192.795 666.934 206.888 665.951C221.654 664.921 236.771 663.866 246.697 657.028C266.097 643.663 260.062 412.583 260.062 412.583L245.739 413.856V398.121L383.946 401.916Z" fill="#0053FF"/>
<path d="M268.64 33.3356C347.156 17.8148 420.727 59.6222 432.966 126.715C433.178 127.876 433.367 129.037 433.539 130.198C489.611 118.046 549.346 152.759 572.604 214.04C598.191 281.457 569.939 355.499 509.503 379.415C487.166 388.255 463.559 389.007 441.38 383.043C415.983 420.537 357.906 446.757 290.314 446.778C199.318 446.807 125.536 399.341 125.518 340.761C125.517 337.838 125.702 334.942 126.061 332.079C79.0299 304.463 55.2733 256.729 72.4669 220.095C84.5464 194.358 113.902 180.356 148.218 180.445C137.726 114.188 191.091 48.6657 268.64 33.3356Z" fill="white"/>
<path fill-rule="evenodd" clip-rule="evenodd" d="M301.83 265.801C302.502 262.943 305.363 261.168 308.224 261.837C311.086 262.506 312.864 265.37 312.195 268.232L307.012 267.02C312.195 268.232 312.194 268.235 312.193 268.237C312.193 268.239 312.192 268.242 312.192 268.244C312.191 268.249 312.189 268.254 312.188 268.26C312.185 268.272 312.182 268.287 312.178 268.304C312.169 268.338 312.158 268.382 312.145 268.436C312.118 268.545 312.079 268.693 312.029 268.878C311.93 269.248 311.784 269.766 311.585 270.412C311.186 271.703 310.573 273.509 309.694 275.66C308.162 279.409 305.796 284.263 302.307 289.274L312.176 292.002C315.009 292.785 316.671 295.717 315.889 298.55C315.106 301.384 312.174 303.046 309.341 302.263L296.06 298.593C295.643 298.478 295.252 298.314 294.89 298.113C290.882 302.074 286.026 305.758 280.19 308.647C280.372 308.93 280.531 309.234 280.66 309.559L283.209 315.948C284.298 318.679 282.967 321.775 280.237 322.864C277.506 323.953 274.41 322.622 273.321 319.892L270.772 313.502C270.625 313.133 270.523 312.757 270.462 312.381C265.156 313.881 259.226 314.752 252.612 314.752C228.388 314.753 213.389 303.198 204.614 291.65C200.273 285.938 197.46 280.251 195.73 275.998C194.862 273.865 194.258 272.073 193.866 270.792C193.669 270.151 193.525 269.636 193.428 269.268C193.379 269.084 193.342 268.937 193.315 268.829C193.302 268.775 193.291 268.73 193.282 268.696C193.278 268.679 193.276 268.664 193.273 268.652C193.271 268.646 193.269 268.641 193.268 268.637C193.268 268.634 193.267 268.631 193.267 268.63C193.266 268.627 193.306 268.615 198.435 267.433L193.266 268.625C192.606 265.76 194.393 262.902 197.257 262.242C200.12 261.583 202.975 263.368 203.637 266.23L203.649 266.271C203.661 266.321 203.684 266.411 203.716 266.534C203.739 266.62 203.768 266.722 203.801 266.84H301.542C301.633 266.534 301.702 266.29 301.75 266.114C301.783 265.989 301.806 265.899 301.82 265.847L301.83 265.801ZM208.165 277.486C209.465 279.933 211.088 282.575 213.09 285.209C220.274 294.662 232.355 304.107 252.612 304.107C272.851 304.107 284.996 294.577 292.252 285.009C294.193 282.448 295.783 279.879 297.073 277.486H283.696L283.363 278.218L281.754 277.486H281.747C283.333 278.209 283.362 278.221 283.362 278.222L283.354 278.237C283.351 278.244 283.348 278.252 283.344 278.261C283.335 278.279 283.325 278.301 283.314 278.325C283.291 278.374 283.261 278.436 283.225 278.51C283.152 278.658 283.052 278.857 282.924 279.097C282.67 279.576 282.304 280.229 281.82 280.997C280.858 282.525 279.399 284.56 277.393 286.608C273.374 290.71 266.92 295.075 257.854 295.075C248.747 295.075 242.474 290.672 238.636 286.475C236.733 284.393 235.387 282.327 234.512 280.778C234.072 279.998 233.743 279.335 233.516 278.847C233.403 278.603 233.313 278.401 233.249 278.249C233.216 278.173 233.19 278.109 233.17 278.059C233.16 278.033 233.15 278.012 233.143 277.993C233.139 277.984 233.136 277.975 233.133 277.968C233.132 277.964 233.13 277.96 233.129 277.956C233.128 277.955 233.127 277.953 233.127 277.952C233.126 277.951 233.134 277.949 234.319 277.486H234.308L233.125 277.947L232.946 277.486H208.165Z" fill="#312783"/>
<path fill-rule="evenodd" clip-rule="evenodd" d="M461.162 265.426C461.834 262.567 464.696 260.793 467.556 261.462C470.418 262.131 472.196 264.995 471.527 267.857L466.344 266.644C471.527 267.856 471.526 267.859 471.525 267.862C471.525 267.863 471.524 267.867 471.524 267.869C471.523 267.873 471.522 267.879 471.52 267.884C471.517 267.896 471.514 267.911 471.51 267.928C471.501 267.963 471.49 268.007 471.477 268.061C471.45 268.169 471.412 268.318 471.362 268.503C471.263 268.873 471.116 269.391 470.917 270.037C470.518 271.327 469.905 273.134 469.027 275.284C467.495 279.033 465.129 283.888 461.64 288.899L471.505 291.626C474.338 292.409 476.001 295.34 475.218 298.174C474.435 301.007 471.503 302.669 468.67 301.886L455.39 298.216C454.974 298.101 454.583 297.939 454.222 297.739C450.213 301.7 445.357 305.384 439.52 308.272C439.702 308.555 439.86 308.859 439.99 309.183L442.538 315.573C443.627 318.304 442.296 321.4 439.566 322.489C436.835 323.578 433.739 322.247 432.65 319.517L430.102 313.127C429.955 312.758 429.852 312.383 429.791 312.007C424.485 313.506 418.557 314.377 411.944 314.377C387.721 314.377 372.722 302.822 363.946 291.275C359.605 285.563 356.793 279.875 355.062 275.622C354.194 273.489 353.59 271.698 353.198 270.417C353.002 269.776 352.858 269.261 352.76 268.893C352.711 268.709 352.674 268.561 352.647 268.453C352.634 268.399 352.623 268.355 352.615 268.321C352.61 268.304 352.608 268.289 352.605 268.277C352.604 268.271 352.602 268.266 352.601 268.261C352.601 268.259 352.599 268.256 352.599 268.255C352.599 268.252 352.64 268.239 357.785 267.054L352.598 268.249C351.938 265.385 353.725 262.527 356.589 261.867C359.452 261.207 362.308 262.992 362.97 265.854L362.981 265.895C362.993 265.946 363.016 266.035 363.049 266.159C363.093 266.325 363.157 266.554 363.241 266.84H460.761C460.911 266.354 461.017 265.981 461.082 265.739C461.115 265.613 461.139 265.523 461.152 265.471L461.162 265.426ZM367.699 277.486C368.964 279.826 370.522 282.334 372.422 284.834C379.606 294.286 391.687 303.732 411.944 303.732C432.184 303.731 444.328 294.201 451.584 284.633C453.425 282.205 454.951 279.771 456.204 277.486H442.852L442.689 277.843L441.905 277.486H441.896C442.67 277.839 442.688 277.846 442.688 277.847C442.687 277.848 442.686 277.85 442.686 277.851C442.684 277.855 442.683 277.858 442.681 277.862C442.678 277.869 442.674 277.877 442.67 277.886C442.662 277.904 442.652 277.925 442.64 277.95C442.617 277.999 442.587 278.06 442.551 278.134C442.478 278.283 442.378 278.481 442.251 278.721C441.996 279.201 441.63 279.854 441.146 280.622C440.184 282.15 438.725 284.184 436.719 286.232C432.701 290.335 426.246 294.7 417.18 294.7C408.073 294.7 401.8 290.296 397.962 286.1C396.059 284.018 394.713 281.951 393.838 280.402C393.398 279.623 393.069 278.96 392.842 278.472C392.729 278.228 392.64 278.026 392.575 277.874C392.543 277.798 392.517 277.734 392.496 277.683C392.486 277.658 392.477 277.636 392.469 277.618C392.466 277.608 392.462 277.6 392.46 277.592C392.458 277.588 392.456 277.584 392.455 277.581C392.454 277.58 392.453 277.578 392.453 277.577C392.453 277.576 392.456 277.576 392.685 277.486H392.671L392.451 277.571L392.418 277.486H367.699Z" fill="#312783"/>
<path d="M304.536 229.098C307.475 229.098 309.858 231.481 309.858 234.421C309.858 237.36 307.475 239.743 304.536 239.743H201.381C198.441 239.743 196.058 237.36 196.058 234.421C196.058 231.481 198.441 229.098 201.381 229.098H304.536Z" fill="#312783"/>
<path d="M463.016 225.58C465.955 225.58 468.339 227.963 468.339 230.902C468.339 233.842 465.955 236.225 463.016 236.225H359.861C356.922 236.225 354.538 233.842 354.538 230.902C354.538 227.963 356.922 225.58 359.861 225.58H463.016Z" fill="#312783"/>
</svg>
