<svg width="124" height="547" viewBox="0 0 124 547" fill="none" xmlns="http://www.w3.org/2000/svg">
<path d="M36.1758 115.395V358.782L86.2754 116.193L86.4395 115.395H122.588V545.387H87.2188V289.875L34.998 544.587L34.835 545.387H1V115.395H36.1758ZM83.7568 6.96729L96.4873 41.6167L96.5879 41.8931L96.5244 42.1792C92.6558 59.5536 87.6609 73.7831 81.8486 83.6948C76.0697 93.5495 69.3006 99.4282 61.7939 99.4282C54.3824 99.4282 47.6131 93.5467 41.7891 83.6978C35.9289 73.7876 30.8366 59.5592 26.8711 42.1841L26.8057 41.895L26.9082 41.6167L39.6377 6.96729L40.8164 3.76123L41.5527 7.09619C43.9559 17.9687 46.9222 27.1693 50.4023 33.6274C53.9229 40.1604 57.7674 43.5288 61.7939 43.5288C65.6642 43.5288 69.4555 40.5868 72.9521 34.3354C76.4233 28.1297 79.4355 18.9408 81.8379 7.11279L82.54 3.65576L83.7568 6.96729Z" fill="#C3FB4F" stroke="#C3FB4F" stroke-width="2"/>
</svg>
