<svg width="118" height="432" viewBox="0 0 118 432" fill="none" xmlns="http://www.w3.org/2000/svg">
<path d="M74.9102 1C81.6849 1.00007 87.4792 4.68465 92.3145 10.8477C97.142 17.0009 101.093 25.7148 104.221 36.0391C110.479 56.6981 113.522 84.0748 113.522 111.083C113.522 137.767 111.058 160.147 107.058 177.005C105.057 185.433 102.668 192.504 99.9971 198.052C97.6518 202.922 95.0594 206.678 92.2725 209.134C95.4819 211.306 98.4133 215.27 101.034 220.555C104.018 226.571 106.673 234.449 108.89 243.757C113.324 262.377 116.029 286.84 116.029 313.85C116.029 345.021 112.892 374.162 106.562 395.545C103.398 406.231 99.4167 415.049 94.5781 421.215C89.7299 427.393 83.9464 430.992 77.2246 430.992H1V1H74.9102ZM36.1758 335.95H68.5449C70.1564 335.95 71.6844 335.178 73.1143 333.528C74.5574 331.863 75.8496 329.354 76.9248 326.053C79.0731 319.456 80.2754 309.948 80.2754 298.45C80.2754 287.92 79.1225 278.404 76.9932 271.557C75.9271 268.128 74.6356 265.433 73.1729 263.615C71.7175 261.807 70.1686 260.95 68.5449 260.95H36.1758V335.95ZM36.1758 165.267H67.3877C68.6691 165.267 69.9653 164.576 71.2354 163.002C72.5098 161.422 73.6741 159.046 74.6553 155.939C76.6147 149.735 77.7676 140.863 77.7676 130.333C77.7676 120.127 76.616 111.416 74.6572 105.292C73.6763 102.225 72.5117 99.8691 71.2373 98.2988C69.9668 96.7335 68.67 96.0421 67.3877 96.042H36.1758V165.267Z" fill="#C3FB4F" stroke="#C3FB4F" stroke-width="2"/>
</svg>
