<svg width="88" height="447" viewBox="0 0 88 447" fill="none" xmlns="http://www.w3.org/2000/svg">
<path d="M44.8887 322.475C47.8456 322.475 50.4692 324.54 52.6914 327.726C54.9371 330.945 56.9338 335.528 58.6006 341.073C61.9381 352.176 64.0195 367.356 64.0195 383.792C64.0195 400.227 61.9381 415.407 58.6006 426.51C56.9338 432.055 54.9371 436.638 52.6914 439.857C50.4692 443.043 47.8456 445.108 44.8887 445.108C41.9316 445.108 39.3072 443.043 37.085 439.857C34.8394 436.638 32.8435 432.054 31.1768 426.51C27.8393 415.407 25.7578 400.227 25.7578 383.792C25.7578 367.356 27.8393 352.176 31.1768 341.073C32.8435 335.529 34.8393 330.945 37.085 327.726C39.3072 324.54 41.9316 322.475 44.8887 322.475ZM44.5029 1C57.8738 1.00013 68.4389 11.7904 75.6182 29.8643C82.8194 47.9935 86.7803 73.8003 86.7803 104.667C86.7802 150.681 79.2786 175.507 71.7637 194.862C64.2558 214.199 56.8828 227.781 56.8828 251.608C56.8828 262.458 58.2277 271.978 59.7334 276.987L59.9219 277.613L59.4238 278.037L33.7705 299.854L32.541 300.899L32.1523 299.333C28.4629 284.475 26.1436 264.499 26.1436 240.059C26.1436 203.666 32.4404 182.687 38.751 166.78C45.0774 150.834 51.2177 140.351 51.2178 124.559C51.2178 117.547 50.4481 111.441 48.7109 107.126C46.9818 102.831 44.4108 100.533 40.8379 100.533C39.3114 100.533 37.6862 101.2 35.9824 102.626C34.2764 104.054 32.547 106.201 30.8447 109.032C27.4409 114.694 24.2396 122.935 21.5518 133.154L20.584 136.836L19.6182 133.153L1.10156 62.5703L1.03418 62.3145L1.10254 62.0586C6.4243 42.1016 13.1195 26.8945 20.5225 16.6533C27.9123 6.43056 36.1306 1 44.5029 1Z" fill="#C3FB4F" stroke="#C3FB4F" stroke-width="2"/>
</svg>
