<svg width="142" height="447" viewBox="0 0 142 447" fill="none" xmlns="http://www.w3.org/2000/svg">
<path d="M70.8594 1C81.1225 1.00002 90.5918 6.94867 98.9756 17.6562C107.361 28.3656 114.76 43.9514 120.902 63.541C133.191 102.731 140.526 158.185 140.526 223.375C140.526 288.565 133.191 344.019 120.902 383.209C114.76 402.799 107.361 418.384 98.9756 429.094C90.5918 439.801 81.1225 445.75 70.8594 445.75C60.5967 445.75 51.1147 439.802 42.7129 429.095C34.3097 418.386 26.8874 402.8 20.7207 383.21C8.38376 344.019 1 288.566 1 223.375C1 158.184 8.38376 102.731 20.7207 63.54C26.8874 43.9504 34.3097 28.3644 42.7129 17.6553C51.1147 6.94808 60.5967 1 70.8594 1ZM70.8594 100.533C65.9764 100.533 61.3692 103.599 57.1611 109.621C52.9596 115.634 49.278 124.434 46.2422 135.491C40.1743 157.592 36.7549 188.456 36.7549 223.375C36.7549 257.973 40.1748 288.837 46.2432 311.02C49.2792 322.118 52.9612 330.978 57.1641 337.042C61.3747 343.117 65.9813 346.217 70.8594 346.217C75.6855 346.217 80.2561 343.121 84.4414 337.045C88.618 330.981 92.2825 322.119 95.3066 311.021C101.351 288.837 104.771 257.973 104.771 223.375C104.771 188.456 101.352 157.592 95.3076 135.49C92.2837 124.432 88.6197 115.631 84.4443 109.618C80.2615 103.594 75.6904 100.533 70.8594 100.533Z" fill="#C3FB4F" stroke="#C3FB4F" stroke-width="2"/>
</svg>
