<svg width="114" height="432" viewBox="0 0 114 432" fill="none" xmlns="http://www.w3.org/2000/svg">
<path d="M66.4229 1C74.0789 1 80.7555 5.29993 86.417 12.7334C92.0733 20.1601 96.8056 30.8189 100.607 43.8291C108.214 69.861 112.172 105.577 112.172 144.45C112.172 183.003 108.215 218.559 100.607 244.511C96.8055 257.481 92.0723 268.119 86.416 275.535C80.7546 282.958 74.0786 287.259 66.4229 287.259H36.1758V430.992H1V1H66.4229ZM36.1758 189.009H61.9873C63.8578 189.009 65.681 188.138 67.4062 186.271C69.1434 184.392 70.7382 181.542 72.0869 177.725C74.783 170.093 76.418 158.829 76.418 144.45C76.418 129.749 74.7817 118.323 72.085 110.611C70.736 106.754 69.1422 103.884 67.4053 101.995C65.6805 100.12 63.8573 99.2502 61.9873 99.25H36.1758V189.009Z" fill="#C3FB4F" stroke="#C3FB4F" stroke-width="2"/>
</svg>
