<svg width="136" height="440" viewBox="0 0 136 440" fill="none" xmlns="http://www.w3.org/2000/svg">
<path d="M40.6162 1L40.7363 1.8623L67.5234 194.945L94.498 1.86133L94.6191 1H134.071L133.896 2.15039L81.625 346.084V346.086C77.5713 372.415 72.2998 395.461 65.0361 411.947C57.8043 428.361 48.4003 438.691 35.8877 438.691C22.8835 438.691 10.299 426.591 2.35352 405.316L2.2627 405.073L2.30176 404.815L15.418 318.833L15.9658 315.244L17.333 318.606C19.5411 324.036 22.0622 329.246 24.792 333.082C27.5708 336.987 30.3457 339.158 32.9941 339.158C34.837 339.158 36.3948 338.597 37.7832 337.444C39.1955 336.272 40.4747 334.453 41.6582 331.88C44.0212 326.743 45.8771 318.893 47.7969 308.062L1.33789 2.15039L1.16309 1H40.6162Z" fill="#C3FB4F" stroke="#C3FB4F" stroke-width="2"/>
</svg>
