<svg width="250" height="285" viewBox="0 0 250 285" fill="none" xmlns="http://www.w3.org/2000/svg">
<mask id="path-1-inside-1_458_649" fill="white">
<path d="M215.893 94.3732C225.106 98.7472 226.701 111.189 218.888 117.745L194.428 138.269C188.505 143.239 187.732 152.07 192.702 157.993L246.26 221.821C251.23 227.744 250.457 236.574 244.534 241.544L197.481 281.027C191.558 285.997 182.727 285.224 177.757 279.301L124.199 215.473C119.229 209.55 110.399 208.778 104.476 213.748L80.583 233.796C72.7701 240.352 60.794 236.621 58.0863 226.788L0.525629 17.7521C-2.65557 6.19931 9.20251 -3.7508 20.0274 1.38819L215.893 94.3732Z"/>
</mask>
<path d="M215.893 94.3732C225.106 98.7472 226.701 111.189 218.888 117.745L194.428 138.269C188.505 143.239 187.732 152.07 192.702 157.993L246.26 221.821C251.23 227.744 250.457 236.574 244.534 241.544L197.481 281.027C191.558 285.997 182.727 285.224 177.757 279.301L124.199 215.473C119.229 209.55 110.399 208.778 104.476 213.748L80.583 233.796C72.7701 240.352 60.794 236.621 58.0863 226.788L0.525629 17.7521C-2.65557 6.19931 9.20251 -3.7508 20.0274 1.38819L215.893 94.3732Z" fill="#C3FB4F"/>
<path d="M0.525631 17.7521L-9.11553 20.4069L0.525631 17.7521ZM58.0863 226.788L48.4452 229.443L58.0863 226.788ZM197.481 281.027L203.909 288.687L197.481 281.027ZM244.534 241.544L238.107 233.884L244.534 241.544ZM215.893 94.3732L211.604 103.407L215.893 94.3732ZM218.888 117.745L212.46 110.085L188 130.609L194.428 138.269L200.856 145.93L225.315 125.405L218.888 117.745ZM192.702 157.993L185.042 164.421L238.6 228.249L246.26 221.821L253.92 215.393L200.363 151.565L192.702 157.993ZM244.534 241.544L238.107 233.884L191.053 273.366L197.481 281.027L203.909 288.687L250.962 249.205L244.534 241.544ZM177.757 279.301L185.418 272.873L131.86 209.046L124.199 215.473L116.539 221.901L170.097 285.729L177.757 279.301ZM104.476 213.748L98.0479 206.087L74.1551 226.136L80.583 233.796L87.0108 241.457L110.904 221.408L104.476 213.748ZM58.0863 226.788L67.7275 224.134L10.1668 15.0973L0.525631 17.7521L-9.11553 20.4069L48.4452 229.443L58.0863 226.788ZM20.0274 1.38819L15.7387 10.4219L211.604 103.407L215.893 94.3732L220.181 85.3395L24.316 -7.6455L20.0274 1.38819ZM0.525631 17.7521L10.1668 15.0973C9.25788 11.7965 12.6459 8.95359 15.7387 10.4219L20.0274 1.38819L24.316 -7.6455C5.75914 -16.4552 -14.569 0.602125 -9.11553 20.4069L0.525631 17.7521ZM80.583 233.796L74.1551 226.136C71.9228 228.009 68.5011 226.943 67.7275 224.134L58.0863 226.788L48.4452 229.443C53.0868 246.3 73.6173 252.695 87.0108 241.457L80.583 233.796ZM124.199 215.473L131.86 209.046C123.34 198.892 108.202 197.567 98.0479 206.087L104.476 213.748L110.904 221.408C112.596 219.988 115.119 220.209 116.539 221.901L124.199 215.473ZM197.481 281.027L191.053 273.366C189.361 274.786 186.838 274.566 185.418 272.873L177.757 279.301L170.097 285.729C178.617 295.883 193.755 297.207 203.909 288.687L197.481 281.027ZM246.26 221.821L238.6 228.249C240.02 229.941 239.799 232.464 238.107 233.884L244.534 241.544L250.962 249.205C261.116 240.685 262.44 225.547 253.92 215.393L246.26 221.821ZM194.428 138.269L188 130.609C177.846 139.129 176.522 154.267 185.042 164.421L192.702 157.993L200.363 151.565C198.943 149.873 199.163 147.35 200.856 145.93L194.428 138.269ZM218.888 117.745L225.315 125.405C238.709 114.167 235.976 92.8378 220.181 85.3395L215.893 94.3732L211.604 103.407C214.236 104.657 214.692 108.211 212.46 110.085L218.888 117.745Z" fill="#312783" mask="url(#path-1-inside-1_458_649)"/>
</svg>
