<svg width="510" height="214" viewBox="0 0 510 214" fill="none" xmlns="http://www.w3.org/2000/svg">
<path d="M17.123 4.66992C10.2453 4.66992 4.66995 10.2454 4.66992 17.123V134.65C4.67006 141.528 10.2454 147.104 17.123 147.104H330.743C331.164 147.428 331.684 147.829 332.295 148.299C334.098 149.687 336.694 151.681 339.866 154.105C346.21 158.955 354.864 165.531 364.099 172.438C382.434 186.152 403.458 201.471 413.025 206.901C415.811 208.482 418.644 209.4 421.458 209.297C424.391 209.189 426.833 207.987 428.711 206.188C432.147 202.893 433.63 197.67 434.373 193.312C435.159 188.7 435.301 183.839 435.261 180.218C435.24 178.388 435.173 176.834 435.11 175.73C435.079 175.178 435.048 174.737 435.025 174.429C435.017 174.317 435.011 174.222 435.005 174.146L435.006 147.104H492.172C499.169 147.104 504.842 141.431 504.842 134.434V17.123C504.842 10.2454 499.266 4.66995 492.389 4.66992H17.123Z" fill="#C3FB4F" stroke="#312783" stroke-width="9.3399"/>
<path d="M97.5592 95.3398H87.2392V79.2598H70.6192V95.3398H60.2992V55.3198H70.6192V70.2598H87.2392V55.3198H97.5592V95.3398ZM110.952 96.0598C107.112 96.0598 103.272 94.9798 100.812 92.9998L104.892 84.9598C106.272 85.9798 108.072 86.9398 110.052 86.9398C112.632 86.9398 113.772 85.9798 114.972 83.9398L100.512 55.3198H112.152L120.792 74.0398L129.492 55.3198H141.132L124.872 87.4798C122.352 92.3998 118.332 96.0598 110.952 96.0598ZM196.7 95.3398H186.38V79.2598H169.76V95.3398H159.44V55.3198H169.76V70.2598H186.38V55.3198H196.7V95.3398ZM242.793 95.3398H231.093L229.113 89.5798H213.333L211.353 95.3398H199.652L214.713 55.3198H227.673L242.793 95.3398ZM226.293 80.5798L221.193 65.5198L216.093 80.5798H226.293ZM281.928 95.3398H269.268L258.768 80.2798L256.068 83.6398V95.3398H245.748V55.3198H256.068V71.7598L268.368 55.3198H281.088L265.548 74.0398L281.928 95.3398ZM301.75 96.0598C289.51 96.0598 280.33 87.5398 280.33 75.3598C280.33 63.1798 289.51 54.6598 301.75 54.6598C313.99 54.6598 323.11 63.1798 323.11 75.3598C323.11 87.5398 313.99 96.0598 301.75 96.0598ZM301.75 86.9398C308.35 86.9398 312.61 81.8398 312.61 75.3598C312.61 68.8198 308.35 63.7798 301.75 63.7798C295.09 63.7798 290.83 68.8198 290.83 75.3598C290.83 81.8398 295.09 86.9398 301.75 86.9398ZM365.567 95.3398H355.247V79.2598H338.627V95.3398H328.307V55.3198H338.627V70.2598H355.247V55.3198H365.567V95.3398ZM402.12 95.3398H372.78V55.3198H402.12V64.3198H383.1V70.5598H401.7V79.5598H383.1V86.3398H402.12V95.3398ZM438.592 102.72V95.3398H408.112V55.3198H418.432V86.3398H435.052V55.3198H445.372V86.3398H448.972V102.72H438.592ZM457.845 96.0598C454.785 96.0598 452.205 93.4798 452.205 90.4198C452.205 87.3598 454.785 84.7798 457.845 84.7798C460.905 84.7798 463.485 87.3598 463.485 90.4198C463.485 93.4798 460.905 96.0598 457.845 96.0598Z" fill="#312783"/>
</svg>
