<svg width="481" height="152" viewBox="0 0 481 152" fill="none" xmlns="http://www.w3.org/2000/svg">
<path d="M17.123 4.66992C10.2454 4.66998 4.66995 10.2454 4.66992 17.123V134.65C4.67006 141.528 10.2455 147.103 17.123 147.104H457.901C478.178 147.103 483.045 118.911 464.111 112.041L414.842 88.8994V17.123C414.842 10.2454 409.266 4.66992 402.389 4.66992H17.123Z" fill="white" stroke="#312783" stroke-width="9.3399"/>
<path d="M67.6944 95.8626C55.4544 95.8626 46.2744 87.3426 46.2744 75.1626C46.2744 62.9826 55.4544 54.4626 67.6944 54.4626C79.9344 54.4626 89.0544 62.9826 89.0544 75.1626C89.0544 87.3426 79.9344 95.8626 67.6944 95.8626ZM67.6944 86.7426C74.2944 86.7426 78.5544 81.6426 78.5544 75.1626C78.5544 68.6226 74.2944 63.5826 67.6944 63.5826C61.0344 63.5826 56.7744 68.6226 56.7744 75.1626C56.7744 81.6426 61.0344 86.7426 67.6944 86.7426ZM112.164 95.1426H101.844V64.1226H90.6243V55.1226H123.324V64.1226H112.164V95.1426ZM151.636 95.1426H128.236V55.1226H150.916C158.836 55.1226 162.616 60.2826 162.616 65.3226C162.616 70.3026 159.556 73.6626 155.776 74.5026C160.036 75.1626 163.396 79.2426 163.396 84.2826C163.396 90.1026 159.496 95.1426 151.636 95.1426ZM148.576 70.4826C150.676 70.4826 152.116 69.1026 152.116 67.1226C152.116 65.2026 150.676 63.8226 148.576 63.8226H138.556V70.4826H148.576ZM148.936 86.4426C151.396 86.4426 152.896 85.0026 152.896 82.8426C152.896 80.8626 151.456 79.2426 148.936 79.2426H138.556V86.4426H148.936ZM207.898 95.1426H196.198L194.218 89.3826H178.438L176.458 95.1426H164.758L179.818 55.1226H192.778L207.898 95.1426ZM191.398 80.3826L186.298 65.3226L181.198 80.3826H191.398ZM208.634 95.8626V86.7426C212.354 86.7426 214.754 84.5226 215.894 75.4026L218.294 55.1226H248.114V95.1426H237.794V64.1226H227.594L226.154 76.1826C224.234 92.3826 217.394 95.8626 208.634 95.8626ZM265.286 95.1426H255.326V55.1226H265.646V78.7026L281.846 55.1226H292.526V95.1426H282.146V70.4226L265.286 95.1426ZM310.18 91.4826C310.18 96.4026 307.54 100.723 303.34 103.663L299.5 100.543C301.42 99.5826 303.94 97.0026 304.6 94.8426C304.3 94.9026 303.76 95.0226 303.22 95.0226C300.64 95.0226 298.54 93.0426 298.54 90.1026C298.54 87.0426 301.06 84.5826 304.06 84.5826C307.3 84.5826 310.18 87.1026 310.18 91.4826ZM370.026 95.1426H358.326L356.346 89.3826H340.566L338.586 95.1426H326.886L341.946 55.1226H354.906L370.026 95.1426ZM353.526 80.3826L348.426 65.3226L343.326 80.3826H353.526ZM377.422 95.8626C374.362 95.8626 371.782 93.2826 371.782 90.2226C371.782 87.1626 374.362 84.5826 377.422 84.5826C380.482 84.5826 383.062 87.1626 383.062 90.2226C383.062 93.2826 380.482 95.8626 377.422 95.8626Z" fill="#312783"/>
</svg>
