<svg width="422" height="152" viewBox="0 0 422 152" fill="none" xmlns="http://www.w3.org/2000/svg">
<path d="M17.123 147.104C10.2454 147.103 4.66995 141.528 4.66992 134.65V17.123C4.67006 10.2455 10.2455 4.66998 17.123 4.66992H398.901C419.178 4.6703 424.045 32.862 405.111 39.7324L355.842 62.874V134.65C355.842 141.528 350.266 147.104 343.389 147.104H17.123Z" fill="white" stroke="#312783" stroke-width="9.3399"/>
<path d="M73.6697 99.3398H61.9737V64.1838H49.2577V53.9838H86.3177V64.1838H73.6697V99.3398ZM91.8847 53.9838H103.581V69.2158H114.597C124.797 69.2158 130.373 76.0838 130.373 84.2438C130.373 92.4718 124.797 99.3398 114.597 99.3398H91.8847V53.9838ZM113.033 79.4158H103.581V89.1398H113.033C116.161 89.1398 118.473 87.3718 118.473 84.2438C118.473 81.1838 116.161 79.4158 113.033 79.4158ZM145.401 99.3398H133.705V53.9838H145.401V99.3398ZM211.979 99.3398H197.631L185.731 82.2718L182.671 86.0798V99.3398H170.975V53.9838H182.671V72.6158L196.611 53.9838H211.027L193.415 75.1998L211.979 99.3398ZM237.295 99.3398H225.599V64.1838H212.883V53.9838H249.943V64.1838H237.295V99.3398ZM275.946 100.156C262.074 100.156 251.67 90.4998 251.67 76.6958C251.67 62.8918 262.074 53.2358 275.946 53.2358C289.818 53.2358 300.154 62.8918 300.154 76.6958C300.154 90.4998 289.818 100.156 275.946 100.156ZM275.946 89.8198C283.426 89.8198 288.254 84.0398 288.254 76.6958C288.254 69.2838 283.426 63.5718 275.946 63.5718C268.398 63.5718 263.57 69.2838 263.57 76.6958C263.57 84.0398 268.398 89.8198 275.946 89.8198ZM311.393 84.7878C310.101 83.2238 309.285 81.1158 309.285 78.5318C309.285 70.8478 318.125 69.6918 318.125 66.2918C318.125 64.7958 317.037 63.6398 314.113 63.6398C311.529 63.6398 308.877 64.9998 306.973 67.1758L300.445 59.6958C304.185 55.4798 309.829 53.3038 315.405 53.3038C324.381 53.3038 329.957 57.6558 329.957 64.1838C329.957 73.9078 319.417 74.6558 319.417 79.7558C319.417 80.9118 319.893 81.9318 320.437 82.4758L311.393 84.7878ZM315.541 100.156C312.073 100.156 309.149 97.2318 309.149 93.7638C309.149 90.2958 312.073 87.3718 315.541 87.3718C319.009 87.3718 321.933 90.2958 321.933 93.7638C321.933 97.2318 319.009 100.156 315.541 100.156Z" fill="#312783"/>
</svg>
