<svg width="474" height="152" viewBox="0 0 474 152" fill="none" xmlns="http://www.w3.org/2000/svg">
<path d="M456.553 147.104C463.43 147.103 469.006 141.528 469.006 134.65V17.123C469.006 10.2455 463.43 4.66997 456.553 4.66992H22.7744C2.49797 4.67029 -2.369 32.862 16.5645 39.7324L65.834 62.874V134.65C65.834 141.528 71.4094 147.104 78.2871 147.104H456.553Z" fill="white" stroke="#312783" stroke-width="9.3399"/>
<path d="M118.456 53.7866V67.3186C118.456 72.4866 121.312 74.2546 125.732 74.2546C128.656 74.2546 131.24 73.7786 133.348 72.9626V53.7866H145.044V99.1426H133.348V83.2306C130.152 83.9786 127.296 84.4546 124.1 84.4546C112.132 84.4546 106.624 77.5866 106.624 67.3186V53.7866H118.456ZM186.451 99.1426H153.199V53.7866H186.451V63.9866H164.895V71.0586H185.975V81.2586H164.895V88.9426H186.451V99.1426ZM252.868 99.1426H241.172V80.9186H222.336V99.1426H210.64V53.7866H222.336V70.7186H241.172V53.7866H252.868V99.1426ZM305.106 99.1426H291.846L289.602 92.6146H271.718L269.474 99.1426H256.214L273.282 53.7866H287.97L305.106 99.1426ZM286.406 82.4146L280.626 65.3466L274.846 82.4146H286.406ZM305.941 107.507V89.6226C310.293 88.9426 312.877 87.1066 314.169 76.7706L316.889 53.7866H350.685V88.9426H354.765V107.507H343.001V99.1426H317.637V107.507H305.941ZM325.797 77.6546C325.185 82.7546 323.417 86.3586 320.833 88.9426H338.989V63.9866H327.429L325.797 77.6546ZM381.753 99.9586C367.881 99.9586 357.477 90.3026 357.477 76.4986C357.477 62.6946 367.881 53.0386 381.753 53.0386C395.625 53.0386 405.961 62.6946 405.961 76.4986C405.961 90.3026 395.625 99.9586 381.753 99.9586ZM381.753 89.6226C389.233 89.6226 394.061 83.8426 394.061 76.4986C394.061 69.0866 389.233 63.3746 381.753 63.3746C374.205 63.3746 369.377 69.0866 369.377 76.4986C369.377 83.8426 374.205 89.6226 381.753 89.6226ZM417.2 84.5906C415.908 83.0266 415.092 80.9186 415.092 78.3346C415.092 70.6506 423.932 69.4946 423.932 66.0946C423.932 64.5986 422.844 63.4426 419.92 63.4426C417.336 63.4426 414.684 64.8026 412.78 66.9786L406.252 59.4986C409.992 55.2826 415.636 53.1066 421.212 53.1066C430.188 53.1066 435.764 57.4586 435.764 63.9866C435.764 73.7106 425.224 74.4586 425.224 79.5586C425.224 80.7146 425.7 81.7346 426.244 82.2786L417.2 84.5906ZM421.348 99.9586C417.88 99.9586 414.956 97.0346 414.956 93.5666C414.956 90.0986 417.88 87.1746 421.348 87.1746C424.816 87.1746 427.74 90.0986 427.74 93.5666C427.74 97.0346 424.816 99.9586 421.348 99.9586Z" fill="#312783"/>
</svg>
