<svg width="509" height="152" viewBox="0 0 509 152" fill="none" xmlns="http://www.w3.org/2000/svg">
<path d="M491.553 4.66992C498.43 4.66998 504.006 10.2454 504.006 17.123V134.65C504.006 141.528 498.43 147.103 491.553 147.104H22.7744C2.49798 147.103 -2.369 118.911 16.5645 112.041L65.834 88.8994V17.123C65.834 10.2454 71.4094 4.66992 78.2871 4.66992H491.553Z" fill="white" stroke="#312783" stroke-width="9.3399"/>
<path d="M138.642 95.1426H126.462L117.762 81.7026L109.062 95.1426H96.822L110.802 74.6226L97.722 55.1226H109.902L117.762 67.6626L125.502 55.1226H137.742L124.722 74.5626L138.642 95.1426ZM151.589 95.1426H141.629V55.1226H151.949V78.7026L168.149 55.1226H178.829V95.1426H168.449V70.4226L151.589 95.1426ZM198.643 84.4626H184.243V76.7226H198.643V84.4626ZM238.72 95.1426H226.54L217.84 81.7026L209.14 95.1426H196.9L210.88 74.6226L197.8 55.1226H209.98L217.84 67.6626L225.58 55.1226H237.82L224.8 74.5626L238.72 95.1426ZM251.667 95.1426H241.707V55.1226H252.027V78.7026L268.227 55.1226H278.907V95.1426H268.527V70.4226L251.667 95.1426ZM296.561 91.4826C296.561 96.4026 293.921 100.723 289.721 103.663L285.881 100.543C287.801 99.5826 290.321 97.0026 290.981 94.8426C290.681 94.9026 290.141 95.0226 289.601 95.0226C287.021 95.0226 284.921 93.0426 284.921 90.1026C284.921 87.0426 287.441 84.5826 290.441 84.5826C293.681 84.5826 296.561 87.1026 296.561 91.4826ZM354.787 95.1426H344.467V79.0626H327.847V95.1426H317.527V55.1226H327.847V70.0626H344.467V55.1226H354.787V95.1426ZM391.34 95.1426H362V55.1226H391.34V64.1226H372.32V70.3626H390.92V79.3626H372.32V86.1426H391.34V95.1426ZM422.824 95.1426H411.004L419.164 80.4426C415.384 79.1226 411.124 75.4026 411.124 68.4426C411.124 61.0026 416.224 55.1226 425.104 55.1226H445.144V95.1426H434.764V81.7026H429.484L422.824 95.1426ZM426.604 72.7026H434.764V64.1226H426.604C423.904 64.1226 421.684 65.6826 421.684 68.3826C421.684 71.2026 423.904 72.7026 426.604 72.7026ZM460.932 81.1626H452.712L451.272 55.1226H462.312L460.932 81.1626ZM456.792 95.8026C453.732 95.8026 451.212 93.2226 451.212 90.2226C451.212 87.1626 453.732 84.5826 456.792 84.5826C459.852 84.5826 462.432 87.1626 462.432 90.2226C462.432 93.2226 459.852 95.8026 456.792 95.8026Z" fill="#312783"/>
</svg>
