<svg width="962" height="382" viewBox="0 0 962 382" fill="none" xmlns="http://www.w3.org/2000/svg">
<path d="M601.189 0.0614373C651.985 -1.32785 692.767 20.9768 706.214 53.5761C730.21 46.2711 757.169 41.5219 785.466 40.205C880.277 35.7924 954.199 71.5739 950.576 120.125C949.676 132.186 944.073 143.899 934.709 154.763C953.776 170.01 964.216 191.236 961.605 215.021C956.277 263.533 898.678 304.316 832.954 306.114C819.263 306.489 806.3 305.14 794.402 302.334C801.119 316.57 794.67 333.444 777.214 343.368C756.081 355.382 726.821 352.658 711.859 337.284C707.81 333.123 705.226 328.462 704.025 323.639C685.389 331.928 664.129 336.98 641.942 337.587C639.651 337.65 637.379 337.661 635.13 337.629C611.381 363.056 572.181 380.614 529.564 381.78C488.302 382.909 453.648 368.402 434.885 345.444C418.618 347.891 401.615 349.426 384.184 349.903C312.968 351.851 252.812 335.658 222.828 310.025C199.32 327.362 167.629 338.63 133.78 339.556C68.056 341.353 19.094 303.484 24.421 254.973C26.2997 237.863 34.6804 221.716 47.6261 207.9C-1.97023 170.532 -15.3936 119.745 19.5597 84.9267C55.3791 49.2463 130.258 42.0347 197.697 64.8993C199.637 55.8115 206.197 47.1274 216.886 41.0507C238.019 29.0371 267.279 31.7611 282.24 47.1347C283.134 48.0531 283.955 48.9973 284.707 49.9609C307.384 35.2389 336.371 25.8542 367.139 25.0126C420.337 23.5576 462.551 48.0912 473.885 83.2206C484.229 38.272 539.081 1.76025 601.189 0.0614373Z" fill="white"/>
</svg>
