<svg width="170" height="133" viewBox="0 0 170 133" fill="none" xmlns="http://www.w3.org/2000/svg">
<path d="M75.2491 130.556C58.5582 135.587 39.6482 127.253 33.0118 111.942C30.8381 106.927 30.2516 101.786 31.0313 96.9619C12.0567 95.3124 -1.47494 78.8899 0.128007 58.2754C1.85834 36.0238 20.5674 17.3168 41.9161 16.4922C48.4496 16.2399 54.4716 17.6945 59.6358 20.4688C69.5888 3.81162 94.1695 -4.28282 117.17 2.27442C141.59 9.23659 155.142 30.1236 147.946 49.3027C149.786 50.2388 151.597 51.3281 153.353 52.5762C168.562 63.3886 173.992 81.8583 165.483 93.8291C159.894 101.69 149.683 104.794 139.024 102.937C139.021 102.969 139.019 103.002 139.017 103.034C137.921 117.125 126.073 128.972 112.554 129.494C103.462 129.845 95.9299 124.985 92.3048 117.478C88.8563 123.454 82.9658 128.23 75.2491 130.556Z" fill="white"/>
</svg>
