<svg width="1920" height="223" viewBox="0 0 1920 223" fill="none" xmlns="http://www.w3.org/2000/svg">
<path d="M1704.18 0.0614484C1754.98 -1.32797 1795.76 20.9768 1809.21 53.5761C1833.2 46.2713 1860.16 41.5229 1888.46 40.206C1899.27 39.7027 1909.81 39.7238 1920 40.2255V222.018H1130.31C1130.08 221.81 1129.85 221.602 1129.62 221.393C1129.5 221.602 1129.38 221.809 1129.26 222.018H500.725C500.608 221.815 500.489 221.614 500.374 221.411C500.152 221.614 499.928 221.816 499.704 222.018H0V20.0663C27.3721 35.3151 47.289 57.9364 53.1133 83.2294C64.4508 48.1038 106.663 23.5732 159.858 25.0282C214.456 26.5218 263.445 54.9196 281.521 92.3007C291.366 87.787 302.185 83.8945 313.886 80.7636C384.803 61.7876 464.29 77.0921 503.775 114.812C506.672 110.503 509.94 106.317 513.587 102.288C556.01 55.4244 634.062 46.6861 691.437 81.1806C726.967 62.1454 771.684 52.8602 815.097 56.5341C858.434 52.9065 903.055 62.187 938.525 81.1816C995.902 46.6647 1073.98 55.3982 1116.41 102.27C1120.05 106.299 1123.32 110.486 1126.22 114.795C1165.7 77.0747 1245.19 61.7703 1316.11 80.746C1327.81 83.8769 1338.63 87.7695 1348.47 92.2831C1366.55 54.9019 1415.54 26.5052 1470.14 25.0116C1523.33 23.5566 1565.54 48.0869 1576.88 83.2128C1587.23 38.2679 1642.08 1.76023 1704.18 0.0614484Z" fill="white"/>
</svg>
