<svg width="1174" height="723" viewBox="0 0 1174 723" fill="none" xmlns="http://www.w3.org/2000/svg">
<rect x="82.4336" y="96.3154" width="911.099" height="485.052" rx="166.601" fill="#C3FB4F"/>
<path d="M771.354 54.955C846.374 -16.9553 949.963 -18.493 1002.73 51.5204C1034.11 93.1626 1040.44 150.737 1024.64 205.691C1080.78 218.273 1119.06 270.582 1114.06 334.873C1108.17 410.566 1044.53 474.201 971.909 477.006C965.624 477.248 959.478 477.027 953.497 476.372C953.482 479.868 953.339 483.407 953.061 486.982C947.175 562.675 883.532 626.31 810.911 629.115C738.29 631.92 684.191 572.833 690.077 497.141C690.978 485.556 693.233 474.255 696.665 463.41C688.185 465.463 679.486 466.708 670.653 467.049C645.126 468.035 621.888 461.373 602.739 449.031C612.862 465.458 617.762 483.859 616.237 503.469C610.351 579.161 511.002 644.176 394.335 648.682C277.668 653.189 187.862 595.481 193.748 519.788C194.496 510.16 196.757 500.705 200.374 491.525C177.444 508.721 150.065 519.397 121.273 520.509C48.652 523.314 -5.44783 464.227 0.438193 388.534C6.32423 312.841 69.9675 249.206 142.589 246.401C171.658 245.278 197.759 254.074 218.233 269.881C220.931 251.647 227.566 234.365 238.446 219.06C239.153 218.066 239.874 217.085 240.608 216.119C237.093 202.333 235.759 187.447 236.971 171.856C237.252 168.246 237.665 164.663 238.203 161.112C223.065 160.9 208.463 153.639 199.018 139.934C182.487 115.947 188.015 81.3053 211.365 62.5604C234.715 43.8156 267.045 48.0653 283.577 72.0526C283.694 72.2219 283.809 72.3921 283.924 72.5624C309.539 47.3519 343.233 31.1097 379.121 29.7235C449.618 27.0005 502.659 82.6034 500.316 155.102C507.726 153.508 515.293 152.532 522.96 152.236C569.576 150.436 608.56 174.138 628.945 211.365C648.159 200.418 669.639 193.804 691.968 192.941C695.387 192.809 698.764 192.815 702.095 192.952C707.698 143.592 731.477 93.179 771.354 54.955ZM564.667 407.919C563.89 408.361 563.11 408.796 562.327 409.224C564.052 410.341 565.743 411.479 567.397 412.641C566.454 411.092 565.543 409.518 564.667 407.919Z" fill="#C3FB4F"/>
<rect x="200.492" y="154.887" width="966.632" height="561.41" rx="15.185" fill="#0053FF" stroke="#C3FB4F" stroke-width="13.0157"/>
<path d="M451.775 568.066C453.303 563.928 459.156 563.928 460.683 568.066L467.643 586.919C468.315 588.738 470.024 589.966 471.961 590.021L492.308 590.605C496.801 590.735 498.616 596.456 495.019 599.151L479.153 611.04C477.557 612.236 476.879 614.302 477.455 616.211L483.133 635.038C484.417 639.292 479.674 642.821 475.968 640.369L458.849 629.043C457.261 627.993 455.198 627.993 453.609 629.043L436.491 640.369C432.784 642.821 428.042 639.292 429.325 635.038L435.004 616.211C435.58 614.302 434.901 612.236 433.305 611.04L417.439 599.151C413.842 596.456 415.657 590.735 420.15 590.605L440.497 590.021C442.434 589.966 444.144 588.738 444.815 586.919L451.775 568.066Z" fill="#C3FB4F"/>
<path d="M567.563 568.86C568.353 566.722 571.378 566.722 572.168 568.86L579.128 587.714C580.124 590.411 582.659 592.232 585.532 592.314L605.879 592.898C608.201 592.965 609.139 595.922 607.28 597.315L591.414 609.205C589.047 610.979 588.04 614.042 588.895 616.874L594.573 635.7C595.237 637.899 592.786 639.722 590.87 638.455L573.752 627.13C571.396 625.571 568.336 625.571 565.98 627.13L548.861 638.455C546.946 639.722 544.495 637.899 545.158 635.7L550.837 616.874C551.691 614.042 550.684 610.979 548.317 609.205L532.452 597.315C530.593 595.922 531.531 592.965 533.853 592.898L554.199 592.314C557.073 592.232 559.608 590.411 560.604 587.714L567.563 568.86Z" stroke="#C3FB4F" stroke-width="4.58829"/>
<path d="M681.196 568.86C681.986 566.722 685.011 566.722 685.801 568.86L692.761 587.714C693.756 590.411 696.291 592.232 699.165 592.314L719.512 592.898C721.834 592.965 722.772 595.922 720.913 597.315L705.047 609.205C702.68 610.979 701.673 614.042 702.527 616.874L708.206 635.7C708.869 637.899 706.419 639.722 704.503 638.455L687.385 627.13C685.029 625.571 681.969 625.571 679.613 627.13L662.494 638.455C660.579 639.722 658.128 637.899 658.791 635.7L664.47 616.874C665.324 614.042 664.317 610.979 661.95 609.205L646.085 597.315C644.226 595.922 645.163 592.965 647.485 592.898L667.832 592.314C670.706 592.232 673.241 590.411 674.236 587.714L681.196 568.86Z" stroke="#C3FB4F" stroke-width="4.58829"/>
<path d="M794.833 568.86C795.623 566.722 798.648 566.722 799.438 568.86L806.397 587.714C807.393 590.411 809.928 592.232 812.802 592.314L833.148 592.898C835.471 592.965 836.409 595.922 834.55 597.315L818.684 609.205C816.317 610.979 815.31 614.042 816.164 616.874L821.843 635.7C822.506 637.899 820.055 639.722 818.14 638.455L801.021 627.13C798.666 625.571 795.606 625.571 793.25 627.13L776.131 638.455C774.215 639.722 771.764 637.899 772.428 635.7L778.106 616.874C778.961 614.042 777.954 610.979 775.587 609.205L759.722 597.315C757.863 595.922 758.8 592.965 761.122 592.898L781.469 592.314C784.342 592.232 786.877 590.411 787.873 587.714L794.833 568.86Z" stroke="#C3FB4F" stroke-width="4.58829"/>
<path d="M908.47 568.86C909.259 566.722 912.285 566.722 913.074 568.86L920.034 587.714C921.03 590.411 923.565 592.232 926.438 592.314L946.785 592.898C949.107 592.965 950.045 595.922 948.187 597.315L932.32 609.205C929.954 610.979 928.947 614.042 929.801 616.874L935.479 635.7C936.143 637.899 933.692 639.722 931.776 638.455L914.658 627.13C912.302 625.571 909.243 625.571 906.887 627.13L889.768 638.455C887.852 639.722 885.401 637.899 886.064 635.7L891.743 616.874C892.597 614.042 891.591 610.979 889.224 609.205L873.358 597.315C871.499 595.922 872.437 592.965 874.759 592.898L895.105 592.314C897.979 592.232 900.514 590.411 901.51 587.714L908.47 568.86Z" stroke="#C3FB4F" stroke-width="4.58829"/>
</svg>
