<svg width="436" height="261" viewBox="0 0 436 261" fill="none" xmlns="http://www.w3.org/2000/svg">
<ellipse cx="83.3089" cy="66.8311" rx="83.3089" ry="66.8311" transform="matrix(0.997231 0.0743663 0.0732143 -0.997316 50.5234 138.807)" fill="white"/>
<ellipse cx="83.3089" cy="66.8311" rx="83.3089" ry="66.8311" transform="matrix(0.997231 0.0743663 0.0732143 -0.997316 202.213 147.835)" fill="white"/>
<path d="M167.681 226.2C210.266 220.508 241.217 188.94 236.812 155.692C232.407 122.444 194.314 100.106 151.729 105.798C109.145 111.49 78.194 143.057 82.599 176.305C87.004 209.553 125.097 231.892 167.681 226.2Z" fill="white"/>
<path d="M313.874 146.554C307.559 110.033 280.194 83.5404 252.754 87.3814C225.314 91.2223 208.189 123.942 214.504 160.463C220.82 196.984 248.184 223.476 275.624 219.635C303.065 215.794 320.19 183.075 313.874 146.554Z" fill="white"/>
<path d="M82.81 79.541C43.1771 80.6714 11.9753 102.556 13.1188 128.421C14.2624 154.286 47.3182 174.337 86.9511 173.207C126.584 172.076 157.786 150.192 156.642 124.327C155.499 98.4619 122.443 78.4105 82.81 79.541Z" fill="white"/>
<path d="M341.706 61.5357C319.199 79.5533 312.08 106.175 325.807 120.997C339.534 135.819 368.908 133.228 391.416 115.21C413.924 97.1927 421.042 70.5711 407.315 55.7493C393.588 40.9275 364.214 43.5182 341.706 61.5357Z" fill="white"/>
<path d="M355.513 81.1201C316.017 78.1748 282.144 101.057 279.855 132.228C277.567 163.4 307.73 191.057 347.226 194.003C386.722 196.948 420.595 174.066 422.884 142.894C425.172 111.723 395.009 84.0655 355.513 81.1201Z" fill="white"/>
</svg>
