<svg width="403" height="299" viewBox="0 0 403 299" fill="none" xmlns="http://www.w3.org/2000/svg">
<ellipse cx="86.2772" cy="71.8356" rx="86.2772" ry="71.8356" transform="matrix(0.989496 -0.144562 0.143461 0.989656 13.0938 118.692)" fill="#034FF5"/>
<ellipse cx="73.6045" cy="61.2841" rx="73.6045" ry="61.2841" transform="matrix(0.989496 -0.144562 0.143461 0.989656 170.029 154.713)" fill="#034FF5"/>
<path d="M202.397 85.9302C207.252 119.426 187.42 150.053 158.099 154.337C128.778 158.62 101.073 134.939 96.2176 101.443C91.362 67.9465 111.195 37.3199 140.515 33.0363C169.836 28.7526 197.541 52.4341 202.397 85.9302Z" fill="#034FF5"/>
<path d="M270.324 102.53C267.21 136.301 244.863 162.163 220.412 160.295C195.961 158.426 178.664 129.534 181.778 95.763C184.893 61.9918 207.24 36.1295 231.691 37.9981C256.142 39.8666 273.439 68.7584 270.324 102.53Z" fill="#034FF5"/>
<path d="M76.6285 141.638C41.6094 142.978 12.6294 124.837 11.9 101.119C11.1705 77.4003 38.9678 57.0865 73.9869 55.7464C109.006 54.4064 137.986 72.5475 138.715 96.2658C139.445 119.984 111.648 140.298 76.6285 141.638Z" fill="#034FF5"/>
<path d="M313.546 197.48C292.491 182.353 284.427 158.438 295.533 144.063C306.64 129.689 332.712 130.299 353.767 145.425C374.822 160.551 382.887 184.467 371.78 198.841C360.673 213.216 334.601 212.606 313.546 197.48Z" fill="#034FF5"/>
<path d="M303.018 162.435C265.252 167.953 231.001 147.345 226.516 116.407C222.031 85.469 249.011 55.9159 286.777 50.3985C324.543 44.881 358.794 65.4885 363.279 96.4265C367.763 127.365 340.784 156.918 303.018 162.435Z" fill="#034FF5"/>
</svg>
