<svg width="503" height="251" viewBox="0 0 503 251" fill="none" xmlns="http://www.w3.org/2000/svg">
<ellipse cx="101.785" cy="84.7471" rx="101.785" ry="84.7471" transform="matrix(1 0 -0.00111299 0.999999 51.8887 78.2593)" fill="white"/>
<ellipse cx="86.834" cy="72.2991" rx="86.834" ry="72.2991" transform="matrix(1 0 -0.00111299 0.999999 231.775 101.007)" fill="white"/>
<path d="M278.46 72.2991C278.416 112.229 250.041 144.598 215.083 144.598C180.125 144.598 151.822 112.229 151.867 72.2991C151.911 32.3694 180.286 0 215.244 0C250.202 0 278.504 32.3694 278.46 72.2991Z" fill="white"/>
<path d="M354.932 103.263C345.537 142.154 315.04 168.533 286.816 162.182C258.591 155.831 243.327 119.154 252.723 80.2626C262.118 41.3711 292.615 14.992 320.839 21.3433C349.064 27.6946 364.328 64.3712 354.932 103.263Z" fill="white"/>
<path d="M74.4325 128.017C33.3245 123.609 2.58884 97.4899 5.78235 69.678C8.97586 41.8662 44.8893 22.8937 85.9972 27.3017C127.105 31.7098 157.841 57.8292 154.647 85.641C151.454 113.453 115.54 132.425 74.4325 128.017Z" fill="white"/>
<path d="M406.906 212C384.908 190.752 379.572 161.459 394.989 146.573C410.406 131.687 440.738 136.845 462.736 158.094C484.735 179.343 490.07 208.635 474.653 223.521C459.236 238.407 428.905 233.249 406.906 212Z" fill="white"/>
<path d="M408.268 173.556C363.242 173.556 326.773 143.659 326.814 106.779C326.855 69.8983 363.39 40.001 408.417 40.001C453.444 40.001 489.912 69.8983 489.871 106.779C489.83 143.659 453.295 173.556 408.268 173.556Z" fill="white"/>
</svg>
