<svg width="626" height="259" viewBox="0 0 626 259" fill="none" xmlns="http://www.w3.org/2000/svg">
<path d="M116 97C116 106.389 108.389 114 99 114C89.6112 114 82 106.389 82 97V0H116V97ZM549 97C549 106.389 541.389 114 532 114C522.611 114 515 106.389 515 97V0H549V97Z" fill="white"/>
<rect y="60.5996" width="626" height="194.801" rx="22.2623" fill="#312783"/>
<path d="M626 235.646C626 247.834 616.274 257.751 604.159 258.058L603.581 258.064H22.4189C10.0373 258.064 0 248.027 0 235.646V157.935H16.3477V235.646C16.3477 238.999 19.0659 241.717 22.4189 241.717H603.581C606.934 241.717 609.652 238.999 609.652 235.646V157.935H626V235.646Z" fill="white"/>
</svg>
