<svg width="1912" height="774" viewBox="0 0 1912 774" fill="none" xmlns="http://www.w3.org/2000/svg">
<mask id="path-1-outside-1_227_488" maskUnits="userSpaceOnUse" x="0" y="-2" width="1912" height="776" fill="black">
<rect fill="white" y="-2" width="1912" height="776"/>
<path d="M197.821 654.146H128.95L71.8296 411.607L57.1413 465.719V654.146H1V9.62919H57.1413V274.393L124.054 9.62919H193.252L108.713 311.112L197.821 654.146Z"/>
<path d="M319.34 654.146H263.199V154.573H202.161V9.62919H380.051V154.573H319.34V654.146Z"/>
<path d="M504.87 665.741C438.284 665.741 388.344 528.528 388.344 332.371C388.344 136.213 438.284 -1 504.87 -1C571.456 -1 621.069 136.213 621.069 332.371C621.069 528.528 571.456 665.741 504.87 665.741ZM504.87 518.865C540.774 518.865 563.949 436.73 563.949 332.371C563.949 227.045 540.774 145.876 504.87 145.876C468.639 145.876 445.464 227.045 445.464 332.371C445.464 436.73 468.639 518.865 504.87 518.865Z"/>
<path d="M811.847 665.741C770.394 665.741 735.469 622.258 718.496 564.281L746.893 451.225C762.56 496.64 790.957 518.865 809.889 518.865C835.674 518.865 849.71 491.809 849.71 456.056C849.71 419.337 838.938 401.944 807.604 401.944H763.213V256.034H807.604C830.778 256.034 846.119 239.607 846.119 205.786C846.119 165.202 828.82 146.843 806.298 146.843C786.387 146.843 763.866 168.101 748.525 208.685L721.433 104.326C739.712 43.4494 772.026 -0.0337204 812.174 -0.0337204C867.662 -0.0337204 902.261 70.5056 902.261 176.798C902.261 252.169 880.392 309.18 854.606 321.742C877.781 328.506 905.851 381.652 905.851 474.416C905.851 587.472 866.356 665.741 811.847 665.741Z"/>
<path d="M924.464 773V518.865C945.354 509.202 957.757 483.112 963.959 336.236L977.015 9.62919H1139.24V509.202H1158.82V773H1102.35V654.146H980.605V773H924.464ZM1019.77 348.798C1016.84 421.27 1008.35 472.483 995.946 509.202H1083.1V154.573H1027.61L1019.77 348.798Z"/>
<path d="M1342.55 654.146H1182.94V9.62919H1342.55V154.573H1239.08V255.067H1340.26V400.011H1239.08V509.202H1342.55V654.146Z"/>
<path d="M1481.88 665.741C1414.97 665.741 1364.05 530.461 1364.05 332.371C1364.05 133.315 1414.97 -1 1481.88 -1C1534.43 -1 1562.5 86.9326 1576.86 171.966L1528.55 239.607C1521.37 188.393 1502.77 145.876 1481.88 145.876C1446.3 145.876 1421.17 227.045 1421.17 332.371C1421.17 437.697 1446.3 518.865 1481.88 518.865C1502.77 518.865 1521.37 476.348 1528.55 425.135L1576.86 492.775C1562.83 575.876 1534.43 665.741 1481.88 665.741Z"/>
<path d="M1601.14 9.62919H1657.28V226.079H1710.16C1759.12 226.079 1785.89 323.674 1785.89 439.629C1785.89 556.551 1759.12 654.146 1710.16 654.146H1601.14V9.62919ZM1702.65 371.022H1657.28V509.202H1702.65C1717.67 509.202 1728.77 484.079 1728.77 439.629C1728.77 396.146 1717.67 371.022 1702.65 371.022Z"/>
<path d="M1821.89 447.36C1815.69 425.135 1811.77 395.18 1811.77 358.461C1811.77 249.27 1854.21 232.843 1854.21 184.528C1854.21 163.27 1848.98 146.843 1834.95 146.843C1822.54 146.843 1809.82 166.169 1800.68 197.09L1769.34 90.7978C1787.29 30.8876 1814.38 -0.0337204 1841.15 -0.0337204C1884.23 -0.0337204 1911 61.809 1911 154.573C1911 292.753 1860.41 303.382 1860.41 375.854C1860.41 392.281 1862.69 406.775 1865.3 414.506L1821.89 447.36ZM1841.8 665.741C1825.16 665.741 1811.12 624.191 1811.12 574.91C1811.12 525.629 1825.16 484.079 1841.8 484.079C1858.45 484.079 1872.48 525.629 1872.48 574.91C1872.48 624.191 1858.45 665.741 1841.8 665.741Z"/>
</mask>
<path d="M197.821 654.146H128.95L71.8296 411.607L57.1413 465.719V654.146H1V9.62919H57.1413V274.393L124.054 9.62919H193.252L108.713 311.112L197.821 654.146Z" fill="#C3FB4F"/>
<path d="M319.34 654.146H263.199V154.573H202.161V9.62919H380.051V154.573H319.34V654.146Z" fill="#C3FB4F"/>
<path d="M504.87 665.741C438.284 665.741 388.344 528.528 388.344 332.371C388.344 136.213 438.284 -1 504.87 -1C571.456 -1 621.069 136.213 621.069 332.371C621.069 528.528 571.456 665.741 504.87 665.741ZM504.87 518.865C540.774 518.865 563.949 436.73 563.949 332.371C563.949 227.045 540.774 145.876 504.87 145.876C468.639 145.876 445.464 227.045 445.464 332.371C445.464 436.73 468.639 518.865 504.87 518.865Z" fill="#C3FB4F"/>
<path d="M811.847 665.741C770.394 665.741 735.469 622.258 718.496 564.281L746.893 451.225C762.56 496.64 790.957 518.865 809.889 518.865C835.674 518.865 849.71 491.809 849.71 456.056C849.71 419.337 838.938 401.944 807.604 401.944H763.213V256.034H807.604C830.778 256.034 846.119 239.607 846.119 205.786C846.119 165.202 828.82 146.843 806.298 146.843C786.387 146.843 763.866 168.101 748.525 208.685L721.433 104.326C739.712 43.4494 772.026 -0.0337204 812.174 -0.0337204C867.662 -0.0337204 902.261 70.5056 902.261 176.798C902.261 252.169 880.392 309.18 854.606 321.742C877.781 328.506 905.851 381.652 905.851 474.416C905.851 587.472 866.356 665.741 811.847 665.741Z" fill="#C3FB4F"/>
<path d="M924.464 773V518.865C945.354 509.202 957.757 483.112 963.959 336.236L977.015 9.62919H1139.24V509.202H1158.82V773H1102.35V654.146H980.605V773H924.464ZM1019.77 348.798C1016.84 421.27 1008.35 472.483 995.946 509.202H1083.1V154.573H1027.61L1019.77 348.798Z" fill="#C3FB4F"/>
<path d="M1342.55 654.146H1182.94V9.62919H1342.55V154.573H1239.08V255.067H1340.26V400.011H1239.08V509.202H1342.55V654.146Z" fill="#C3FB4F"/>
<path d="M1481.88 665.741C1414.97 665.741 1364.05 530.461 1364.05 332.371C1364.05 133.315 1414.97 -1 1481.88 -1C1534.43 -1 1562.5 86.9326 1576.86 171.966L1528.55 239.607C1521.37 188.393 1502.77 145.876 1481.88 145.876C1446.3 145.876 1421.17 227.045 1421.17 332.371C1421.17 437.697 1446.3 518.865 1481.88 518.865C1502.77 518.865 1521.37 476.348 1528.55 425.135L1576.86 492.775C1562.83 575.876 1534.43 665.741 1481.88 665.741Z" fill="#C3FB4F"/>
<path d="M1601.14 9.62919H1657.28V226.079H1710.16C1759.12 226.079 1785.89 323.674 1785.89 439.629C1785.89 556.551 1759.12 654.146 1710.16 654.146H1601.14V9.62919ZM1702.65 371.022H1657.28V509.202H1702.65C1717.67 509.202 1728.77 484.079 1728.77 439.629C1728.77 396.146 1717.67 371.022 1702.65 371.022Z" fill="#C3FB4F"/>
<path d="M1821.89 447.36C1815.69 425.135 1811.77 395.18 1811.77 358.461C1811.77 249.27 1854.21 232.843 1854.21 184.528C1854.21 163.27 1848.98 146.843 1834.95 146.843C1822.54 146.843 1809.82 166.169 1800.68 197.09L1769.34 90.7978C1787.29 30.8876 1814.38 -0.0337204 1841.15 -0.0337204C1884.23 -0.0337204 1911 61.809 1911 154.573C1911 292.753 1860.41 303.382 1860.41 375.854C1860.41 392.281 1862.69 406.775 1865.3 414.506L1821.89 447.36ZM1841.8 665.741C1825.16 665.741 1811.12 624.191 1811.12 574.91C1811.12 525.629 1825.16 484.079 1841.8 484.079C1858.45 484.079 1872.48 525.629 1872.48 574.91C1872.48 624.191 1858.45 665.741 1841.8 665.741Z" fill="#C3FB4F"/>
<path d="M197.821 654.146H128.95L71.8296 411.607L57.1413 465.719V654.146H1V9.62919H57.1413V274.393L124.054 9.62919H193.252L108.713 311.112L197.821 654.146Z" stroke="#C3FB4F" stroke-width="2" mask="url(#path-1-outside-1_227_488)"/>
<path d="M319.34 654.146H263.199V154.573H202.161V9.62919H380.051V154.573H319.34V654.146Z" stroke="#C3FB4F" stroke-width="2" mask="url(#path-1-outside-1_227_488)"/>
<path d="M504.87 665.741C438.284 665.741 388.344 528.528 388.344 332.371C388.344 136.213 438.284 -1 504.87 -1C571.456 -1 621.069 136.213 621.069 332.371C621.069 528.528 571.456 665.741 504.87 665.741ZM504.87 518.865C540.774 518.865 563.949 436.73 563.949 332.371C563.949 227.045 540.774 145.876 504.87 145.876C468.639 145.876 445.464 227.045 445.464 332.371C445.464 436.73 468.639 518.865 504.87 518.865Z" stroke="#C3FB4F" stroke-width="2" mask="url(#path-1-outside-1_227_488)"/>
<path d="M811.847 665.741C770.394 665.741 735.469 622.258 718.496 564.281L746.893 451.225C762.56 496.64 790.957 518.865 809.889 518.865C835.674 518.865 849.71 491.809 849.71 456.056C849.71 419.337 838.938 401.944 807.604 401.944H763.213V256.034H807.604C830.778 256.034 846.119 239.607 846.119 205.786C846.119 165.202 828.82 146.843 806.298 146.843C786.387 146.843 763.866 168.101 748.525 208.685L721.433 104.326C739.712 43.4494 772.026 -0.0337204 812.174 -0.0337204C867.662 -0.0337204 902.261 70.5056 902.261 176.798C902.261 252.169 880.392 309.18 854.606 321.742C877.781 328.506 905.851 381.652 905.851 474.416C905.851 587.472 866.356 665.741 811.847 665.741Z" stroke="#C3FB4F" stroke-width="2" mask="url(#path-1-outside-1_227_488)"/>
<path d="M924.464 773V518.865C945.354 509.202 957.757 483.112 963.959 336.236L977.015 9.62919H1139.24V509.202H1158.82V773H1102.35V654.146H980.605V773H924.464ZM1019.77 348.798C1016.84 421.27 1008.35 472.483 995.946 509.202H1083.1V154.573H1027.61L1019.77 348.798Z" stroke="#C3FB4F" stroke-width="2" mask="url(#path-1-outside-1_227_488)"/>
<path d="M1342.55 654.146H1182.94V9.62919H1342.55V154.573H1239.08V255.067H1340.26V400.011H1239.08V509.202H1342.55V654.146Z" stroke="#C3FB4F" stroke-width="2" mask="url(#path-1-outside-1_227_488)"/>
<path d="M1481.88 665.741C1414.97 665.741 1364.05 530.461 1364.05 332.371C1364.05 133.315 1414.97 -1 1481.88 -1C1534.43 -1 1562.5 86.9326 1576.86 171.966L1528.55 239.607C1521.37 188.393 1502.77 145.876 1481.88 145.876C1446.3 145.876 1421.17 227.045 1421.17 332.371C1421.17 437.697 1446.3 518.865 1481.88 518.865C1502.77 518.865 1521.37 476.348 1528.55 425.135L1576.86 492.775C1562.83 575.876 1534.43 665.741 1481.88 665.741Z" stroke="#C3FB4F" stroke-width="2" mask="url(#path-1-outside-1_227_488)"/>
<path d="M1601.14 9.62919H1657.28V226.079H1710.16C1759.12 226.079 1785.89 323.674 1785.89 439.629C1785.89 556.551 1759.12 654.146 1710.16 654.146H1601.14V9.62919ZM1702.65 371.022H1657.28V509.202H1702.65C1717.67 509.202 1728.77 484.079 1728.77 439.629C1728.77 396.146 1717.67 371.022 1702.65 371.022Z" stroke="#C3FB4F" stroke-width="2" mask="url(#path-1-outside-1_227_488)"/>
<path d="M1821.89 447.36C1815.69 425.135 1811.77 395.18 1811.77 358.461C1811.77 249.27 1854.21 232.843 1854.21 184.528C1854.21 163.27 1848.98 146.843 1834.95 146.843C1822.54 146.843 1809.82 166.169 1800.68 197.09L1769.34 90.7978C1787.29 30.8876 1814.38 -0.0337204 1841.15 -0.0337204C1884.23 -0.0337204 1911 61.809 1911 154.573C1911 292.753 1860.41 303.382 1860.41 375.854C1860.41 392.281 1862.69 406.775 1865.3 414.506L1821.89 447.36ZM1841.8 665.741C1825.16 665.741 1811.12 624.191 1811.12 574.91C1811.12 525.629 1825.16 484.079 1841.8 484.079C1858.45 484.079 1872.48 525.629 1872.48 574.91C1872.48 624.191 1858.45 665.741 1841.8 665.741Z" stroke="#C3FB4F" stroke-width="2" mask="url(#path-1-outside-1_227_488)"/>
</svg>
