<svg width="1514" height="412" viewBox="0 0 1514 412" fill="none" xmlns="http://www.w3.org/2000/svg">
<rect x="1083" y="139.94" width="431" height="132" fill="#312783"/>
<path d="M1073 123L1073 144.782L1514 144.782L1514 123L1073 123Z" fill="#312783"/>
<path d="M1073 266.47L1073 288.252L1514 288.252L1514 266.47L1073 266.47Z" fill="#312783"/>
<path d="M1098.2 205.814C1098.2 92.1463 1006.04 3.91899e-10 892.361 8.75331e-10L214.839 3.75656e-09C101.16 4.23999e-09 9.00503 92.1463 9.00503 205.814C9.00503 319.483 101.16 411.629 214.839 411.629L892.361 411.629C1006.04 411.629 1098.2 319.483 1098.2 205.814Z" fill="#312783"/>
<path d="M874.644 345.583C797.449 345.583 734.87 283.01 734.87 205.823C734.87 128.635 797.449 66.062 874.644 66.062C951.839 66.062 1014.42 128.635 1014.42 205.823C1014.42 283.01 951.839 345.583 874.644 345.583Z" fill="white"/>
<path d="M553.204 345.583C476.009 345.583 413.43 283.01 413.43 205.823C413.43 128.635 476.009 66.062 553.204 66.062C630.399 66.062 692.978 128.635 692.978 205.823C692.978 283.01 630.399 345.583 553.204 345.583Z" fill="white"/>
<path d="M232.091 345.583C154.896 345.583 92.3168 283.01 92.3168 205.823C92.3168 128.635 154.896 66.062 232.091 66.062C309.286 66.062 371.865 128.635 371.865 205.823C371.865 283.01 309.286 345.583 232.091 345.583Z" fill="white"/>
<mask id="path-6-outside-1_407_50377" maskUnits="userSpaceOnUse" x="950.992" y="4.1084" width="160" height="402" fill="black">
<rect fill="white" x="950.992" y="4.1084" width="160" height="402"/>
<path d="M1103.99 205.555C1103.99 110.713 1041.49 31.4371 957.999 12L957.999 13.9512C1040.36 33.3567 1102.09 111.688 1102.09 205.555C1102.09 299.421 1040.36 377.751 957.999 397.156L957.999 399.108C1041.49 379.671 1103.99 300.396 1103.99 205.555Z"/>
</mask>
<path d="M1103.99 205.555C1103.99 110.713 1041.49 31.4371 957.999 12L957.999 13.9512C1040.36 33.3567 1102.09 111.688 1102.09 205.555C1102.09 299.421 1040.36 377.751 957.999 397.156L957.999 399.108C1041.49 379.671 1103.99 300.396 1103.99 205.555Z" fill="white"/>
<path d="M1103.99 205.555L1110.99 205.555L1110.99 205.555L1103.99 205.555ZM957.999 12L950.999 12C950.999 9.86442 951.974 7.84562 953.646 6.51774C955.319 5.18983 957.506 4.6981 959.586 5.18235L957.999 12ZM957.999 13.9512L956.394 20.7646C953.233 20.0198 950.999 17.1988 950.999 13.9512L957.999 13.9512ZM1102.09 205.555L1109.09 205.555L1109.09 205.555L1102.09 205.555ZM957.999 397.156L950.999 397.156C950.999 393.909 953.233 391.088 956.394 390.343L957.999 397.156ZM957.999 399.108L959.586 405.926C957.506 406.41 955.319 405.919 953.646 404.591C951.974 403.263 950.999 401.244 950.999 399.108L957.999 399.108ZM1103.99 205.555L1096.99 205.555C1096.99 113.745 1036.52 37.4674 956.412 18.8177L957.999 12L959.586 5.18235C1046.45 25.4068 1110.99 107.682 1110.99 205.555L1103.99 205.555ZM957.999 12L964.999 12L964.999 13.9512L957.999 13.9512L950.999 13.9512L950.999 12L957.999 12ZM957.999 13.9512L959.604 7.13773C1045.34 27.3373 1109.09 108.66 1109.09 205.555L1102.09 205.555L1095.09 205.555C1095.09 114.716 1035.39 39.3762 956.394 20.7646L957.999 13.9512ZM1102.09 205.555L1109.09 205.555C1109.09 302.449 1045.34 383.77 959.604 403.97L957.999 397.156L956.394 390.343C1035.39 371.731 1095.09 296.393 1095.09 205.555L1102.09 205.555ZM957.999 397.156L964.999 397.156L964.999 399.108L957.999 399.108L950.999 399.108L950.999 397.156L957.999 397.156ZM957.999 399.108L956.412 392.291C1036.52 373.641 1096.99 297.364 1096.99 205.555L1103.99 205.555L1110.99 205.555C1110.99 303.427 1046.45 385.702 959.586 405.926L957.999 399.108Z" fill="white" mask="url(#path-6-outside-1_407_50377)"/>
<mask id="path-8-outside-2_407_50377" maskUnits="userSpaceOnUse" x="-3.0598e-07" y="5.1084" width="160" height="402" fill="black">
<rect fill="white" x="-3.0598e-07" y="5.1084" width="160" height="402"/>
<path d="M7.00001 206.555C7.00001 111.713 69.5065 32.4371 152.993 13L152.993 14.9512C70.6301 34.3567 8.89747 112.688 8.89747 206.555C8.89774 300.421 70.6303 378.751 152.993 398.156L152.993 400.108C69.5066 380.671 7.00028 301.396 7.00001 206.555Z"/>
</mask>
<path d="M7.00001 206.555C7.00001 111.713 69.5065 32.4371 152.993 13L152.993 14.9512C70.6301 34.3567 8.89747 112.688 8.89747 206.555C8.89774 300.421 70.6303 378.751 152.993 398.156L152.993 400.108C69.5066 380.671 7.00028 301.396 7.00001 206.555Z" fill="white"/>
<path d="M7.00001 206.555L8.4605e-06 206.555L8.4605e-06 206.555L7.00001 206.555ZM152.993 13L159.993 13C159.993 10.8644 159.018 8.84562 157.346 7.51774C155.673 6.18983 153.486 5.6981 151.406 6.18235L152.993 13ZM152.993 14.9512L154.598 21.7646C157.76 21.0198 159.993 18.1988 159.993 14.9512L152.993 14.9512ZM8.89747 206.555L1.89747 206.555L1.89747 206.555L8.89747 206.555ZM152.993 398.156L159.993 398.156C159.993 394.909 157.759 392.088 154.598 391.343L152.993 398.156ZM152.993 400.108L151.406 406.926C153.486 407.41 155.673 406.919 157.346 405.591C159.018 404.263 159.993 402.244 159.993 400.108L152.993 400.108ZM7.00001 206.555L14 206.555C14 114.745 74.4756 38.4674 154.58 19.8177L152.993 13L151.406 6.18235C64.5373 26.4068 1.27387e-05 108.682 8.4605e-06 206.555L7.00001 206.555ZM152.993 13L145.993 13L145.993 14.9512L152.993 14.9512L159.993 14.9512L159.993 13L152.993 13ZM152.993 14.9512L151.388 8.13773C65.6548 28.3373 1.89747 109.66 1.89747 206.555L8.89747 206.555L15.8975 206.555C15.8975 115.716 75.6054 40.3762 154.598 21.7646L152.993 14.9512ZM8.89747 206.555L1.89747 206.555C1.89775 303.449 65.6551 384.77 151.388 404.97L152.993 398.156L154.598 391.343C75.6055 372.731 15.8977 297.393 15.8975 206.555L8.89747 206.555ZM152.993 398.156L145.993 398.156L145.993 400.108L152.993 400.108L159.993 400.108L159.993 398.156L152.993 398.156ZM152.993 400.108L154.58 393.291C74.4758 374.641 14.0003 298.364 14 206.555L7.00001 206.555L8.4605e-06 206.555C0.000289808 304.427 64.5375 386.702 151.406 406.926L152.993 400.108Z" fill="white" mask="url(#path-8-outside-2_407_50377)"/>
</svg>
