<svg width="1909" height="771" viewBox="0 0 1909 771" fill="none" xmlns="http://www.w3.org/2000/svg">
<mask id="path-1-outside-1_319_36919" maskUnits="userSpaceOnUse" x="-0.230469" y="-0.230469" width="1909" height="771" fill="black">
<rect fill="white" x="-0.230469" y="-0.230469" width="1909" height="771"/>
<path d="M134.279 651.683H97.3004V155.338H37.7479V651.683H0.769531V11.3301H134.279V651.683Z"/>
<path d="M229.565 663.204C185.707 663.204 152.813 526.877 152.813 331.987C152.813 137.097 185.707 0.769531 229.565 0.769531C273.423 0.769531 306.102 137.097 306.102 331.987C306.102 526.877 273.423 663.204 229.565 663.204ZM229.565 517.276C253.214 517.276 268.478 435.672 268.478 331.987C268.478 227.341 253.214 146.697 229.565 146.697C205.701 146.697 190.437 227.341 190.437 331.987C190.437 435.672 205.701 517.276 229.565 517.276Z"/>
<path d="M480.594 11.3301H517.572V651.683H324.725V11.3301H361.704V507.676H402.767V11.3301H439.745V507.676H480.594V11.3301Z"/>
<path d="M535.331 663.204V517.276C548.66 517.276 557.26 481.755 561.345 335.827L569.944 11.3301H676.795V651.683H639.816V155.338H603.268L598.108 348.308C591.228 607.521 566.719 663.204 535.331 663.204Z"/>
<path d="M738.327 651.683H702.639V11.3301H739.617V388.63L797.665 11.3301H835.933V651.683H798.74V256.143L738.327 651.683Z"/>
<path d="M908.835 769.77V517.276C922.595 507.676 930.764 481.755 934.849 335.827L943.449 11.3301H1050.3V507.676H1063.2V769.77H1026.01V651.683H945.814V769.77H908.835ZM971.612 348.308C969.678 420.311 964.088 471.194 955.918 507.676H1013.32V155.338H976.772L971.612 348.308Z"/>
<path d="M1218.4 651.683H1176.47L1169.38 559.519H1112.84L1105.74 651.683H1063.82L1117.78 11.3301H1164.22L1218.4 651.683ZM1159.27 415.511L1141 174.539L1122.73 415.511H1159.27Z"/>
<path d="M1221.03 663.204V517.276C1234.36 517.276 1242.96 481.755 1247.05 335.827L1255.65 11.3301H1362.5V651.683H1325.52V155.338H1288.97L1283.81 348.308C1276.93 607.521 1252.42 663.204 1221.03 663.204Z"/>
<path d="M1388.34 11.3301H1425.32V226.381H1460.15C1492.4 226.381 1510.03 323.346 1510.03 438.552C1510.03 554.718 1492.4 651.683 1460.15 651.683H1388.34V11.3301ZM1455.2 370.389H1425.32V507.676H1455.2C1465.09 507.676 1472.4 482.715 1472.4 438.552C1472.4 395.35 1465.09 370.389 1455.2 370.389Z"/>
<path d="M1682.36 11.3301H1719.34V651.683H1526.49V11.3301H1563.47V507.676H1604.53V11.3301H1641.51V507.676H1682.36V11.3301Z"/>
<path d="M1850.18 651.683H1745.05V11.3301H1850.18V155.338H1782.03V255.183H1848.68V399.19H1782.03V507.676H1850.18V651.683Z"/>
<path d="M1902.39 427.992H1872.94L1867.78 11.3301H1907.34L1902.39 427.992ZM1887.56 662.244C1876.6 662.244 1867.57 620.962 1867.57 572.959C1867.57 523.997 1876.6 482.715 1887.56 482.715C1898.52 482.715 1907.77 523.997 1907.77 572.959C1907.77 620.962 1898.52 662.244 1887.56 662.244Z"/>
</mask>
<path d="M134.279 651.683H97.3004V155.338H37.7479V651.683H0.769531V11.3301H134.279V651.683Z" fill="#C3FB4F"/>
<path d="M229.565 663.204C185.707 663.204 152.813 526.877 152.813 331.987C152.813 137.097 185.707 0.769531 229.565 0.769531C273.423 0.769531 306.102 137.097 306.102 331.987C306.102 526.877 273.423 663.204 229.565 663.204ZM229.565 517.276C253.214 517.276 268.478 435.672 268.478 331.987C268.478 227.341 253.214 146.697 229.565 146.697C205.701 146.697 190.437 227.341 190.437 331.987C190.437 435.672 205.701 517.276 229.565 517.276Z" fill="#C3FB4F"/>
<path d="M480.594 11.3301H517.572V651.683H324.725V11.3301H361.704V507.676H402.767V11.3301H439.745V507.676H480.594V11.3301Z" fill="#C3FB4F"/>
<path d="M535.331 663.204V517.276C548.66 517.276 557.26 481.755 561.345 335.827L569.944 11.3301H676.795V651.683H639.816V155.338H603.268L598.108 348.308C591.228 607.521 566.719 663.204 535.331 663.204Z" fill="#C3FB4F"/>
<path d="M738.327 651.683H702.639V11.3301H739.617V388.63L797.665 11.3301H835.933V651.683H798.74V256.143L738.327 651.683Z" fill="#C3FB4F"/>
<path d="M908.835 769.77V517.276C922.595 507.676 930.764 481.755 934.849 335.827L943.449 11.3301H1050.3V507.676H1063.2V769.77H1026.01V651.683H945.814V769.77H908.835ZM971.612 348.308C969.678 420.311 964.088 471.194 955.918 507.676H1013.32V155.338H976.772L971.612 348.308Z" fill="#C3FB4F"/>
<path d="M1218.4 651.683H1176.47L1169.38 559.519H1112.84L1105.74 651.683H1063.82L1117.78 11.3301H1164.22L1218.4 651.683ZM1159.27 415.511L1141 174.539L1122.73 415.511H1159.27Z" fill="#C3FB4F"/>
<path d="M1221.03 663.204V517.276C1234.36 517.276 1242.96 481.755 1247.05 335.827L1255.65 11.3301H1362.5V651.683H1325.52V155.338H1288.97L1283.81 348.308C1276.93 607.521 1252.42 663.204 1221.03 663.204Z" fill="#C3FB4F"/>
<path d="M1388.34 11.3301H1425.32V226.381H1460.15C1492.4 226.381 1510.03 323.346 1510.03 438.552C1510.03 554.718 1492.4 651.683 1460.15 651.683H1388.34V11.3301ZM1455.2 370.389H1425.32V507.676H1455.2C1465.09 507.676 1472.4 482.715 1472.4 438.552C1472.4 395.35 1465.09 370.389 1455.2 370.389Z" fill="#C3FB4F"/>
<path d="M1682.36 11.3301H1719.34V651.683H1526.49V11.3301H1563.47V507.676H1604.53V11.3301H1641.51V507.676H1682.36V11.3301Z" fill="#C3FB4F"/>
<path d="M1850.18 651.683H1745.05V11.3301H1850.18V155.338H1782.03V255.183H1848.68V399.19H1782.03V507.676H1850.18V651.683Z" fill="#C3FB4F"/>
<path d="M1902.39 427.992H1872.94L1867.78 11.3301H1907.34L1902.39 427.992ZM1887.56 662.244C1876.6 662.244 1867.57 620.962 1867.57 572.959C1867.57 523.997 1876.6 482.715 1887.56 482.715C1898.52 482.715 1907.77 523.997 1907.77 572.959C1907.77 620.962 1898.52 662.244 1887.56 662.244Z" fill="#C3FB4F"/>
<path d="M134.279 651.683H97.3004V155.338H37.7479V651.683H0.769531V11.3301H134.279V651.683Z" stroke="#C3FB4F" stroke-width="1.53816" mask="url(#path-1-outside-1_319_36919)"/>
<path d="M229.565 663.204C185.707 663.204 152.813 526.877 152.813 331.987C152.813 137.097 185.707 0.769531 229.565 0.769531C273.423 0.769531 306.102 137.097 306.102 331.987C306.102 526.877 273.423 663.204 229.565 663.204ZM229.565 517.276C253.214 517.276 268.478 435.672 268.478 331.987C268.478 227.341 253.214 146.697 229.565 146.697C205.701 146.697 190.437 227.341 190.437 331.987C190.437 435.672 205.701 517.276 229.565 517.276Z" stroke="#C3FB4F" stroke-width="1.53816" mask="url(#path-1-outside-1_319_36919)"/>
<path d="M480.594 11.3301H517.572V651.683H324.725V11.3301H361.704V507.676H402.767V11.3301H439.745V507.676H480.594V11.3301Z" stroke="#C3FB4F" stroke-width="1.53816" mask="url(#path-1-outside-1_319_36919)"/>
<path d="M535.331 663.204V517.276C548.66 517.276 557.26 481.755 561.345 335.827L569.944 11.3301H676.795V651.683H639.816V155.338H603.268L598.108 348.308C591.228 607.521 566.719 663.204 535.331 663.204Z" stroke="#C3FB4F" stroke-width="1.53816" mask="url(#path-1-outside-1_319_36919)"/>
<path d="M738.327 651.683H702.639V11.3301H739.617V388.63L797.665 11.3301H835.933V651.683H798.74V256.143L738.327 651.683Z" stroke="#C3FB4F" stroke-width="1.53816" mask="url(#path-1-outside-1_319_36919)"/>
<path d="M908.835 769.77V517.276C922.595 507.676 930.764 481.755 934.849 335.827L943.449 11.3301H1050.3V507.676H1063.2V769.77H1026.01V651.683H945.814V769.77H908.835ZM971.612 348.308C969.678 420.311 964.088 471.194 955.918 507.676H1013.32V155.338H976.772L971.612 348.308Z" stroke="#C3FB4F" stroke-width="1.53816" mask="url(#path-1-outside-1_319_36919)"/>
<path d="M1218.4 651.683H1176.47L1169.38 559.519H1112.84L1105.74 651.683H1063.82L1117.78 11.3301H1164.22L1218.4 651.683ZM1159.27 415.511L1141 174.539L1122.73 415.511H1159.27Z" stroke="#C3FB4F" stroke-width="1.53816" mask="url(#path-1-outside-1_319_36919)"/>
<path d="M1221.03 663.204V517.276C1234.36 517.276 1242.96 481.755 1247.05 335.827L1255.65 11.3301H1362.5V651.683H1325.52V155.338H1288.97L1283.81 348.308C1276.93 607.521 1252.42 663.204 1221.03 663.204Z" stroke="#C3FB4F" stroke-width="1.53816" mask="url(#path-1-outside-1_319_36919)"/>
<path d="M1388.34 11.3301H1425.32V226.381H1460.15C1492.4 226.381 1510.03 323.346 1510.03 438.552C1510.03 554.718 1492.4 651.683 1460.15 651.683H1388.34V11.3301ZM1455.2 370.389H1425.32V507.676H1455.2C1465.09 507.676 1472.4 482.715 1472.4 438.552C1472.4 395.35 1465.09 370.389 1455.2 370.389Z" stroke="#C3FB4F" stroke-width="1.53816" mask="url(#path-1-outside-1_319_36919)"/>
<path d="M1682.36 11.3301H1719.34V651.683H1526.49V11.3301H1563.47V507.676H1604.53V11.3301H1641.51V507.676H1682.36V11.3301Z" stroke="#C3FB4F" stroke-width="1.53816" mask="url(#path-1-outside-1_319_36919)"/>
<path d="M1850.18 651.683H1745.05V11.3301H1850.18V155.338H1782.03V255.183H1848.68V399.19H1782.03V507.676H1850.18V651.683Z" stroke="#C3FB4F" stroke-width="1.53816" mask="url(#path-1-outside-1_319_36919)"/>
<path d="M1902.39 427.992H1872.94L1867.78 11.3301H1907.34L1902.39 427.992ZM1887.56 662.244C1876.6 662.244 1867.57 620.962 1867.57 572.959C1867.57 523.997 1876.6 482.715 1887.56 482.715C1898.52 482.715 1907.77 523.997 1907.77 572.959C1907.77 620.962 1898.52 662.244 1887.56 662.244Z" stroke="#C3FB4F" stroke-width="1.53816" mask="url(#path-1-outside-1_319_36919)"/>
</svg>
