<svg width="2257" height="783" viewBox="0 0 2257 783" fill="none" xmlns="http://www.w3.org/2000/svg">
<path d="M2256.11 783H340.113V782.698C336.902 782.647 333.815 780.712 332.547 777.445C312.884 726.802 211.135 489.91 8.51147 432.874C-0.887995 430.228 -3.39966 398.318 5.55737 394.43C208.116 306.509 311.965 62.8526 333.74 6.32031C334.862 3.40789 337.375 1.6406 340.113 1.2334V0H2256.11V783Z" fill="#0053FF"/>
<mask id="path-2-outside-1_320_36930" maskUnits="userSpaceOnUse" x="348.113" y="3" width="1909" height="771" fill="black">
<rect fill="white" x="348.113" y="3" width="1909" height="771"/>
<path d="M482.623 654.914H445.644V158.568H386.092V654.914H349.113V14.5605H482.623V654.914Z"/>
<path d="M577.909 666.434C534.051 666.434 501.157 530.107 501.157 335.217C501.157 140.327 534.051 4 577.909 4C621.767 4 654.446 140.327 654.446 335.217C654.446 530.107 621.767 666.434 577.909 666.434ZM577.909 520.507C601.558 520.507 616.822 438.903 616.822 335.217C616.822 230.572 601.558 149.928 577.909 149.928C554.045 149.928 538.78 230.572 538.78 335.217C538.78 438.903 554.045 520.507 577.909 520.507Z"/>
<path d="M828.937 14.5605H865.916V654.914H673.069V14.5605H710.047V510.906H751.111V14.5605H788.089V510.906H828.937V14.5605Z"/>
<path d="M883.674 666.434V520.507C897.004 520.507 905.603 484.985 909.688 339.057L918.288 14.5605H1025.14V654.914H988.16V158.568H951.611L946.452 351.538C939.572 610.752 915.063 666.434 883.674 666.434Z"/>
<path d="M1086.67 654.914H1050.98V14.5605H1087.96V391.86L1146.01 14.5605H1184.28V654.914H1147.08V259.373L1086.67 654.914Z"/>
<path d="M1257.18 773V520.507C1270.94 510.906 1279.11 484.985 1283.19 339.057L1291.79 14.5605H1398.64V510.906H1411.54V773H1374.35V654.914H1294.16V773H1257.18ZM1319.96 351.538C1318.02 423.542 1312.43 474.424 1304.26 510.906H1361.66V158.568H1325.12L1319.96 351.538Z"/>
<path d="M1566.74 654.914H1524.82L1517.72 562.749H1461.18L1454.09 654.914H1412.16L1466.12 14.5605H1512.56L1566.74 654.914ZM1507.62 418.742L1489.34 177.769L1471.07 418.742H1507.62Z"/>
<path d="M1569.38 666.434V520.507C1582.71 520.507 1591.31 484.985 1595.39 339.057L1603.99 14.5605H1710.84V654.914H1673.86V158.568H1637.31L1632.15 351.538C1625.27 610.752 1600.77 666.434 1569.38 666.434Z"/>
<path d="M1736.69 14.5605H1773.66V229.612H1808.49C1840.74 229.612 1858.37 326.577 1858.37 441.783C1858.37 557.949 1840.74 654.914 1808.49 654.914H1736.69V14.5605ZM1803.55 373.619H1773.66V510.906H1803.55C1813.44 510.906 1820.75 485.945 1820.75 441.783C1820.75 398.581 1813.44 373.619 1803.55 373.619Z"/>
<path d="M2030.7 14.5605H2067.68V654.914H1874.83V14.5605H1911.81V510.906H1952.88V14.5605H1989.85V510.906H2030.7V14.5605Z"/>
<path d="M2198.52 654.914H2093.39V14.5605H2198.52V158.568H2130.37V258.413H2197.02V402.421H2130.37V510.906H2198.52V654.914Z"/>
<path d="M2250.74 431.222H2221.28L2216.13 14.5605H2255.68L2250.74 431.222ZM2235.9 665.474C2224.94 665.474 2215.91 624.192 2215.91 576.19C2215.91 527.227 2224.94 485.945 2235.9 485.945C2246.87 485.945 2256.11 527.227 2256.11 576.19C2256.11 624.192 2246.87 665.474 2235.9 665.474Z"/>
</mask>
<path d="M482.623 654.914H445.644V158.568H386.092V654.914H349.113V14.5605H482.623V654.914Z" fill="#C3FB4F"/>
<path d="M577.909 666.434C534.051 666.434 501.157 530.107 501.157 335.217C501.157 140.327 534.051 4 577.909 4C621.767 4 654.446 140.327 654.446 335.217C654.446 530.107 621.767 666.434 577.909 666.434ZM577.909 520.507C601.558 520.507 616.822 438.903 616.822 335.217C616.822 230.572 601.558 149.928 577.909 149.928C554.045 149.928 538.78 230.572 538.78 335.217C538.78 438.903 554.045 520.507 577.909 520.507Z" fill="#C3FB4F"/>
<path d="M828.937 14.5605H865.916V654.914H673.069V14.5605H710.047V510.906H751.111V14.5605H788.089V510.906H828.937V14.5605Z" fill="#C3FB4F"/>
<path d="M883.674 666.434V520.507C897.004 520.507 905.603 484.985 909.688 339.057L918.288 14.5605H1025.14V654.914H988.16V158.568H951.611L946.452 351.538C939.572 610.752 915.063 666.434 883.674 666.434Z" fill="#C3FB4F"/>
<path d="M1086.67 654.914H1050.98V14.5605H1087.96V391.86L1146.01 14.5605H1184.28V654.914H1147.08V259.373L1086.67 654.914Z" fill="#C3FB4F"/>
<path d="M1257.18 773V520.507C1270.94 510.906 1279.11 484.985 1283.19 339.057L1291.79 14.5605H1398.64V510.906H1411.54V773H1374.35V654.914H1294.16V773H1257.18ZM1319.96 351.538C1318.02 423.542 1312.43 474.424 1304.26 510.906H1361.66V158.568H1325.12L1319.96 351.538Z" fill="#C3FB4F"/>
<path d="M1566.74 654.914H1524.82L1517.72 562.749H1461.18L1454.09 654.914H1412.16L1466.12 14.5605H1512.56L1566.74 654.914ZM1507.62 418.742L1489.34 177.769L1471.07 418.742H1507.62Z" fill="#C3FB4F"/>
<path d="M1569.38 666.434V520.507C1582.71 520.507 1591.31 484.985 1595.39 339.057L1603.99 14.5605H1710.84V654.914H1673.86V158.568H1637.31L1632.15 351.538C1625.27 610.752 1600.77 666.434 1569.38 666.434Z" fill="#C3FB4F"/>
<path d="M1736.69 14.5605H1773.66V229.612H1808.49C1840.74 229.612 1858.37 326.577 1858.37 441.783C1858.37 557.949 1840.74 654.914 1808.49 654.914H1736.69V14.5605ZM1803.55 373.619H1773.66V510.906H1803.55C1813.44 510.906 1820.75 485.945 1820.75 441.783C1820.75 398.581 1813.44 373.619 1803.55 373.619Z" fill="#C3FB4F"/>
<path d="M2030.7 14.5605H2067.68V654.914H1874.83V14.5605H1911.81V510.906H1952.88V14.5605H1989.85V510.906H2030.7V14.5605Z" fill="#C3FB4F"/>
<path d="M2198.52 654.914H2093.39V14.5605H2198.52V158.568H2130.37V258.413H2197.02V402.421H2130.37V510.906H2198.52V654.914Z" fill="#C3FB4F"/>
<path d="M2250.74 431.222H2221.28L2216.13 14.5605H2255.68L2250.74 431.222ZM2235.9 665.474C2224.94 665.474 2215.91 624.192 2215.91 576.19C2215.91 527.227 2224.94 485.945 2235.9 485.945C2246.87 485.945 2256.11 527.227 2256.11 576.19C2256.11 624.192 2246.87 665.474 2235.9 665.474Z" fill="#C3FB4F"/>
<path d="M482.623 654.914H445.644V158.568H386.092V654.914H349.113V14.5605H482.623V654.914Z" stroke="#C3FB4F" stroke-width="1.53816" mask="url(#path-2-outside-1_320_36930)"/>
<path d="M577.909 666.434C534.051 666.434 501.157 530.107 501.157 335.217C501.157 140.327 534.051 4 577.909 4C621.767 4 654.446 140.327 654.446 335.217C654.446 530.107 621.767 666.434 577.909 666.434ZM577.909 520.507C601.558 520.507 616.822 438.903 616.822 335.217C616.822 230.572 601.558 149.928 577.909 149.928C554.045 149.928 538.78 230.572 538.78 335.217C538.78 438.903 554.045 520.507 577.909 520.507Z" stroke="#C3FB4F" stroke-width="1.53816" mask="url(#path-2-outside-1_320_36930)"/>
<path d="M828.937 14.5605H865.916V654.914H673.069V14.5605H710.047V510.906H751.111V14.5605H788.089V510.906H828.937V14.5605Z" stroke="#C3FB4F" stroke-width="1.53816" mask="url(#path-2-outside-1_320_36930)"/>
<path d="M883.674 666.434V520.507C897.004 520.507 905.603 484.985 909.688 339.057L918.288 14.5605H1025.14V654.914H988.16V158.568H951.611L946.452 351.538C939.572 610.752 915.063 666.434 883.674 666.434Z" stroke="#C3FB4F" stroke-width="1.53816" mask="url(#path-2-outside-1_320_36930)"/>
<path d="M1086.67 654.914H1050.98V14.5605H1087.96V391.86L1146.01 14.5605H1184.28V654.914H1147.08V259.373L1086.67 654.914Z" stroke="#C3FB4F" stroke-width="1.53816" mask="url(#path-2-outside-1_320_36930)"/>
<path d="M1257.18 773V520.507C1270.94 510.906 1279.11 484.985 1283.19 339.057L1291.79 14.5605H1398.64V510.906H1411.54V773H1374.35V654.914H1294.16V773H1257.18ZM1319.96 351.538C1318.02 423.542 1312.43 474.424 1304.26 510.906H1361.66V158.568H1325.12L1319.96 351.538Z" stroke="#C3FB4F" stroke-width="1.53816" mask="url(#path-2-outside-1_320_36930)"/>
<path d="M1566.74 654.914H1524.82L1517.72 562.749H1461.18L1454.09 654.914H1412.16L1466.12 14.5605H1512.56L1566.74 654.914ZM1507.62 418.742L1489.34 177.769L1471.07 418.742H1507.62Z" stroke="#C3FB4F" stroke-width="1.53816" mask="url(#path-2-outside-1_320_36930)"/>
<path d="M1569.38 666.434V520.507C1582.71 520.507 1591.31 484.985 1595.39 339.057L1603.99 14.5605H1710.84V654.914H1673.86V158.568H1637.31L1632.15 351.538C1625.27 610.752 1600.77 666.434 1569.38 666.434Z" stroke="#C3FB4F" stroke-width="1.53816" mask="url(#path-2-outside-1_320_36930)"/>
<path d="M1736.69 14.5605H1773.66V229.612H1808.49C1840.74 229.612 1858.37 326.577 1858.37 441.783C1858.37 557.949 1840.74 654.914 1808.49 654.914H1736.69V14.5605ZM1803.55 373.619H1773.66V510.906H1803.55C1813.44 510.906 1820.75 485.945 1820.75 441.783C1820.75 398.581 1813.44 373.619 1803.55 373.619Z" stroke="#C3FB4F" stroke-width="1.53816" mask="url(#path-2-outside-1_320_36930)"/>
<path d="M2030.7 14.5605H2067.68V654.914H1874.83V14.5605H1911.81V510.906H1952.88V14.5605H1989.85V510.906H2030.7V14.5605Z" stroke="#C3FB4F" stroke-width="1.53816" mask="url(#path-2-outside-1_320_36930)"/>
<path d="M2198.52 654.914H2093.39V14.5605H2198.52V158.568H2130.37V258.413H2197.02V402.421H2130.37V510.906H2198.52V654.914Z" stroke="#C3FB4F" stroke-width="1.53816" mask="url(#path-2-outside-1_320_36930)"/>
<path d="M2250.74 431.222H2221.28L2216.13 14.5605H2255.68L2250.74 431.222ZM2235.9 665.474C2224.94 665.474 2215.91 624.192 2215.91 576.19C2215.91 527.227 2224.94 485.945 2235.9 485.945C2246.87 485.945 2256.11 527.227 2256.11 576.19C2256.11 624.192 2246.87 665.474 2235.9 665.474Z" stroke="#C3FB4F" stroke-width="1.53816" mask="url(#path-2-outside-1_320_36930)"/>
</svg>
